<svg width="69" height="69" viewBox="0 0 69 69" fill="none" xmlns="http://www.w3.org/2000/svg">
<path d="M34.1159 68.2392C52.9576 68.2392 68.2319 52.9633 68.2319 34.1196C68.2319 15.2759 52.9576 0 34.1159 0C15.2742 0 0 15.2759 0 34.1196C0 52.9633 15.2742 68.2392 34.1159 68.2392Z" fill="#91002B"/>
<path d="M34.116 66.6461C52.0778 66.6461 66.6387 52.0836 66.6387 34.1199C66.6387 16.1561 52.0778 1.59363 34.116 1.59363C16.1542 1.59363 1.59326 16.1561 1.59326 34.1199C1.59326 52.0836 16.1542 66.6461 34.116 66.6461Z" fill="url(#paint0_linear_508_231)"/>
<path d="M34.1157 5.69086C47.3844 5.69086 58.9041 12.7232 64.7019 23.0422C60.1699 10.5308 48.187 1.59363 34.1157 1.59363C20.0445 1.59363 8.05769 10.5308 3.52966 23.0422C9.32745 12.7232 20.8471 5.69086 34.1157 5.69086Z" fill="#FF98B8"/>
<path d="M34.1157 62.5446C20.8471 62.5446 9.32745 55.5122 3.52966 45.1932C8.06168 57.7046 20.0445 66.6418 34.1157 66.6418C48.187 66.6418 60.1739 57.7046 64.7019 45.1932C58.9041 55.5122 47.3844 62.5446 34.1157 62.5446Z" fill="#C7003B"/>
<path d="M17.569 12.3078C18.4355 13.8053 20.9431 13.9811 23.1711 12.6912C25.3992 11.4053 26.5052 9.14505 25.6388 7.64753C24.7723 6.15 22.2647 5.97431 20.0366 7.26418C17.8085 8.55005 16.7025 10.8103 17.569 12.3078Z" fill="white"/>
<path d="M27.0802 10.0881C27.4915 10.8029 28.6893 10.8868 29.7515 10.2718C30.8136 9.65684 31.3407 8.57863 30.9294 7.86382C30.5181 7.149 29.3202 7.06513 28.2581 7.68011C27.196 8.29509 26.6689 9.3733 27.0802 10.0881Z" fill="white"/>
<path opacity="0.7" d="M54.5799 55.5242C55.2866 56.6065 54.4401 58.4115 52.6832 59.5616C50.9303 60.7117 48.9339 60.7676 48.2231 59.6894C47.5163 58.6071 48.3629 56.8021 50.1198 55.652C51.8767 54.5019 53.8691 54.446 54.5799 55.5242Z" fill="white"/>
<path d="M43.172 35.3144L49.4609 29.0247C50.3593 28.1262 50.8424 26.9801 50.8863 25.866C50.9263 24.8117 50.5749 23.7854 49.8162 23.0227L46.7017 19.9078C45.971 19.177 44.9888 18.8216 43.9746 18.8376C42.8286 18.8536 41.6346 19.3328 40.7043 20.2632L34.4153 26.5528L28.1264 20.2632C27.228 19.3647 26.082 18.8815 24.968 18.8376C23.9139 18.7977 22.8876 19.1491 22.125 19.9078L19.0105 23.0227C18.2798 23.7535 17.9244 24.7358 17.9403 25.7502C17.9563 26.8963 18.4355 28.0903 19.3659 29.0208L25.6548 35.3104L19.3659 41.6C18.4115 42.5544 17.9323 43.7804 17.9403 44.9504C17.9483 45.9368 18.2998 46.8872 19.0105 47.598L22.125 50.7129C22.9036 51.4916 23.9657 51.843 25.0518 51.7791C26.1379 51.7152 27.2479 51.236 28.1264 50.3575L34.4153 44.0679L40.7043 50.3575C41.6586 51.3119 42.8845 51.7911 44.0544 51.7831C45.0407 51.7751 45.9909 51.4237 46.7017 50.7129L49.8162 47.598C50.5949 46.8193 50.9462 45.7571 50.8823 44.6709C50.8184 43.5847 50.3394 42.4745 49.4609 41.596L43.172 35.3064V35.3144Z" fill="#91002B"/>
<path d="M42.577 32.9264L48.8659 26.6368C49.7643 25.7383 50.2474 24.5922 50.2914 23.478C50.3313 22.4238 49.9799 21.3975 49.2213 20.6347L46.1067 17.5199C45.376 16.7891 44.3937 16.4337 43.3795 16.4496C42.2335 16.4656 41.0396 16.9448 40.1093 17.8753L33.8204 24.1649L27.5314 17.8753C26.633 16.9768 25.4871 16.4936 24.373 16.4496C23.3189 16.4097 22.2926 16.7611 21.53 17.5199L18.4155 20.6347C17.6848 21.3655 17.3294 22.3479 17.3454 23.3622C17.3613 24.5083 17.8405 25.7024 18.7709 26.6328L25.0598 32.9224L18.7709 39.212C17.8166 40.1664 17.3374 41.3924 17.3454 42.5625C17.3533 43.5488 17.7048 44.4993 18.4155 45.2101L21.53 48.3249C22.3086 49.1036 23.3708 49.4551 24.4569 49.3912C25.543 49.3273 26.653 48.8481 27.5314 47.9695L33.8204 41.6799L40.1093 47.9695C41.0636 48.924 42.2895 49.4032 43.4594 49.3952C44.4457 49.3872 45.396 49.0358 46.1067 48.3249L49.2213 45.2101C49.9999 44.4314 50.3512 43.3691 50.2874 42.2829C50.2235 41.1967 49.7444 40.0866 48.8659 39.208L42.577 32.9184V32.9264Z" fill="white"/>
<defs>
<linearGradient id="paint0_linear_508_231" x1="34.116" y1="66.6461" x2="34.116" y2="1.59363" gradientUnits="userSpaceOnUse">
<stop stop-color="#F32A66"/>
<stop offset="1" stop-color="#FC6C98"/>
</linearGradient>
</defs>
</svg>
