<svg width="65" height="117" viewBox="0 0 65 117" fill="none" xmlns="http://www.w3.org/2000/svg">
<path d="M59.5585 24.0184C59.6481 23.8086 59.7429 23.6002 59.8378 23.3917C55.1621 17.5291 45.7388 12.3262 38.2055 15.1958C37.8624 15.8945 37.5321 16.6077 37.2046 17.3105C45.2738 14.9965 54.1312 18.9454 58.8464 25.637C59.0851 25.0996 59.3251 24.5571 59.5585 24.0184Z" fill="white"/>
<path d="M57.1092 29.5644C57.5701 28.5299 58.0272 27.4888 58.4844 26.4477C58.4754 26.4397 58.465 26.4369 58.4588 26.4186C53.3501 19.0759 45.5787 16.5593 37.0045 17.7248C35.6483 20.6461 34.3554 23.6012 32.9868 26.4858C30.4471 31.8292 27.9112 37.1791 25.3716 42.5225C20.9236 51.892 16.5106 61.2764 12.0224 70.6295C16.2703 69.8192 21.4985 70.8359 25.2926 72.6542C28.8692 74.3697 31.6273 77.2912 33.3353 80.8276C37.0177 73.235 40.6537 65.6077 44.2184 57.9557C42.8693 58.3569 41.4592 58.2797 40.0198 57.4598C35.1665 55.5636 34.2027 49.5821 35.2752 44.9145C36.5629 39.3192 39.4655 33.1823 44.1722 29.6833C47.8089 26.9777 53.9367 25.6133 57.1092 29.5644Z" fill="#FFA500"/>
<path d="M60.1811 22.5875C61.0339 20.589 61.8037 18.4849 61.6238 16.3099C61.3479 12.9345 58.615 10.6879 55.8869 9.08844C50.8558 6.13138 43.8459 4.72074 40.4802 10.7781C39.7929 12.0136 39.1429 13.2758 38.5189 14.545C42.0812 13.1557 46.3987 14.101 49.871 15.3543C53.9177 16.8116 57.4436 19.2985 60.1797 22.5927L60.1811 22.5875Z" fill="#FFA500"/>
<path d="M44.7705 56.7673C48.8182 48.0811 52.7819 39.3558 56.6496 30.5936C55.3633 28.6622 53.0284 27.5689 50.2449 27.9421C44.1067 28.7637 40.1887 34.3892 37.9553 39.6699C35.657 45.0891 33.8695 53.2562 39.93 56.5893C39.9743 56.5901 40.0197 56.6078 40.0703 56.6269C41.7054 57.4436 43.2795 57.3866 44.7705 56.7673Z" fill="white"/>
<path d="M32.4567 82.652C32.6081 82.3363 32.7595 82.0205 32.9109 81.7048C29.3972 73.7707 20.2189 69.8972 11.8234 71.0605C11.5355 71.657 11.2528 72.2549 10.9649 72.8514C18.8861 71.1936 28.556 75.5384 32.4553 82.6572L32.4567 82.652Z" fill="white"/>
<path d="M32.1515 83.2716C32.1515 83.2716 32.1089 83.2435 32.0937 83.2171C26.81 75.9667 19.7595 72.5466 10.8191 73.1462C10.0405 74.7637 9.26713 76.3826 8.48475 77.9935C16.499 78.7101 24.0828 81.9892 30.3259 87.0303C30.9392 85.7805 31.5434 84.5228 32.1529 83.2664L32.1515 83.2716Z" fill="#FFA500"/>
<path d="M9.45133 107.464C16.7224 101.418 23.4748 94.7928 29.7404 87.7197C23.5022 82.6187 16.2326 79.6631 8.27659 78.5836C8.83492 88.1977 9.08492 97.8405 9.45133 107.464Z" fill="#FFA500"/>
<g style="mix-blend-mode:multiply" opacity="0.6">
<path d="M9.26716 102.354C9.32852 104.058 9.38468 105.76 9.45122 107.465C16.7222 101.418 23.4747 94.7928 29.7403 87.7198C28.653 86.8327 27.5357 86.0156 26.3928 85.2528C26.5663 85.0209 26.7412 84.7838 26.916 84.5468C28.0901 85.3179 29.2319 86.1472 30.3259 87.0304C30.9391 85.7806 31.5434 84.5229 32.1528 83.2665C32.1296 83.2491 32.1102 83.2384 32.095 83.212C31.3504 82.1885 30.5666 81.2492 29.7477 80.3784C29.9205 80.1074 30.0882 79.8349 30.2558 79.5625C31.1072 80.52 31.8635 81.541 32.4646 82.643C32.616 82.3272 32.7674 82.0115 32.9189 81.6958C32.3872 80.5011 31.7314 79.3956 30.9656 78.3887C31.1093 78.1433 31.2568 77.9044 31.4005 77.659C32.1511 78.6395 32.801 79.7045 33.3418 80.8237C37.0242 73.231 40.6602 65.6037 44.2249 57.9517C44.4726 57.8789 44.7128 57.793 44.9533 57.6848C45.2064 57.2182 45.4529 56.7553 45.7112 56.2901L45.9494 56.3984C41.0983 66.8568 36.1267 77.2663 31.0478 87.6191C31.0005 87.7123 30.9343 87.7725 30.8619 87.8143C24.2701 95.3567 17.0524 102.264 9.32237 108.61C9.1015 108.79 8.70506 108.629 8.69432 108.336C8.6313 106.577 8.5579 104.814 8.48968 103.054C8.75184 102.823 9.0102 102.586 9.27236 102.356L9.26716 102.354Z" fill="#363636"/>
</g>
<g style="mix-blend-mode:multiply" opacity="0.6">
<path d="M58.159 29.4279C58.0315 29.7167 57.9027 30.0106 57.77 30.298L57.5706 30.2112C57.4257 29.9831 57.2728 29.7639 57.1078 29.5694C57.5688 28.5349 58.0259 27.4938 58.483 26.4527C58.474 26.4447 58.4636 26.442 58.4574 26.4236C57.8906 25.6092 57.285 24.8568 56.6602 24.1549C56.7703 23.8893 56.8714 23.6158 56.9712 23.3474C57.6465 24.0684 58.2767 24.833 58.8463 25.637C59.0849 25.0997 59.3249 24.5571 59.5584 24.0184C59.648 23.8086 59.7428 23.6002 59.8376 23.3918C59.2054 22.5932 58.4737 21.8126 57.6841 21.061C57.753 20.7621 57.8154 20.4671 57.8673 20.1692C58.6909 20.9188 59.4704 21.7289 60.185 22.5941C61.0378 20.5956 61.8076 18.4914 61.6277 16.3165C61.3518 12.9411 58.6189 10.6945 55.8908 9.09502C51.0819 6.26432 44.4659 4.859 40.9534 10.0308C40.5067 10.1394 40.0639 10.2545 39.6324 10.3895C40.1851 9.40738 40.8239 8.49848 41.6437 7.76612C44.6714 5.04768 49.0893 5.22375 52.6799 6.57557C56.4132 7.97674 61.0415 10.6087 62.2351 14.7144C63.6402 19.5893 60.0461 25.1902 58.1666 29.4411L58.159 29.4279Z" fill="#363636"/>
</g>
<g style="mix-blend-mode:multiply" opacity="0.6">
<path d="M57.7751 30.2996L57.5757 30.2128C57.3848 30.5513 57.199 30.8913 57.0251 31.2288C56.9166 31.0104 56.7911 30.7931 56.6548 30.5951C52.7871 39.3574 48.8183 48.0813 44.7757 56.7689C45.0935 56.6425 45.4041 56.4807 45.7085 56.3006L45.9467 56.409C47.3623 53.3699 48.7637 50.3215 50.1533 47.2755C52.7293 41.6301 55.2704 35.9697 57.7765 30.2944L57.7751 30.2996Z" fill="#363636"/>
</g>
<g style="mix-blend-mode:multiply" opacity="0.6">
<path d="M57.0252 31.2287C57.1992 30.8911 57.3863 30.546 57.5758 30.2126C57.431 29.9845 57.2781 29.7654 57.1131 29.5709C56.9651 29.9154 56.8185 30.2547 56.6602 30.5964C56.795 30.7995 56.9167 31.0103 57.0304 31.23L57.0252 31.2287Z" fill="#363636"/>
</g>
<g style="mix-blend-mode:multiply" opacity="0.6">
<path d="M44.9441 57.699C45.1972 57.2323 45.4437 56.7695 45.702 56.3042C45.3976 56.4843 45.0832 56.6395 44.7692 56.7725C44.5852 57.1686 44.3997 57.5698 44.2156 57.9659C44.4634 57.8931 44.7036 57.8071 44.9441 57.699Z" fill="#363636"/>
</g>
<g style="mix-blend-mode:multiply" opacity="0.6">
<path d="M57.6803 21.0544C58.4751 21.8074 59.2002 22.5918 59.8339 23.3851C59.7443 23.595 59.6495 23.8034 59.5546 24.0118C59.3212 24.5505 59.0812 25.0931 58.8426 25.6304C58.273 24.8264 57.648 24.0632 56.9674 23.3408C57.2489 22.5812 57.4941 21.8117 57.6765 21.0478L57.6803 21.0544Z" fill="#EBFBFF"/>
</g>
<g style="mix-blend-mode:multiply" opacity="0.6">
<path d="M40.9377 58.6465C41.0405 58.4291 41.1447 58.2065 41.2527 57.9905C42.2652 58.2841 43.2598 58.2499 44.2221 57.9622C40.6575 65.6142 37.0229 73.2363 33.3391 80.8341C32.7945 79.7083 32.1431 78.6486 31.3978 77.6694C34.9631 71.5319 37.9061 64.9326 40.9415 58.6531L40.9377 58.6465Z" fill="#FFA500"/>
</g>
<g style="mix-blend-mode:multiply" opacity="0.6">
<path d="M57.1093 29.5643C56.4998 28.8053 55.7761 28.2439 54.9858 27.8484C55.5456 26.6734 56.1419 25.4246 56.655 24.1536C57.2864 24.8516 57.8868 25.6027 58.4522 26.4222C58.465 26.4368 58.4688 26.4434 58.4778 26.4514C58.0221 27.4873 57.5584 28.5322 57.1027 29.5681L57.1093 29.5643Z" fill="#FFA500"/>
</g>
<g style="mix-blend-mode:multiply" opacity="0.6">
<path d="M54.991 27.8498C55.7813 28.2453 56.4998 28.8052 57.1145 29.5656C56.9665 29.9101 56.8199 30.2494 56.6615 30.5911C56.1373 29.8049 55.4321 29.1538 54.5933 28.6897C54.7232 28.4127 54.8597 28.1319 54.991 27.8498Z" fill="#363636"/>
</g>
<g style="mix-blend-mode:multiply" opacity="0.6">
<path d="M41.6504 57.1505C42.7247 57.3381 43.7683 57.1835 44.7706 56.7673C44.5865 57.1633 44.401 57.5646 44.217 57.9607C43.2547 58.2484 42.2653 58.2839 41.2475 57.989C41.384 57.7082 41.5139 57.4312 41.6504 57.1505Z" fill="#363636"/>
</g>
<g style="mix-blend-mode:multiply" opacity="0.6">
<path d="M57.862 20.1678C58.29 17.6769 57.958 15.2385 56.0234 13.1502C52.4233 9.25709 46.3178 8.75131 40.9532 10.0307C44.4658 4.85895 51.0804 6.26947 55.8907 9.09497C58.6136 10.6931 61.3465 12.9397 61.6275 16.3164C61.8089 18.4862 61.0377 20.5956 60.1849 22.594C59.465 21.7275 58.6894 20.9239 57.8672 20.1692L57.862 20.1678Z" fill="#FFA500"/>
</g>
<g style="mix-blend-mode:multiply" opacity="0.6">
<path d="M54.0883 29.7848C54.2443 29.4313 54.4148 29.065 54.5919 28.6949C55.4293 29.1642 56.1307 29.8087 56.6601 30.5963C52.7924 39.3586 48.8236 48.0825 44.781 56.7701C43.7787 57.1863 42.7352 57.3409 41.6608 57.1533C45.9924 48.1145 50.0092 38.9413 54.0935 29.7861L54.0883 29.7848Z" fill="#EBFBFF"/>
</g>
<g style="mix-blend-mode:multiply" opacity="0.6">
<path d="M30.9578 78.3979C31.7235 79.4048 32.3859 80.5064 32.911 81.7049C32.7596 82.0207 32.6082 82.3364 32.4568 82.6522C31.8557 81.5502 31.0993 80.5292 30.248 79.5717C30.4868 79.1792 30.7242 78.7918 30.9578 78.3979Z" fill="#EBFBFF"/>
</g>
<g style="mix-blend-mode:multiply" opacity="0.6">
<path d="M30.3247 87.0355C29.2255 86.1509 28.0889 85.323 26.9148 84.5519C27.9054 83.2028 28.8445 81.8176 29.7451 80.3887C30.564 81.2595 31.3478 82.1989 32.0924 83.2223C32.109 83.2435 32.1322 83.2608 32.1502 83.2768C31.5408 84.5332 30.9379 85.7858 30.3233 87.0407L30.3247 87.0355Z" fill="#FFA500"/>
</g>
<g style="mix-blend-mode:multiply" opacity="0.6">
<path d="M26.1954 85.5117C26.2634 85.4241 26.3262 85.3351 26.3876 85.2514C27.5319 86.009 28.6543 86.8275 29.7351 87.7183C23.4747 94.7928 16.717 101.417 9.44603 107.463C9.37948 105.758 9.32332 104.056 9.26196 102.353C15.2199 97.0515 21.3274 91.8568 26.1902 85.5103L26.1954 85.5117Z" fill="#FFA500"/>
</g>
<g style="mix-blend-mode:soft-light">
<path d="M16.8245 75.1896C15.9673 76.7471 13.651 75.7924 14.2655 74.0808C15.6436 70.2467 17.6977 66.5492 19.511 62.8985C21.1986 59.5092 22.8051 55.9033 25.132 52.8913C25.2586 52.7304 25.5502 52.8475 25.5115 53.0543C24.7927 56.7755 23.1579 60.3627 21.7373 63.8569C20.2037 67.6271 18.7905 71.6132 16.8259 75.1844L16.8245 75.1896Z" fill="white"/>
</g>
<path d="M58.1589 29.4282C60.0384 25.1772 63.6377 19.5777 62.2274 14.7014C61.0338 10.5958 56.4107 7.96519 52.6722 6.56262C49.0816 5.2108 44.6572 5.03853 41.636 7.75316C39.6521 9.52646 38.7048 12.3347 37.5945 14.6706C36.146 17.7286 34.6885 20.7787 33.24 23.8368C30.4134 29.7937 27.5817 35.7491 24.7552 41.706C19.0226 53.7711 13.2149 65.8048 7.60147 77.9241C7.52576 78.0819 7.56127 78.2195 7.64568 78.32C7.80863 88.3293 8.3225 98.3379 8.69435 108.336C8.70508 108.629 9.10152 108.791 9.3224 108.61C17.0524 102.264 24.2701 95.3568 30.8525 87.8286C30.9249 87.7868 30.9912 87.7266 31.0384 87.6335C36.1173 77.2806 41.0889 66.8712 45.9401 56.4128L45.7019 56.3044C45.4436 56.7697 45.1971 57.2325 44.944 57.6992C44.7035 57.8073 44.4633 57.8933 44.2155 57.9661C40.6509 65.6181 37.0162 73.2402 33.3325 80.838C31.6244 77.3016 28.8664 74.3801 25.2897 72.6646C21.4956 70.8463 16.2727 69.831 12.0196 70.6399C16.5063 61.292 20.9207 51.9024 25.3687 42.5329C27.9098 37.1843 30.4442 31.8396 32.9839 26.4962C34.3526 23.6116 35.6468 20.6513 37.0016 17.7352C45.5759 16.5697 53.3486 19.0811 58.4559 26.429C58.4687 26.4436 58.4725 26.4501 58.4815 26.4581C58.0258 27.494 57.5621 28.5389 57.1064 29.5748C57.27 29.7745 57.4242 29.9885 57.5691 30.2166L57.7685 30.3034C57.896 30.0147 58.0301 29.7221 58.1575 29.4333L58.1589 29.4282ZM59.8324 23.3906C59.7427 23.6004 59.6479 23.8088 59.5531 24.0172C59.3197 24.556 59.0797 25.0985 58.841 25.6358C54.1258 18.9442 45.267 15.0005 37.1992 17.3094C37.5267 16.6065 37.857 15.8933 38.2001 15.1947C45.7282 12.3237 55.1567 17.528 59.8324 23.3906ZM61.6238 16.3101C61.8051 18.4799 61.0339 20.5892 60.1811 22.5877C57.445 19.2936 53.9177 16.8118 49.8724 15.3493C46.4002 14.096 42.0827 13.1507 38.5203 14.54C39.1443 13.2709 39.7929 12.0138 40.4816 10.7731C43.8473 4.71575 50.8572 6.12639 55.8883 9.08345C58.6113 10.6816 61.3441 12.9282 61.6252 16.3049L61.6238 16.3101ZM32.9109 81.7049C32.7595 82.0206 32.6081 82.3364 32.4567 82.6521C28.5508 75.5371 18.8861 71.1937 10.9663 72.8463C11.2542 72.2498 11.5369 71.6519 11.8248 71.0554C20.2255 69.8935 29.4037 73.767 32.9123 81.6997L32.9109 81.7049ZM32.0871 83.2212C32.0871 83.2212 32.1269 83.2597 32.1448 83.2756C31.5354 84.532 30.9325 85.7846 30.3179 87.0396C24.0762 81.9933 16.491 78.7193 8.47674 78.0027C9.26431 76.3932 10.0325 74.7729 10.8111 73.1555C19.7515 72.5558 26.7968 75.9746 32.0857 83.2264L32.0871 83.2212ZM29.7351 87.7185C23.4747 94.7929 16.7171 101.417 9.44605 107.463C9.07964 97.8393 8.82965 88.1965 8.26612 78.5809C16.2221 79.6605 23.4931 82.6109 29.7299 87.7171L29.7351 87.7185Z" fill="black"/>
<path d="M57.7751 30.2996L57.5757 30.2128C57.3848 30.5513 57.199 30.8913 57.0251 31.2288C56.9166 31.0104 56.7911 30.7931 56.6548 30.5951C52.7871 39.3574 48.8183 48.0813 44.7757 56.7689C45.0935 56.6425 45.4041 56.4807 45.7085 56.3006L45.9467 56.409C47.3623 53.3699 48.7637 50.3215 50.1533 47.2755C52.7293 41.6301 55.2704 35.9697 57.7765 30.2944L57.7751 30.2996Z" fill="black"/>
<path d="M57.0252 31.2287C57.1992 30.8911 57.3863 30.546 57.5758 30.2126C57.431 29.9845 57.2781 29.7654 57.1131 29.5709C56.9651 29.9154 56.8185 30.2547 56.6602 30.5964C56.795 30.7995 56.9167 31.0103 57.0304 31.23L57.0252 31.2287Z" fill="black"/>
<path d="M44.9441 57.699C45.1972 57.2323 45.4437 56.7695 45.702 56.3042C45.3976 56.4843 45.0832 56.6395 44.7692 56.7725C44.5852 57.1686 44.3997 57.5698 44.2156 57.9659C44.4634 57.8931 44.7036 57.8071 44.9441 57.699Z" fill="black"/>
<path d="M56.6549 30.595C56.8132 30.2533 56.9598 29.914 57.1078 29.5695C53.9353 25.6184 47.8023 26.9814 44.1708 29.6884C39.4642 33.1873 36.5615 39.3243 35.2738 44.9196C34.2013 49.5872 35.1637 55.5739 40.0184 57.4648C41.4592 58.2796 42.8679 58.362 44.217 57.9607C44.4062 57.566 44.5917 57.1648 44.7706 56.7673C43.2796 57.3866 41.7055 57.4436 40.0704 56.6269C40.025 56.6092 39.9745 56.5901 39.9301 56.5894C33.8696 53.2563 35.6571 45.0891 37.9554 39.6699C40.1888 34.3892 44.112 28.7652 50.245 27.9422C53.0337 27.5703 55.3686 28.6636 56.6497 30.5936L56.6549 30.595Z" fill="black"/>
</svg>
