<svg width="33" height="32" viewBox="0 0 33 32" fill="none" xmlns="http://www.w3.org/2000/svg">
<path d="M10.2018 32.0001C7.3891 32.0001 4.67189 30.8206 2.74981 28.7656C0.976754 26.8701 0 24.3948 0 21.7983V10.203C0 6.99063 1.54139 3.92731 4.12239 2.00852C5.89079 0.695171 7.99215 7.62939e-05 10.2006 7.62939e-05H22.0113C24.7367 7.62939e-05 27.2979 1.06078 29.2246 2.98772C31.1513 4.91466 32.2119 7.47731 32.2119 10.2018V21.7972C32.2119 24.7592 30.9267 27.571 28.6868 29.5119C26.8345 31.1163 24.4643 32.0001 22.0101 32.0001H10.1995H10.2018Z" fill="#F7AD38"/>
<path d="M22.0127 31.2865H10.2021C7.46738 31.2865 5.00279 30.1291 3.27165 28.2779C1.68602 26.5815 0.715088 24.3029 0.715088 21.7973V10.2019C0.715088 7.07923 2.22271 4.30934 4.54992 2.58033C6.12856 1.4067 8.0844 0.712769 10.2032 0.712769H22.0139C24.6333 0.712769 27.0059 1.77461 28.7231 3.49197C30.4403 5.20933 31.502 7.58105 31.502 10.2019V21.7973C31.502 24.6627 30.2319 27.2323 28.2237 28.9718C26.5601 30.4132 24.3889 31.2853 22.0151 31.2853L22.0127 31.2865Z" fill="url(#paint0_linear_508_163)"/>
<path d="M28.2214 27.4732C26.5577 28.9146 24.3865 29.7867 22.0127 29.7867H10.2021C7.46738 29.7867 5.00279 28.6294 3.27165 26.7781C1.68602 25.0817 0.715088 22.8031 0.715088 20.2975V21.796C0.715088 24.3016 1.68602 26.5802 3.27165 28.2766C5.00279 30.1278 7.46738 31.2852 10.2021 31.2852H22.0127C24.3865 31.2852 26.5577 30.4131 28.2214 28.9717C30.2296 27.2322 31.4997 24.6625 31.4997 21.7972V20.2987C31.4997 23.1641 30.2296 25.7337 28.2214 27.4732Z" fill="#E75C00"/>
<path d="M28.7222 3.49197C27.005 1.77461 24.6335 0.712769 22.0129 0.712769H10.2022C8.08459 0.712769 6.12759 1.4067 4.54895 2.58033C2.22174 4.30934 0.714111 7.07923 0.714111 10.2019V12.3431C0.714111 9.2204 2.22174 6.4505 4.54895 4.72149C6.12759 3.54786 8.08342 2.85393 10.2022 2.85393H22.0129C24.6324 2.85393 27.005 3.9158 28.7222 5.63316C30.4393 7.35052 31.5011 9.72221 31.5011 12.3431V10.2019C31.5011 7.58222 30.4393 5.20933 28.7222 3.49197Z" fill="#FACE3F"/>
<path d="M4.11669 6.07064C4.52299 6.77505 5.70232 6.85655 6.75009 6.25111C7.79786 5.64683 8.31708 4.58497 7.91078 3.88056C7.50448 3.17615 6.32516 3.09464 5.27739 3.70008C4.22962 4.30436 3.71039 5.36623 4.11669 6.0718V6.07064Z" fill="white"/>
<path d="M8.58714 5.02748C8.78156 5.36397 9.34386 5.40239 9.8433 5.11364C10.3427 4.82489 10.5907 4.31839 10.3963 3.98307C10.2019 3.64658 9.63957 3.60816 9.14013 3.89691C8.64069 4.18566 8.39272 4.69216 8.58714 5.02748Z" fill="white"/>
<path opacity="0.7" d="M27.184 27.3453C27.517 27.8529 27.1177 28.7028 26.2934 29.2431C25.4692 29.7833 24.5308 29.8101 24.1979 29.3025C23.8649 28.7948 24.2642 27.9449 25.0885 27.4046C25.9127 26.8644 26.8511 26.8376 27.184 27.3453Z" fill="white"/>
<path d="M19.4098 24.4976H12.7916C12.2876 24.4976 11.8324 24.2705 11.5277 23.909C11.3238 23.6669 11.1883 23.3645 11.15 23.0285L9.99854 12.6627H22.2017L21.0502 23.0285C21.005 23.4375 20.8127 23.7966 20.53 24.0585C20.2346 24.3319 19.8396 24.4976 19.4087 24.4976H19.4098Z" fill="#F7AD38"/>
<path d="M23.3673 9.15797C23.2155 9.03053 23.0198 8.95406 22.8054 8.95406H18.847L18.6848 8.38057C18.6292 8.18361 18.5076 8.01792 18.3489 7.90438C18.2041 7.80126 18.028 7.74219 17.8403 7.74219H14.3591C14.1634 7.74219 13.9792 7.80707 13.8297 7.91945C13.6815 8.03184 13.5679 8.19172 13.5146 8.38057L13.3524 8.95406H9.47626C9.23414 8.95406 9.01519 9.05253 8.85649 9.2101C8.69778 9.36767 8.60046 9.58781 8.60046 9.82995V10.2969C8.60046 10.539 8.69894 10.758 8.85649 10.9167C9.01519 11.0754 9.23414 11.1727 9.47626 11.1727H22.8043C23.0267 11.1727 23.2306 11.0893 23.3847 10.9526C23.5654 10.7916 23.6801 10.5575 23.6801 10.2969V9.82995C23.6801 9.56 23.5584 9.31785 23.3661 9.15797H23.3673Z" fill="#F7AD38"/>
<path d="M19.1296 23.3749H12.5113C12.0074 23.3749 11.5521 23.1478 11.2474 22.7864C11.0435 22.5442 10.908 22.2418 10.8698 21.9059L9.71826 11.54H21.9214L20.7699 21.9059C20.7247 22.3148 20.5324 22.674 20.2498 22.9358C19.9544 23.2092 19.5593 23.3749 19.1284 23.3749H19.1296Z" fill="white"/>
<path d="M23.0869 8.45582C22.9351 8.32838 22.7394 8.25191 22.525 8.25191H18.5666L18.4044 7.67842C18.3488 7.48146 18.2272 7.31577 18.0685 7.20223C17.9237 7.09912 17.7476 7.04004 17.5599 7.04004H14.0787C13.883 7.04004 13.6988 7.10492 13.5493 7.21731C13.401 7.32969 13.2875 7.48957 13.2342 7.67842L13.072 8.25191H9.19586C8.95374 8.25191 8.73479 8.35038 8.57608 8.50795C8.41737 8.66552 8.32007 8.88566 8.32007 9.1278V9.59471C8.32007 9.83686 8.41853 10.0558 8.57608 10.2145C8.73479 10.3733 8.95374 10.4706 9.19586 10.4706H22.5239C22.7463 10.4706 22.9502 10.3872 23.1043 10.2505C23.285 10.0894 23.3997 9.85539 23.3997 9.59471V9.1278C23.3997 8.85785 23.278 8.6157 23.0857 8.45582H23.0869Z" fill="white"/>
<defs>
<linearGradient id="paint0_linear_508_163" x1="16.1068" y1="31.2865" x2="16.1068" y2="0.712769" gradientUnits="userSpaceOnUse">
<stop stop-color="#F97318"/>
<stop offset="1" stop-color="#F7AD38"/>
</linearGradient>
</defs>
</svg>
