<svg width="33" height="32" viewBox="0 0 33 32" fill="none" xmlns="http://www.w3.org/2000/svg">
<path d="M10.2018 32.0001C7.3891 32.0001 4.67189 30.8206 2.74981 28.7656C0.976754 26.8701 0 24.3948 0 21.7983V10.203C0 6.99063 1.54139 3.92731 4.12239 2.00852C5.89079 0.695171 7.99215 7.62939e-05 10.2006 7.62939e-05H22.0113C24.7367 7.62939e-05 27.2979 1.06078 29.2246 2.98772C31.1513 4.91466 32.2119 7.47731 32.2119 10.2018V21.7972C32.2119 24.7592 30.9267 27.571 28.6868 29.5119C26.8345 31.1163 24.4643 32.0001 22.0101 32.0001H10.1995H10.2018Z" fill="#F7AD38"/>
<path d="M22.0126 31.2865H10.2019C7.46726 31.2865 5.00267 30.1291 3.27152 28.2779C1.6859 26.5815 0.714966 24.3029 0.714966 21.7973V10.2019C0.714966 7.07923 2.22259 4.30934 4.5498 2.58033C6.12844 1.4067 8.08428 0.712769 10.2031 0.712769H22.0138C24.6332 0.712769 27.0058 1.77461 28.723 3.49197C30.4402 5.20933 31.5019 7.58105 31.5019 10.2019V21.7973C31.5019 24.6627 30.2318 27.2323 28.2236 28.9718C26.5599 30.4132 24.3887 31.2853 22.015 31.2853L22.0126 31.2865Z" fill="url(#paint0_linear_508_177)"/>
<path d="M28.2212 27.4732C26.5576 28.9146 24.3864 29.7867 22.0126 29.7867H10.2019C7.46726 29.7867 5.00267 28.6294 3.27152 26.7781C1.6859 25.0817 0.714966 22.8031 0.714966 20.2975V21.796C0.714966 24.3016 1.6859 26.5802 3.27152 28.2766C5.00267 30.1278 7.46726 31.2852 10.2019 31.2852H22.0126C24.3864 31.2852 26.5576 30.4131 28.2212 28.9717C30.2295 27.2322 31.4996 24.6625 31.4996 21.7972V20.2987C31.4996 23.1641 30.2295 25.7337 28.2212 27.4732Z" fill="#E75C00"/>
<path d="M28.722 3.49197C27.0049 1.77461 24.6334 0.712769 22.0128 0.712769H10.2021C8.08446 0.712769 6.12746 1.4067 4.54883 2.58033C2.22161 4.30934 0.713989 7.07923 0.713989 10.2019V12.3431C0.713989 9.2204 2.22161 6.4505 4.54883 4.72149C6.12746 3.54786 8.0833 2.85393 10.2021 2.85393H22.0128C24.6322 2.85393 27.0049 3.9158 28.722 5.63316C30.4392 7.35052 31.5009 9.72221 31.5009 12.3431V10.2019C31.5009 7.58222 30.4392 5.20933 28.722 3.49197Z" fill="#FACE3F"/>
<path d="M4.11651 6.07064C4.52281 6.77505 5.70213 6.85655 6.7499 6.25111C7.79767 5.64683 8.3169 4.58497 7.9106 3.88056C7.5043 3.17615 6.32497 3.09464 5.2772 3.70008C4.22944 4.30436 3.71021 5.36623 4.11651 6.0718V6.07064Z" fill="white"/>
<path d="M8.58696 5.02748C8.78138 5.36397 9.34368 5.40239 9.84312 5.11364C10.3426 4.82489 10.5905 4.31839 10.3961 3.98307C10.2017 3.64658 9.63938 3.60816 9.13995 3.89691C8.64051 4.18566 8.39254 4.69216 8.58696 5.02748Z" fill="white"/>
<path opacity="0.7" d="M27.184 27.3453C27.5169 27.8529 27.1176 28.7028 26.2934 29.2431C25.4691 29.7833 24.5308 29.8101 24.1978 29.3025C23.8649 28.7948 24.2642 27.9449 25.0884 27.4046C25.9127 26.8644 26.851 26.8376 27.184 27.3453Z" fill="white"/>
<path d="M13.0045 13.0392L9.68414 16.433C8.68599 17.4533 8.18691 17.9634 8.11887 18.5858C8.1045 18.7173 8.1045 18.8501 8.11887 18.9816C8.18691 19.604 8.68599 20.1141 9.68414 21.1344L9.81135 21.2644C10.3442 21.8091 10.6107 22.0814 10.9295 22.2645C11.1149 22.3708 11.3122 22.4542 11.5172 22.5127C11.8698 22.6134 12.248 22.6134 13.0045 22.6134C13.7609 22.6134 14.1391 22.6134 14.4917 22.5127C14.6967 22.4542 14.894 22.3708 15.0794 22.2645C15.3982 22.0814 15.6647 21.8091 16.1975 21.2644L18.6245 18.7837M13.0045 13.0392L16.0611 9.91847C17.2443 8.7105 17.8358 8.10651 18.5723 8.10674C19.3086 8.10696 19.8999 8.71129 21.0823 9.91996L21.7165 10.5682C22.8843 11.7619 23.4683 12.3588 23.4681 13.0988C23.4678 13.8388 22.8836 14.4353 21.715 15.6284L18.6245 18.7837M13.0045 13.0392L18.6245 18.7837L13.0045 13.0392Z" fill="#F7AD38"/>
<path d="M13.0045 13.0392L9.68414 16.433C8.68599 17.4533 8.18691 17.9634 8.11887 18.5858C8.1045 18.7173 8.1045 18.8501 8.11887 18.9816C8.18691 19.604 8.68599 20.1141 9.68414 21.1344L9.81136 21.2644C10.3442 21.8091 10.6107 22.0814 10.9295 22.2645C11.1149 22.3708 11.3122 22.4542 11.5172 22.5127C11.8698 22.6134 12.248 22.6134 13.0045 22.6134C13.7609 22.6134 14.1391 22.6134 14.4917 22.5127C14.6967 22.4542 14.894 22.3708 15.0794 22.2645C15.3982 22.0814 15.6647 21.8091 16.1975 21.2644L18.6245 18.7837M13.0045 13.0392L16.0611 9.91847C17.2443 8.7105 17.8358 8.10651 18.5723 8.10674C19.3086 8.10696 19.8999 8.71129 21.0823 9.91996L21.7165 10.5682C22.8843 11.7619 23.4683 12.3588 23.4681 13.0988C23.4678 13.8388 22.8836 14.4353 21.715 15.6284L18.6245 18.7837M13.0045 13.0392L18.6245 18.7837" stroke="#F7AD38" stroke-width="1.28" stroke-linecap="round" stroke-linejoin="round"/>
<path d="M14.0814 25.1733H23.4681" stroke="#F7AD38" stroke-width="1.28" stroke-linecap="round" stroke-linejoin="round"/>
<path d="M13.0045 12.3992L9.68414 15.7931C8.68599 16.8133 8.18691 17.3234 8.11887 17.9459C8.1045 18.0774 8.1045 18.2101 8.11887 18.3416C8.18691 18.964 8.68599 19.4741 9.68414 20.4944L9.81135 20.6244C10.3442 21.1692 10.6107 21.4415 10.9295 21.6245C11.1149 21.7308 11.3122 21.8142 11.5172 21.8727C11.8698 21.9734 12.248 21.9734 13.0045 21.9734C13.7609 21.9734 14.1391 21.9734 14.4917 21.8727C14.6967 21.8142 14.894 21.7308 15.0794 21.6245C15.3982 21.4415 15.6647 21.1692 16.1975 20.6244L18.6245 18.1437M13.0045 12.3992L16.0611 9.27849C17.2443 8.07052 17.8358 7.46653 18.5723 7.46675C19.3086 7.46697 19.8999 8.0713 21.0823 9.27997L21.7165 9.92819C22.8843 11.1219 23.4683 11.7188 23.4681 12.4588C23.4678 13.1988 22.8836 13.7954 21.715 14.9884L18.6245 18.1437M13.0045 12.3992L18.6245 18.1437L13.0045 12.3992Z" fill="white"/>
<path d="M13.0045 12.3992L9.68414 15.7931C8.68599 16.8133 8.18691 17.3234 8.11887 17.9459C8.1045 18.0774 8.1045 18.2101 8.11887 18.3416C8.18691 18.964 8.68599 19.4741 9.68414 20.4944L9.81136 20.6244C10.3442 21.1692 10.6107 21.4414 10.9295 21.6245C11.1149 21.7308 11.3122 21.8142 11.5172 21.8727C11.8698 21.9734 12.248 21.9734 13.0045 21.9734C13.7609 21.9734 14.1391 21.9734 14.4917 21.8727C14.6967 21.8142 14.894 21.7308 15.0794 21.6245C15.3982 21.4414 15.6647 21.1692 16.1975 20.6244L18.6245 18.1437M13.0045 12.3992L16.0611 9.27849C17.2443 8.07052 17.8358 7.46653 18.5723 7.46675C19.3086 7.46697 19.8999 8.0713 21.0823 9.27997L21.7165 9.92819C22.8843 11.1219 23.4683 11.7188 23.4681 12.4588C23.4678 13.1988 22.8836 13.7954 21.715 14.9884L18.6245 18.1437M13.0045 12.3992L18.6245 18.1437" stroke="white" stroke-width="1.28" stroke-linecap="round" stroke-linejoin="round"/>
<path d="M14.0814 24.5331H23.4681" stroke="white" stroke-width="1.28" stroke-linecap="round" stroke-linejoin="round"/>
<defs>
<linearGradient id="paint0_linear_508_177" x1="16.1067" y1="31.2865" x2="16.1067" y2="0.712769" gradientUnits="userSpaceOnUse">
<stop stop-color="#F97318"/>
<stop offset="1" stop-color="#F7AD38"/>
</linearGradient>
</defs>
</svg>
