<svg width="77" height="89" viewBox="0 0 77 89" fill="none" xmlns="http://www.w3.org/2000/svg">
<path d="M5.13742 9.07293C9.97742 4.18293 16.7274 1.87289 23.3774 0.972893C28.1674 0.322893 33.2174 0.302888 38.1674 0.342888C43.1174 0.302888 48.1674 0.322893 52.9574 0.972893C59.6074 1.87289 66.3574 4.17293 71.1974 9.07293C76.3074 14.2429 76.4374 21.1529 76.3074 28.1829C76.1274 37.4529 76.5674 44.0329 74.7174 51.5229C73.3474 57.1029 69.4374 61.1629 64.5874 64.0429C59.4674 67.0829 50.9174 67.2129 43.7274 67.2029C41.6974 67.2029 39.8574 67.2029 38.1674 67.1929C36.4774 67.2029 34.6474 67.2029 32.6074 67.2029C25.4174 67.2029 16.8574 67.0829 11.7474 64.0429C6.89742 61.1629 2.98743 57.1029 1.61742 51.5229C-0.222572 44.0329 0.207428 37.4429 0.0274277 28.1829C-0.10257 21.1429 0.02742 14.2429 5.13742 9.07293Z" fill="url(#paint0_linear_90_9687)"/>
<g opacity="0.3">
<path d="M5.13742 9.07293C9.97742 4.18293 16.7274 1.87289 23.3774 0.972893C28.1674 0.322893 33.2174 0.302888 38.1674 0.342888C43.1174 0.302888 48.1674 0.322893 52.9574 0.972893C59.6074 1.87289 66.3574 4.17293 71.1974 9.07293C76.3074 14.2429 76.4374 21.1529 76.3074 28.1829C76.1274 37.4529 76.5674 44.0329 74.7174 51.5229C73.3474 57.1029 69.4374 61.1629 64.5874 64.0429C59.4674 67.0829 50.9174 67.2129 43.7274 67.2029C41.6974 67.2029 34.6474 67.2029 32.6074 67.2029C25.4174 67.2029 16.8574 67.0829 11.7474 64.0429C6.89742 61.1629 2.98743 57.1029 1.61742 51.5229C-0.222572 44.0329 0.207428 37.4429 0.0274277 28.1829C-0.10257 21.1429 0.02742 14.2429 5.13742 9.07293Z" fill="url(#paint1_radial_90_9687)"/>
</g>
<path d="M6.69744 8.17291C11.2774 3.59291 17.6674 1.43291 23.9574 0.602907C28.0974 0.0529073 32.4474 -0.0170683 36.7474 0.00293174C41.0374 -0.0170683 45.3874 0.0529073 49.5374 0.602907C55.8274 1.44291 62.2174 3.60291 66.7974 8.17291C71.6374 13.0129 71.7574 19.4729 71.6374 26.0529C71.4674 34.7229 71.8874 40.8829 70.1374 47.8829C68.8374 53.1029 65.4974 56.6729 60.9674 59.4629C56.5174 62.2129 48.0874 62.4629 40.7974 62.5429C39.3474 62.5629 38.0074 62.5729 36.7474 62.5729C35.4874 62.5729 34.1474 62.5629 32.6974 62.5429C25.4074 62.4629 16.9874 62.2029 12.5274 59.4629C7.99745 56.6629 4.66743 53.1029 3.35744 47.8829C1.60744 40.8729 2.02744 34.7129 1.85744 26.0529C1.72744 19.4729 1.85744 13.0129 6.69744 8.17291Z" fill="url(#paint2_linear_90_9687)"/>
<path d="M1.85746 24.0529C2.02746 32.7229 1.60746 38.8829 3.35746 45.8829C4.65746 51.1029 7.99747 54.6729 12.5275 57.4629C16.9775 60.2129 25.4075 60.4629 32.6975 60.5429C34.1475 60.5629 39.3475 60.5629 40.8075 60.5429C48.0975 60.4629 56.5175 60.2029 60.9775 57.4629C65.5075 54.6629 68.8375 51.1029 70.1475 45.8829C71.8975 38.8729 71.4775 32.7129 71.6475 24.0529C71.6475 23.6429 71.6575 23.2329 71.6675 22.8229C71.6775 23.8929 71.6675 24.9729 71.6475 26.0529C71.4775 34.7229 71.8975 40.8829 70.1475 47.8829C68.8475 53.1029 65.5075 56.6729 60.9775 59.4629C56.5275 62.2129 48.0975 62.4629 40.8075 62.5429C39.3575 62.5629 34.1575 62.5629 32.6975 62.5429C25.4075 62.4629 16.9875 62.2029 12.5275 59.4629C7.99747 56.6629 4.66746 53.1029 3.35746 47.8829C1.60746 40.8729 2.02746 34.7129 1.85746 26.0529C1.83746 24.9729 1.82746 23.8929 1.83746 22.8229C1.83746 23.2329 1.84746 23.6429 1.85746 24.0529Z" fill="url(#paint3_radial_90_9687)"/>
<path d="M36.7475 9.26294C40.8275 9.37294 44.8975 9.5529 48.9675 9.8429C55.0875 10.2829 59.4675 12.3329 62.5575 15.4229C65.5975 18.4629 65.7575 22.9429 65.6375 28.9429C65.5975 30.7729 65.5975 32.4929 65.5875 34.1329C65.5475 40.6429 64.3875 45.1929 58.2275 48.7229C52.4275 52.0429 48.9775 51.4729 40.8075 51.5529C39.3575 51.5629 38.0175 51.5829 36.7575 51.5829C35.4975 51.5829 34.1575 51.5729 32.7075 51.5529C24.5375 51.4729 21.0875 52.0429 15.2875 48.7229C9.12746 45.1929 7.95746 40.6429 7.92746 34.1329C7.92746 32.4929 7.90746 30.7729 7.87746 28.9429C7.75747 22.9429 7.91747 18.4629 10.9575 15.4229C14.0475 12.3429 18.4275 10.2829 24.5475 9.8429C28.6175 9.5529 32.6875 9.37294 36.7675 9.26294H36.7475Z" fill="#FFCA60"/>
<path d="M6.69744 8.17291C11.2774 3.59291 17.6674 1.43291 23.9574 0.602907C28.0974 0.0529073 32.4474 -0.0170683 36.7474 0.00293174C41.0374 -0.0170683 45.3874 0.0529073 49.5374 0.602907C55.8274 1.44291 62.2174 3.60291 66.7974 8.17291C71.6374 13.0129 71.7574 19.4729 71.6374 26.0529C71.4974 33.2629 71.6374 40.7929 70.1374 47.8829C71.7674 40.2229 54.6774 33.5429 49.6274 31.6129C45.4574 30.0229 41.1374 28.7829 36.7574 27.8829C32.3674 28.7829 28.0574 30.0229 23.8874 31.6129C18.8374 33.5429 1.74744 40.2229 3.37744 47.8829C1.86744 40.7929 2.01744 33.2529 1.87744 26.0529C1.74744 19.4729 1.87744 13.0129 6.71744 8.17291H6.69744Z" fill="url(#paint4_linear_90_9687)"/>
<path d="M10.9375 13.4129C14.0275 10.3329 18.4075 8.27289 24.5275 7.83289C28.5975 7.54289 32.6675 7.36293 36.7475 7.25293C40.8275 7.36293 44.8975 7.54289 48.9675 7.83289C55.0875 8.27289 59.4675 10.3229 62.5575 13.4129C65.5975 16.4529 65.7575 20.9329 65.6375 26.9329C65.5975 28.7629 65.5975 30.4829 65.5875 32.1229C65.5475 38.6329 64.3875 43.1829 58.2275 46.7129C52.4275 50.0329 48.9775 49.4629 40.8075 49.5429C39.3575 49.5529 38.0175 49.5729 36.7575 49.5729C35.4975 49.5729 34.1575 49.5629 32.7075 49.5429C24.5375 49.4629 21.0875 50.0329 15.2875 46.7129C9.12746 43.1829 7.95746 38.6329 7.92746 32.1229C7.92746 30.4829 7.90746 28.7629 7.87746 26.9329C7.75747 20.9329 7.91747 16.4529 10.9575 13.4129H10.9375Z" fill="url(#paint5_linear_90_9687)"/>
<path d="M50.0381 18.5715H23.9619C22.3255 18.5715 21 19.8455 21 21.4183V40.8677C21 42.4405 22.3255 43.7144 23.9619 43.7144H50.0381C51.6745 43.7144 53 42.4405 53 40.8677V21.4183C53 19.8455 51.6745 18.5715 50.0381 18.5715ZM24.5793 40.6103V33.0997L27.6773 29.2931C28.1358 28.7871 28.9461 28.7631 29.4363 29.2408L40.703 40.6103H24.5793ZM49.5047 40.5317H44.6522L39.1414 35.2353L41.5064 32.1159C41.9626 31.5727 42.6208 31.5422 43.1202 32.0482L49.507 38.8717V40.5317H49.5047ZM46.7902 28.1588C45.1084 28.1588 43.7466 26.85 43.7466 25.2335C43.7466 23.6171 45.1084 22.3083 46.7902 22.3083C48.472 22.3083 49.8338 23.6171 49.8338 25.2335C49.8338 26.85 48.472 28.1588 46.7902 28.1588Z" fill="#963206"/>
<g filter="url(#filter0_ii_90_9687)">
<path d="M50.0381 16.2856H23.9619C22.3255 16.2856 21 17.5596 21 19.1324V38.5818C21 40.1546 22.3255 41.4285 23.9619 41.4285H50.0381C51.6745 41.4285 53 40.1546 53 38.5818V19.1324C53 17.5596 51.6745 16.2856 50.0381 16.2856ZM24.5793 38.3244V30.8138L27.6774 27.0072C28.1358 26.5012 28.9461 26.4772 29.4363 26.9549L40.703 38.3244H24.5793ZM49.5047 38.2458H44.6522L39.1414 32.9494L41.5064 29.83C41.9626 29.2868 42.6208 29.2563 43.1201 29.7624L49.507 36.5858V38.2458H49.5047ZM46.7902 25.8729C45.1084 25.8729 43.7466 24.5641 43.7466 22.9477C43.7466 21.3312 45.1084 20.0224 46.7902 20.0224C48.472 20.0224 49.8338 21.3312 49.8338 22.9477C49.8338 24.5641 48.472 25.8729 46.7902 25.8729Z" fill="#FFEFC2"/>
</g>
<path d="M36.7475 6.26294C40.8275 6.37294 44.8975 6.5529 48.9675 6.8429C55.0875 7.2829 59.4675 9.33291 62.5575 12.4229C65.5975 15.4629 65.7575 19.9329 65.6375 25.9229C65.5175 21.9029 64.8775 18.7429 62.5575 16.4229C59.4675 13.3429 55.0875 11.2829 48.9675 10.8429C44.8975 10.5529 40.8275 10.3729 36.7475 10.2629C32.6675 10.3729 28.5975 10.5529 24.5275 10.8429C18.4075 11.2829 14.0275 13.3329 10.9375 16.4229C8.61746 18.7429 7.97746 21.8929 7.85746 25.9229C7.73746 19.9329 7.89746 15.4629 10.9375 12.4229C14.0275 9.34291 18.4075 7.2829 24.5275 6.8429C28.5975 6.5529 32.6675 6.37294 36.7475 6.26294Z" fill="#963206"/>
<path d="M36.7475 0.00293174C41.0375 -0.0170683 45.3875 0.0529073 49.5375 0.602907C55.8275 1.44291 62.2175 3.60291 66.7975 8.17291C71.3375 12.7129 71.7275 18.6729 71.6575 24.8229C71.5975 19.3929 70.8475 14.2229 66.7975 10.1729C62.2175 5.59291 55.8275 3.43291 49.5375 2.60291C45.3975 2.05291 41.0475 1.98293 36.7475 2.00293C32.4575 1.98293 28.1075 2.05291 23.9575 2.60291C17.6675 3.44291 11.2775 5.60291 6.69747 10.1729C2.65747 14.2129 1.90747 19.3829 1.83747 24.8229C1.76747 18.6729 2.15747 12.7129 6.69747 8.17291C11.2775 3.59291 17.6675 1.43291 23.9575 0.602907C28.0975 0.0529073 32.4475 -0.0170683 36.7475 0.00293174Z" fill="#F6F091"/>
<g opacity="0.73">
<path d="M10.4974 53.3329C11.9674 53.9329 11.2374 55.6329 9.78742 54.9229C8.25742 54.1729 9.51742 52.3529 10.7474 53.4629L10.4974 53.3429V53.3329Z" fill="#B28222"/>
</g>
<g opacity="0.73">
<path d="M17.8074 58.1929C15.2774 60.9629 9.13744 52.9429 14.6774 54.2229C15.7874 54.4829 19.0774 56.3429 18.0174 57.9229C17.9474 58.0229 17.8774 58.1129 17.8074 58.1929Z" fill="#B28222"/>
</g>
<defs>
<filter id="filter0_ii_90_9687" x="21" y="15.2856" width="32" height="27.1429" filterUnits="userSpaceOnUse" color-interpolation-filters="sRGB">
<feFlood flood-opacity="0" result="BackgroundImageFix"/>
<feBlend mode="normal" in="SourceGraphic" in2="BackgroundImageFix" result="shape"/>
<feColorMatrix in="SourceAlpha" type="matrix" values="0 0 0 0 0 0 0 0 0 0 0 0 0 0 0 0 0 0 127 0" result="hardAlpha"/>
<feOffset dy="-1"/>
<feGaussianBlur stdDeviation="0.5"/>
<feComposite in2="hardAlpha" operator="arithmetic" k2="-1" k3="1"/>
<feColorMatrix type="matrix" values="0 0 0 0 0.858824 0 0 0 0 0.498039 0 0 0 0 0.00392157 0 0 0 0.25 0"/>
<feBlend mode="normal" in2="shape" result="effect1_innerShadow_90_9687"/>
<feColorMatrix in="SourceAlpha" type="matrix" values="0 0 0 0 0 0 0 0 0 0 0 0 0 0 0 0 0 0 127 0" result="hardAlpha"/>
<feOffset dy="1"/>
<feGaussianBlur stdDeviation="0.5"/>
<feComposite in2="hardAlpha" operator="arithmetic" k2="-1" k3="1"/>
<feColorMatrix type="matrix" values="0 0 0 0 1 0 0 0 0 1 0 0 0 0 1 0 0 0 0.4 0"/>
<feBlend mode="normal" in2="effect1_innerShadow_90_9687" result="effect2_innerShadow_90_9687"/>
</filter>
<linearGradient id="paint0_linear_90_9687" x1="38.1574" y1="-742.578" x2="38.1574" y2="-742.578" gradientUnits="userSpaceOnUse">
<stop stop-color="#AD5D00"/>
<stop offset="1" stop-color="#FF8900"/>
</linearGradient>
<radialGradient id="paint1_radial_90_9687" cx="0" cy="0" r="1" gradientUnits="userSpaceOnUse" gradientTransform="translate(37.3346 -742.078) rotate(180) scale(81.12 84.5001)">
<stop offset="0.87"/>
<stop offset="0.99" stop-color="#6D4900"/>
</radialGradient>
<linearGradient id="paint2_linear_90_9687" x1="36.7474" y1="-742.577" x2="36.7474" y2="-742.577" gradientUnits="userSpaceOnUse">
<stop stop-color="#FAB731"/>
<stop offset="1" stop-color="#FAB731"/>
</linearGradient>
<radialGradient id="paint3_radial_90_9687" cx="0" cy="0" r="1" gradientUnits="userSpaceOnUse" gradientTransform="translate(-63.0625 -742.076) rotate(180) scale(123.45 123.45)">
<stop offset="0.21" stop-color="#FFE5B3"/>
<stop offset="1" stop-color="#FFD072"/>
</radialGradient>
<linearGradient id="paint4_linear_90_9687" x1="21.9474" y1="70.6029" x2="49.0075" y2="-2.62707" gradientUnits="userSpaceOnUse">
<stop/>
<stop offset="1" stop-color="#FAB731"/>
</linearGradient>
<linearGradient id="paint5_linear_90_9687" x1="36.7475" y1="-742.577" x2="36.7475" y2="-742.577" gradientUnits="userSpaceOnUse">
<stop offset="0.01" stop-color="#D87C12"/>
<stop offset="1" stop-color="#DF9138"/>
</linearGradient>
</defs>
</svg>
