<svg width="33" height="32" viewBox="0 0 33 32" fill="none" xmlns="http://www.w3.org/2000/svg">
<path d="M10.2018 32C7.3891 32 4.67189 30.8205 2.74981 28.7655C0.976754 26.87 0 24.3947 0 21.7983V10.2029C0 6.99055 1.54138 3.92723 4.12239 2.00844C5.89079 0.695095 7.99215 0 10.2006 0H22.0113C24.7367 0 27.2979 1.06071 29.2246 2.98765C31.1513 4.91459 32.2119 7.47723 32.2119 10.2017V21.7971C32.2119 24.7591 30.9267 27.5709 28.6868 29.5118C26.8345 31.1163 24.4642 32 22.0101 32H10.1995H10.2018Z" fill="#F2205E"/>
<path d="M22.0125 31.2864H10.2018C7.46714 31.2864 5.00255 30.1291 3.2714 28.2778C1.68578 26.5814 0.714844 24.3028 0.714844 21.7972V10.2018C0.714844 7.07916 2.22247 4.30926 4.54968 2.58026C6.12832 1.40663 8.08415 0.712692 10.203 0.712692H22.0137C24.6331 0.712692 27.0057 1.77453 28.7229 3.49189C30.4401 5.20926 31.5018 7.58098 31.5018 10.2018V21.7972C31.5018 24.6626 30.2317 27.2323 28.2234 28.9717C26.5598 30.4132 24.3886 31.2852 22.0148 31.2852L22.0125 31.2864Z" fill="url(#paint0_linear_513_486)"/>
<path d="M7.56594 16.0712C7.21087 16.0712 6.8651 15.8954 6.66021 15.574C6.34355 15.0746 6.4914 14.4132 6.99084 14.0965L15.664 8.59398C16.0168 8.37043 16.4662 8.3716 16.8166 8.59747L25.3699 14.1C25.867 14.4202 26.0113 15.0827 25.6912 15.5799C25.371 16.077 24.7086 16.2214 24.2115 15.9012L16.2333 10.7689L8.13756 15.9047C7.95944 16.0176 7.76153 16.0712 7.56478 16.0712H7.56594Z" fill="#F2205E"/>
<path d="M22.3559 16.4891L16.9855 12.7121C16.6188 12.4536 16.131 12.4524 15.7619 12.7063L10.5312 16.3098C10.2413 16.5101 10.0679 16.8396 10.0679 17.1924V23.9838C10.0679 24.5753 10.5475 25.055 11.1389 25.055H21.74C22.3314 25.055 22.8111 24.5753 22.8111 23.9838V17.3658C22.8111 17.0177 22.6411 16.6905 22.3559 16.4903V16.4891ZM18.3266 21.838C18.3266 22.5028 17.7876 23.043 17.1217 23.043H15.7561C15.0913 23.043 14.5512 22.5039 14.5512 21.838V19.9902C14.5512 19.3242 15.0902 18.7851 15.7561 18.7851H17.1217C17.7876 18.7851 18.3266 19.3242 18.3266 19.9902V21.838Z" fill="#F2205E"/>
<path d="M7.28433 15.1547C6.93042 15.1547 6.58349 14.9789 6.37859 14.6576C6.06193 14.1581 6.20978 13.4967 6.70922 13.18L15.3824 7.6775C15.7352 7.45395 16.1845 7.45512 16.535 7.681L25.0883 13.1835C25.5854 13.5037 25.7297 14.1662 25.4096 14.6634C25.0894 15.1605 24.427 15.3049 23.9299 14.9847L15.9517 9.85245L7.85595 14.9882C7.67782 15.1012 7.47991 15.1547 7.28316 15.1547H7.28433Z" fill="white"/>
<path d="M22.0743 15.3608L16.7039 11.5838C16.3371 11.3253 15.8493 11.3242 15.4803 11.578L10.2496 15.1815C9.95972 15.3818 9.78625 15.7113 9.78625 16.0641V22.8555C9.78625 23.447 10.2659 23.9267 10.8573 23.9267H21.4584C22.0498 23.9267 22.5295 23.447 22.5295 22.8555V16.2376C22.5295 15.8894 22.3595 15.5623 22.0743 15.362V15.3608ZM18.045 20.7097C18.045 21.3745 17.506 21.9147 16.8401 21.9147H15.4745C14.8097 21.9147 14.2695 21.3757 14.2695 20.7097V18.8619C14.2695 18.1959 14.8086 17.6569 15.4745 17.6569H16.8401C17.506 17.6569 18.045 18.1959 18.045 18.8619V20.7097Z" fill="white"/>
<path d="M28.2211 27.4731C26.5575 28.9145 24.3863 29.7866 22.0125 29.7866H10.2018C7.46714 29.7866 5.00255 28.6293 3.2714 26.778C1.68578 25.0816 0.714844 22.8031 0.714844 20.2975V21.7959C0.714844 24.3015 1.68578 26.5801 3.2714 28.2765C5.00255 30.1278 7.46714 31.2851 10.2018 31.2851H22.0125C24.3863 31.2851 26.5575 30.413 28.2211 28.9716C30.2293 27.2321 31.4995 24.6625 31.4995 21.7971V20.2986C31.4995 23.164 30.2293 25.7336 28.2211 27.4731Z" fill="#C7003B"/>
<path d="M28.7218 3.49189C27.0046 1.77453 24.6332 0.712692 22.0126 0.712692H10.2019C8.08422 0.712692 6.12722 1.40663 4.54858 2.58026C2.22137 4.30926 0.713745 7.07916 0.713745 10.2018V12.343C0.713745 9.22032 2.22137 6.45042 4.54858 4.72142C6.12722 3.54779 8.08306 2.85385 10.2019 2.85385H22.0126C24.632 2.85385 27.0046 3.91572 28.7218 5.63308C30.439 7.35044 31.5007 9.72214 31.5007 12.343V10.2018C31.5007 7.58214 30.439 5.20926 28.7218 3.49189Z" fill="#FF98B8"/>
<path d="M4.11657 6.07065C4.52287 6.77506 5.70219 6.85657 6.74996 6.25113C7.79773 5.64685 8.31696 4.58498 7.91066 3.88057C7.50436 3.17616 6.32503 3.09465 5.27727 3.7001C4.2295 4.30438 3.71027 5.36624 4.11657 6.07182V6.07065Z" fill="white"/>
<path d="M8.58702 5.0275C8.78144 5.36398 9.34374 5.4024 9.84318 5.11365C10.3426 4.82491 10.5906 4.3184 10.3962 3.98308C10.2017 3.6466 9.63944 3.60817 9.14001 3.89692C8.64057 4.18567 8.3926 4.69217 8.58702 5.0275Z" fill="white"/>
<path opacity="0.7" d="M27.1838 27.345C27.5167 27.8527 27.1174 28.7026 26.2932 29.2429C25.4689 29.7831 24.5306 29.8099 24.1976 29.3023C23.8647 28.7946 24.264 27.9447 25.0882 27.4044C25.9125 26.8642 26.8508 26.8374 27.1838 27.345Z" fill="white"/>
<defs>
<linearGradient id="paint0_linear_513_486" x1="16.1066" y1="31.2864" x2="16.1066" y2="0.712692" gradientUnits="userSpaceOnUse">
<stop stop-color="#F2205E"/>
<stop offset="1" stop-color="#FE7BA4"/>
</linearGradient>
</defs>
</svg>
