<svg width="164" height="168" viewBox="0 0 164 168" fill="none" xmlns="http://www.w3.org/2000/svg">
<rect width="152" height="160" transform="translate(5 4)" fill="url(#paint0_linear_360_116)"/>
<path d="M159.644 3.11634C150.332 -1.72407 1.85342 -0.513966 1.51348 3.92308C-1.2208 39.4425 0.331085 57.0639 1.6465 103.716C2.57763 136.527 2.38548 162.009 4.86851 164.152C10.8544 169.338 153.658 168.993 159.659 164.844C161.861 163.323 160.664 136.205 161.654 101.642C163.354 42.22 165.541 6.19346 159.659 3.12787L159.644 3.11634ZM13.8695 20.0002C13.8695 15.3326 18.7616 11.5294 24.7327 11.5294H138.937C144.908 11.5294 149.8 15.3441 149.8 20.0002V151.521C149.8 156.189 144.908 159.992 138.937 159.992H24.7327C18.7469 159.992 13.8695 156.177 13.8695 151.521V20.0002Z" fill="url(#paint1_linear_360_116)"/>
<g style="mix-blend-mode:multiply">
<path d="M149.815 149.62V20.0002C149.815 15.3327 144.923 11.5295 138.952 11.5295H24.7475C18.7616 11.5295 13.8843 15.3442 13.8843 20.0002V143.742C13.8843 143.742 6.4204 9.35133 7.7506 8.3141C9.08079 7.27686 153.215 5.89389 154.988 8.3141C156.762 10.7343 149.815 149.62 149.815 149.62Z" fill="#FF459D"/>
</g>
<path style="mix-blend-mode:multiply" d="M24.7475 11.5295C10.2927 11.6793 18.3774 6.4355 74.6149 6.96564C130.853 7.49579 135.035 11.5295 135.035 11.5295C122.724 11.5295 24.7475 11.5295 24.7475 11.5295Z" fill="url(#paint2_linear_360_116)"/>
<g style="mix-blend-mode:color-dodge" opacity="0.32">
<path d="M4.63209 3.99225C1.21793 4.41866 9.86418 7.27682 81.4285 6.93107C152.993 6.58533 155.875 5.37522 158.535 3.99225C161.196 2.60927 70.5062 -4.13273 4.64689 3.99225H4.63209Z" fill="#FF7E8B"/>
</g>
<g style="mix-blend-mode:color-dodge" opacity="0.32">
<path d="M69.9889 0.108645C45.7498 1.41095 80.8078 7.8072 116.235 6.63167C151.678 5.45614 150.155 2.57496 130.69 1.36485C111.225 0.154749 74.2898 -0.110324 69.9889 0.120172V0.108645Z" fill="#FF7E8B"/>
</g>
<path d="M95.1146 5.89398C93.1784 5.61738 97.3315 3.81952 98.6617 4.76455C99.9919 5.70959 98.78 6.41259 95.1146 5.89398Z" fill="white"/>
<path d="M117.063 1.22636C116.501 2.09072 118.393 2.09072 118.733 1.74497C119.058 1.39923 117.625 0.362002 117.063 1.22636Z" fill="white"/>
<g style="mix-blend-mode:color-dodge" opacity="0.32">
<path d="M7.58797 163.76C5.84394 163.68 7.7949 159.346 22.1019 160.003C36.4088 160.649 130.527 159.727 138.109 160.268C149.313 161.052 156.688 162.631 153.998 164.417C152.106 165.674 48.7944 165.581 7.60277 163.772L7.58797 163.76Z" fill="#FD001A"/>
</g>
<g style="mix-blend-mode:multiply">
<path d="M159.644 164.844C153.658 168.993 10.8395 169.339 4.85364 164.152C9.92315 165.466 149.209 165.708 159.644 164.844Z" fill="#FF459D"/>
</g>
<g style="mix-blend-mode:color-dodge" opacity="0.32">
<path d="M36.4532 164.602C33.4676 163.622 65.9539 163.277 86.2467 163.715C106.54 164.152 108.638 165.155 102.209 165.247C95.7798 165.34 36.4532 164.602 36.4532 164.602Z" fill="#FF7E8B"/>
</g>
<defs>
<linearGradient id="paint0_linear_360_116" x1="76" y1="0" x2="76" y2="160" gradientUnits="userSpaceOnUse">
<stop offset="0.00701571" stop-color="#FFD7E2"/>
<stop offset="1" stop-color="#FF7EA6"/>
</linearGradient>
<linearGradient id="paint1_linear_360_116" x1="81.7389" y1="167.99" x2="81.7389" y2="0.0046459" gradientUnits="userSpaceOnUse">
<stop stop-color="#FF5B8B"/>
<stop offset="1" stop-color="#FC98AF"/>
</linearGradient>
<linearGradient id="paint2_linear_360_116" x1="135.035" y1="9.23602" x2="18.466" y2="9.23602" gradientUnits="userSpaceOnUse">
<stop stop-color="#BD006A"/>
<stop offset="0.09" stop-color="#BE066E"/>
<stop offset="0.22" stop-color="#C31A79"/>
<stop offset="0.37" stop-color="#CC3A8C"/>
<stop offset="0.54" stop-color="#D766A6"/>
<stop offset="0.73" stop-color="#E69FC7"/>
<stop offset="0.93" stop-color="#F8E4EF"/>
<stop offset="1" stop-color="white"/>
</linearGradient>
</defs>
</svg>
