<svg width="77" height="89" viewBox="0 0 77 89" fill="none" xmlns="http://www.w3.org/2000/svg">
<path d="M71.1974 9.07293C66.3574 4.18293 59.6074 1.87289 52.9574 0.972893C48.1674 0.322893 43.1174 0.302888 38.1674 0.342888C33.2174 0.302888 28.1674 0.322893 23.3774 0.972893C16.7274 1.87289 9.97741 4.17293 5.13741 9.07293C0.0274124 14.2429 -0.102588 21.1529 0.0274119 28.1829C0.207412 37.4529 -0.232588 44.0329 1.61741 51.5229C2.98741 57.1029 6.89741 61.1629 11.7474 64.0429C16.8674 67.0829 25.4174 67.2129 32.6074 67.2029C34.6374 67.2029 36.4774 67.2029 38.1674 67.1929C39.8574 67.2029 41.6874 67.2029 43.7274 67.2029C50.9174 67.2029 59.4774 67.0829 64.5874 64.0429C69.4374 61.1629 73.3474 57.1029 74.7174 51.5229C76.5574 44.0329 76.1274 37.4429 76.3074 28.1829C76.4374 21.1429 76.3074 14.2429 71.1974 9.07293Z" fill="url(#paint0_linear_90_13689)"/>
<g opacity="0.3">
<path d="M71.1974 9.07293C66.3574 4.18293 59.6074 1.87289 52.9574 0.972893C48.1674 0.322893 43.1174 0.302888 38.1674 0.342888C33.2174 0.302888 28.1674 0.322893 23.3774 0.972893C16.7274 1.87289 9.97741 4.17293 5.13741 9.07293C0.0274124 14.2429 -0.102588 21.1529 0.0274119 28.1829C0.207412 37.4529 -0.232588 44.0329 1.61741 51.5229C2.98741 57.1029 6.89741 61.1629 11.7474 64.0429C16.8674 67.0829 25.4174 67.2129 32.6074 67.2029C34.6374 67.2029 41.6874 67.2029 43.7274 67.2029C50.9174 67.2029 59.4774 67.0829 64.5874 64.0429C69.4374 61.1629 73.3474 57.1029 74.7174 51.5229C76.5574 44.0329 76.1274 37.4429 76.3074 28.1829C76.4374 21.1429 76.3074 14.2429 71.1974 9.07293Z" fill="url(#paint1_radial_90_13689)"/>
</g>
<path d="M69.6375 8.17291C65.0575 3.59291 58.6675 1.43291 52.3775 0.602907C48.2375 0.0529073 43.8875 -0.0170683 39.5875 0.00293174C35.2975 -0.0170683 30.9475 0.0529073 26.7975 0.602907C20.5075 1.44291 14.1175 3.60291 9.53746 8.17291C4.69746 13.0129 4.57746 19.4729 4.69746 26.0529C4.86746 34.7229 4.44746 40.8829 6.19746 47.8829C7.49746 53.1029 10.8375 56.6729 15.3675 59.4629C19.8175 62.2129 28.2475 62.4629 35.5375 62.5429C36.9875 62.5629 38.3275 62.5729 39.5875 62.5729C40.8475 62.5729 42.1875 62.5629 43.6375 62.5429C50.9275 62.4629 59.3475 62.2029 63.8075 59.4629C68.3375 56.6629 71.6675 53.1029 72.9775 47.8829C74.7275 40.8729 74.3075 34.7129 74.4775 26.0529C74.6075 19.4729 74.4775 13.0129 69.6375 8.17291Z" fill="url(#paint2_linear_90_13689)"/>
<path d="M74.4775 24.0529C74.3075 32.7229 74.7275 38.8829 72.9775 45.8829C71.6775 51.1029 68.3375 54.6729 63.8075 57.4629C59.3575 60.2129 50.9275 60.4629 43.6375 60.5429C42.1875 60.5629 36.9875 60.5629 35.5275 60.5429C28.2375 60.4629 19.8175 60.2029 15.3575 57.4629C10.8275 54.6629 7.4975 51.1029 6.1875 45.8829C4.4375 38.8729 4.8575 32.7129 4.6875 24.0529C4.6875 23.6429 4.6775 23.2329 4.6675 22.8229C4.6575 23.8929 4.6675 24.9729 4.6875 26.0529C4.8575 34.7229 4.4375 40.8829 6.1875 47.8829C7.4875 53.1029 10.8275 56.6729 15.3575 59.4629C19.8075 62.2129 28.2375 62.4629 35.5275 62.5429C36.9775 62.5629 42.1775 62.5629 43.6375 62.5429C50.9275 62.4629 59.3475 62.2029 63.8075 59.4629C68.3375 56.6629 71.6675 53.1029 72.9775 47.8829C74.7275 40.8729 74.3075 34.7129 74.4775 26.0529C74.4975 24.9729 74.5075 23.8929 74.4975 22.8229C74.4975 23.2329 74.4875 23.6429 74.4775 24.0529Z" fill="url(#paint3_radial_90_13689)"/>
<path d="M39.5873 9.26294C35.5073 9.37294 31.4373 9.5529 27.3673 9.8429C21.2473 10.2829 16.8673 12.3329 13.7773 15.4229C10.7373 18.4629 10.5773 22.9429 10.6973 28.9429C10.7373 30.7729 10.7373 32.4929 10.7473 34.1329C10.7873 40.6429 11.9473 45.1929 18.1073 48.7229C23.9073 52.0429 27.3573 51.4729 35.5273 51.5529C36.9773 51.5629 38.3173 51.5829 39.5773 51.5829C40.8373 51.5829 42.1773 51.5729 43.6273 51.5529C51.7973 51.4729 55.2473 52.0429 61.0473 48.7229C67.2073 45.1929 68.3773 40.6429 68.4073 34.1329C68.4073 32.4929 68.4273 30.7729 68.4573 28.9429C68.5773 22.9429 68.4173 18.4629 65.3773 15.4229C62.2873 12.3429 57.9073 10.2829 51.7873 9.8429C47.7173 9.5529 43.6473 9.37294 39.5673 9.26294H39.5873Z" fill="#FFCA60"/>
<path d="M69.6375 8.17291C65.0575 3.59291 58.6675 1.43291 52.3775 0.602907C48.2375 0.0529073 43.8875 -0.0170683 39.5875 0.00293174C35.2975 -0.0170683 30.9475 0.0529073 26.7975 0.602907C20.5075 1.44291 14.1175 3.60291 9.53746 8.17291C4.69746 13.0129 4.57746 19.4729 4.69746 26.0529C4.83746 33.2629 4.69746 40.7929 6.19746 47.8829C4.56746 40.2229 21.6575 33.5429 26.7075 31.6129C30.8775 30.0229 35.1975 28.7829 39.5775 27.8829C43.9675 28.7829 48.2775 30.0229 52.4475 31.6129C57.4975 33.5429 74.5875 40.2229 72.9575 47.8829C74.4675 40.7929 74.3175 33.2529 74.4575 26.0529C74.5875 19.4729 74.4575 13.0129 69.6175 8.17291H69.6375Z" fill="url(#paint4_linear_90_13689)"/>
<path d="M65.3973 13.4129C62.3073 10.3329 57.9273 8.27289 51.8073 7.83289C47.7373 7.54289 43.6673 7.36293 39.5873 7.25293C35.5073 7.36293 31.4373 7.54289 27.3673 7.83289C21.2473 8.27289 16.8673 10.3229 13.7773 13.4129C10.7373 16.4529 10.5773 20.9329 10.6973 26.9329C10.7373 28.7629 10.7373 30.4829 10.7473 32.1229C10.7873 38.6329 11.9473 43.1829 18.1073 46.7129C23.9073 50.0329 27.3573 49.4629 35.5273 49.5429C36.9773 49.5529 38.3173 49.5729 39.5773 49.5729C40.8373 49.5729 42.1773 49.5629 43.6273 49.5429C51.7973 49.4629 55.2473 50.0329 61.0473 46.7129C67.2073 43.1829 68.3773 38.6329 68.4073 32.1229C68.4073 30.4829 68.4273 28.7629 68.4573 26.9329C68.5773 20.9329 68.4173 16.4529 65.3773 13.4129H65.3973Z" fill="url(#paint5_linear_90_13689)"/>
<path d="M25.3814 27.3933C24.7872 27.3933 24.2085 27.1034 23.8656 26.5735C23.3357 25.7499 23.5831 24.6594 24.4189 24.1372L38.9339 15.0638C39.5243 14.6952 40.2763 14.6972 40.8628 15.0696L55.1771 24.143C56.009 24.6709 56.2506 25.7633 55.7148 26.5831C55.179 27.4029 54.0704 27.641 53.2385 27.113L39.8866 18.6502L26.338 27.1188C26.0399 27.305 25.7087 27.3933 25.3795 27.3933H25.3814Z" fill="#963206"/>
<path d="M49.8579 28.5523L41.1307 22.3139C40.5348 21.887 39.7421 21.8851 39.1423 22.3043L30.6421 28.2561C30.171 28.5869 29.8892 29.1311 29.8892 29.7138V40.931C29.8892 41.908 30.6686 42.7002 31.6297 42.7002H48.8571C49.8182 42.7002 50.5976 41.908 50.5976 40.931V30.0004C50.5976 29.4254 50.3214 28.885 49.8579 28.5542V28.5523ZM43.3101 37.3868C43.3101 38.4849 42.4342 39.3772 41.352 39.3772H39.1329C38.0526 39.3772 37.1748 38.4868 37.1748 37.3868V34.3349C37.1748 33.2349 38.0507 32.3446 39.1329 32.3446H41.352C42.4342 32.3446 43.3101 33.2349 43.3101 34.3349V37.3868Z" fill="#963206"/>
<g filter="url(#filter0_ii_90_13689)">
<path d="M25.2431 26.2844C24.6562 26.2844 24.081 25.9928 23.7412 25.46C23.2162 24.6318 23.4613 23.5352 24.2894 23.01L38.6708 13.8861C39.2557 13.5154 40.0009 13.5173 40.5819 13.8919L54.7644 23.0158C55.5887 23.5468 55.8281 24.6453 55.2972 25.4696C54.7664 26.294 53.668 26.5334 52.8437 26.0025L39.6148 17.4924L26.1909 26.0083C25.8955 26.1955 25.5674 26.2844 25.2411 26.2844H25.2431Z" fill="#FFEFC2"/>
</g>
<g filter="url(#filter1_ii_90_13689)">
<path d="M49.7666 26.626L40.8617 20.3631C40.2536 19.9345 39.4448 19.9326 38.8329 20.3535L30.1597 26.3287C29.679 26.6607 29.3914 27.2071 29.3914 27.7921V39.0532C29.3914 40.034 30.1867 40.8294 31.1673 40.8294H48.7454C49.726 40.8294 50.5214 40.034 50.5214 39.0532V28.0797C50.5214 27.5025 50.2395 26.96 49.7666 26.6279V26.626ZM43.0855 35.4951C43.0855 36.5975 42.1917 37.4933 41.0876 37.4933H38.8232C37.721 37.4933 36.8253 36.5994 36.8253 35.4951V32.4313C36.8253 31.327 37.719 30.4331 38.8232 30.4331H41.0876C42.1917 30.4331 43.0855 31.327 43.0855 32.4313V35.4951Z" fill="#FFEFC2"/>
</g>
<path d="M39.5873 6.26294C35.5073 6.37294 31.4373 6.5529 27.3673 6.8429C21.2473 7.2829 16.8673 9.33291 13.7773 12.4229C10.7373 15.4629 10.5773 19.9329 10.6973 25.9229C10.8173 21.9029 11.4573 18.7429 13.7773 16.4229C16.8673 13.3429 21.2473 11.2829 27.3673 10.8429C31.4373 10.5529 35.5073 10.3729 39.5873 10.2629C43.6673 10.3729 47.7373 10.5529 51.8073 10.8429C57.9273 11.2829 62.3073 13.3329 65.3973 16.4229C67.7173 18.7429 68.3573 21.8929 68.4773 25.9229C68.5973 19.9329 68.4373 15.4629 65.3973 12.4229C62.3073 9.34291 57.9273 7.2829 51.8073 6.8429C47.7373 6.5529 43.6673 6.37294 39.5873 6.26294Z" fill="#963206"/>
<path d="M39.5875 0.00293174C35.2975 -0.0170683 30.9475 0.0529073 26.7975 0.602907C20.5075 1.44291 14.1175 3.60291 9.53749 8.17291C4.99749 12.7129 4.60749 18.6729 4.67749 24.8229C4.73749 19.3929 5.48749 14.2229 9.53749 10.1729C14.1175 5.59291 20.5075 3.43291 26.7975 2.60291C30.9375 2.05291 35.2875 1.98293 39.5875 2.00293C43.8775 1.98293 48.2275 2.05291 52.3775 2.60291C58.6675 3.44291 65.0575 5.60291 69.6375 10.1729C73.6775 14.2129 74.4275 19.3829 74.4975 24.8229C74.5675 18.6729 74.1775 12.7129 69.6375 8.17291C65.0575 3.59291 58.6675 1.43291 52.3775 0.602907C48.2375 0.0529073 43.8875 -0.0170683 39.5875 0.00293174Z" fill="#F6F091"/>
<g opacity="0.73">
<path d="M65.8375 53.3329C64.3675 53.9329 65.0975 55.6329 66.5475 54.9229C68.0775 54.1729 66.8175 52.3529 65.5875 53.4629L65.8375 53.3429V53.3329Z" fill="#B28222"/>
</g>
<g opacity="0.73">
<path d="M58.5274 58.1929C61.0574 60.9629 67.1974 52.9429 61.6574 54.2229C60.5474 54.4829 57.2574 56.3429 58.3174 57.9229C58.3874 58.0229 58.4574 58.1129 58.5274 58.1929Z" fill="#B28222"/>
</g>
<defs>
<filter id="filter0_ii_90_13689" x="23.4648" y="12.6095" width="32.115" height="14.6755" filterUnits="userSpaceOnUse" color-interpolation-filters="sRGB">
<feFlood flood-opacity="0" result="BackgroundImageFix"/>
<feBlend mode="normal" in="SourceGraphic" in2="BackgroundImageFix" result="shape"/>
<feColorMatrix in="SourceAlpha" type="matrix" values="0 0 0 0 0 0 0 0 0 0 0 0 0 0 0 0 0 0 127 0" result="hardAlpha"/>
<feOffset dy="-1"/>
<feGaussianBlur stdDeviation="0.5"/>
<feComposite in2="hardAlpha" operator="arithmetic" k2="-1" k3="1"/>
<feColorMatrix type="matrix" values="0 0 0 0 0.858824 0 0 0 0 0.498039 0 0 0 0 0.00392157 0 0 0 0.25 0"/>
<feBlend mode="normal" in2="shape" result="effect1_innerShadow_90_13689"/>
<feColorMatrix in="SourceAlpha" type="matrix" values="0 0 0 0 0 0 0 0 0 0 0 0 0 0 0 0 0 0 127 0" result="hardAlpha"/>
<feOffset dy="1"/>
<feGaussianBlur stdDeviation="0.5"/>
<feComposite in2="hardAlpha" operator="arithmetic" k2="-1" k3="1"/>
<feColorMatrix type="matrix" values="0 0 0 0 1 0 0 0 0 1 0 0 0 0 1 0 0 0 0.4 0"/>
<feBlend mode="normal" in2="effect1_innerShadow_90_13689" result="effect2_innerShadow_90_13689"/>
</filter>
<filter id="filter1_ii_90_13689" x="29.3914" y="19.0397" width="21.1301" height="22.7896" filterUnits="userSpaceOnUse" color-interpolation-filters="sRGB">
<feFlood flood-opacity="0" result="BackgroundImageFix"/>
<feBlend mode="normal" in="SourceGraphic" in2="BackgroundImageFix" result="shape"/>
<feColorMatrix in="SourceAlpha" type="matrix" values="0 0 0 0 0 0 0 0 0 0 0 0 0 0 0 0 0 0 127 0" result="hardAlpha"/>
<feOffset dy="-1"/>
<feGaussianBlur stdDeviation="0.5"/>
<feComposite in2="hardAlpha" operator="arithmetic" k2="-1" k3="1"/>
<feColorMatrix type="matrix" values="0 0 0 0 0.858824 0 0 0 0 0.498039 0 0 0 0 0.00392157 0 0 0 0.25 0"/>
<feBlend mode="normal" in2="shape" result="effect1_innerShadow_90_13689"/>
<feColorMatrix in="SourceAlpha" type="matrix" values="0 0 0 0 0 0 0 0 0 0 0 0 0 0 0 0 0 0 127 0" result="hardAlpha"/>
<feOffset dy="1"/>
<feGaussianBlur stdDeviation="0.5"/>
<feComposite in2="hardAlpha" operator="arithmetic" k2="-1" k3="1"/>
<feColorMatrix type="matrix" values="0 0 0 0 1 0 0 0 0 1 0 0 0 0 1 0 0 0 0.4 0"/>
<feBlend mode="normal" in2="effect1_innerShadow_90_13689" result="effect2_innerShadow_90_13689"/>
</filter>
<linearGradient id="paint0_linear_90_13689" x1="38.1774" y1="-742.578" x2="38.1774" y2="-742.578" gradientUnits="userSpaceOnUse">
<stop stop-color="#AD5D00"/>
<stop offset="1" stop-color="#FF8900"/>
</linearGradient>
<radialGradient id="paint1_radial_90_13689" cx="0" cy="0" r="1" gradientUnits="userSpaceOnUse" gradientTransform="translate(39.0002 -742.078) scale(81.12 84.5001)">
<stop offset="0.87"/>
<stop offset="0.99" stop-color="#6D4900"/>
</radialGradient>
<linearGradient id="paint2_linear_90_13689" x1="39.5875" y1="-742.577" x2="39.5875" y2="-742.577" gradientUnits="userSpaceOnUse">
<stop stop-color="#FAB731"/>
<stop offset="1" stop-color="#FAB731"/>
</linearGradient>
<radialGradient id="paint3_radial_90_13689" cx="0" cy="0" r="1" gradientUnits="userSpaceOnUse" gradientTransform="translate(139.397 -742.076) scale(123.45 123.45)">
<stop offset="0.21" stop-color="#FFE5B3"/>
<stop offset="1" stop-color="#FFD072"/>
</radialGradient>
<linearGradient id="paint4_linear_90_13689" x1="54.3875" y1="70.6029" x2="27.3274" y2="-2.62707" gradientUnits="userSpaceOnUse">
<stop/>
<stop offset="1" stop-color="#FAB731"/>
</linearGradient>
<linearGradient id="paint5_linear_90_13689" x1="39.5873" y1="-742.577" x2="39.5873" y2="-742.577" gradientUnits="userSpaceOnUse">
<stop offset="0.01" stop-color="#D87C12"/>
<stop offset="1" stop-color="#DF9138"/>
</linearGradient>
</defs>
</svg>
