<svg width="300" height="70" viewBox="0 0 300 70" fill="none" xmlns="http://www.w3.org/2000/svg">
<path d="M299.985 10.9514C300.015 15.573 299.392 65.1681 298.403 67.6513C298.038 68.5856 297.628 69.1625 297.171 69.219C289.081 70.2474 12.8699 70.3289 4.79483 69.0497C4.20174 68.9556 3.62386 68.2407 3.04599 67.0995C0.825711 62.6849 -0.953551 7.40221 0.567185 2.93745C0.916954 1.94668 1.40359 1.26945 2.10313 1.02489C4.17133 0.297487 288.944 -0.85006 297.171 0.999802C299.118 1.44502 299.954 5.92233 299.985 10.8699C300 10.9201 300 10.9514 300 10.9514H299.985Z" fill="url(#paint0_linear_90_9599)"/>
<path d="M299.985 10.9514C300.015 15.573 299.392 65.1681 298.403 67.6513C298.038 68.5856 297.628 69.1625 297.171 69.219C289.081 70.2474 12.8699 70.3289 4.79483 69.0497C4.20174 68.9556 3.62386 68.2407 3.04599 67.0995C0.825711 62.6849 -0.953551 7.40221 0.567185 2.93745C0.916954 1.94668 1.40359 1.26945 2.10313 1.02489C4.17133 0.297487 288.944 -0.85006 297.171 0.999802C299.118 1.44502 299.954 5.92233 299.985 10.8699C300 10.9201 300 10.9514 300 10.9514H299.985Z" fill="url(#paint1_linear_90_9599)"/>
<g style="mix-blend-mode:color-dodge" opacity="0.32">
<path d="M299.969 10.8699C299.878 10.13 298.951 4.14143 293.871 2.99389C288.503 1.77737 40.5168 -1.26393 0.55188 2.93745C0.901649 1.94668 1.38828 1.26945 2.08782 1.02489C4.15602 0.297487 288.929 -0.85006 297.156 0.999803C299.103 1.44502 299.939 5.92233 299.969 10.8699Z" fill="#FF7E8B"/>
</g>
<g style="mix-blend-mode:color-dodge" opacity="0.32">
<path d="M184.531 0.491839C181.976 0.516922 274.437 2.10969 288.214 1.74598C301.977 1.38228 294.16 -0.505206 184.531 0.491839Z" fill="#FF7E8B"/>
</g>
<path d="M278.147 2.14122C279.364 2.07851 277.828 1.16298 272.383 0.956045C266.939 0.749111 265.13 1.63328 265.221 1.7587C265.297 1.88411 275.014 2.30426 278.162 2.14122H278.147Z" fill="white"/>
<path d="M233.088 1.38851C233.422 1.35089 233.027 0.943303 231.552 0.874326C230.061 0.805348 229.544 1.22548 229.56 1.28192C229.575 1.33836 232.221 1.48257 233.103 1.38851H233.088Z" fill="white"/>
<g style="mix-blend-mode:multiply">
<path d="M298.403 67.6512C298.038 68.5855 297.628 69.1624 297.171 69.2189C289.081 70.2473 12.8699 70.3288 4.7948 69.0496C4.20171 68.9555 3.62384 68.2406 3.04596 67.0994C17.4321 69.5011 232.723 71.3196 298.403 67.6512Z" fill="#FF459D"/>
</g>
<g style="mix-blend-mode:multiply">
<path d="M284.291 16.4508C284.26 12.6508 283.515 9.20188 281.766 8.86326C274.406 7.44607 19.4242 8.32397 17.5689 8.88207C16.9454 9.07019 16.5044 9.59693 16.2002 10.3557C15.4855 12.1617 15.5767 24.7344 16.1394 36.7617C16.6108 47.6414 17.4777 58.0633 18.4053 59.6812C18.9072 60.5591 19.4546 61.1046 19.9717 61.1799C27.1952 62.1644 274.528 62.1017 281.766 61.3116C282.177 61.2677 282.542 60.8287 282.876 60.1076C283.515 58.7468 283.971 39.0191 284.184 26.4965C284.184 26.4965 284.199 26.4965 284.184 26.4902C284.275 21.4298 284.306 17.5419 284.306 16.5135C284.306 16.5135 284.306 16.4947 284.291 16.4571V16.4508ZM282.511 35.0122C282.268 45.7602 279.561 57.9003 279.075 58.9099C278.755 59.5997 278.39 60.0135 277.995 60.0637C274.36 60.4525 208.71 61.2551 145.007 61.2363C85.196 61.2175 27.1039 60.3898 23.6975 59.9383C23.1956 59.8756 22.6786 59.3426 22.1919 58.5148C21.2795 56.9722 18.1316 47.7919 17.6602 37.3699C17.1431 25.9635 20.4887 11.2085 21.0818 11.0329C22.0095 10.757 90.5946 8.66886 155.576 8.58107C216.648 8.48701 274.543 9.45271 277.995 10.1049C278.938 10.2804 280.246 15.1591 281.234 20.9469C282.04 25.7252 282.603 31.1306 282.527 35.0184L282.511 35.0122Z" fill="#FF459D"/>
</g>
<path style="mix-blend-mode:multiply" d="M284.306 16.5073C284.306 17.5357 284.276 21.4173 284.184 26.4841C283.865 25.6751 282.907 23.3863 281.234 20.947C278.923 17.5545 275.273 13.8548 270.194 13.4409C260.567 12.6383 29.9021 11.6099 25.1422 17.172C20.3823 22.7404 17.6602 37.3763 17.6602 37.3763L16.1547 36.768C15.592 24.7408 15.5008 12.168 16.2155 10.362C16.5197 9.60326 16.9607 9.08281 17.5842 8.88842C19.4395 8.33032 274.421 7.45242 281.782 8.8696C283.53 9.20822 284.276 12.6571 284.306 16.4572C284.321 16.4948 284.321 16.5136 284.321 16.5136L284.306 16.5073Z" fill="url(#paint2_linear_90_9599)"/>
<g style="mix-blend-mode:color-dodge" opacity="0.14">
<path d="M18.4968 45.2524C17.9797 41.0698 269.22 41.8285 276.52 42.6625C283.82 43.4965 277.995 60.0638 277.995 60.0638C277.995 60.0638 122.378 63.3559 23.6977 59.9384C23.6977 59.9384 19.1963 50.8396 18.4968 45.2524Z" fill="#FF7E8B"/>
</g>
<path d="M69.3196 60.6408C66.4606 60.5781 76.0717 59.3176 80.1168 59.5622C84.162 59.8068 89.3021 61.086 69.3196 60.6408Z" fill="white"/>
<path d="M30.7386 68.1467C28.716 68.1906 30.6017 66.8487 32.2289 67.1371C33.8561 67.4256 35.8787 68.0338 30.7386 68.1467Z" fill="white"/>
<defs>
<linearGradient id="paint0_linear_90_9599" x1="149.995" y1="70.0028" x2="149.995" y2="0.00276208" gradientUnits="userSpaceOnUse">
<stop stop-color="#FF5B8B"/>
<stop offset="1" stop-color="#FC98AF"/>
</linearGradient>
<linearGradient id="paint1_linear_90_9599" x1="149.995" y1="70.0028" x2="149.995" y2="0.00276208" gradientUnits="userSpaceOnUse">
<stop stop-color="#FF5B8B"/>
<stop offset="1" stop-color="#FC98AF"/>
</linearGradient>
<linearGradient id="paint2_linear_90_9599" x1="149.995" y1="17.1595" x2="149.995" y2="-12.1122" gradientUnits="userSpaceOnUse">
<stop stop-color="white"/>
<stop offset="0.07" stop-color="#F8E4EF"/>
<stop offset="0.27" stop-color="#E69FC7"/>
<stop offset="0.46" stop-color="#D766A6"/>
<stop offset="0.63" stop-color="#CC3A8C"/>
<stop offset="0.78" stop-color="#C31A79"/>
<stop offset="0.91" stop-color="#BE066E"/>
<stop offset="1" stop-color="#BD006A"/>
</linearGradient>
</defs>
</svg>
