<svg width="41" height="40" viewBox="0 0 41 40" fill="none" xmlns="http://www.w3.org/2000/svg">
<path d="M12.7522 40.0001C9.23638 40.0001 5.83986 38.5257 3.43726 35.957C1.22094 33.5876 0 30.4934 0 27.2479V12.7537C0 8.73825 1.92673 4.9091 5.15299 2.51061C7.36349 0.86893 9.99019 6.10352e-05 12.7508 6.10352e-05H27.5141C30.9208 6.10352e-05 34.1224 1.32595 36.5308 3.73462C38.9392 6.14329 40.2649 9.3466 40.2649 12.7522V27.2464C40.2649 30.949 38.6583 34.4637 35.8584 36.8899C33.5432 38.8954 30.5803 40.0001 27.5127 40.0001H12.7493H12.7522Z" fill="#F2205E"/>
<path d="M27.5159 39.108H12.7525C9.33416 39.108 6.25343 37.6613 4.0895 35.3473C2.10747 33.2268 0.893799 30.3785 0.893799 27.2465V12.7523C0.893799 8.84895 2.77833 5.38658 5.68734 3.22532C7.66064 1.75829 10.1054 0.890869 12.754 0.890869H27.5173C30.7916 0.890869 33.7574 2.21817 35.9038 4.36487C38.0503 6.51157 39.3775 9.47622 39.3775 12.7523V27.2465C39.3775 30.8283 37.7898 34.0403 35.2795 36.2147C33.2 38.0165 30.486 39.1065 27.5188 39.1065L27.5159 39.108Z" fill="url(#paint0_linear_513_785)"/>
<path d="M11.0945 20.7963C11.1484 20.3669 11.403 20.0206 11.7465 19.8183C12.0754 19.6247 12.4872 19.565 12.8816 19.6916L13.5219 19.8968C13.7998 19.9856 14.0297 20.1544 14.1942 20.3727C14.4023 20.6493 14.5071 21.0044 14.4707 21.3712C14.4532 21.5443 14.4459 21.7175 14.4459 21.8922C14.4459 24.8728 16.9126 27.2873 19.9118 27.2029C22.6811 27.1243 24.9891 24.816 25.0677 22.0464C25.1506 19.1298 22.7699 16.7226 19.8972 16.5931V18.7718C19.8972 19.0658 19.7241 19.2943 19.4927 19.3991C19.2773 19.4966 19.0125 19.4864 18.7942 19.3205L13.9497 15.6558C13.6892 15.4593 13.5597 15.1654 13.5597 14.8714C13.5597 14.5774 13.6892 14.2834 13.9497 14.0869L18.7942 10.4222C19.0372 10.2374 19.337 10.2461 19.564 10.3815C19.759 10.4979 19.8987 10.709 19.8987 10.9724V13.1758C24.7403 13.3097 28.7102 17.3906 28.4802 22.3113C28.2721 26.7532 24.618 30.4077 20.1767 30.6158C15.1736 30.8501 11.0291 26.8478 11.0291 21.8937C11.0291 21.5254 11.0523 21.1601 11.0974 20.7977L11.0945 20.7963Z" fill="#F2205E"/>
<path d="M11.4464 19.386C11.5002 18.9567 11.7549 18.6102 12.0983 18.4079C12.4272 18.2144 12.839 18.1547 13.2334 18.2813L13.8737 18.4865C14.1516 18.5753 14.3816 18.7442 14.546 18.9625C14.7541 19.239 14.8589 19.5941 14.8225 19.9609C14.805 20.1341 14.7978 20.3072 14.7978 20.4819C14.7978 23.4625 17.2644 25.877 20.2636 25.7926C23.0329 25.714 25.3409 23.4058 25.4195 20.6362C25.5025 17.7196 23.1217 15.3123 20.2491 15.1828V17.3615C20.2491 17.6555 20.0759 17.884 19.8445 17.9888C19.6291 18.0863 19.3643 18.0761 19.146 17.9102L14.3015 14.2455C14.041 14.0491 13.9115 13.7551 13.9115 13.4611C13.9115 13.1671 14.041 12.8731 14.3015 12.6766L19.146 9.01196C19.389 8.82713 19.6888 8.83586 19.9158 8.97121C20.1108 9.08764 20.2505 9.29868 20.2505 9.56211V11.7656C25.0921 11.8995 29.062 15.9804 28.832 20.9011C28.6239 25.3429 24.9699 28.9974 20.5285 29.2055C15.5254 29.4398 11.3809 25.4375 11.3809 20.4833C11.3809 20.1151 11.4042 19.7498 11.4493 19.3874L11.4464 19.386Z" fill="white"/>
<path d="M35.2766 34.3415C33.1971 36.1433 30.4831 37.2334 27.5159 37.2334H12.7525C9.33416 37.2334 6.25343 35.7867 4.0895 33.4726C2.10747 31.3521 0.893799 28.504 0.893799 25.3719V27.245C0.893799 30.377 2.10747 33.2252 4.0895 35.3458C6.25343 37.6598 9.33416 39.1065 12.7525 39.1065H27.5159C30.4831 39.1065 33.1971 38.0164 35.2766 36.2146C37.7869 34.0403 39.3746 30.8282 39.3746 27.2465V25.3734C39.3746 28.9551 37.7869 32.1672 35.2766 34.3415Z" fill="#C7003B"/>
<path d="M35.9026 4.36487C33.7562 2.21817 30.7918 0.890869 27.5161 0.890869H12.7527C10.1057 0.890869 7.65942 1.75829 5.68612 3.22532C2.77711 5.38658 0.892578 8.84895 0.892578 12.7523V15.4288C0.892578 11.5254 2.77711 8.06303 5.68612 5.90177C7.65942 4.43474 10.1042 3.56732 12.7527 3.56732H27.5161C30.7904 3.56732 33.7562 4.89465 35.9026 7.04136C38.0491 9.18806 39.3763 12.1527 39.3763 15.4288V12.7523C39.3763 9.47768 38.0491 6.51157 35.9026 4.36487Z" fill="#FF98B8"/>
<path d="M5.14577 7.58844C5.65365 8.46895 7.1278 8.57084 8.43752 7.81403C9.74723 7.05869 10.3963 5.73135 9.88839 4.85084C9.38051 3.97033 7.90635 3.86844 6.59664 4.62525C5.28693 5.3806 4.6379 6.70793 5.14577 7.5899V7.58844Z" fill="white"/>
<path d="M10.734 6.28432C10.977 6.70493 11.6799 6.75295 12.3042 6.39202C12.9285 6.03108 13.2384 5.39795 12.9954 4.9788C12.7524 4.55819 12.0495 4.51017 11.4252 4.8711C10.8009 5.23204 10.4909 5.86516 10.734 6.28432Z" fill="white"/>
<path opacity="0.7" d="M33.9798 34.1816C34.396 34.8161 33.8969 35.8786 32.8666 36.5539C31.8363 37.2292 30.6633 37.2627 30.2471 36.6281C29.8309 35.9936 30.3301 34.9311 31.3604 34.2558C32.3907 33.5805 33.5636 33.547 33.9798 34.1816Z" fill="white"/>
<defs>
<linearGradient id="paint0_linear_513_785" x1="20.1335" y1="39.108" x2="20.1335" y2="0.890869" gradientUnits="userSpaceOnUse">
<stop stop-color="#F2205E"/>
<stop offset="1" stop-color="#FE7BA4"/>
</linearGradient>
</defs>
</svg>
