<svg width="32" height="27" viewBox="0 0 32 27" fill="none" xmlns="http://www.w3.org/2000/svg">
<g filter="url(#filter0_dii_90_26354)">
<path d="M27.3406 8.0879C27.0028 7.79373 26.5632 7.6159 26.08 7.6159H17.1653V3.45384C17.1653 2.83963 16.8065 2.36121 16.3265 2.13816C15.8739 1.92642 15.3147 1.94419 14.8493 2.28847L4.84687 9.70585C4.28283 10.1245 4 10.7548 4 11.3868C4 12.0188 4.28121 12.6492 4.84687 13.0678L14.8493 20.4852C15.3632 20.865 15.9903 20.8456 16.4638 20.5628C16.8727 20.3171 17.1653 19.8726 17.1653 19.3198V15.1578H26.08C26.6925 15.1578 27.2372 14.8717 27.5895 14.4255C27.8465 14.099 28 13.6869 28 13.2375V9.53937C28 8.96072 27.7446 8.4435 27.3406 8.09114V8.0879Z" fill="white"/>
</g>
<defs>
<filter id="filter0_dii_90_26354" x="0" y="0" width="32" height="26.773" filterUnits="userSpaceOnUse" color-interpolation-filters="sRGB">
<feFlood flood-opacity="0" result="BackgroundImageFix"/>
<feColorMatrix in="SourceAlpha" type="matrix" values="0 0 0 0 0 0 0 0 0 0 0 0 0 0 0 0 0 0 127 0" result="hardAlpha"/>
<feOffset dy="2"/>
<feGaussianBlur stdDeviation="2"/>
<feComposite in2="hardAlpha" operator="out"/>
<feColorMatrix type="matrix" values="0 0 0 0 0.245192 0 0 0 0 0 0 0 0 0 0.147115 0 0 0 0.29 0"/>
<feBlend mode="multiply" in2="BackgroundImageFix" result="effect1_dropShadow_90_26354"/>
<feBlend mode="normal" in="SourceGraphic" in2="effect1_dropShadow_90_26354" result="shape"/>
<feColorMatrix in="SourceAlpha" type="matrix" values="0 0 0 0 0 0 0 0 0 0 0 0 0 0 0 0 0 0 127 0" result="hardAlpha"/>
<feOffset dy="-1"/>
<feGaussianBlur stdDeviation="0.5"/>
<feComposite in2="hardAlpha" operator="arithmetic" k2="-1" k3="1"/>
<feColorMatrix type="matrix" values="0 0 0 0 0.740385 0 0 0 0 0 0 0 0 0 0.201333 0 0 0 0.64 0"/>
<feBlend mode="multiply" in2="shape" result="effect2_innerShadow_90_26354"/>
<feColorMatrix in="SourceAlpha" type="matrix" values="0 0 0 0 0 0 0 0 0 0 0 0 0 0 0 0 0 0 127 0" result="hardAlpha"/>
<feOffset dy="1"/>
<feGaussianBlur stdDeviation="0.5"/>
<feComposite in2="hardAlpha" operator="arithmetic" k2="-1" k3="1"/>
<feColorMatrix type="matrix" values="0 0 0 0 1 0 0 0 0 0.677885 0 0 0 0 0.771899 0 0 0 0.23 0"/>
<feBlend mode="normal" in2="effect2_innerShadow_90_26354" result="effect3_innerShadow_90_26354"/>
</filter>
</defs>
</svg>
