<svg width="33" height="32" viewBox="0 0 33 32" fill="none" xmlns="http://www.w3.org/2000/svg">
<path d="M10.2018 32C7.3891 32 4.67189 30.8205 2.74981 28.7655C0.976754 26.87 0 24.3947 0 21.7983V10.2029C0 6.99055 1.54138 3.92723 4.12239 2.00844C5.89079 0.695095 7.99215 0 10.2006 0H22.0113C24.7367 0 27.2979 1.06071 29.2246 2.98765C31.1513 4.91459 32.2119 7.47723 32.2119 10.2017V21.7971C32.2119 24.7591 30.9267 27.5709 28.6868 29.5118C26.8345 31.1163 24.4642 32 22.0101 32H10.1995H10.2018Z" fill="#F2205E"/>
<path d="M22.0125 31.2864H10.2018C7.46714 31.2864 5.00255 30.1291 3.2714 28.2778C1.68578 26.5814 0.714844 24.3028 0.714844 21.7972V10.2019C0.714844 7.07917 2.22247 4.30928 4.54968 2.58027C6.12832 1.40664 8.08415 0.712708 10.203 0.712708H22.0137C24.6331 0.712708 27.0057 1.77455 28.7229 3.49191C30.4401 5.20927 31.5018 7.58099 31.5018 10.2019V21.7972C31.5018 24.6626 30.2317 27.2323 28.2234 28.9718C26.5598 30.4132 24.3886 31.2852 22.0148 31.2852L22.0125 31.2864Z" fill="url(#paint0_linear_105_1777)"/>
<path d="M28.2211 27.4731C26.5575 28.9146 24.3863 29.7866 22.0125 29.7866H10.2018C7.46714 29.7866 5.00255 28.6293 3.2714 26.778C1.68578 25.0816 0.714844 22.8031 0.714844 20.2975V21.7959C0.714844 24.3015 1.68578 26.5801 3.2714 28.2765C5.00255 30.1278 7.46714 31.2851 10.2018 31.2851H22.0125C24.3863 31.2851 26.5575 30.413 28.2211 28.9716C30.2293 27.2321 31.4995 24.6625 31.4995 21.7971V20.2987C31.4995 23.164 30.2293 25.7337 28.2211 27.4731Z" fill="#C7003B"/>
<path d="M28.7218 3.49191C27.0046 1.77455 24.6332 0.712708 22.0126 0.712708H10.2019C8.08422 0.712708 6.12722 1.40664 4.54858 2.58027C2.22137 4.30928 0.713745 7.07917 0.713745 10.2019V12.343C0.713745 9.22033 2.22137 6.45044 4.54858 4.72143C6.12722 3.5478 8.08306 2.85387 10.2019 2.85387H22.0126C24.632 2.85387 27.0046 3.91573 28.7218 5.6331C30.439 7.35046 31.5007 9.72215 31.5007 12.343V10.2019C31.5007 7.58216 30.439 5.20927 28.7218 3.49191Z" fill="#FF98B8"/>
<path d="M4.11657 6.07064C4.52287 6.77505 5.70219 6.85655 6.74996 6.25111C7.79773 5.64683 8.31696 4.58497 7.91066 3.88056C7.50436 3.17615 6.32503 3.09464 5.27727 3.70008C4.2295 4.30436 3.71027 5.36623 4.11657 6.0718V6.07064Z" fill="white"/>
<path d="M8.58702 5.0275C8.78144 5.36398 9.34374 5.4024 9.84318 5.11365C10.3426 4.82491 10.5906 4.3184 10.3962 3.98308C10.2017 3.6466 9.63944 3.60817 9.14001 3.89692C8.64057 4.18567 8.3926 4.69217 8.58702 5.0275Z" fill="white"/>
<path opacity="0.7" d="M27.1838 27.345C27.5167 27.8527 27.1174 28.7026 26.2932 29.2429C25.4689 29.7831 24.5306 29.8099 24.1976 29.3023C23.8647 28.7946 24.264 27.9447 25.0882 27.4044C25.9125 26.8642 26.8508 26.8374 27.1838 27.345Z" fill="white"/>
<path d="M24.4248 14.2198C24.1815 14.0079 23.8648 13.8798 23.5167 13.8798H17.095V10.8817C17.095 10.4393 16.8366 10.0947 16.4908 9.93399C16.1649 9.78147 15.7621 9.79427 15.4268 10.0423L8.22161 15.3853C7.8153 15.6869 7.61157 16.1409 7.61157 16.5962C7.61157 17.0514 7.81414 17.5055 8.22161 17.8071L15.4268 23.1501C15.797 23.4237 16.2487 23.4098 16.5898 23.206C16.8843 23.029 17.095 22.7088 17.095 22.3107V19.3125H23.5167C23.9579 19.3125 24.3503 19.1065 24.6029 18.7851C24.788 18.5499 24.8986 18.253 24.8986 17.9293V15.2654C24.8986 14.8486 24.7147 14.476 24.4236 14.2222L24.4248 14.2198Z" fill="#F2205E"/>
<path d="M24.1267 13.0274C23.8834 12.8155 23.5667 12.6874 23.2186 12.6874H16.797V9.68932C16.797 9.24688 16.5385 8.90226 16.1927 8.74158C15.8668 8.58906 15.464 8.60186 15.1287 8.84985L7.92351 14.1929C7.51721 14.4945 7.31348 14.9485 7.31348 15.4038C7.31348 15.859 7.51605 16.3131 7.92351 16.6147L15.1287 21.9577C15.4989 22.2313 15.9506 22.2173 16.2917 22.0136C16.5862 21.8366 16.797 21.5164 16.797 21.1182V18.1201H23.2186C23.6598 18.1201 24.0522 17.914 24.306 17.5927C24.4911 17.3575 24.6017 17.0606 24.6017 16.7369V14.073C24.6017 13.6562 24.4177 13.2836 24.1267 13.0298V13.0274Z" fill="white"/>
<defs>
<linearGradient id="paint0_linear_105_1777" x1="16.1066" y1="31.2864" x2="16.1066" y2="0.712708" gradientUnits="userSpaceOnUse">
<stop stop-color="#F2205E"/>
<stop offset="1" stop-color="#FE7BA4"/>
</linearGradient>
</defs>
</svg>
