<svg width="41" height="40" viewBox="0 0 41 40" fill="none" xmlns="http://www.w3.org/2000/svg">
<path d="M12.7522 40.0001C9.23638 40.0001 5.83986 38.5257 3.43726 35.957C1.22094 33.5876 0 30.4934 0 27.2479V12.7537C0 8.73825 1.92673 4.9091 5.15299 2.51061C7.36349 0.86893 9.99019 6.10352e-05 12.7508 6.10352e-05H27.5141C30.9208 6.10352e-05 34.1224 1.32595 36.5308 3.73462C38.9392 6.14329 40.2649 9.3466 40.2649 12.7522V27.2464C40.2649 30.949 38.6583 34.4637 35.8584 36.8899C33.5432 38.8954 30.5803 40.0001 27.5127 40.0001H12.7493H12.7522Z" fill="#F2205E"/>
<path d="M27.5159 39.108H12.7526C9.33422 39.108 6.25349 37.6613 4.08956 35.3473C2.10753 33.2268 0.89386 30.3785 0.89386 27.2465V12.7523C0.89386 8.84895 2.77839 5.38658 5.6874 3.22532C7.6607 1.75829 10.1055 0.890869 12.754 0.890869H27.5174C30.7917 0.890869 33.7574 2.21817 35.9039 4.36487C38.0504 6.51157 39.3776 9.47622 39.3776 12.7523V27.2465C39.3776 30.8283 37.7899 34.0403 35.2796 36.2147C33.2001 38.0165 30.4861 39.1065 27.5188 39.1065L27.5159 39.108Z" fill="url(#paint0_linear_105_1687)"/>
<path d="M18.2836 30.2049C15.2366 27.9264 9.20001 22.7174 9.20001 18.0298C9.20001 14.9315 11.4737 12.4198 14.6 12.4198C16.22 12.4198 17.84 12.9598 20 15.1198C22.16 12.9598 23.78 12.4198 25.4 12.4198C28.5263 12.4198 30.8 14.9315 30.8 18.0298C30.8 22.7174 24.7635 27.9264 21.7165 30.2049C20.6911 30.9716 19.3089 30.9716 18.2836 30.2049Z" stroke="#F2205E" stroke-width="1.62" stroke-linecap="round" stroke-linejoin="round"/>
<path d="M35.2767 34.3415C33.1972 36.1433 30.4832 37.2334 27.5159 37.2334H12.7526C9.33422 37.2334 6.25349 35.7867 4.08956 33.4726C2.10753 31.3521 0.89386 28.504 0.89386 25.3719V27.245C0.89386 30.377 2.10753 33.2252 4.08956 35.3458C6.25349 37.6598 9.33422 39.1065 12.7526 39.1065H27.5159C30.4832 39.1065 33.1972 38.0164 35.2767 36.2146C37.787 34.0403 39.3746 30.8282 39.3746 27.2465V25.3734C39.3746 28.9551 37.787 32.1672 35.2767 34.3415Z" fill="#C7003B"/>
<path d="M35.9026 4.36487C33.7562 2.21817 30.7918 0.890869 27.5161 0.890869H12.7527C10.1057 0.890869 7.65942 1.75829 5.68612 3.22532C2.77711 5.38658 0.892578 8.84895 0.892578 12.7523V15.4288C0.892578 11.5254 2.77711 8.06303 5.68612 5.90177C7.65942 4.43474 10.1042 3.56732 12.7527 3.56732H27.5161C30.7904 3.56732 33.7562 4.89465 35.9026 7.04136C38.0491 9.18806 39.3763 12.1527 39.3763 15.4288V12.7523C39.3763 9.47768 38.0491 6.51157 35.9026 4.36487Z" fill="#FF98B8"/>
<path d="M5.14571 7.58838C5.65359 8.46889 7.12774 8.57078 8.43745 7.81397C9.74717 7.05862 10.3962 5.73129 9.88832 4.85078C9.38045 3.97027 7.90629 3.86838 6.59658 4.62519C5.28687 5.38053 4.63784 6.70787 5.14571 7.58984V7.58838Z" fill="white"/>
<path d="M10.7339 6.28432C10.9769 6.70493 11.6798 6.75295 12.3041 6.39202C12.9284 6.03108 13.2384 5.39795 12.9953 4.9788C12.7523 4.55819 12.0494 4.51017 11.4251 4.8711C10.8008 5.23204 10.4909 5.86516 10.7339 6.28432Z" fill="white"/>
<path opacity="0.7" d="M33.9799 34.1815C34.3961 34.8161 33.897 35.8785 32.8667 36.5538C31.8364 37.2291 30.6635 37.2626 30.2473 36.6281C29.8311 35.9935 30.3302 34.9311 31.3605 34.2558C32.3908 33.5805 33.5637 33.547 33.9799 34.1815Z" fill="white"/>
<path d="M18.2836 28.6049C15.2366 26.3264 9.20001 21.1173 9.20001 16.4298C9.20001 13.3314 11.4737 10.8198 14.6 10.8198C16.22 10.8198 17.84 11.3598 20 13.5198C22.16 11.3598 23.78 10.8198 25.4 10.8198C28.5263 10.8198 30.8 13.3314 30.8 16.4298C30.8 21.1173 24.7635 26.3264 21.7165 28.6049C20.6911 29.3716 19.3089 29.3716 18.2836 28.6049Z" stroke="white" stroke-width="1.62" stroke-linecap="round" stroke-linejoin="round"/>
<defs>
<linearGradient id="paint0_linear_105_1687" x1="20.1335" y1="39.108" x2="20.1335" y2="0.890869" gradientUnits="userSpaceOnUse">
<stop stop-color="#F2205E"/>
<stop offset="1" stop-color="#FE7BA4"/>
</linearGradient>
</defs>
</svg>
