<svg width="77" height="89" viewBox="0 0 77 89" fill="none" xmlns="http://www.w3.org/2000/svg">
<path d="M5.13742 9.07293C9.97742 4.18293 16.7274 1.87289 23.3774 0.972893C28.1674 0.322893 33.2174 0.302888 38.1674 0.342888C43.1174 0.302888 48.1674 0.322893 52.9574 0.972893C59.6074 1.87289 66.3574 4.17293 71.1974 9.07293C76.3074 14.2429 76.4374 21.1529 76.3074 28.1829C76.1274 37.4529 76.5674 44.0329 74.7174 51.5229C73.3474 57.1029 69.4374 61.1629 64.5874 64.0429C59.4674 67.0829 50.9174 67.2129 43.7274 67.2029C41.6974 67.2029 39.8574 67.2029 38.1674 67.1929C36.4774 67.2029 34.6474 67.2029 32.6074 67.2029C25.4174 67.2029 16.8574 67.0829 11.7474 64.0429C6.89742 61.1629 2.98743 57.1029 1.61742 51.5229C-0.222572 44.0329 0.207428 37.4429 0.0274277 28.1829C-0.10257 21.1429 0.02742 14.2429 5.13742 9.07293Z" fill="url(#paint0_linear_90_9670)"/>
<g style="mix-blend-mode:hard-light" opacity="0.3">
<path d="M5.13742 9.07293C9.97742 4.18293 16.7274 1.87289 23.3774 0.972893C28.1674 0.322893 33.2174 0.302888 38.1674 0.342888C43.1174 0.302888 48.1674 0.322893 52.9574 0.972893C59.6074 1.87289 66.3574 4.17293 71.1974 9.07293C76.3074 14.2429 76.4374 21.1529 76.3074 28.1829C76.1274 37.4529 76.5674 44.0329 74.7174 51.5229C73.3474 57.1029 69.4374 61.1629 64.5874 64.0429C59.4674 67.0829 50.9174 67.2129 43.7274 67.2029C41.6974 67.2029 34.6474 67.2029 32.6074 67.2029C25.4174 67.2029 16.8574 67.0829 11.7474 64.0429C6.89742 61.1629 2.98743 57.1029 1.61742 51.5229C-0.222572 44.0329 0.207428 37.4429 0.0274277 28.1829C-0.10257 21.1429 0.02742 14.2429 5.13742 9.07293Z" fill="url(#paint1_radial_90_9670)" style="mix-blend-mode:screen"/>
</g>
<path d="M6.69738 8.17291C11.2774 3.59291 17.6674 1.43291 23.9574 0.602907C28.0974 0.0529073 32.4474 -0.0170683 36.7474 0.00293174C41.0374 -0.0170683 45.3874 0.0529073 49.5374 0.602907C55.8274 1.44291 62.2174 3.60291 66.7974 8.17291C71.6374 13.0129 71.7574 19.4729 71.6374 26.0529C71.4674 34.7229 71.8874 40.8829 70.1374 47.8829C68.8374 53.1029 65.4974 56.6729 60.9674 59.4629C56.5174 62.2129 48.0874 62.4629 40.7974 62.5429C39.3474 62.5629 38.0074 62.5729 36.7474 62.5729C35.4874 62.5729 34.1474 62.5629 32.6974 62.5429C25.4074 62.4629 16.9874 62.2029 12.5274 59.4629C7.99739 56.6629 4.66737 53.1029 3.35738 47.8829C1.60738 40.8729 2.02737 34.7129 1.85738 26.0529C1.72738 19.4729 1.85738 13.0129 6.69738 8.17291Z" fill="url(#paint2_linear_90_9670)"/>
<path d="M1.85746 24.0529C2.02746 32.7229 1.60746 38.8829 3.35746 45.8829C4.65746 51.1029 7.99747 54.6729 12.5275 57.4629C16.9775 60.2129 25.4075 60.4629 32.6975 60.5429C34.1475 60.5629 39.3475 60.5629 40.8075 60.5429C48.0975 60.4629 56.5175 60.2029 60.9775 57.4629C65.5075 54.6629 68.8375 51.1029 70.1475 45.8829C71.8975 38.8729 71.4775 32.7129 71.6475 24.0529C71.6475 23.6429 71.6575 23.2329 71.6675 22.8229C71.6775 23.8929 71.6675 24.9729 71.6475 26.0529C71.4775 34.7229 71.8975 40.8829 70.1475 47.8829C68.8475 53.1029 65.5075 56.6729 60.9775 59.4629C56.5275 62.2129 48.0975 62.4629 40.8075 62.5429C39.3575 62.5629 34.1575 62.5629 32.6975 62.5429C25.4075 62.4629 16.9875 62.2029 12.5275 59.4629C7.99747 56.6629 4.66746 53.1029 3.35746 47.8829C1.60746 40.8729 2.02746 34.7129 1.85746 26.0529C1.83746 24.9729 1.82746 23.8929 1.83746 22.8229C1.83746 23.2329 1.84746 23.6429 1.85746 24.0529Z" fill="url(#paint3_radial_90_9670)"/>
<path d="M36.7474 9.26294C40.8274 9.37294 44.8974 9.5529 48.9674 9.8429C55.0874 10.2829 59.4674 12.3329 62.5574 15.4229C65.5974 18.4629 65.7574 22.9429 65.6374 28.9429C65.5974 30.7729 65.5974 32.4929 65.5874 34.1329C65.5474 40.6429 64.3874 45.1929 58.2274 48.7229C52.4274 52.0429 48.9774 51.4729 40.8074 51.5529C39.3574 51.5629 38.0174 51.5829 36.7574 51.5829C35.4974 51.5829 34.1574 51.5729 32.7074 51.5529C24.5374 51.4729 21.0874 52.0429 15.2874 48.7229C9.1274 45.1929 7.9574 40.6429 7.9274 34.1329C7.9274 32.4929 7.9074 30.7729 7.8774 28.9429C7.7574 22.9429 7.9174 18.4629 10.9574 15.4229C14.0474 12.3429 18.4274 10.2829 24.5474 9.8429C28.6174 9.5529 32.6874 9.37294 36.7674 9.26294H36.7474Z" fill="#FFCA60"/>
<path style="mix-blend-mode:screen" d="M6.69738 8.17291C11.2774 3.59291 17.6674 1.43291 23.9574 0.602907C28.0974 0.0529073 32.4474 -0.0170683 36.7474 0.00293174C41.0374 -0.0170683 45.3874 0.0529073 49.5374 0.602907C55.8274 1.44291 62.2174 3.60291 66.7974 8.17291C71.6374 13.0129 71.7574 19.4729 71.6374 26.0529C71.4974 33.2629 71.6374 40.7929 70.1374 47.8829C71.7674 40.2229 54.6774 33.5429 49.6274 31.6129C45.4574 30.0229 41.1374 28.7829 36.7574 27.8829C32.3674 28.7829 28.0574 30.0229 23.8874 31.6129C18.8374 33.5429 1.74738 40.2229 3.37738 47.8829C1.86738 40.7929 2.01738 33.2529 1.87738 26.0529C1.74738 19.4729 1.87738 13.0129 6.71738 8.17291H6.69738Z" fill="url(#paint4_linear_90_9670)"/>
<path d="M10.9374 13.4129C14.0274 10.3329 18.4074 8.27289 24.5274 7.83289C28.5974 7.54289 32.6674 7.36293 36.7474 7.25293C40.8274 7.36293 44.8974 7.54289 48.9674 7.83289C55.0874 8.27289 59.4674 10.3229 62.5574 13.4129C65.5974 16.4529 65.7574 20.9329 65.6374 26.9329C65.5974 28.7629 65.5974 30.4829 65.5874 32.1229C65.5474 38.6329 64.3874 43.1829 58.2274 46.7129C52.4274 50.0329 48.9774 49.4629 40.8074 49.5429C39.3574 49.5529 38.0174 49.5729 36.7574 49.5729C35.4974 49.5729 34.1574 49.5629 32.7074 49.5429C24.5374 49.4629 21.0874 50.0329 15.2874 46.7129C9.1274 43.1829 7.9574 38.6329 7.9274 32.1229C7.9274 30.4829 7.9074 28.7629 7.8774 26.9329C7.7574 20.9329 7.9174 16.4529 10.9574 13.4129H10.9374Z" fill="url(#paint5_linear_90_9670)"/>
<path d="M51.6059 27.1985L49.031 26.8444C48.7649 25.8747 48.3845 24.9555 47.8985 24.1022L49.4664 22.0329C49.9523 21.3908 49.8908 20.487 49.3213 19.9174L47.5995 18.1956C47.03 17.6261 46.1262 17.5622 45.4819 18.0504L43.4128 19.6184C42.5596 19.1324 41.6383 18.7519 40.6708 18.4858L40.3168 15.9108C40.2068 15.1125 39.523 14.5166 38.7182 14.5166H36.2818C35.4748 14.5166 34.7932 15.1125 34.6832 15.9108L34.3292 18.4858C33.3595 18.7519 32.4403 19.1324 31.5872 19.6184L29.518 18.0504C28.8759 17.5644 27.9722 17.6261 27.4005 18.1956L25.6787 19.9174C25.1092 20.487 25.0455 21.3908 25.5336 22.0329L27.1014 24.1022C26.6155 24.9555 26.2351 25.8769 25.969 26.8444L23.3941 27.1985C22.5959 27.3085 22 27.9924 22 28.7972V31.2337C22 32.0408 22.5959 32.7225 23.3941 32.8324L25.969 33.1865C26.2351 34.1563 26.6155 35.0755 27.1014 35.9287L25.5336 37.998C25.0477 38.6401 25.1092 39.544 25.6787 40.1157L27.4005 41.8376C27.97 42.4071 28.8737 42.4709 29.518 41.9827L31.5872 40.4148C32.4403 40.9008 33.3617 41.2812 34.3292 41.5473L34.6832 44.1224C34.7932 44.9206 35.477 45.5166 36.2818 45.5166H38.7182C39.5252 45.5166 40.2068 44.9206 40.3168 44.1224L40.6708 41.5473C41.6405 41.2812 42.5596 40.9008 43.4128 40.4148L45.4819 41.9827C46.124 42.4687 47.0278 42.4071 47.5995 41.8376L49.3213 40.1157C49.8908 39.5462 49.9545 38.6423 49.4664 37.998L47.8985 35.9287C48.3845 35.0755 48.7649 34.1541 49.031 33.1865L51.6059 32.8324C52.4041 32.7225 53 32.0386 53 31.2337V28.7972C53 27.9902 52.4041 27.3085 51.6059 27.1985ZM37.4978 34.5917C34.9713 34.5917 32.9219 32.5422 32.9219 30.0155C32.9219 27.4888 34.9713 25.4393 37.4978 25.4393C40.0243 25.4393 42.0737 27.4888 42.0737 30.0155C42.0737 32.5422 40.0243 34.5917 37.4978 34.5917Z" fill="#963206"/>
<g filter="url(#filter0_ii_90_9670)">
<path d="M50.6191 25.7438L48.13 25.4016C47.8728 24.4642 47.505 23.5757 47.0353 22.751L48.5509 20.7508C49.0206 20.1301 48.9611 19.2565 48.4105 18.7038L46.7462 17.0395C46.1957 16.489 45.3221 16.4273 44.6993 16.8992L42.6991 18.4148C41.8744 17.945 40.9837 17.5773 40.0485 17.3201L39.7062 14.831C39.6 14.0594 38.9389 13.4834 38.1609 13.4834H35.8058C35.0257 13.4834 34.3667 14.0594 34.2605 14.831L33.9182 17.3201C32.9809 17.5773 32.0924 17.945 31.2676 18.4148L29.2674 16.8992C28.6468 16.4294 27.7731 16.489 27.2205 17.0395L25.5561 18.7038C25.0056 19.2544 24.944 20.128 25.4158 20.7508L26.9314 22.751C26.4616 23.5757 26.0939 24.4663 25.8367 25.4016L23.3476 25.7438C22.5761 25.8501 22 26.5112 22 27.2891V29.6443C22 30.4244 22.5761 31.0833 23.3476 31.1896L25.8367 31.5318C26.0939 32.4692 26.4616 33.3577 26.9314 34.1824L25.4158 36.1826C24.9461 36.8033 25.0056 37.6769 25.5561 38.2296L27.2205 39.8939C27.771 40.4445 28.6446 40.5061 29.2674 40.0342L31.2676 38.5186C32.0924 38.9884 32.983 39.3562 33.9182 39.6134L34.2605 42.1024C34.3667 42.874 35.0278 43.4501 35.8058 43.4501H38.1609C38.941 43.4501 39.6 42.874 39.7062 42.1024L40.0485 39.6134C40.9858 39.3562 41.8744 38.9884 42.6991 38.5186L44.6993 40.0342C45.3199 40.504 46.1936 40.4445 46.7462 39.8939L48.4105 38.2296C48.9611 37.6791 49.0228 36.8054 48.5509 36.1826L47.0353 34.1824C47.505 33.3577 47.8728 32.4671 48.13 31.5318L50.6191 31.1896C51.3907 31.0833 51.9667 30.4222 51.9667 29.6443V27.2891C51.9667 26.509 51.3907 25.8501 50.6191 25.7438ZM36.9812 32.8901C34.5389 32.8901 32.5579 30.909 32.5579 28.4667C32.5579 26.0244 34.5389 24.0434 36.9812 24.0434C39.4235 24.0434 41.4046 26.0244 41.4046 28.4667C41.4046 30.909 39.4235 32.8901 36.9812 32.8901Z" fill="#FFEFC2"/>
</g>
<path d="M36.7474 6.26294C40.8274 6.37294 44.8974 6.5529 48.9674 6.8429C55.0874 7.2829 59.4674 9.33291 62.5574 12.4229C65.5974 15.4629 65.7574 19.9329 65.6374 25.9229C65.5174 21.9029 64.8774 18.7429 62.5574 16.4229C59.4674 13.3429 55.0874 11.2829 48.9674 10.8429C44.8974 10.5529 40.8274 10.3729 36.7474 10.2629C32.6674 10.3729 28.5974 10.5529 24.5274 10.8429C18.4074 11.2829 14.0274 13.3329 10.9374 16.4229C8.6174 18.7429 7.9774 21.8929 7.8574 25.9229C7.7374 19.9329 7.8974 15.4629 10.9374 12.4229C14.0274 9.34291 18.4074 7.2829 24.5274 6.8429C28.5974 6.5529 32.6674 6.37294 36.7474 6.26294Z" fill="#963206"/>
<path d="M36.7475 0.00293174C41.0375 -0.0170683 45.3875 0.0529073 49.5375 0.602907C55.8275 1.44291 62.2175 3.60291 66.7975 8.17291C71.3375 12.7129 71.7275 18.6729 71.6575 24.8229C71.5975 19.3929 70.8475 14.2229 66.7975 10.1729C62.2175 5.59291 55.8275 3.43291 49.5375 2.60291C45.3975 2.05291 41.0475 1.98293 36.7475 2.00293C32.4575 1.98293 28.1075 2.05291 23.9575 2.60291C17.6675 3.44291 11.2775 5.60291 6.69747 10.1729C2.65747 14.2129 1.90747 19.3829 1.83747 24.8229C1.76747 18.6729 2.15747 12.7129 6.69747 8.17291C11.2775 3.59291 17.6675 1.43291 23.9575 0.602907C28.0975 0.0529073 32.4475 -0.0170683 36.7475 0.00293174Z" fill="#F6F091"/>
<g style="mix-blend-mode:screen" opacity="0.73">
<path d="M10.4975 53.3329C11.9675 53.9329 11.2375 55.6329 9.78748 54.9229C8.25748 54.1729 9.51748 52.3529 10.7475 53.4629L10.4975 53.3429V53.3329Z" fill="#B28222"/>
</g>
<g style="mix-blend-mode:screen" opacity="0.73">
<path d="M17.8074 58.1929C15.2774 60.9629 9.13744 52.9429 14.6774 54.2229C15.7874 54.4829 19.0774 56.3429 18.0174 57.9229C17.9474 58.0229 17.8774 58.1129 17.8074 58.1929Z" fill="#B28222"/>
</g>
<defs>
<filter id="filter0_ii_90_9670" x="22" y="12.4834" width="29.9667" height="31.9667" filterUnits="userSpaceOnUse" color-interpolation-filters="sRGB">
<feFlood flood-opacity="0" result="BackgroundImageFix"/>
<feBlend mode="normal" in="SourceGraphic" in2="BackgroundImageFix" result="shape"/>
<feColorMatrix in="SourceAlpha" type="matrix" values="0 0 0 0 0 0 0 0 0 0 0 0 0 0 0 0 0 0 127 0" result="hardAlpha"/>
<feOffset dy="-1"/>
<feGaussianBlur stdDeviation="0.5"/>
<feComposite in2="hardAlpha" operator="arithmetic" k2="-1" k3="1"/>
<feColorMatrix type="matrix" values="0 0 0 0 0.858824 0 0 0 0 0.498039 0 0 0 0 0.00392157 0 0 0 0.25 0"/>
<feBlend mode="normal" in2="shape" result="effect1_innerShadow_90_9670"/>
<feColorMatrix in="SourceAlpha" type="matrix" values="0 0 0 0 0 0 0 0 0 0 0 0 0 0 0 0 0 0 127 0" result="hardAlpha"/>
<feOffset dy="1"/>
<feGaussianBlur stdDeviation="0.5"/>
<feComposite in2="hardAlpha" operator="arithmetic" k2="-1" k3="1"/>
<feColorMatrix type="matrix" values="0 0 0 0 1 0 0 0 0 1 0 0 0 0 1 0 0 0 0.4 0"/>
<feBlend mode="normal" in2="effect1_innerShadow_90_9670" result="effect2_innerShadow_90_9670"/>
</filter>
<linearGradient id="paint0_linear_90_9670" x1="38.1574" y1="-742.578" x2="38.1574" y2="-742.578" gradientUnits="userSpaceOnUse">
<stop stop-color="#AD5D00"/>
<stop offset="1" stop-color="#FF8900"/>
</linearGradient>
<radialGradient id="paint1_radial_90_9670" cx="0" cy="0" r="1" gradientUnits="userSpaceOnUse" gradientTransform="translate(37.3346 -742.078) rotate(180) scale(81.12 84.5001)">
<stop offset="0.87"/>
<stop offset="0.99" stop-color="#6D4900"/>
</radialGradient>
<linearGradient id="paint2_linear_90_9670" x1="36.7474" y1="-742.577" x2="36.7474" y2="-742.577" gradientUnits="userSpaceOnUse">
<stop stop-color="#FAB731"/>
<stop offset="1" stop-color="#FAB731"/>
</linearGradient>
<radialGradient id="paint3_radial_90_9670" cx="0" cy="0" r="1" gradientUnits="userSpaceOnUse" gradientTransform="translate(-63.0625 -742.076) rotate(180) scale(123.45 123.45)">
<stop offset="0.21" stop-color="#FFE5B3"/>
<stop offset="1" stop-color="#FFD072"/>
</radialGradient>
<linearGradient id="paint4_linear_90_9670" x1="21.9474" y1="70.6029" x2="49.0074" y2="-2.62707" gradientUnits="userSpaceOnUse">
<stop/>
<stop offset="1" stop-color="#FAB731"/>
</linearGradient>
<linearGradient id="paint5_linear_90_9670" x1="36.7474" y1="-742.577" x2="36.7474" y2="-742.577" gradientUnits="userSpaceOnUse">
<stop offset="0.01" stop-color="#D87C12"/>
<stop offset="1" stop-color="#DF9138"/>
</linearGradient>
</defs>
</svg>
