<svg width="41" height="40" viewBox="0 0 41 40" fill="none" xmlns="http://www.w3.org/2000/svg">
<g opacity="0.5">
<path d="M12.7522 40.0001C9.23638 40.0001 5.83986 38.5257 3.43726 35.957C1.22094 33.5876 0 30.4934 0 27.2479V12.7537C0 8.73825 1.92673 4.9091 5.15299 2.51061C7.36349 0.86893 9.99019 6.10352e-05 12.7508 6.10352e-05H27.5141C30.9208 6.10352e-05 34.1224 1.32595 36.5308 3.73462C38.9392 6.14329 40.2649 9.3466 40.2649 12.7522V27.2464C40.2649 30.949 38.6583 34.4637 35.8584 36.8899C33.5432 38.8954 30.5803 40.0001 27.5127 40.0001H12.7493H12.7522Z" fill="#F2205E"/>
<path d="M27.5159 39.108H12.7525C9.33416 39.108 6.25343 37.6613 4.0895 35.3473C2.10747 33.2268 0.893799 30.3785 0.893799 27.2465V12.7523C0.893799 8.84895 2.77833 5.38658 5.68734 3.22532C7.66064 1.75829 10.1054 0.890869 12.754 0.890869H27.5173C30.7916 0.890869 33.7574 2.21817 35.9038 4.36487C38.0503 6.51157 39.3775 9.47622 39.3775 12.7523V27.2465C39.3775 30.8283 37.7898 34.0403 35.2795 36.2147C33.2 38.0165 30.486 39.1065 27.5188 39.1065L27.5159 39.108Z" fill="url(#paint0_linear_105_1698)"/>
<path d="M25.9981 24.345C25.3636 24.345 24.7689 24.5105 24.2508 24.7972L18.2287 20.9772C18.2333 20.899 18.241 20.8209 18.241 20.7427C18.241 20.6645 18.2349 20.5848 18.2287 20.5081L24.2508 16.6882C24.7689 16.9764 25.3636 17.1404 25.9981 17.1404C27.9876 17.1404 29.6 15.5278 29.6 13.5381C29.6 11.5484 27.9876 9.93579 25.9981 9.93579C24.0087 9.93579 22.3962 11.5484 22.3962 13.5381C22.3962 13.6178 22.4023 13.6944 22.4085 13.7726L16.3864 17.5926C15.8683 17.3044 15.2736 17.1404 14.6391 17.1404C12.6496 17.1404 11.0372 18.753 11.0372 20.7427C11.0372 22.7324 12.6496 24.345 14.6391 24.345C15.2736 24.345 15.8683 24.1794 16.3864 23.8928L22.4085 27.7127C22.4039 27.7909 22.3962 27.8691 22.3962 27.9473C22.3962 29.937 24.0087 31.5496 25.9981 31.5496C27.9876 31.5496 29.6 29.937 29.6 27.9473C29.6 25.9576 27.9876 24.345 25.9981 24.345Z" fill="#F2205E"/>
<path d="M25.6256 22.8596C24.9911 22.8596 24.3964 23.0252 23.8783 23.3118L17.8562 19.4919C17.8608 19.4137 17.8685 19.3355 17.8685 19.2573C17.8685 19.1791 17.8624 19.0994 17.8562 19.0228L23.8783 15.2028C24.3964 15.491 24.9911 15.655 25.6256 15.655C27.6151 15.655 29.2275 14.0424 29.2275 12.0527C29.2275 10.063 27.6151 8.45044 25.6256 8.45044C23.6361 8.45044 22.0237 10.063 22.0237 12.0527C22.0237 12.1324 22.0298 12.2091 22.036 12.2873L16.0139 16.1072C15.4958 15.819 14.9011 15.655 14.2666 15.655C12.2771 15.655 10.6647 17.2676 10.6647 19.2573C10.6647 21.247 12.2771 22.8596 14.2666 22.8596C14.9011 22.8596 15.4958 22.6941 16.0139 22.4074L22.036 26.2274C22.0314 26.3056 22.0237 26.3837 22.0237 26.4619C22.0237 28.4516 23.6361 30.0642 25.6256 30.0642C27.6151 30.0642 29.2275 28.4516 29.2275 26.4619C29.2275 24.4722 27.6151 22.8596 25.6256 22.8596Z" fill="white"/>
<path d="M35.2766 34.3415C33.1971 36.1433 30.4831 37.2334 27.5159 37.2334H12.7525C9.33416 37.2334 6.25343 35.7867 4.0895 33.4726C2.10747 31.3521 0.893799 28.504 0.893799 25.3719V27.245C0.893799 30.377 2.10747 33.2252 4.0895 35.3458C6.25343 37.6598 9.33416 39.1065 12.7525 39.1065H27.5159C30.4831 39.1065 33.1971 38.0164 35.2766 36.2146C37.7869 34.0403 39.3746 30.8282 39.3746 27.2465V25.3734C39.3746 28.9551 37.7869 32.1672 35.2766 34.3415Z" fill="#C7003B"/>
<path d="M35.9026 4.36487C33.7561 2.21817 30.7918 0.890869 27.516 0.890869H12.7527C10.1056 0.890869 7.65936 1.75829 5.68606 3.22532C2.77705 5.38658 0.892517 8.84895 0.892517 12.7523V15.4288C0.892517 11.5254 2.77705 8.06303 5.68606 5.90177C7.65936 4.43474 10.1042 3.56732 12.7527 3.56732H27.516C30.7903 3.56732 33.7561 4.89465 35.9026 7.04136C38.049 9.18806 39.3762 12.1527 39.3762 15.4288V12.7523C39.3762 9.47768 38.049 6.51157 35.9026 4.36487Z" fill="#FF98B8"/>
<path d="M5.14565 7.58838C5.65353 8.46889 7.12768 8.57078 8.43739 7.81397C9.74711 7.05862 10.3961 5.73129 9.88826 4.85078C9.38039 3.97027 7.90623 3.86838 6.59652 4.62519C5.28681 5.38053 4.63777 6.70787 5.14565 7.58984V7.58838Z" fill="white"/>
<path d="M10.7338 6.28432C10.9769 6.70493 11.6797 6.75295 12.304 6.39202C12.9283 6.03108 13.2383 5.39795 12.9953 4.9788C12.7522 4.55819 12.0494 4.51017 11.4251 4.8711C10.8008 5.23204 10.4908 5.86516 10.7338 6.28432Z" fill="white"/>
<path opacity="0.7" d="M33.9799 34.1815C34.3961 34.8161 33.8969 35.8785 32.8666 36.5538C31.8363 37.2291 30.6634 37.2626 30.2472 36.6281C29.831 35.9935 30.3302 34.9311 31.3605 34.2558C32.3908 33.5805 33.5637 33.547 33.9799 34.1815Z" fill="white"/>
</g>
<defs>
<linearGradient id="paint0_linear_105_1698" x1="20.1335" y1="39.108" x2="20.1335" y2="0.890869" gradientUnits="userSpaceOnUse">
<stop stop-color="#F2205E"/>
<stop offset="1" stop-color="#FE7BA4"/>
</linearGradient>
</defs>
</svg>
