<svg width="230" height="48" viewBox="0 0 230 48" fill="none" xmlns="http://www.w3.org/2000/svg">
<g opacity="0.5">
<path d="M229.966 22.2129C229.966 22.2129 229.966 22.3101 229.966 22.3657C229.966 26.1741 229.691 30.0658 229.074 33.5267C228.353 37.4879 227.256 40.8932 225.643 43.0058C225.06 43.7842 224.408 44.3957 223.688 44.7849C215.215 49.4133 10.8261 48.6767 4.85701 44.7849C-1.11204 40.8932 -2.10689 12.9422 4.85701 2.22602C7.08682 -1.20704 221.218 -0.539906 226.192 3.33793C226.398 3.51862 226.673 3.75493 226.878 4.06071C228.799 6.79882 230 14.3182 230 22.199L229.966 22.2129Z" fill="url(#paint0_linear_105_1709)"/>
<g style="mix-blend-mode:color-dodge" opacity="0.32">
<path d="M226.844 4.07434C224.031 4.74149 219.846 5.63105 217.033 5.70055C212.436 5.83954 49.4873 1.68373 4.82233 2.23969C7.05214 -1.19337 221.183 -0.526234 226.158 3.3516C226.363 3.53229 226.638 3.76856 226.844 4.07434Z" fill="#FF98B8"/>
</g>
<g style="mix-blend-mode:multiply">
<path d="M223.653 44.7989C215.18 49.4273 10.7914 48.6907 4.82233 44.7989C19.3333 42.033 204.237 48.8714 223.653 44.7989Z" fill="#C7003B"/>
</g>
<g style="mix-blend-mode:color-dodge" opacity="0.32">
<path d="M37.3093 0.822284C21.3575 1.76742 208.148 5.70088 217.479 4.89474C226.81 4.08859 224.888 2.39288 218.37 1.86471C211.852 1.33655 60.6023 -0.539823 37.3093 0.822284Z" fill="#FE79A2"/>
</g>
<path d="M186.879 3.28209C188.834 2.92072 202.11 1.91998 208.8 3.28209C215.489 4.6442 218.748 5.8395 215.97 5.70051C213.157 5.56152 180.944 4.39402 186.879 3.28209Z" fill="#FDFCFF"/>
<g style="mix-blend-mode:multiply">
<path d="M229.966 22.2128C228.525 11.0796 220.326 5.70067 220.841 5.35319L226.844 4.07446C228.765 6.81258 229.966 14.332 229.966 22.2128Z" fill="#F2205E"/>
</g>
<g style="mix-blend-mode:multiply">
<path d="M226.844 39.6839C227.805 37.5296 228.525 35.4864 229.074 33.5405C228.353 37.5018 227.256 40.907 225.643 43.0197C225.849 42.1024 226.295 41.0043 226.844 39.6839Z" fill="#FF83AE"/>
</g>
</g>
<defs>
<linearGradient id="paint0_linear_105_1709" x1="114.976" y1="47.9956" x2="114.976" y2="0.0160664" gradientUnits="userSpaceOnUse">
<stop stop-color="#F32A66"/>
<stop offset="1" stop-color="#FF5B8B"/>
</linearGradient>
</defs>
</svg>
