<svg width="78" height="32" viewBox="0 0 78 32" fill="none" xmlns="http://www.w3.org/2000/svg">
<path d="M77.5814 18.6029C77.538 22.8399 77.4294 26.612 77.2991 28.1229C77.1689 29.6973 77.0223 30.6693 76.8595 30.7644C73.9718 32.4973 4.1092 32.4656 1.22698 30.2995C1.01529 30.141 0.809031 28.9365 0.602771 27.0135C-0.189704 19.575 -0.140853 12.4746 0.401938 4.95164C0.52678 3.29278 0.700473 2.14108 0.950157 1.729C0.955584 1.71844 0.971868 1.70787 0.988152 1.69731C0.999008 1.68674 1.01529 1.67617 1.03158 1.67617C1.10214 1.64447 1.19441 1.62334 1.32468 1.59164C1.41696 1.57051 1.51466 1.55996 1.63407 1.53882C1.75891 1.50713 1.89461 1.486 2.05202 1.47543C11.2469 0.270903 74.3844 -1.22947 77.12 1.68675C77.5651 2.16222 77.6574 11.1116 77.5705 18.6029H77.5814Z" fill="url(#paint0_linear_520_1037)"/>
<g opacity="0.32">
<path d="M77.5814 18.6029C77.4565 15.7818 76.8974 6.77955 75.2854 5.05729C73.3693 3.00749 14.6665 -2.11705 0.401917 4.96219C0.526758 3.30332 0.700451 2.15164 0.950134 1.73956C0.955562 1.729 0.971846 1.71842 0.98813 1.70785C0.998985 1.69728 1.01527 1.68673 1.03155 1.68673C1.10212 1.65503 1.19439 1.6339 1.32466 1.6022C1.41693 1.58107 1.51464 1.5705 1.63405 1.54937C1.75889 1.51767 1.89459 1.49654 2.052 1.48597C11.2469 0.281447 74.3843 -1.21893 77.12 1.69729C77.5651 2.17276 77.6573 11.1222 77.5705 18.6135L77.5814 18.6029Z" fill="#FF7E8B"/>
</g>
<g opacity="0.32">
<path d="M36.2588 0.830901C35.3469 0.873165 68.3486 3.55693 73.2663 2.9441C78.1785 2.33128 75.3886 -0.849096 36.2588 0.830901Z" fill="#FF7E8B"/>
</g>
<path d="M71.1004 3.9373C71.3936 3.81051 71.0462 2.29958 69.7435 2.03543C68.4408 1.77128 67.9957 3.29278 68.012 3.5041C68.0282 3.71542 70.3405 4.26485 71.1004 3.9373Z" fill="white"/>
<g>
<path d="M77.3045 28.1229C77.1742 29.6972 77.0277 30.6693 76.8649 30.7644C73.9772 32.4972 4.11458 32.4655 1.23236 30.2995C1.02068 30.141 0.814415 28.9365 0.608154 27.0135C5.74296 31.0602 53.8614 34.2935 77.3045 28.1123V28.1229Z" fill="#FF459D"/>
</g>
<g>
<path d="M70.8182 24.4882C70.8182 24.4882 71.7626 26.612 73.505 24.0022C75.2474 21.3924 77.4674 11.0588 74.1401 8.30105C70.8128 5.54332 10.0202 5.73351 4.76053 6.9486C-0.499115 8.16369 2.41567 21.8995 4.29373 24.4142C6.17179 26.9289 70.8182 24.4882 70.8182 24.4882Z" fill="#FF459D"/>
</g>
<path d="M69.7651 7.64597H7.84896C5.13 7.64597 2.92584 11.9366 2.92584 17.2293V18.0641C2.92584 23.3568 5.13 27.6474 7.84896 27.6474H69.7651C72.4841 27.6474 74.6882 23.3568 74.6882 18.0641V17.2293C74.6882 11.9366 72.4841 7.64597 69.7651 7.64597Z" fill="white"/>
<path d="M65.7702 3.37731C65.8897 3.29278 65.7594 2.38411 65.2275 2.26789C64.6955 2.15166 64.5001 3.08147 64.5055 3.20826C64.5055 3.33505 65.4554 3.5992 65.7702 3.38788V3.37731Z" fill="white"/>
<defs>
<linearGradient id="paint0_linear_520_1037" x1="38.8044" y1="32.0007" x2="38.8044" y2="-0.00381523" gradientUnits="userSpaceOnUse">
<stop stop-color="#FF5B8B"/>
<stop offset="1" stop-color="#FC98AF"/>
</linearGradient>
</defs>
</svg>
