<svg width="33" height="32" viewBox="0 0 33 32" fill="none" xmlns="http://www.w3.org/2000/svg">
<path d="M10.2018 32C7.38916 32 4.67195 30.8205 2.74987 28.7655C0.976815 26.87 6.10352e-05 24.3947 6.10352e-05 21.7983V10.2029C6.10352e-05 6.99055 1.54145 3.92723 4.12245 2.00844C5.89085 0.695095 7.99221 0 10.2007 0H22.0114C24.7367 0 27.2979 1.06071 29.2247 2.98765C31.1514 4.91459 32.212 7.47723 32.212 10.2017V21.7971C32.212 24.7591 30.9267 27.5709 28.6868 29.5118C26.8346 31.1163 24.4643 32 22.0102 32H10.1995H10.2018Z" fill="#F7AD38"/>
<path d="M22.0127 31.2864H10.2021C7.46738 31.2864 5.00279 30.1291 3.27165 28.2778C1.68602 26.5814 0.715088 24.3028 0.715088 21.7972V10.2018C0.715088 7.07916 2.22271 4.30926 4.54992 2.58026C6.12856 1.40663 8.0844 0.712692 10.2032 0.712692H22.0139C24.6333 0.712692 27.0059 1.77453 28.7231 3.49189C30.4403 5.20926 31.502 7.58098 31.502 10.2018V21.7972C31.502 24.6626 30.2319 27.2323 28.2237 28.9717C26.5601 30.4132 24.3889 31.2852 22.0151 31.2852L22.0127 31.2864Z" fill="url(#paint0_linear_513_526)"/>
<path d="M16.9341 13.6109H12.7802C12.587 13.6109 12.4124 13.689 12.2866 13.8159C12.1609 13.9428 12.0817 14.1174 12.0817 14.3095V14.6972C12.0817 14.8695 12.1446 15.0279 12.2482 15.1502C12.3763 15.3004 12.5672 15.3958 12.7802 15.3958H16.9341C17.1494 15.3958 17.3427 15.298 17.4708 15.1443C17.572 15.0232 17.6326 14.8672 17.6326 14.6972V14.3095C17.6326 14.1035 17.5441 13.9195 17.4021 13.7914C17.2787 13.6796 17.1134 13.6109 16.9341 13.6109Z" fill="#F7AD38"/>
<path d="M23.8565 20.8402L21.052 18.0353C21.5235 17.0992 21.7959 16.0444 21.7959 14.9266C21.7959 11.0995 18.6828 7.98732 14.8573 7.98732C11.0318 7.98732 7.91876 11.1007 7.91876 14.9266C7.91876 18.7525 11.0318 21.8659 14.8573 21.8659C16.0169 21.8659 17.1089 21.576 18.0705 21.0707L20.8471 23.8476C21.4455 24.446 22.4164 24.446 23.0159 23.8476L23.8565 23.007C24.4549 22.4085 24.4549 21.4375 23.8565 20.8378V20.8402ZM10.4031 14.9266C10.4031 12.4699 12.4009 10.4719 14.8573 10.4719C17.3138 10.4719 19.3115 12.4711 19.3115 14.9266C19.3115 17.3821 17.3138 19.3813 14.8573 19.3813C12.4009 19.3813 10.4031 17.3821 10.4031 14.9266Z" fill="#F7AD38"/>
<path d="M16.6512 13.0463H12.4974C12.3041 13.0463 12.1295 13.1243 12.0038 13.2512C11.8781 13.3781 11.7989 13.5528 11.7989 13.7449V14.1326C11.7989 14.3049 11.8617 14.4632 11.9654 14.5855C12.0934 14.7357 12.2844 14.8312 12.4974 14.8312H16.6512C16.8666 14.8312 17.0598 14.7334 17.1879 14.5797C17.2892 14.4586 17.3497 14.3026 17.3497 14.1326V13.7449C17.3497 13.5388 17.2613 13.3548 17.1192 13.2268C16.9958 13.115 16.8305 13.0463 16.6512 13.0463Z" fill="white"/>
<path d="M23.5735 19.8528L20.769 17.048C21.2405 16.1118 21.5129 15.057 21.5129 13.9392C21.5129 10.1121 18.3999 6.99992 14.5744 6.99992C10.7488 6.99992 7.6358 10.1133 7.6358 13.9392C7.6358 17.7651 10.7488 20.8785 14.5744 20.8785C15.7339 20.8785 16.8259 20.5886 17.7875 20.0833L20.5641 22.8602C21.1625 23.4587 22.1334 23.4587 22.733 22.8602L23.5735 22.0196C24.1719 21.4211 24.1719 20.4501 23.5735 19.8504V19.8528ZM10.1202 13.9392C10.1202 11.4825 12.1179 9.48455 14.5744 9.48455C17.0308 9.48455 19.0285 11.4837 19.0285 13.9392C19.0285 16.3948 17.0308 18.3939 14.5744 18.3939C12.1179 18.3939 10.1202 16.3948 10.1202 13.9392Z" fill="white"/>
<path d="M28.2214 27.4731C26.5577 28.9145 24.3865 29.7866 22.0127 29.7866H10.2021C7.46738 29.7866 5.00279 28.6293 3.27165 26.778C1.68602 25.0816 0.715088 22.8031 0.715088 20.2975V21.7959C0.715088 24.3015 1.68602 26.5801 3.27165 28.2765C5.00279 30.1278 7.46738 31.2851 10.2021 31.2851H22.0127C24.3865 31.2851 26.5577 30.413 28.2214 28.9716C30.2296 27.2321 31.4997 24.6625 31.4997 21.7971V20.2986C31.4997 23.164 30.2296 25.7336 28.2214 27.4731Z" fill="#E75C00"/>
<path d="M28.7222 3.49189C27.005 1.77453 24.6335 0.712692 22.0129 0.712692H10.2022C8.08459 0.712692 6.12759 1.40663 4.54895 2.58026C2.22174 4.30926 0.714111 7.07916 0.714111 10.2018V12.343C0.714111 9.22032 2.22174 6.45042 4.54895 4.72142C6.12759 3.54779 8.08342 2.85385 10.2022 2.85385H22.0129C24.6324 2.85385 27.005 3.91572 28.7222 5.63308C30.4393 7.35044 31.5011 9.72214 31.5011 12.343V10.2018C31.5011 7.58214 30.4393 5.20926 28.7222 3.49189Z" fill="#FACE3F"/>
<path d="M4.11663 6.07056C4.52293 6.77497 5.70226 6.85648 6.75003 6.25103C7.79779 5.64676 8.31702 4.58489 7.91072 3.88048C7.50442 3.17607 6.3251 3.09456 5.27733 3.70001C4.22956 4.30428 3.71033 5.36615 4.11663 6.07173V6.07056Z" fill="white"/>
<path d="M8.58708 5.02741C8.7815 5.36389 9.3438 5.40231 9.84324 5.11356C10.3427 4.82481 10.5906 4.31831 10.3962 3.98299C10.2018 3.6465 9.63951 3.60808 9.14007 3.89683C8.64063 4.18558 8.39266 4.69208 8.58708 5.02741Z" fill="white"/>
<path opacity="0.7" d="M27.1841 27.3452C27.517 27.8528 27.1177 28.7028 26.2935 29.243C25.4692 29.7833 24.5309 29.81 24.1979 29.3024C23.865 28.7948 24.2643 27.9448 25.0886 27.4046C25.9128 26.8643 26.8511 26.8375 27.1841 27.3452Z" fill="white"/>
<defs>
<linearGradient id="paint0_linear_513_526" x1="16.1068" y1="31.2864" x2="16.1068" y2="0.712692" gradientUnits="userSpaceOnUse">
<stop stop-color="#F97318"/>
<stop offset="1" stop-color="#F7AD38"/>
</linearGradient>
</defs>
</svg>
