<svg width="33" height="32" viewBox="0 0 33 32" fill="none" xmlns="http://www.w3.org/2000/svg">
<path d="M10.2018 32.0001C7.3891 32.0001 4.67189 30.8206 2.74981 28.7656C0.976754 26.8701 0 24.3948 0 21.7983V10.203C0 6.99063 1.54139 3.92731 4.12239 2.00852C5.89079 0.695171 7.99215 7.62939e-05 10.2006 7.62939e-05H22.0113C24.7367 7.62939e-05 27.2979 1.06078 29.2246 2.98772C31.1513 4.91466 32.2119 7.47731 32.2119 10.2018V21.7972C32.2119 24.7592 30.9267 27.571 28.6868 29.5119C26.8345 31.1163 24.4643 32.0001 22.0101 32.0001H10.1995H10.2018Z" fill="#F7AD38"/>
<path d="M22.0127 31.2865H10.202C7.46732 31.2865 5.00273 30.1291 3.27158 28.2779C1.68596 26.5815 0.715027 24.3029 0.715027 21.7973V10.2019C0.715027 7.07923 2.22265 4.30934 4.54986 2.58033C6.1285 1.4067 8.08434 0.712769 10.2032 0.712769H22.0138C24.6333 0.712769 27.0059 1.77461 28.7231 3.49197C30.4402 5.20933 31.502 7.58105 31.502 10.2019V21.7973C31.502 24.6627 30.2319 27.2323 28.2236 28.9718C26.56 30.4132 24.3888 31.2853 22.015 31.2853L22.0127 31.2865Z" fill="url(#paint0_linear_508_149)"/>
<path d="M17.1611 13.6214H15.9748V12.435C15.9748 12.2417 15.8968 12.067 15.7699 11.9401C15.643 11.8132 15.4684 11.7352 15.2752 11.7352H14.8863C14.6931 11.7352 14.5184 11.8132 14.3916 11.9401C14.2647 12.067 14.1867 12.2417 14.1867 12.435V13.6214H13.0003C12.8071 13.6214 12.6325 13.6994 12.5056 13.8263C12.3787 13.9532 12.3007 14.1279 12.3007 14.3211V14.71C12.3007 14.8835 12.3635 15.0418 12.4683 15.1641C12.5964 15.3143 12.7873 15.4098 13.0015 15.4098H14.1878V16.5962C14.1878 16.7872 14.2635 16.9595 14.3881 17.0864C14.515 17.2156 14.6919 17.2971 14.8887 17.2971H15.2775C15.4754 17.2971 15.6547 17.2144 15.7816 17.0829C15.9027 16.9571 15.9772 16.786 15.9772 16.5974V15.4109H17.1635C17.38 15.4109 17.5733 15.3131 17.7013 15.1594C17.8026 15.0383 17.8632 14.8823 17.8632 14.7112V14.3223C17.8632 14.1162 17.7747 13.9311 17.6326 13.803C17.5081 13.6912 17.3439 13.6225 17.1635 13.6225L17.1611 13.6214Z" fill="#F7AD38"/>
<path d="M24.0939 20.8611L21.2847 18.0517C21.7574 17.1132 22.0298 16.0584 22.0298 14.9371C22.0298 11.1042 18.9121 7.98615 15.0796 7.98615C11.2471 7.98615 8.12939 11.1042 8.12939 14.9371C8.12939 18.77 11.2471 21.8881 15.0796 21.8881C16.2415 21.8881 17.3346 21.5981 18.2986 21.0917L21.0798 23.8732C21.6794 24.4728 22.6515 24.4728 23.2522 23.8732L24.0939 23.0314C24.6935 22.4318 24.6935 21.4596 24.0939 20.8588V20.8611ZM10.6184 14.9383C10.6184 12.4781 12.6197 10.4755 15.0808 10.4755C17.5419 10.4755 19.5431 12.4769 19.5431 14.9383C19.5431 17.3996 17.5419 19.4011 15.0808 19.4011C12.6197 19.4011 10.6184 17.3996 10.6184 14.9383Z" fill="#F7AD38"/>
<path d="M16.8782 13.0567H15.6919V11.8703C15.6919 11.677 15.6139 11.5024 15.487 11.3755C15.3601 11.2486 15.1854 11.1706 14.9922 11.1706H14.6034C14.4101 11.1706 14.2355 11.2486 14.1086 11.3755C13.9817 11.5024 13.9037 11.677 13.9037 11.8703V13.0567H12.7174C12.5241 13.0567 12.3495 13.1348 12.2226 13.2617C12.0957 13.3886 12.0177 13.5632 12.0177 13.7565V14.1454C12.0177 14.3189 12.0806 14.4772 12.1853 14.5995C12.3134 14.7497 12.5043 14.8451 12.7185 14.8451H13.9048V16.0316C13.9048 16.2225 13.9805 16.3948 14.1051 16.5217C14.232 16.651 14.4089 16.7325 14.6057 16.7325H14.9945C15.1924 16.7325 15.3717 16.6498 15.4986 16.5182C15.6197 16.3925 15.6942 16.2214 15.6942 16.0327V14.8463H16.8805C17.0971 14.8463 17.2903 14.7485 17.4184 14.5948C17.5197 14.4737 17.5802 14.3177 17.5802 14.1466V13.7577C17.5802 13.5516 17.4917 13.3665 17.3497 13.2384C17.2251 13.1266 17.061 13.0579 16.8805 13.0579L16.8782 13.0567Z" fill="white"/>
<path d="M23.8122 19.875L21.003 17.0655C21.4756 16.127 21.7481 15.0722 21.7481 13.9509C21.7481 10.118 18.6304 7 14.7979 7C10.9654 7 7.84766 10.118 7.84766 13.9509C7.84766 17.7839 10.9654 20.9019 14.7979 20.9019C15.9597 20.9019 17.0529 20.612 18.0168 20.1055L20.7981 22.887C21.3977 23.4867 22.3697 23.4867 22.9705 22.887L23.8122 22.0453C24.4117 21.4456 24.4117 20.4734 23.8122 19.8727V19.875ZM10.3367 13.9521C10.3367 11.4919 12.3379 9.48932 14.799 9.48932C17.2601 9.48932 19.2614 11.4908 19.2614 13.9521C19.2614 16.4135 17.2601 18.4149 14.799 18.4149C12.3379 18.4149 10.3367 16.4135 10.3367 13.9521Z" fill="white"/>
<path d="M28.2213 27.4732C26.5577 28.9146 24.3865 29.7867 22.0127 29.7867H10.202C7.46732 29.7867 5.00273 28.6294 3.27158 26.7781C1.68596 25.0817 0.715027 22.8031 0.715027 20.2975V21.796C0.715027 24.3016 1.68596 26.5802 3.27158 28.2766C5.00273 30.1278 7.46732 31.2852 10.202 31.2852H22.0127C24.3865 31.2852 26.5577 30.4131 28.2213 28.9717C30.2295 27.2322 31.4997 24.6625 31.4997 21.7972V20.2987C31.4997 23.1641 30.2295 25.7337 28.2213 27.4732Z" fill="#E75C00"/>
<path d="M28.7221 3.49197C27.0049 1.77461 24.6335 0.712769 22.0129 0.712769H10.2022C8.08453 0.712769 6.12753 1.4067 4.54889 2.58033C2.22167 4.30934 0.71405 7.07923 0.71405 10.2019V12.3431C0.71405 9.2204 2.22167 6.4505 4.54889 4.72149C6.12753 3.54786 8.08336 2.85393 10.2022 2.85393H22.0129C24.6323 2.85393 27.0049 3.9158 28.7221 5.63316C30.4393 7.35052 31.501 9.72221 31.501 12.3431V10.2019C31.501 7.58222 30.4393 5.20933 28.7221 3.49197Z" fill="#FACE3F"/>
<path d="M4.11657 6.07064C4.52287 6.77505 5.70219 6.85655 6.74996 6.25111C7.79773 5.64683 8.31696 4.58497 7.91066 3.88056C7.50436 3.17615 6.32504 3.09464 5.27727 3.70008C4.2295 4.30436 3.71027 5.36623 4.11657 6.0718V6.07064Z" fill="white"/>
<path d="M8.58702 5.02748C8.78144 5.36397 9.34374 5.40239 9.84318 5.11364C10.3426 4.82489 10.5906 4.31839 10.3962 3.98307C10.2017 3.64658 9.63944 3.60816 9.14001 3.89691C8.64057 4.18566 8.3926 4.69216 8.58702 5.02748Z" fill="white"/>
<path opacity="0.7" d="M27.184 27.3453C27.517 27.8529 27.1177 28.7028 26.2934 29.2431C25.4692 29.7833 24.5308 29.8101 24.1979 29.3025C23.8649 28.7948 24.2642 27.9449 25.0885 27.4046C25.9127 26.8644 26.8511 26.8376 27.184 27.3453Z" fill="white"/>
<defs>
<linearGradient id="paint0_linear_508_149" x1="16.1068" y1="31.2865" x2="16.1068" y2="0.712769" gradientUnits="userSpaceOnUse">
<stop stop-color="#F97318"/>
<stop offset="1" stop-color="#F7AD38"/>
</linearGradient>
</defs>
</svg>
