<svg width="117" height="33" viewBox="0 0 117 33" fill="none" xmlns="http://www.w3.org/2000/svg">
<path d="M116.464 16.1819V16.5515C116.464 19.2621 115.799 21.8084 114.608 24.059C111.889 29.2009 106.492 32.7246 100.307 32.7246H16.1648C10.5383 32.7246 5.56897 29.8087 2.66128 25.4307V25.4143C0.977439 22.868 0 19.8207 0 16.5515V16.1819C0 13.3399 0.747451 10.654 2.04524 8.3295C4.82151 3.38477 10.1194 0.0170898 16.1648 0.0170898H100.307C107.281 0.0170898 113.269 4.50185 115.511 10.7362C116.127 12.4446 116.464 14.2763 116.464 16.1819Z" fill="url(#paint0_linear_360_302)"/>
<g style="mix-blend-mode:color-dodge" opacity="0.32">
<path d="M115.511 10.7364C110.887 1.28227 16.0335 -6.1759 2.05351 8.33796H2.04529C4.82157 3.38501 10.1195 0.017334 16.1649 0.017334H100.307C107.281 0.017334 113.269 4.50209 115.511 10.7364Z" fill="#FF7E8B"/>
</g>
<g style="mix-blend-mode:multiply">
<path d="M114.599 24.0593C111.881 29.2012 106.484 32.7249 100.299 32.7249H16.1566C10.5301 32.7249 5.56077 29.809 2.65308 25.431V25.4146C13.0354 35.838 96.7262 32.5524 114.599 24.0593Z" fill="#FF459D"/>
</g>
<g style="mix-blend-mode:color-dodge" opacity="0.32">
<path d="M72.175 0.477341C73.5056 1.38086 94.262 2.90863 104.587 5.37278C114.912 7.83693 113.622 5.49599 108.431 2.21867C103.24 -1.05865 71.7478 0.181635 72.175 0.469119V0.477341Z" fill="#FF7E8B"/>
</g>
<path d="M95.9047 3.45062C95.3215 3.95988 102.599 5.01947 102.837 4.55949C103.067 4.0913 100.102 -0.212752 95.9047 3.45062Z" fill="#F8EEF9"/>
<path d="M78.2204 1.32336C78.0233 1.75869 80.6845 2.16117 80.627 1.32336C80.5695 0.485549 78.7954 0.0255736 78.2204 1.32336Z" fill="#F8EEF9"/>
<g clip-path="url(#clip0_360_302)">
<path d="M32.0025 28.4794C31.6172 28.532 31.2289 28.5286 30.8371 28.4647L26.7912 27.8147C26.5858 27.7817 26.3796 27.777 26.1732 27.8051C25.9668 27.8333 25.7693 27.8931 25.5803 27.98L21.8565 29.6903C21.5007 29.8563 21.123 29.9642 20.7377 30.0168C18.6233 30.3054 16.6346 28.8111 16.2987 26.6921L15.6593 22.6235C15.5935 22.2099 15.411 21.8309 15.1305 21.5217L12.3529 18.4916C11.5154 17.5587 11.155 16.3212 11.3746 15.089C11.5936 13.8523 12.3594 12.8227 13.473 12.2528L17.125 10.3925C17.4966 10.2056 17.7975 9.911 18.0044 9.54465L20.0147 5.95966C20.627 4.86647 21.6871 4.14419 22.9255 3.97517C24.1639 3.80616 25.3788 4.21795 26.2617 5.10708L29.1591 8.02226C29.4521 8.32038 29.8248 8.51839 30.2336 8.60348L34.2504 9.41707C35.476 9.66774 36.4898 10.4545 37.0322 11.5873C37.5739 12.7155 37.5635 14.0083 36.9962 15.1235L35.1321 18.7872C34.9448 19.1603 34.8705 19.5742 34.9179 19.9904L35.3922 24.0816C35.6416 26.217 34.1209 28.1856 32.0064 28.4741L32.0025 28.4794Z" fill="url(#paint1_linear_360_302)"/>
<path d="M25.6032 5.76071L28.5012 8.6805C28.9238 9.10651 29.463 9.3945 30.0496 9.51637L34.0665 10.33C36.0318 10.7286 37.0811 12.9051 36.1676 14.7016L34.3041 18.3698C34.0314 18.9048 33.922 19.5067 33.9946 20.1073L34.4689 24.1984C34.7001 26.2002 32.9656 27.8692 30.9881 27.5521L26.9415 26.8975C26.3495 26.8046 25.7486 26.8866 25.2032 27.1348L21.48 28.8498C19.6558 29.6904 17.5369 28.5426 17.2278 26.5515L16.5884 22.4829C16.4935 21.8901 16.2307 21.3342 15.8246 20.8919L13.0464 17.8571C11.6849 16.3712 12.1132 13.9977 13.8991 13.0824L17.5511 11.2222C18.0842 10.9522 18.5259 10.5256 18.8189 10.0019L20.8285 6.41236C21.8132 4.65788 24.1936 4.333 25.6124 5.75946L25.6032 5.76071Z" fill="url(#paint2_linear_360_302)"/>
<path d="M15.8195 20.8879C16.2257 21.3302 16.4923 21.8808 16.5833 22.4789L17.2227 26.5475C17.5364 28.538 19.6547 29.6812 21.4795 28.8451L25.2027 27.1301C25.7481 26.8819 26.349 26.7999 26.941 26.8929L30.9876 27.5475C32.9703 27.8685 34.7041 26.1949 34.4684 24.1938L33.9941 20.1026C33.9267 19.5061 34.0309 18.9002 34.3036 18.3652L36.1677 14.7015C36.4775 14.0957 36.557 13.4462 36.455 12.8356C29.6137 16.9672 21.6144 19.3926 15.6887 20.7508L15.815 20.8885L15.8195 20.8879Z" fill="url(#paint3_linear_360_302)"/>
<path d="M23.8937 8.94767C23.2495 10.1156 22.2597 10.8049 21.6781 10.4804C21.0965 10.1559 21.1465 8.94694 21.7854 7.77498C22.4296 6.607 23.4195 5.91778 24.0011 6.24226C24.5826 6.56674 24.5327 7.7757 23.8937 8.94767Z" fill="#FFF9C4"/>
<path d="M21.5209 12.0327C21.4477 12.4888 21.0178 12.7963 20.5678 12.7169C20.1138 12.6426 19.8071 12.2102 19.8856 11.7581C19.9588 11.302 20.3887 10.9944 20.8388 11.0739C21.2927 11.1481 21.5994 11.5805 21.5209 12.0327Z" fill="#FFF9C4"/>
<path d="M32.714 24.3487C32.7776 24.8143 32.453 25.2436 31.9898 25.3069C31.5265 25.3701 31.0989 25.0434 31.0353 24.5778C30.9718 24.1122 31.2963 23.6828 31.7595 23.6196C32.2228 23.5564 32.6505 23.883 32.714 24.3487Z" fill="#FDD835"/>
</g>
<g filter="url(#filter0_dii_360_302)">
<path d="M52.1666 21.8967C51.6973 21.8967 51.3346 21.7687 51.0786 21.5127C50.8226 21.246 50.6946 20.878 50.6946 20.4087V12.8727H48.1826C47.788 12.8727 47.484 12.7714 47.2706 12.5687C47.068 12.3554 46.9666 12.0567 46.9666 11.6727C46.9666 11.278 47.068 10.9794 47.2706 10.7767C47.484 10.574 47.788 10.4727 48.1826 10.4727H56.1506C56.5453 10.4727 56.844 10.574 57.0466 10.7767C57.26 10.9794 57.3666 11.278 57.3666 11.6727C57.3666 12.0567 57.26 12.3554 57.0466 12.5687C56.844 12.7714 56.5453 12.8727 56.1506 12.8727H53.6386V20.4087C53.6386 20.878 53.516 21.246 53.2706 21.5127C53.0253 21.7687 52.6573 21.8967 52.1666 21.8967ZM60.8795 21.9287C60.2715 21.9287 59.7329 21.8167 59.2635 21.5927C58.8049 21.3687 58.4422 21.0647 58.1755 20.6807C57.9195 20.286 57.7915 19.838 57.7915 19.3367C57.7915 18.7607 57.9409 18.3074 58.2395 17.9767C58.5382 17.646 59.0182 17.4114 59.6795 17.2727C60.3409 17.1234 61.2209 17.0487 62.3195 17.0487H63.1995V18.3927H62.3195C61.9035 18.3927 61.5569 18.4247 61.2795 18.4887C61.0129 18.542 60.8155 18.6327 60.6875 18.7607C60.5595 18.878 60.4955 19.0327 60.4955 19.2247C60.4955 19.47 60.5809 19.6727 60.7515 19.8327C60.9329 19.9927 61.1889 20.0727 61.5195 20.0727C61.7862 20.0727 62.0209 20.014 62.2235 19.8967C62.4369 19.7794 62.6075 19.6194 62.7355 19.4167C62.8635 19.2034 62.9275 18.958 62.9275 18.6807V16.8247C62.9275 16.4407 62.8262 16.1687 62.6235 16.0087C62.4315 15.8487 62.0955 15.7687 61.6155 15.7687C61.3595 15.7687 61.0715 15.8007 60.7515 15.8647C60.4315 15.918 60.0742 16.0194 59.6795 16.1687C59.3915 16.2754 59.1462 16.2914 58.9435 16.2167C58.7409 16.142 58.5809 16.014 58.4635 15.8327C58.3569 15.6514 58.3035 15.454 58.3035 15.2407C58.3142 15.0274 58.3835 14.8247 58.5115 14.6327C58.6502 14.4407 58.8582 14.2914 59.1355 14.1847C59.6475 13.9927 60.1169 13.8647 60.5435 13.8007C60.9809 13.7367 61.3809 13.7047 61.7435 13.7047C62.6182 13.7047 63.3382 13.8327 63.9035 14.0887C64.4795 14.334 64.9062 14.718 65.1835 15.2407C65.4715 15.7527 65.6155 16.414 65.6155 17.2247V20.4567C65.6155 20.926 65.5035 21.2834 65.2795 21.5287C65.0555 21.774 64.7302 21.8967 64.3035 21.8967C63.8662 21.8967 63.5302 21.774 63.2955 21.5287C63.0715 21.2834 62.9595 20.926 62.9595 20.4567V20.0407L63.0555 20.2647C63.0022 20.606 62.8795 20.8994 62.6875 21.1447C62.4955 21.39 62.2449 21.582 61.9355 21.7207C61.6262 21.8594 61.2742 21.9287 60.8795 21.9287ZM60.7675 12.7607C60.5755 12.942 60.3835 13.0434 60.1915 13.0647C59.9995 13.086 59.8289 13.0487 59.6795 12.9527C59.5302 12.846 59.4342 12.7074 59.3915 12.5367C59.3595 12.3554 59.4129 12.1634 59.5515 11.9607L60.3515 10.7767C60.5649 10.4567 60.7942 10.2327 61.0395 10.1047C61.2955 9.97669 61.5889 9.91269 61.9195 9.91269C62.1435 9.91269 62.3462 9.93935 62.5275 9.99269C62.7195 10.046 62.8902 10.1367 63.0395 10.2647C63.1995 10.3927 63.3489 10.5634 63.4875 10.7767L64.2875 11.9607C64.4262 12.1634 64.4742 12.3554 64.4315 12.5367C64.3995 12.7074 64.3089 12.846 64.1595 12.9527C64.0209 13.0487 63.8502 13.086 63.6475 13.0647C63.4555 13.0434 63.2635 12.942 63.0715 12.7607L61.9195 11.6087L60.7675 12.7607ZM65.3275 11.2247C65.1889 11.3847 65.0342 11.4807 64.8635 11.5127C64.7035 11.534 64.5542 11.502 64.4155 11.4167C64.2875 11.3314 64.2022 11.2087 64.1595 11.0487C64.1169 10.8887 64.1489 10.7074 64.2555 10.5047L65.1195 8.92068C65.2369 8.70735 65.3809 8.57402 65.5515 8.52069C65.7222 8.45668 65.8929 8.45135 66.0635 8.50468C66.2449 8.55802 66.3942 8.65402 66.5115 8.79268C66.6395 8.92068 66.7089 9.07535 66.7195 9.25669C66.7302 9.43802 66.6555 9.62468 66.4955 9.81668L65.3275 11.2247ZM71.3653 21.9287C70.5653 21.9287 69.9039 21.806 69.3813 21.5607C68.8693 21.3154 68.4853 20.9474 68.2293 20.4567C67.9733 19.9554 67.8453 19.3314 67.8453 18.5847V15.9767H67.3013C66.9599 15.9767 66.6933 15.886 66.5013 15.7047C66.3199 15.5234 66.2293 15.262 66.2293 14.9207C66.2293 14.5794 66.3199 14.3234 66.5013 14.1527C66.6933 13.9714 66.9599 13.8807 67.3013 13.8807H67.8453V12.8887C67.8453 12.4194 67.9679 12.062 68.2133 11.8167C68.4586 11.5714 68.8106 11.4487 69.2693 11.4487C69.7279 11.4487 70.0799 11.5714 70.3253 11.8167C70.5706 12.062 70.6933 12.4194 70.6933 12.8887V13.8807H72.0053C72.3573 13.8807 72.6239 13.9714 72.8053 14.1527C72.9973 14.3234 73.0933 14.5794 73.0933 14.9207C73.0933 15.262 72.9973 15.5234 72.8053 15.7047C72.6239 15.886 72.3573 15.9767 72.0053 15.9767H70.6933V18.4887C70.6933 18.8834 70.7839 19.1767 70.9653 19.3687C71.1573 19.55 71.4559 19.6407 71.8613 19.6407C72.0106 19.6407 72.1546 19.6247 72.2933 19.5927C72.4319 19.5607 72.5599 19.5447 72.6773 19.5447C72.8479 19.534 72.9866 19.5874 73.0933 19.7047C73.1999 19.8114 73.2533 20.062 73.2533 20.4567C73.2533 20.7767 73.2053 21.0487 73.1093 21.2727C73.0133 21.486 72.8426 21.6407 72.5973 21.7367C72.4479 21.79 72.2453 21.8327 71.9893 21.8647C71.7333 21.9074 71.5253 21.9287 71.3653 21.9287ZM82.6439 21.9287C81.7586 21.9287 80.9852 21.7634 80.3239 21.4327C79.6732 21.102 79.1666 20.6274 78.8039 20.0087C78.4412 19.3794 78.2599 18.6434 78.2599 17.8007C78.2599 17.1607 78.3612 16.59 78.5639 16.0887C78.7666 15.5767 79.0599 15.1447 79.4439 14.7927C79.8386 14.4407 80.3026 14.174 80.8359 13.9927C81.3799 13.8007 81.9826 13.7047 82.6439 13.7047C82.9532 13.7047 83.2786 13.7367 83.6199 13.8007C83.9612 13.854 84.3132 13.9607 84.6759 14.1207C84.9319 14.2167 85.1079 14.366 85.2039 14.5687C85.3106 14.7607 85.3532 14.9687 85.3319 15.1927C85.3212 15.4167 85.2572 15.6194 85.1399 15.8007C85.0332 15.982 84.8786 16.1047 84.6759 16.1687C84.4839 16.2327 84.2652 16.206 84.0199 16.0887C83.8492 16.0034 83.6679 15.9447 83.4759 15.9127C83.2946 15.87 83.1186 15.8487 82.9479 15.8487C82.6599 15.8487 82.4039 15.8914 82.1799 15.9767C81.9666 16.062 81.7852 16.19 81.6359 16.3607C81.4866 16.5207 81.3692 16.7234 81.2839 16.9687C81.2092 17.214 81.1719 17.4914 81.1719 17.8007C81.1719 18.4194 81.3266 18.9047 81.6359 19.2567C81.9452 19.6087 82.3826 19.7847 82.9479 19.7847C83.1186 19.7847 83.2946 19.7687 83.4759 19.7367C83.6572 19.694 83.8386 19.63 84.0199 19.5447C84.2652 19.4274 84.4839 19.406 84.6759 19.4807C84.8679 19.5447 85.0226 19.6674 85.1399 19.8487C85.2572 20.03 85.3212 20.2327 85.3319 20.4567C85.3426 20.67 85.2946 20.878 85.1879 21.0807C85.0812 21.2727 84.8999 21.4167 84.6439 21.5127C84.2919 21.6727 83.9452 21.7794 83.6039 21.8327C83.2732 21.8967 82.9532 21.9287 82.6439 21.9287ZM89.1139 21.9287C88.5059 21.9287 87.9672 21.8167 87.4979 21.5927C87.0392 21.3687 86.6766 21.0647 86.4099 20.6807C86.1539 20.286 86.0259 19.838 86.0259 19.3367C86.0259 18.7607 86.1752 18.3074 86.4739 17.9767C86.7726 17.646 87.2526 17.4114 87.9139 17.2727C88.5752 17.1234 89.4552 17.0487 90.5539 17.0487H91.4339V18.3927H90.5539C90.1379 18.3927 89.7912 18.4247 89.5139 18.4887C89.2472 18.542 89.0499 18.6327 88.9219 18.7607C88.7939 18.878 88.7299 19.0327 88.7299 19.2247C88.7299 19.47 88.8152 19.6727 88.9859 19.8327C89.1672 19.9927 89.4232 20.0727 89.7539 20.0727C90.0206 20.0727 90.2552 20.014 90.4579 19.8967C90.6712 19.7794 90.8419 19.6194 90.9699 19.4167C91.0979 19.2034 91.1619 18.958 91.1619 18.6807V16.8247C91.1619 16.4407 91.0606 16.1687 90.8579 16.0087C90.6659 15.8487 90.3299 15.7687 89.8499 15.7687C89.5939 15.7687 89.3059 15.8007 88.9859 15.8647C88.6659 15.918 88.3086 16.0194 87.9139 16.1687C87.6259 16.2754 87.3806 16.2914 87.1779 16.2167C86.9752 16.142 86.8152 16.014 86.6979 15.8327C86.5912 15.6514 86.5379 15.454 86.5379 15.2407C86.5486 15.0274 86.6179 14.8247 86.7459 14.6327C86.8846 14.4407 87.0926 14.2914 87.3699 14.1847C87.8819 13.9927 88.3512 13.8647 88.7779 13.8007C89.2152 13.7367 89.6152 13.7047 89.9779 13.7047C90.8526 13.7047 91.5726 13.8327 92.1379 14.0887C92.7139 14.334 93.1406 14.718 93.4179 15.2407C93.7059 15.7527 93.8499 16.414 93.8499 17.2247V20.4567C93.8499 20.926 93.7379 21.2834 93.5139 21.5287C93.2899 21.774 92.9646 21.8967 92.5379 21.8967C92.1006 21.8967 91.7646 21.774 91.5299 21.5287C91.3059 21.2834 91.1939 20.926 91.1939 20.4567V20.0407L91.2899 20.2647C91.2366 20.606 91.1139 20.8994 90.9219 21.1447C90.7299 21.39 90.4792 21.582 90.1699 21.7207C89.8606 21.8594 89.5086 21.9287 89.1139 21.9287ZM90.1539 13.0007C89.8979 13.0007 89.6952 12.958 89.5459 12.8727C89.4072 12.7874 89.3379 12.6647 89.3379 12.5047C89.3379 12.302 89.3752 12.1367 89.4499 12.0087C89.5352 11.87 89.6259 11.7527 89.7219 11.6567C89.8286 11.55 89.9192 11.4487 89.9939 11.3527C90.0792 11.2567 90.1219 11.15 90.1219 11.0327C90.1219 10.9047 90.0739 10.814 89.9779 10.7607C89.8819 10.7074 89.7539 10.6807 89.5939 10.6807C89.5299 10.6807 89.4659 10.686 89.4019 10.6967C89.3379 10.6967 89.2579 10.7074 89.1619 10.7287C88.9379 10.782 88.7619 10.7927 88.6339 10.7607C88.5166 10.7287 88.4206 10.622 88.3459 10.4407C88.2819 10.2594 88.2766 10.0994 88.3299 9.96068C88.3939 9.81135 88.5379 9.69935 88.7619 9.62469C88.9859 9.55002 89.2259 9.49669 89.4819 9.46469C89.7379 9.43269 90.0046 9.41669 90.2819 9.41669C90.8792 9.41669 91.3432 9.52335 91.6739 9.73668C92.0046 9.93935 92.1699 10.2327 92.1699 10.6167C92.1699 10.894 92.1059 11.118 91.9779 11.2887C91.8606 11.4594 91.7219 11.6034 91.5619 11.7207C91.4126 11.838 91.2739 11.9607 91.1459 12.0887C91.0286 12.2167 90.9699 12.3714 90.9699 12.5527C90.9699 12.6914 90.9006 12.8034 90.7619 12.8887C90.6232 12.9634 90.4206 13.0007 90.1539 13.0007Z" fill="white"/>
</g>
<defs>
<filter id="filter0_dii_360_302" x="44.5398" y="7.21134" width="51.737" height="18.3577" filterUnits="userSpaceOnUse" color-interpolation-filters="sRGB">
<feFlood flood-opacity="0" result="BackgroundImageFix"/>
<feColorMatrix in="SourceAlpha" type="matrix" values="0 0 0 0 0 0 0 0 0 0 0 0 0 0 0 0 0 0 127 0" result="hardAlpha"/>
<feOffset dy="1.21346"/>
<feGaussianBlur stdDeviation="1.21346"/>
<feComposite in2="hardAlpha" operator="out"/>
<feColorMatrix type="matrix" values="0 0 0 0 0.245192 0 0 0 0 0 0 0 0 0 0.147115 0 0 0 0.29 0"/>
<feBlend mode="multiply" in2="BackgroundImageFix" result="effect1_dropShadow_360_302"/>
<feBlend mode="normal" in="SourceGraphic" in2="effect1_dropShadow_360_302" result="shape"/>
<feColorMatrix in="SourceAlpha" type="matrix" values="0 0 0 0 0 0 0 0 0 0 0 0 0 0 0 0 0 0 127 0" result="hardAlpha"/>
<feOffset dy="-0.60673"/>
<feGaussianBlur stdDeviation="0.303365"/>
<feComposite in2="hardAlpha" operator="arithmetic" k2="-1" k3="1"/>
<feColorMatrix type="matrix" values="0 0 0 0 0.740385 0 0 0 0 0 0 0 0 0 0.201333 0 0 0 0.64 0"/>
<feBlend mode="multiply" in2="shape" result="effect2_innerShadow_360_302"/>
<feColorMatrix in="SourceAlpha" type="matrix" values="0 0 0 0 0 0 0 0 0 0 0 0 0 0 0 0 0 0 127 0" result="hardAlpha"/>
<feOffset dy="0.60673"/>
<feGaussianBlur stdDeviation="0.303365"/>
<feComposite in2="hardAlpha" operator="arithmetic" k2="-1" k3="1"/>
<feColorMatrix type="matrix" values="0 0 0 0 1 0 0 0 0 0.677885 0 0 0 0 0.771899 0 0 0 0.23 0"/>
<feBlend mode="normal" in2="effect2_innerShadow_360_302" result="effect3_innerShadow_360_302"/>
</filter>
<linearGradient id="paint0_linear_360_302" x1="58.2279" y1="32.7246" x2="58.2279" y2="0.0170898" gradientUnits="userSpaceOnUse">
<stop stop-color="#FF5B8B"/>
<stop offset="1" stop-color="#FC98AF"/>
</linearGradient>
<linearGradient id="paint1_linear_360_302" x1="21.626" y1="7.01704" x2="31.0749" y2="32.8338" gradientUnits="userSpaceOnUse">
<stop stop-color="#FF8F00"/>
<stop offset="1" stop-color="#B13827"/>
</linearGradient>
<linearGradient id="paint2_linear_360_302" x1="21.8859" y1="7.72379" x2="30.666" y2="31.7168" gradientUnits="userSpaceOnUse">
<stop stop-color="#FFD54F"/>
<stop offset="0.48" stop-color="#FFCD15"/>
<stop offset="0.65" stop-color="#FFCB00"/>
</linearGradient>
<linearGradient id="paint3_linear_360_302" x1="32.3955" y1="36.0146" x2="20.6678" y2="1.93989" gradientUnits="userSpaceOnUse">
<stop stop-color="#FFD54F"/>
<stop offset="0.48" stop-color="#FFAE15"/>
<stop offset="0.65" stop-color="#FFA000"/>
</linearGradient>
<clipPath id="clip0_360_302">
<rect width="26.2843" height="25.5112" fill="white" transform="translate(9.90344 5.74805) rotate(-7.7717)"/>
</clipPath>
</defs>
</svg>
