<svg width="117" height="44" viewBox="0 0 117 44" fill="none" xmlns="http://www.w3.org/2000/svg">
<g opacity="0.9">
<path d="M116.464 26.86V27.2297C116.464 29.9402 115.799 32.4865 114.608 34.7371C111.889 39.879 106.492 43.4027 100.307 43.4027H16.1648C10.5383 43.4027 5.56897 40.4868 2.66128 36.1088V36.0924C0.977439 33.5461 0 30.4988 0 27.2297V26.86C0 24.0181 0.747451 21.3321 2.04524 19.0076C4.82151 14.0629 10.1194 10.6952 16.1648 10.6952H100.307C107.281 10.6952 113.269 15.18 115.511 21.4143C116.127 23.1227 116.464 24.9544 116.464 26.86Z" fill="url(#paint0_linear_346_135)"/>
<g opacity="0.32">
<path d="M115.511 21.4145C110.887 11.9604 16.0335 4.50221 2.05351 19.0161H2.04529C4.82157 14.0631 10.1195 10.6954 16.1649 10.6954H100.307C107.281 10.6954 113.269 15.1802 115.511 21.4145Z" fill="#FF7E8B"/>
</g>
<g>
<path d="M114.599 34.7374C111.881 39.8792 106.484 43.403 100.299 43.403H16.1566C10.5301 43.403 5.56077 40.487 2.65308 36.1091V36.0926C13.0354 46.516 96.7262 43.2305 114.599 34.7374Z" fill="#FF459D"/>
</g>
<g opacity="0.32">
<path d="M72.175 11.1553C73.5056 12.0589 94.262 13.5866 104.587 16.0508C114.912 18.5149 113.622 16.174 108.431 12.8967C103.24 9.61934 71.7478 10.8596 72.175 11.1471V11.1553Z" fill="#FF7E8B"/>
</g>
<path d="M95.9047 14.1287C95.3215 14.638 102.599 15.6975 102.837 15.2376C103.067 14.7694 100.102 10.4653 95.9047 14.1287Z" fill="#F8EEF9"/>
<path d="M78.2204 12.0015C78.0233 12.4368 80.6845 12.8393 80.627 12.0015C80.5695 11.1637 78.7954 10.7037 78.2204 12.0015Z" fill="#F8EEF9"/>
<g filter="url(#filter0_dii_346_135)">
<path d="M41.7984 32.2491C41.2971 32.2491 40.9131 32.1211 40.6464 31.8651C40.3904 31.5985 40.2624 31.2198 40.2624 30.7291V22.4891C40.2624 21.9985 40.3904 21.6251 40.6464 21.3691C40.9131 21.1025 41.2971 20.9691 41.7984 20.9691H44.9344C46.8971 20.9691 48.4117 21.4598 49.4784 22.4411C50.5557 23.4225 51.0944 24.8091 51.0944 26.6011C51.0944 27.4971 50.9557 28.2971 50.6784 29.0011C50.4011 29.6945 50.0011 30.2865 49.4784 30.7771C48.9557 31.2571 48.3104 31.6251 47.5424 31.8811C46.7851 32.1265 45.9157 32.2491 44.9344 32.2491H41.7984ZM43.2064 29.8651H44.7424C45.3077 29.8651 45.7931 29.7958 46.1984 29.6571C46.6144 29.5185 46.9557 29.3158 47.2224 29.0491C47.4997 28.7825 47.7024 28.4465 47.8304 28.0411C47.9691 27.6358 48.0384 27.1558 48.0384 26.6011C48.0384 25.4918 47.7664 24.6758 47.2224 24.1531C46.6784 23.6198 45.8517 23.3531 44.7424 23.3531H43.2064V29.8651ZM39.8624 27.5931C39.5211 27.5931 39.2597 27.5025 39.0784 27.3211C38.8864 27.1398 38.7904 26.8838 38.7904 26.5531C38.7904 26.2225 38.8864 25.9665 39.0784 25.7851C39.2597 25.6038 39.5211 25.5131 39.8624 25.5131H45.1904C45.5424 25.5131 45.8091 25.6038 45.9904 25.7851C46.1824 25.9665 46.2784 26.2225 46.2784 26.5531C46.2784 26.8838 46.1824 27.1398 45.9904 27.3211C45.8091 27.5025 45.5424 27.5931 45.1904 27.5931H39.8624ZM56.6325 32.4251C55.7579 32.4251 54.9952 32.2598 54.3445 31.9291C53.6939 31.5985 53.1872 31.1238 52.8245 30.5051C52.4619 29.8865 52.2805 29.1558 52.2805 28.3131C52.2805 27.6731 52.3819 27.1025 52.5845 26.6011C52.7872 26.0891 53.0805 25.6571 53.4645 25.3051C53.8485 24.9425 54.3072 24.6705 54.8405 24.4891C55.3739 24.2971 55.9712 24.2011 56.6325 24.2011C57.5072 24.2011 58.2699 24.3665 58.9205 24.6971C59.5712 25.0278 60.0725 25.5025 60.4245 26.1211C60.7872 26.7291 60.9685 27.4598 60.9685 28.3131C60.9685 28.9425 60.8672 29.5131 60.6645 30.0251C60.4619 30.5371 60.1685 30.9745 59.7845 31.3371C59.4112 31.6891 58.9525 31.9611 58.4085 32.1531C57.8752 32.3345 57.2832 32.4251 56.6325 32.4251ZM56.6325 30.3291C56.9205 30.3291 57.1765 30.2598 57.4005 30.1211C57.6245 29.9718 57.7952 29.7531 57.9125 29.4651C58.0405 29.1665 58.1045 28.7825 58.1045 28.3131C58.1045 27.5985 57.9659 27.0865 57.6885 26.7771C57.4112 26.4571 57.0592 26.2971 56.6325 26.2971C56.3445 26.2971 56.0885 26.3665 55.8645 26.5051C55.6405 26.6438 55.4645 26.8625 55.3365 27.1611C55.2085 27.4491 55.1445 27.8331 55.1445 28.3131C55.1445 29.0171 55.2832 29.5291 55.5605 29.8491C55.8379 30.1691 56.1952 30.3291 56.6325 30.3291ZM56.6325 35.9291C56.1952 35.9291 55.8592 35.8118 55.6245 35.5771C55.3899 35.3531 55.2725 35.0385 55.2725 34.6331C55.2725 34.2171 55.3899 33.8971 55.6245 33.6731C55.8592 33.4598 56.1952 33.3531 56.6325 33.3531C57.0805 33.3531 57.4165 33.4598 57.6405 33.6731C57.8752 33.8971 57.9925 34.2171 57.9925 34.6331C57.9925 35.0491 57.8752 35.3691 57.6405 35.5931C57.4165 35.8171 57.0805 35.9291 56.6325 35.9291ZM59.0965 22.4091C59.2245 22.6331 59.2512 22.8411 59.1765 23.0331C59.1125 23.2145 58.9952 23.3531 58.8245 23.4491C58.6539 23.5451 58.4672 23.5771 58.2645 23.5451C58.0725 23.5131 57.9072 23.4011 57.7685 23.2091L56.6325 21.5291L55.4965 23.2091C55.3579 23.4011 55.1872 23.5131 54.9845 23.5451C54.7925 23.5771 54.6112 23.5451 54.4405 23.4491C54.2699 23.3531 54.1472 23.2145 54.0725 23.0331C54.0085 22.8411 54.0405 22.6331 54.1685 22.4091L55.0965 20.7131C55.2672 20.3931 55.4805 20.1478 55.7365 19.9771C55.9925 19.7958 56.2912 19.7051 56.6325 19.7051C56.9845 19.7051 57.2885 19.7958 57.5445 19.9771C57.8005 20.1478 58.0139 20.3931 58.1845 20.7131L59.0965 22.4091ZM63.6815 32.3931C63.2335 32.3931 62.8869 32.2705 62.6415 32.0251C62.3962 31.7798 62.2735 31.4225 62.2735 30.9531V25.6571C62.2735 25.1985 62.3909 24.8465 62.6255 24.6011C62.8709 24.3558 63.2175 24.2331 63.6655 24.2331C64.1135 24.2331 64.4549 24.3558 64.6895 24.6011C64.9242 24.8465 65.0415 25.1985 65.0415 25.6571V26.4091L64.8655 25.7531C65.1215 25.2518 65.4842 24.8678 65.9535 24.6011C66.4335 24.3345 66.9775 24.2011 67.5855 24.2011C68.2149 24.2011 68.7322 24.3238 69.1375 24.5691C69.5429 24.8038 69.8469 25.1771 70.0495 25.6891C70.2522 26.1905 70.3535 26.8251 70.3535 27.5931V30.9531C70.3535 31.4225 70.2309 31.7798 69.9855 32.0251C69.7402 32.2705 69.3882 32.3931 68.9295 32.3931C68.4709 32.3931 68.1189 32.2705 67.8735 32.0251C67.6282 31.7798 67.5055 31.4225 67.5055 30.9531V27.7051C67.5055 27.2251 67.4202 26.8838 67.2495 26.6811C67.0895 26.4785 66.8495 26.3771 66.5295 26.3771C66.1029 26.3771 65.7615 26.5158 65.5055 26.7931C65.2495 27.0598 65.1215 27.4225 65.1215 27.8811V30.9531C65.1215 31.9131 64.6415 32.3931 63.6815 32.3931ZM75.8807 35.3051C75.294 35.3051 74.7447 35.2625 74.2327 35.1771C73.7207 35.1025 73.278 34.9905 72.9047 34.8411C72.5953 34.7345 72.3767 34.5798 72.2487 34.3771C72.1207 34.1745 72.062 33.9611 72.0727 33.7371C72.0833 33.5131 72.142 33.3105 72.2487 33.1291C72.366 32.9478 72.5207 32.8145 72.7127 32.7291C72.9047 32.6545 73.118 32.6598 73.3527 32.7451C73.822 32.9371 74.2487 33.0598 74.6327 33.1131C75.0167 33.1771 75.342 33.2091 75.6087 33.2091C76.2593 33.2091 76.7447 33.0705 77.0647 32.7931C77.3953 32.5265 77.5607 32.1051 77.5607 31.5291V30.5211H77.6887C77.5287 30.9691 77.2033 31.3371 76.7127 31.6251C76.222 31.9025 75.6887 32.0411 75.1127 32.0411C74.4087 32.0411 73.7953 31.8811 73.2727 31.5611C72.75 31.2305 72.3393 30.7718 72.0407 30.1851C71.7527 29.5985 71.6087 28.9105 71.6087 28.1211C71.6087 27.5238 71.694 26.9851 71.8647 26.5051C72.0353 26.0251 72.27 25.6145 72.5687 25.2731C72.878 24.9318 73.246 24.6705 73.6727 24.4891C74.11 24.2971 74.59 24.2011 75.1127 24.2011C75.71 24.2011 76.2433 24.3398 76.7127 24.6171C77.1927 24.8945 77.5127 25.2571 77.6727 25.7051L77.5127 26.3611V25.6571C77.5127 25.1985 77.6353 24.8465 77.8807 24.6011C78.1367 24.3558 78.4887 24.2331 78.9367 24.2331C79.3847 24.2331 79.726 24.3558 79.9607 24.6011C80.206 24.8465 80.3287 25.1985 80.3287 25.6571V31.1931C80.3287 32.5585 79.9447 33.5825 79.1767 34.2651C78.4087 34.9585 77.31 35.3051 75.8807 35.3051ZM75.9927 29.9451C76.3127 29.9451 76.5847 29.8758 76.8087 29.7371C77.0327 29.5878 77.2087 29.3798 77.3367 29.1131C77.4647 28.8358 77.5287 28.5051 77.5287 28.1211C77.5287 27.5451 77.39 27.0971 77.1127 26.7771C76.8353 26.4571 76.462 26.2971 75.9927 26.2971C75.694 26.2971 75.4273 26.3718 75.1927 26.5211C74.958 26.6598 74.7767 26.8678 74.6487 27.1451C74.5313 27.4118 74.4727 27.7371 74.4727 28.1211C74.4727 28.6971 74.6113 29.1451 74.8887 29.4651C75.166 29.7851 75.534 29.9451 75.9927 29.9451ZM90.0584 32.3931C89.6851 32.3931 89.3651 32.3025 89.0984 32.1211C88.8424 31.9291 88.6291 31.6465 88.4584 31.2731L86.1704 26.0411C86.0424 25.7211 85.9997 25.4225 86.0424 25.1451C86.0851 24.8678 86.2184 24.6491 86.4424 24.4891C86.6771 24.3185 86.9971 24.2331 87.4024 24.2331C87.7437 24.2331 88.0157 24.3131 88.2184 24.4731C88.4317 24.6225 88.6237 24.9211 88.7944 25.3691L90.4104 29.5291H89.8664L91.5624 25.3531C91.7331 24.9158 91.9251 24.6225 92.1384 24.4731C92.3517 24.3131 92.6451 24.2331 93.0184 24.2331C93.3384 24.2331 93.5944 24.3185 93.7864 24.4891C93.9891 24.6491 94.1117 24.8678 94.1544 25.1451C94.1971 25.4225 94.1437 25.7211 93.9944 26.0411L91.6584 31.2891C91.4984 31.6625 91.2851 31.9398 91.0184 32.1211C90.7624 32.3025 90.4424 32.3931 90.0584 32.3931ZM97.9783 32.4251C97.3703 32.4251 96.8316 32.3131 96.3623 32.0891C95.9036 31.8651 95.5409 31.5611 95.2743 31.1771C95.0183 30.7825 94.8903 30.3345 94.8903 29.8331C94.8903 29.2571 95.0396 28.8038 95.3383 28.4731C95.6369 28.1425 96.1169 27.9078 96.7783 27.7691C97.4396 27.6198 98.3196 27.5451 99.4183 27.5451H100.298V28.8891H99.4183C99.0023 28.8891 98.6556 28.9211 98.3783 28.9851C98.1116 29.0385 97.9143 29.1291 97.7863 29.2571C97.6583 29.3745 97.5943 29.5291 97.5943 29.7211C97.5943 29.9665 97.6796 30.1691 97.8503 30.3291C98.0316 30.4891 98.2876 30.5691 98.6183 30.5691C98.8849 30.5691 99.1196 30.5105 99.3223 30.3931C99.5356 30.2758 99.7063 30.1158 99.8343 29.9131C99.9623 29.6998 100.026 29.4545 100.026 29.1771V27.3211C100.026 26.9371 99.9249 26.6651 99.7223 26.5051C99.5303 26.3451 99.1943 26.2651 98.7143 26.2651C98.4583 26.2651 98.1703 26.2971 97.8503 26.3611C97.5303 26.4145 97.1729 26.5158 96.7783 26.6651C96.4903 26.7718 96.2449 26.7878 96.0423 26.7131C95.8396 26.6385 95.6796 26.5105 95.5623 26.3291C95.4556 26.1478 95.4023 25.9505 95.4023 25.7371C95.4129 25.5238 95.4823 25.3211 95.6103 25.1291C95.7489 24.9371 95.9569 24.7878 96.2343 24.6811C96.7463 24.4891 97.2156 24.3611 97.6423 24.2971C98.0796 24.2331 98.4796 24.2011 98.8423 24.2011C99.7169 24.2011 100.437 24.3291 101.002 24.5851C101.578 24.8305 102.005 25.2145 102.282 25.7371C102.57 26.2491 102.714 26.9105 102.714 27.7211V30.9531C102.714 31.4225 102.602 31.7798 102.378 32.0251C102.154 32.2705 101.829 32.3931 101.402 32.3931C100.965 32.3931 100.629 32.2705 100.394 32.0251C100.17 31.7798 100.058 31.4225 100.058 30.9531V30.5371L100.154 30.7611C100.101 31.1025 99.9783 31.3958 99.7863 31.6411C99.5943 31.8865 99.3436 32.0785 99.0343 32.2171C98.7249 32.3558 98.3729 32.4251 97.9783 32.4251ZM98.9383 35.9291C98.5009 35.9291 98.1649 35.8118 97.9303 35.5771C97.6956 35.3531 97.5783 35.0385 97.5783 34.6331C97.5783 34.2171 97.6956 33.8971 97.9303 33.6731C98.1649 33.4598 98.5009 33.3531 98.9383 33.3531C99.3863 33.3531 99.7223 33.4598 99.9463 33.6731C100.181 33.8971 100.298 34.2171 100.298 34.6331C100.298 35.0491 100.181 35.3691 99.9463 35.5931C99.7223 35.8171 99.3863 35.9291 98.9383 35.9291ZM101.482 22.4091C101.61 22.6331 101.637 22.8411 101.562 23.0331C101.498 23.2145 101.381 23.3531 101.21 23.4491C101.04 23.5451 100.853 23.5771 100.65 23.5451C100.458 23.5131 100.293 23.4011 100.154 23.2091L99.0183 21.5291L97.8823 23.2091C97.7436 23.4011 97.5729 23.5131 97.3703 23.5451C97.1783 23.5771 96.9969 23.5451 96.8263 23.4491C96.6556 23.3531 96.5329 23.2145 96.4583 23.0331C96.3943 22.8411 96.4263 22.6331 96.5543 22.4091L97.4823 20.7131C97.6529 20.3931 97.8663 20.1478 98.1223 19.9771C98.3783 19.7958 98.6769 19.7051 99.0183 19.7051C99.3703 19.7051 99.6743 19.7958 99.9303 19.9771C100.186 20.1478 100.4 20.3931 100.57 20.7131L101.482 22.4091ZM108.464 32.4251C107.664 32.4251 107.003 32.3025 106.48 32.0571C105.968 31.8118 105.584 31.4438 105.328 30.9531C105.072 30.4518 104.944 29.8278 104.944 29.0811V26.4731H104.4C104.059 26.4731 103.792 26.3825 103.6 26.2011C103.419 26.0198 103.328 25.7585 103.328 25.4171C103.328 25.0758 103.419 24.8198 103.6 24.6491C103.792 24.4678 104.059 24.3771 104.4 24.3771H104.944V23.3851C104.944 22.9158 105.067 22.5585 105.312 22.3131C105.557 22.0678 105.909 21.9451 106.368 21.9451C106.827 21.9451 107.179 22.0678 107.424 22.3131C107.669 22.5585 107.792 22.9158 107.792 23.3851V24.3771H109.104C109.456 24.3771 109.723 24.4678 109.904 24.6491C110.096 24.8198 110.192 25.0758 110.192 25.4171C110.192 25.7585 110.096 26.0198 109.904 26.2011C109.723 26.3825 109.456 26.4731 109.104 26.4731H107.792V28.9851C107.792 29.3798 107.883 29.6731 108.064 29.8651C108.256 30.0465 108.555 30.1371 108.96 30.1371C109.109 30.1371 109.253 30.1211 109.392 30.0891C109.531 30.0571 109.659 30.0411 109.776 30.0411C109.947 30.0305 110.085 30.0838 110.192 30.2011C110.299 30.3078 110.352 30.5585 110.352 30.9531C110.352 31.2731 110.304 31.5451 110.208 31.7691C110.112 31.9825 109.941 32.1371 109.696 32.2331C109.547 32.2865 109.344 32.3291 109.088 32.3611C108.832 32.4038 108.624 32.4251 108.464 32.4251Z" fill="white"/>
</g>
<path d="M22.382 18.8634C22.382 18.8634 26.0666 9.80197 25.5909 7.96693C25.1153 6.12518 21.5513 5.50234 21.5513 5.50234L20.6737 18.9571L22.3753 18.87L22.382 18.8634Z" fill="#F595CB"/>
<path d="M23.3802 19.2854L20.2249 19.3055C20.2249 19.3055 15.5154 1.38363 23.8827 0.385736C23.8827 0.385736 28.1099 -0.625552 29.5971 6.15876C31.0843 12.9498 28.9138 13.5592 27.3328 13.4521C24.8742 13.2846 22.3553 7.14326 22.3553 7.14326C22.3553 7.14326 21.0288 17.0954 21.4509 18.9371L23.3735 19.2854H23.3802Z" fill="white"/>
<path d="M20.2248 19.6404C20.0707 19.6404 19.9367 19.5399 19.9032 19.3926C19.7759 18.9037 16.7747 7.29061 20.1913 2.27437C21.0689 0.988501 22.3015 0.238411 23.8491 0.0575852C23.8692 0.0508879 25.2693 -0.270565 26.79 0.680445C28.2973 1.62476 29.3558 3.4464 29.9319 6.09181C30.6956 9.59448 30.5952 11.8515 29.6171 12.9833C29.0878 13.5927 28.3375 13.8606 27.3192 13.7869C25.3162 13.653 23.4203 10.2173 22.5427 8.36888C22.0872 11.9854 21.4976 17.6044 21.7857 18.8635C21.7924 18.897 21.7924 18.9304 21.7924 18.9572H23.3801V18.9505C23.561 18.9505 23.7151 19.0979 23.7151 19.2854C23.7151 19.4729 23.5677 19.6203 23.3801 19.6203L20.2248 19.6404ZM24.4654 0.667037C24.1572 0.667037 23.9629 0.707219 23.9629 0.707219C22.5762 0.874651 21.511 1.52429 20.7473 2.64273C17.7662 7.01604 20.0707 17.2293 20.4928 18.9639H21.1225C20.7205 16.9615 21.9733 7.49824 22.0269 7.0964C22.047 6.94906 22.1676 6.82852 22.3149 6.80843C22.469 6.78833 22.6097 6.8754 22.67 7.01604C23.3466 8.67026 25.5172 12.9967 27.3594 13.1239C28.1767 13.1775 28.7194 12.9967 29.1079 12.548C29.9252 11.597 29.9855 9.47392 29.2754 6.23245C28.7395 3.77456 27.7882 2.10025 26.4483 1.2564C25.6779 0.767499 24.941 0.673741 24.4721 0.673741L24.4654 0.667037Z" fill="black"/>
<path d="M14.6577 22.078C14.6577 22.078 -2.04341 8.60318 4.48161 4.06245C11.8507 -1.06095 17.813 20.1359 17.813 20.1359L14.6577 22.078Z" fill="white"/>
<path d="M14.6577 22.4129C14.584 22.4129 14.5104 22.3861 14.4501 22.3392C13.961 21.9441 2.43169 12.5746 2.63937 6.74804C2.68626 5.51575 3.2423 4.51785 4.29407 3.78785C5.56022 2.90381 6.87326 2.70289 8.1997 3.17839C13.9141 5.22775 17.9671 19.446 18.1413 20.0488C18.1815 20.1894 18.1212 20.3434 17.9939 20.4238L14.8386 22.366C14.785 22.3995 14.7247 22.4129 14.6644 22.4129H14.6577ZM6.80627 3.59362C6.08946 3.59362 5.38604 3.84143 4.66923 4.33703C3.78493 4.95317 3.33609 5.75014 3.30259 6.77482C3.12171 11.8848 13.1906 20.4372 14.6845 21.6695L17.4178 19.9885C16.8551 18.0865 12.9695 5.6028 7.96523 3.80794C7.56998 3.6673 7.18813 3.59362 6.80627 3.59362Z" fill="black"/>
<path d="M15.8569 21.3413C15.8569 21.3413 1.82208 9.15905 6.31725 6.49355C10.8124 3.82804 17.0226 20.6247 17.0226 20.6247L15.8569 21.3413Z" fill="#F595CB"/>
<path d="M21.1561 39.913C27.4828 39.913 32.6117 35.0645 32.6117 29.0835C32.6117 23.1026 27.4828 18.2541 21.1561 18.2541C14.8293 18.2541 9.70044 23.1026 9.70044 29.0835C9.70044 35.0645 14.8293 39.913 21.1561 39.913Z" fill="white"/>
<path d="M21.1559 40.2479C14.651 40.2479 9.36536 35.2383 9.36536 29.0835C9.36536 22.9288 14.6577 17.9192 21.1559 17.9192C27.6542 17.9192 32.9465 22.9288 32.9465 29.0835C32.9465 35.2383 27.6542 40.2479 21.1559 40.2479ZM21.1559 18.589C15.0262 18.589 10.0353 23.2971 10.0353 29.0835C10.0353 34.87 15.0262 39.5781 21.1559 39.5781C27.2857 39.5781 32.2766 34.87 32.2766 29.0835C32.2766 23.2971 27.2857 18.589 21.1559 18.589Z" fill="black"/>
<path d="M19.2735 27.8511H19.2467C18.128 27.831 17.7059 26.7393 17.6389 26.1634C17.6188 25.9825 17.7461 25.8151 17.9337 25.795C18.1146 25.7682 18.282 25.9022 18.3088 26.083C18.3088 26.1299 18.4562 27.168 19.2668 27.1813C20.0908 27.1747 20.2114 26.0964 20.2114 26.083C20.2315 25.8955 20.4057 25.7682 20.5799 25.7883C20.7608 25.8084 20.8947 25.9758 20.8746 26.1567C20.8076 26.746 20.3856 27.8444 19.2802 27.8444L19.2735 27.8511Z" fill="black"/>
<path d="M27.4132 27.8512H27.3864C26.2676 27.8311 25.8456 26.7394 25.7786 26.1635C25.7585 25.9826 25.8858 25.8152 26.0733 25.7951C26.2475 25.7683 26.4217 25.9023 26.4485 26.0831C26.4485 26.13 26.5959 27.168 27.4065 27.1814C28.2104 27.1948 28.3444 26.13 28.3511 26.0831C28.3712 25.9023 28.552 25.775 28.7195 25.7884C28.9004 25.8085 29.0344 25.9759 29.0143 26.1568C28.9473 26.7461 28.5252 27.8445 27.4199 27.8445L27.4132 27.8512Z" fill="black"/>
<path d="M30.1664 30.2554C30.1664 30.9854 29.5702 31.5815 28.84 31.5815C28.1098 31.5815 27.5135 30.9854 27.5135 30.2554C27.5135 29.5254 28.1098 28.9294 28.84 28.9294C29.5702 28.9294 30.1664 29.5254 30.1664 30.2554Z" fill="#F595CB"/>
<path d="M18.8113 30.2554C18.8113 30.9854 18.2151 31.5815 17.4849 31.5815C16.7547 31.5815 16.1584 30.9854 16.1584 30.2554C16.1584 29.5254 16.7547 28.9294 17.4849 28.9294C18.2151 28.9294 18.8113 29.5254 18.8113 30.2554Z" fill="#F595CB"/>
<path d="M22.938 31.3404C24.0635 31.4476 26.0196 29.1504 23.072 29.1504C20.1243 29.1504 21.7054 31.2199 22.938 31.3404Z" fill="black"/>
<path d="M21.4441 33.517C20.3656 33.517 19.7559 32.5861 19.7291 32.5459C19.6286 32.3919 19.6755 32.1843 19.8296 32.0838C19.9837 31.9834 20.1914 32.0302 20.2919 32.1843C20.3187 32.2244 20.8613 33.0214 21.7523 32.8138C22.6366 32.6062 22.7706 31.0056 22.7706 30.9855C22.784 30.7979 22.9447 30.664 23.1256 30.6774C23.3132 30.6908 23.4472 30.8515 23.4338 31.0323C23.4338 31.1194 23.273 33.142 21.9064 33.4634C21.7456 33.5036 21.5915 33.517 21.4441 33.517Z" fill="black"/>
<path d="M24.7335 33.5169C24.5861 33.5169 24.432 33.4968 24.2712 33.4633C22.8979 33.1419 22.7438 31.1193 22.7438 31.0322C22.7304 30.8514 22.8711 30.6907 23.052 30.6773C23.2529 30.6706 23.3936 30.8045 23.407 30.9854C23.407 30.9987 23.5477 32.6061 24.4253 32.8137C25.323 33.0213 25.8589 32.2176 25.8857 32.1841C25.9862 32.0301 26.1939 31.9832 26.348 32.0837C26.5021 32.1842 26.5489 32.3918 26.4485 32.5458C26.4217 32.5927 25.812 33.5169 24.7335 33.5169Z" fill="black"/>
</g>
<defs>
<filter id="filter0_dii_346_135" x="36.3635" y="18.4917" width="76.4155" height="21.0778" filterUnits="userSpaceOnUse" color-interpolation-filters="sRGB">
<feFlood flood-opacity="0" result="BackgroundImageFix"/>
<feColorMatrix in="SourceAlpha" type="matrix" values="0 0 0 0 0 0 0 0 0 0 0 0 0 0 0 0 0 0 127 0" result="hardAlpha"/>
<feOffset dy="1.21346"/>
<feGaussianBlur stdDeviation="1.21346"/>
<feComposite in2="hardAlpha" operator="out"/>
<feColorMatrix type="matrix" values="0 0 0 0 0.245192 0 0 0 0 0 0 0 0 0 0.147115 0 0 0 0.29 0"/>
<feBlend mode="multiply" in2="BackgroundImageFix" result="effect1_dropShadow_346_135"/>
<feBlend mode="normal" in="SourceGraphic" in2="effect1_dropShadow_346_135" result="shape"/>
<feColorMatrix in="SourceAlpha" type="matrix" values="0 0 0 0 0 0 0 0 0 0 0 0 0 0 0 0 0 0 127 0" result="hardAlpha"/>
<feOffset dy="-0.60673"/>
<feGaussianBlur stdDeviation="0.303365"/>
<feComposite in2="hardAlpha" operator="arithmetic" k2="-1" k3="1"/>
<feColorMatrix type="matrix" values="0 0 0 0 0.740385 0 0 0 0 0 0 0 0 0 0.201333 0 0 0 0.64 0"/>
<feBlend mode="multiply" in2="shape" result="effect2_innerShadow_346_135"/>
<feColorMatrix in="SourceAlpha" type="matrix" values="0 0 0 0 0 0 0 0 0 0 0 0 0 0 0 0 0 0 127 0" result="hardAlpha"/>
<feOffset dy="0.60673"/>
<feGaussianBlur stdDeviation="0.303365"/>
<feComposite in2="hardAlpha" operator="arithmetic" k2="-1" k3="1"/>
<feColorMatrix type="matrix" values="0 0 0 0 1 0 0 0 0 0.677885 0 0 0 0 0.771899 0 0 0 0.23 0"/>
<feBlend mode="normal" in2="effect2_innerShadow_346_135" result="effect3_innerShadow_346_135"/>
</filter>
<linearGradient id="paint0_linear_346_135" x1="58.2279" y1="43.4027" x2="58.2279" y2="10.6952" gradientUnits="userSpaceOnUse">
<stop stop-color="#FF5B8B"/>
<stop offset="1" stop-color="#FC98AF"/>
</linearGradient>
</defs>
</svg>
