<svg width="117" height="33" viewBox="0 0 117 33" fill="none" xmlns="http://www.w3.org/2000/svg">
<g opacity="0.9">
<path d="M116.856 16.1821V16.5517C116.856 19.2622 116.191 21.8085 115 24.0591C112.281 29.201 106.884 32.7247 100.699 32.7247H16.5568C10.9303 32.7247 5.96094 29.8088 3.05324 25.4308V25.4144C1.36941 22.8681 0.391968 19.8208 0.391968 16.5517V16.1821C0.391968 13.3401 1.13942 10.6541 2.43721 8.32962C5.21348 3.38489 10.5114 0.0172119 16.5568 0.0172119H100.699C107.673 0.0172119 113.661 4.50197 115.903 10.7363C116.519 12.4448 116.856 14.2764 116.856 16.1821Z" fill="url(#paint0_linear_346_235)"/>
<g style="mix-blend-mode:color-dodge" opacity="0.32">
<path d="M115.903 10.7365C111.279 1.28238 16.4254 -6.17578 2.44548 8.33807H2.43726C5.21353 3.38513 10.5115 0.0174484 16.5568 0.0174484H100.699C107.673 0.0174484 113.661 4.50221 115.903 10.7365Z" fill="#FF7E8B"/>
</g>
<g style="mix-blend-mode:multiply">
<path d="M114.991 24.0594C112.273 29.2012 106.876 32.725 100.691 32.725H16.5486C10.9221 32.725 5.95274 29.809 3.04504 25.4311V25.4147C13.4273 35.838 97.1182 32.5525 114.991 24.0594Z" fill="#FF459D"/>
</g>
<g style="mix-blend-mode:color-dodge" opacity="0.32">
<path d="M72.5669 0.477341C73.8976 1.38086 94.654 2.90863 104.979 5.37278C115.304 7.83693 114.014 5.49599 108.823 2.21867C103.632 -1.05865 72.1398 0.181635 72.5669 0.469119V0.477341Z" fill="#FF7E8B"/>
</g>
<path d="M96.2967 3.4507C95.7135 3.95996 102.991 5.01955 103.229 4.55958C103.459 4.09139 100.494 -0.212668 96.2967 3.4507Z" fill="#F8EEF9"/>
<path d="M78.6124 1.3235C78.4152 1.75883 81.0765 2.16131 81.019 1.3235C80.9615 0.485686 79.1873 0.0257109 78.6124 1.3235Z" fill="#F8EEF9"/>
<g filter="url(#filter0_dii_346_235)">
<path d="M69.8205 21.466C69.4471 21.466 69.1378 21.3647 68.8925 21.162C68.6471 20.9593 68.5031 20.7033 68.4605 20.394C68.4285 20.0847 68.5351 19.77 68.7805 19.45L72.1725 14.97V16.298L68.8765 11.93C68.6311 11.5993 68.5245 11.2793 68.5565 10.97C68.5991 10.6607 68.7431 10.4047 68.9885 10.202C69.2338 9.99932 69.5431 9.89799 69.9165 9.89799C70.2258 9.89799 70.4978 9.97266 70.7325 10.122C70.9671 10.2713 71.2018 10.5113 71.4365 10.842L73.8205 14.154H72.8605L75.2605 10.842C75.4951 10.5007 75.7298 10.2607 75.9645 10.122C76.1991 9.97266 76.4711 9.89799 76.7805 9.89799C77.1645 9.89799 77.4791 9.99932 77.7245 10.202C77.9698 10.394 78.1085 10.6447 78.1405 10.954C78.1831 11.2633 78.0765 11.5887 77.8205 11.93L74.5085 16.298V14.97L77.9005 19.45C78.1565 19.77 78.2631 20.0847 78.2205 20.394C78.1885 20.7033 78.0498 20.9593 77.8045 21.162C77.5591 21.3647 77.2445 21.466 76.8605 21.466C76.5618 21.466 76.2951 21.3967 76.0605 21.258C75.8258 21.1087 75.5858 20.8633 75.3405 20.522L72.8765 17.114H73.8045L71.3565 20.522C71.1111 20.8633 70.8711 21.1087 70.6365 21.258C70.4018 21.3967 70.1298 21.466 69.8205 21.466ZM83.9077 21.498C82.9477 21.498 82.1157 21.3327 81.4117 21.002C80.7184 20.6607 80.1851 20.1807 79.8117 19.562C79.4384 18.9433 79.2517 18.2127 79.2517 17.37C79.2517 16.5593 79.4277 15.85 79.7797 15.242C80.1424 14.6233 80.6331 14.1433 81.2517 13.802C81.8811 13.45 82.5957 13.274 83.3957 13.274C83.9824 13.274 84.5157 13.37 84.9957 13.562C85.4757 13.7433 85.8864 14.0153 86.2277 14.378C86.5691 14.73 86.8251 15.1567 86.9957 15.658C87.1771 16.1593 87.2677 16.7193 87.2677 17.338C87.2677 17.5513 87.2091 17.7113 87.0917 17.818C86.9744 17.914 86.7877 17.962 86.5317 17.962H81.6357V16.618H85.1877L84.9317 16.826C84.9317 16.4313 84.8784 16.1113 84.7717 15.866C84.6651 15.6207 84.5051 15.434 84.2917 15.306C84.0891 15.178 83.8331 15.114 83.5237 15.114C83.1931 15.114 82.9051 15.194 82.6597 15.354C82.4251 15.5033 82.2437 15.7273 82.1157 16.026C81.9877 16.3247 81.9237 16.698 81.9237 17.146V17.29C81.9237 18.0473 82.0891 18.5913 82.4197 18.922C82.7611 19.242 83.2837 19.402 83.9877 19.402C84.2224 19.402 84.4891 19.3753 84.7877 19.322C85.0971 19.258 85.3904 19.1727 85.6677 19.066C85.9451 18.9593 86.1851 18.9433 86.3877 19.018C86.5904 19.082 86.7451 19.1993 86.8517 19.37C86.9691 19.53 87.0331 19.7167 87.0437 19.93C87.0544 20.1327 87.0064 20.3353 86.8997 20.538C86.7931 20.73 86.6171 20.8793 86.3717 20.986C85.9984 21.1567 85.5984 21.2847 85.1717 21.37C84.7557 21.4553 84.3344 21.498 83.9077 21.498ZM97.0888 21.498C96.2035 21.498 95.4302 21.3327 94.7688 21.002C94.1182 20.6713 93.6115 20.1967 93.2488 19.578C92.8862 18.9487 92.7048 18.2127 92.7048 17.37C92.7048 16.73 92.8062 16.1593 93.0088 15.658C93.2115 15.146 93.5048 14.714 93.8888 14.362C94.2835 14.01 94.7475 13.7433 95.2808 13.562C95.8248 13.37 96.4275 13.274 97.0888 13.274C97.3982 13.274 97.7235 13.306 98.0648 13.37C98.4062 13.4233 98.7582 13.53 99.1208 13.69C99.3768 13.786 99.5528 13.9353 99.6488 14.138C99.7555 14.33 99.7982 14.538 99.7768 14.762C99.7662 14.986 99.7022 15.1887 99.5848 15.37C99.4782 15.5513 99.3235 15.674 99.1208 15.738C98.9288 15.802 98.7102 15.7753 98.4648 15.658C98.2942 15.5727 98.1128 15.514 97.9208 15.482C97.7395 15.4393 97.5635 15.418 97.3928 15.418C97.1048 15.418 96.8488 15.4607 96.6248 15.546C96.4115 15.6313 96.2302 15.7593 96.0808 15.93C95.9315 16.09 95.8142 16.2927 95.7288 16.538C95.6542 16.7833 95.6168 17.0607 95.6168 17.37C95.6168 17.9887 95.7715 18.474 96.0808 18.826C96.3902 19.178 96.8275 19.354 97.3928 19.354C97.5635 19.354 97.7395 19.338 97.9208 19.306C98.1022 19.2633 98.2835 19.1993 98.4648 19.114C98.7102 18.9967 98.9288 18.9753 99.1208 19.05C99.3128 19.114 99.4675 19.2367 99.5848 19.418C99.7022 19.5993 99.7662 19.802 99.7768 20.026C99.7875 20.2393 99.7395 20.4473 99.6328 20.65C99.5262 20.842 99.3448 20.986 99.0888 21.082C98.7368 21.242 98.3902 21.3487 98.0488 21.402C97.7182 21.466 97.3982 21.498 97.0888 21.498ZM104.651 21.498C103.776 21.498 103.013 21.3327 102.363 21.002C101.712 20.6713 101.205 20.1967 100.843 19.578C100.48 18.9593 100.299 18.2287 100.299 17.386C100.299 16.746 100.4 16.1753 100.603 15.674C100.805 15.162 101.099 14.73 101.483 14.378C101.867 14.0153 102.325 13.7433 102.859 13.562C103.392 13.37 103.989 13.274 104.651 13.274C105.525 13.274 106.288 13.4393 106.939 13.77C107.589 14.1007 108.091 14.5753 108.443 15.194C108.805 15.802 108.987 16.5327 108.987 17.386C108.987 18.0153 108.885 18.586 108.683 19.098C108.48 19.61 108.187 20.0473 107.803 20.41C107.429 20.762 106.971 21.034 106.427 21.226C105.893 21.4073 105.301 21.498 104.651 21.498ZM104.651 19.402C104.939 19.402 105.195 19.3327 105.419 19.194C105.643 19.0447 105.813 18.826 105.931 18.538C106.059 18.2393 106.123 17.8553 106.123 17.386C106.123 16.6713 105.984 16.1593 105.707 15.85C105.429 15.53 105.077 15.37 104.651 15.37C104.363 15.37 104.107 15.4393 103.883 15.578C103.659 15.7167 103.483 15.9353 103.355 16.234C103.227 16.522 103.163 16.906 103.163 17.386C103.163 18.09 103.301 18.602 103.579 18.922C103.856 19.242 104.213 19.402 104.651 19.402ZM104.651 25.002C104.213 25.002 103.877 24.8847 103.643 24.65C103.408 24.426 103.291 24.1113 103.291 23.706C103.291 23.29 103.408 22.97 103.643 22.746C103.877 22.5327 104.213 22.426 104.651 22.426C105.099 22.426 105.435 22.5327 105.659 22.746C105.893 22.97 106.011 23.29 106.011 23.706C106.011 24.122 105.893 24.442 105.659 24.666C105.435 24.89 105.099 25.002 104.651 25.002ZM107.115 11.482C107.243 11.706 107.269 11.914 107.195 12.106C107.131 12.2873 107.013 12.426 106.843 12.522C106.672 12.618 106.485 12.65 106.283 12.618C106.091 12.586 105.925 12.474 105.787 12.282L104.651 10.602L103.515 12.282C103.376 12.474 103.205 12.586 103.003 12.618C102.811 12.65 102.629 12.618 102.459 12.522C102.288 12.426 102.165 12.2873 102.091 12.106C102.027 11.914 102.059 11.706 102.187 11.482L103.115 9.78599C103.285 9.46599 103.499 9.22066 103.755 9.04999C104.011 8.86866 104.309 8.77799 104.651 8.77799C105.003 8.77799 105.307 8.86866 105.563 9.04999C105.819 9.22066 106.032 9.46599 106.203 9.78599L107.115 11.482Z" fill="white"/>
</g>
<path d="M20.8191 21.5912C20.8191 24.5509 18.4559 26.9521 15.5391 26.9521C12.6224 26.9521 10.2592 24.5526 10.2592 21.5912C10.2592 18.6299 12.6242 16.2304 15.5391 16.2304C18.4541 16.2304 20.8191 18.6299 20.8191 21.5912Z" fill="#3B3E45"/>
<path d="M18.6501 21.5912C18.6501 23.3346 17.2579 24.7481 15.5409 24.7481C13.8238 24.7481 12.4316 23.3346 12.4316 21.5912C12.4316 19.8479 13.8238 18.4344 15.5409 18.4344C17.2579 18.4344 18.6501 19.8462 18.6501 21.5912Z" fill="#FAF9E9"/>
<path d="M17.5329 21.5912C17.5329 22.7081 16.6409 23.6155 15.5409 23.6155C14.4409 23.6155 13.5471 22.7098 13.5471 21.5912C13.5471 20.4726 14.4391 19.567 15.5409 19.567C16.6426 19.567 17.5329 20.4726 17.5329 21.5912Z" fill="#FAF9E9" stroke="#445C79" stroke-width="2.23" stroke-miterlimit="10"/>
<path d="M58.9186 21.5912C58.9186 24.5509 56.5553 26.9521 53.6386 26.9521C50.7219 26.9521 48.3586 24.5526 48.3586 21.5912C48.3586 18.6299 50.7236 16.2304 53.6386 16.2304C56.5536 16.2304 58.9186 18.6299 58.9186 21.5912Z" fill="#3B3E45"/>
<path d="M56.7478 21.5912C56.7478 23.3346 55.3557 24.7481 53.6386 24.7481C51.9216 24.7481 50.5294 23.3346 50.5294 21.5912C50.5294 19.8479 51.9216 18.4344 53.6386 18.4344C55.3557 18.4344 56.7478 19.8462 56.7478 21.5912Z" fill="#FAF9E9"/>
<path d="M55.6307 21.5912C55.6307 22.7081 54.7386 23.6155 53.6369 23.6155C52.5352 23.6155 51.6449 22.7098 51.6449 21.5912C51.6449 20.4726 52.5369 19.567 53.6369 19.567C54.7369 19.567 55.6307 20.4726 55.6307 21.5912Z" fill="#FAF9E9" stroke="#445C79" stroke-width="2.23" stroke-miterlimit="10"/>
<path d="M56.5485 12.1783H55.4708C52.2705 4.32548 48.0957 4.58201 48.0957 4.58201C48.0957 4.58201 43.5719 4.32199 38.5411 4.32199H35.2996C29.1413 4.32199 27.3796 5.75121 27.3796 5.75121L20.3396 10.2186L8.1709 12.2062C7.95262 12.2289 7.73777 12.2656 7.52809 12.3109L7.49371 12.3162H7.49543C4.97919 12.8903 3.09888 15.1676 3.09888 17.8952C3.09888 21.052 5.62028 23.6138 8.73121 23.6138H9.70746C9.49605 22.9786 9.37574 22.298 9.37574 21.5895C9.37574 18.1028 12.1601 15.2776 15.5924 15.2776C19.0248 15.2776 21.8091 18.1028 21.8091 21.5895C21.8091 22.298 21.6888 22.9768 21.4757 23.6138H47.7536C47.5405 22.9786 47.4219 22.298 47.4219 21.5895C47.4219 18.1028 50.2063 15.2776 53.6386 15.2776C57.0709 15.2776 59.8553 18.1028 59.8553 21.5895C59.8553 21.928 59.8227 22.2579 59.7711 22.5807C61.2269 21.5476 62.1808 19.8357 62.1808 17.8952C62.1808 14.7366 59.6594 12.1766 56.5485 12.1766V12.1783Z" fill="#FFC533"/>
<mask id="mask0_346_235" style="mask-type:luminance" maskUnits="userSpaceOnUse" x="3" y="4" width="60" height="20">
<path d="M56.5485 12.1783H55.4708C52.2705 4.32548 48.0957 4.32199 48.0957 4.32199H35.2996C29.1413 4.32199 27.3796 5.75121 27.3796 5.75121L20.3396 10.2186L8.1709 12.2062C7.95262 12.2289 7.73777 12.2656 7.52809 12.3109L7.49371 12.3162H7.49543C4.97919 12.8903 3.09888 15.1676 3.09888 17.8952C3.09888 21.052 5.62028 23.6138 8.73121 23.6138H9.70746C9.49605 22.9786 9.37574 22.298 9.37574 21.5895C9.37574 18.1028 12.1601 15.2776 15.5924 15.2776C19.0248 15.2776 21.8091 18.1028 21.8091 21.5895C21.8091 22.298 21.6888 22.9768 21.4757 23.6138H47.7536C47.5405 22.9786 47.4219 22.298 47.4219 21.5895C47.4219 18.1028 50.2063 15.2776 53.6386 15.2776C57.0709 15.2776 59.8553 18.1028 59.8553 21.5895C59.8553 21.928 59.8227 22.2579 59.7711 22.5807C61.2269 21.5476 62.1808 19.8357 62.1808 17.8952C62.1808 14.7366 59.6594 12.1766 56.5485 12.1766V12.1783Z" fill="white"/>
</mask>
<g mask="url(#mask0_346_235)">
<path d="M7.55908 13.4173C7.55908 14.9704 6.08611 16.2304 4.27112 16.2304C2.45612 16.2304 0.983154 14.9704 0.983154 13.4173C0.983154 11.8642 2.45612 10.6043 4.27112 10.6043C6.08611 10.6043 7.55908 11.8642 7.55908 13.4173Z" fill="#FBFAE1"/>
</g>
<mask id="mask1_346_235" style="mask-type:luminance" maskUnits="userSpaceOnUse" x="3" y="4" width="60" height="20">
<path d="M56.5485 12.1783H55.4708C52.2705 4.32548 48.0957 4.32199 48.0957 4.32199H35.2996C29.1413 4.32199 27.3796 5.75121 27.3796 5.75121L20.3396 10.2186L8.1709 12.2062C7.95262 12.2289 7.73777 12.2656 7.52809 12.3109L7.49371 12.3162H7.49543C4.97919 12.8903 3.09888 15.1676 3.09888 17.8952C3.09888 21.052 5.62028 23.6138 8.73121 23.6138H9.70746C9.49605 22.9786 9.37574 22.298 9.37574 21.5895C9.37574 18.1028 12.1601 15.2776 15.5924 15.2776C19.0248 15.2776 21.8091 18.1028 21.8091 21.5895C21.8091 22.298 21.6888 22.9768 21.4757 23.6138H47.7536C47.5405 22.9786 47.4219 22.298 47.4219 21.5895C47.4219 18.1028 50.2063 15.2776 53.6386 15.2776C57.0709 15.2776 59.8553 18.1028 59.8553 21.5895C59.8553 21.928 59.8227 22.2579 59.7711 22.5807C61.2269 21.5476 62.1808 19.8357 62.1808 17.8952C62.1808 14.7366 59.6594 12.1766 56.5485 12.1766V12.1783Z" fill="white"/>
</mask>
<g mask="url(#mask1_346_235)">
<path d="M72 17.787H0V28.3237H72V17.787Z" fill="#E99400"/>
</g>
<path d="M22.3557 10.8922L28.1857 6.73019C28.1857 6.73019 30.2362 4.84377 39.2888 5.3446L38.6907 10.8939H22.3557V10.8922Z" fill="#45A6B7"/>
<path d="M40.2273 5.3446L39.6498 10.8939H53.3585C53.3585 10.8939 52.4613 8.68293 51.1327 7.38111C49.8041 6.08103 48.4274 5.5924 47.434 5.5924C46.4405 5.5924 40.2273 5.3446 40.2273 5.3446Z" fill="#45A6B7"/>
<path d="M38.4345 12.5186C38.4345 12.7699 38.2335 12.9741 37.986 12.9741H35.04C34.7925 12.9741 34.5914 12.7699 34.5914 12.5186C34.5914 12.2673 34.7925 12.0631 35.04 12.0631H37.986C38.2335 12.0631 38.4345 12.2673 38.4345 12.5186Z" fill="#3B3E45"/>
<path d="M53.6386 12.5186C53.6386 12.7699 53.4376 12.9741 53.1901 12.9741H50.2441C49.9966 12.9741 49.7955 12.7699 49.7955 12.5186C49.7955 12.2673 49.9966 12.0631 50.2441 12.0631H53.1901C53.4376 12.0631 53.6386 12.2673 53.6386 12.5186Z" fill="#3B3E45"/>
<mask id="mask2_346_235" style="mask-type:luminance" maskUnits="userSpaceOnUse" x="22" y="5" width="18" height="6">
<path d="M22.3557 10.8922L28.1857 6.73019C28.1857 6.73019 30.2362 4.84377 39.2888 5.3446L38.6907 10.8939H22.3557V10.8922Z" fill="white"/>
</mask>
<g mask="url(#mask2_346_235)">
<path d="M26.4326 13.269L40.8271 5.73201L39.4951 12.4366L26.4326 13.269Z" fill="#B2DFF6"/>
</g>
<mask id="mask3_346_235" style="mask-type:luminance" maskUnits="userSpaceOnUse" x="39" y="5" width="15" height="6">
<path d="M40.2273 5.3446L39.6498 10.8939H53.3585C53.3585 10.8939 52.4613 8.68293 51.1327 7.38111C49.8041 6.08103 48.4274 5.5924 47.434 5.5924C46.4405 5.5924 40.2273 5.3446 40.2273 5.3446Z" fill="white"/>
</mask>
<g mask="url(#mask3_346_235)">
<path d="M40.1035 12.8973L54.498 5.36031L53.166 12.0649L40.1035 12.8973Z" fill="#B2DFF6"/>
</g>
<mask id="mask4_346_235" style="mask-type:luminance" maskUnits="userSpaceOnUse" x="3" y="4" width="60" height="20">
<path d="M56.5485 12.1783H55.4708C52.2705 4.32548 48.0957 4.58201 48.0957 4.58201C48.0957 4.58201 43.5719 4.32199 38.5411 4.32199H35.2996C29.1413 4.32199 27.3796 5.75121 27.3796 5.75121L20.3396 10.2186L8.1709 12.2062C7.95262 12.2289 7.73777 12.2656 7.52809 12.3109L7.49371 12.3162H7.49543C4.97919 12.8903 3.09888 15.1676 3.09888 17.8952C3.09888 21.052 5.62028 23.6138 8.73121 23.6138H9.70746C9.49605 22.9786 9.37574 22.298 9.37574 21.5895C9.37574 18.1028 12.1601 15.2776 15.5924 15.2776C19.0248 15.2776 21.8091 18.1028 21.8091 21.5895C21.8091 22.298 21.6888 22.9768 21.4757 23.6138H47.7536C47.5405 22.9786 47.4219 22.298 47.4219 21.5895C47.4219 18.1028 50.2063 15.2776 53.6386 15.2776C57.0709 15.2776 59.8553 18.1028 59.8553 21.5895C59.8553 21.928 59.8227 22.2579 59.7711 22.5807C61.2269 21.5476 62.1808 19.8357 62.1808 17.8952C62.1808 14.7366 59.6594 12.1766 56.5485 12.1766V12.1783Z" fill="white"/>
</mask>
<g mask="url(#mask4_346_235)">
<path d="M57.7911 13.0997C57.7911 14.3178 59.039 15.3055 60.5772 15.3055C62.1155 15.3055 63.3633 14.3178 63.3633 13.0997C63.3633 11.8816 62.1155 10.8939 60.5772 10.8939C59.039 10.8939 57.7911 11.8816 57.7911 13.0997Z" fill="#ED1D1D"/>
</g>
<path d="M39.4676 11.5658H39.1084V20.895H39.4676V11.5658Z" fill="#E99400"/>
</g>
<defs>
<filter id="filter0_dii_346_235" x="65.9856" y="7.56453" width="45.4279" height="21.0778" filterUnits="userSpaceOnUse" color-interpolation-filters="sRGB">
<feFlood flood-opacity="0" result="BackgroundImageFix"/>
<feColorMatrix in="SourceAlpha" type="matrix" values="0 0 0 0 0 0 0 0 0 0 0 0 0 0 0 0 0 0 127 0" result="hardAlpha"/>
<feOffset dy="1.21346"/>
<feGaussianBlur stdDeviation="1.21346"/>
<feComposite in2="hardAlpha" operator="out"/>
<feColorMatrix type="matrix" values="0 0 0 0 0.245192 0 0 0 0 0 0 0 0 0 0.147115 0 0 0 0.29 0"/>
<feBlend mode="multiply" in2="BackgroundImageFix" result="effect1_dropShadow_346_235"/>
<feBlend mode="normal" in="SourceGraphic" in2="effect1_dropShadow_346_235" result="shape"/>
<feColorMatrix in="SourceAlpha" type="matrix" values="0 0 0 0 0 0 0 0 0 0 0 0 0 0 0 0 0 0 127 0" result="hardAlpha"/>
<feOffset dy="-0.60673"/>
<feGaussianBlur stdDeviation="0.303365"/>
<feComposite in2="hardAlpha" operator="arithmetic" k2="-1" k3="1"/>
<feColorMatrix type="matrix" values="0 0 0 0 0.740385 0 0 0 0 0 0 0 0 0 0.201333 0 0 0 0.64 0"/>
<feBlend mode="multiply" in2="shape" result="effect2_innerShadow_346_235"/>
<feColorMatrix in="SourceAlpha" type="matrix" values="0 0 0 0 0 0 0 0 0 0 0 0 0 0 0 0 0 0 127 0" result="hardAlpha"/>
<feOffset dy="0.60673"/>
<feGaussianBlur stdDeviation="0.303365"/>
<feComposite in2="hardAlpha" operator="arithmetic" k2="-1" k3="1"/>
<feColorMatrix type="matrix" values="0 0 0 0 1 0 0 0 0 0.677885 0 0 0 0 0.771899 0 0 0 0.23 0"/>
<feBlend mode="normal" in2="effect2_innerShadow_346_235" result="effect3_innerShadow_346_235"/>
</filter>
<linearGradient id="paint0_linear_346_235" x1="58.6199" y1="32.7247" x2="58.6199" y2="0.0172119" gradientUnits="userSpaceOnUse">
<stop stop-color="#FF5B8B"/>
<stop offset="1" stop-color="#FC98AF"/>
</linearGradient>
</defs>
</svg>
