<svg width="151" height="42" viewBox="0 0 151 42" fill="none" xmlns="http://www.w3.org/2000/svg">
<g opacity="0.9">
<path d="M151 25.155V25.5247C151 28.2352 150.137 30.7815 148.593 33.0321C145.068 38.174 138.071 41.6977 130.052 41.6977H20.9583C13.6634 41.6977 7.22039 38.7818 3.45044 34.4038V34.3874C1.26729 31.8411 0 28.7938 0 25.5247V25.155C0 22.3131 0.969099 19.6271 2.65173 17.3026C6.25128 12.3579 13.1202 8.9902 20.9583 8.9902H130.052C139.094 8.9902 146.857 13.475 149.765 19.7093C150.563 21.4177 151 23.2494 151 25.155Z" fill="url(#paint0_linear_347_5450)"/>
<g style="mix-blend-mode:color-dodge" opacity="0.32">
<path d="M149.765 19.7095C143.769 10.2554 20.7881 2.79722 2.66252 17.3111H2.65186C6.2514 12.3581 13.1204 8.99045 20.9584 8.99045H130.052C139.094 8.99045 146.857 13.4752 149.765 19.7095Z" fill="#FF7E8B"/>
</g>
<g style="mix-blend-mode:multiply">
<path d="M148.583 33.0323C145.057 38.1742 138.061 41.6979 130.042 41.6979H20.9476C13.6526 41.6979 7.20964 38.782 3.4397 34.4041V34.3876C16.9007 44.811 125.409 41.5255 148.583 33.0323Z" fill="#FF459D"/>
</g>
<g style="mix-blend-mode:color-dodge" opacity="0.32">
<path d="M93.5776 9.45033C95.3028 10.3539 122.214 11.8816 135.601 14.3458C148.987 16.8099 147.315 14.469 140.585 11.1917C133.854 7.91434 93.0238 9.15463 93.5776 9.44211V9.45033Z" fill="#FF7E8B"/>
</g>
<path d="M124.344 12.4237C123.588 12.933 133.024 13.9926 133.333 13.5326C133.631 13.0644 129.786 8.76033 124.344 12.4237Z" fill="#F8EEF9"/>
<path d="M101.416 10.2965C101.16 10.7318 104.61 11.1343 104.536 10.2965C104.461 9.45868 102.161 8.9987 101.416 10.2965Z" fill="#F8EEF9"/>
<g clip-path="url(#clip0_347_5450)">
<path d="M12.3086 6.40742L10.7842 6.23701L10.9025 8.63502L12.3317 8.79588L12.3086 6.40742Z" fill="#B04125"/>
<path d="M30.1281 8.40598L31.6525 8.57776L31.0093 10.8899L29.5801 10.7304L30.1281 8.40598Z" fill="#B04125"/>
<path d="M12.2529 14.977L10.7285 14.8066L10.8468 17.206L12.276 17.3655L12.2529 14.977Z" fill="#B04125"/>
<path d="M28.4201 16.7902L29.9445 16.9619L29.3013 19.2754L27.8721 19.1145L28.4201 16.7902Z" fill="#B04125"/>
<path d="M12.2392 23.7456L10.7148 23.5738L10.8332 25.9732L12.2623 26.1341L12.2392 23.7456Z" fill="#B04125"/>
<path d="M26.405 25.3352L27.9307 25.5056L27.2861 27.8191L25.8569 27.6582L26.405 25.3352Z" fill="#B04125"/>
<path d="M31.9298 3.19007L24.8396 35.8788L11.4302 34.3751L11.917 0.890221L31.9298 3.19007Z" fill="#F2BE1A"/>
<path d="M32.7063 2.5098L32.2657 3.89762L11.1922 1.38373L11.0916 0L32.7063 2.5098Z" fill="#B04125"/>
<path d="M28.8865 5.3018L27.8067 10.3882L24.8137 10.0419L24.9674 4.78648L28.8865 5.3018Z" fill="#FFEBD9"/>
<path d="M28.4445 5.69442L27.5919 9.70792L25.2312 9.4339L25.3536 5.28816L28.4445 5.69442Z" fill="#8695A2"/>
<path d="M28.2393 10.0665L24.4236 9.66702L24.4753 10.3705L28.0381 10.7536L28.2393 10.0665Z" fill="#B04125"/>
<path d="M28.2378 7.55257L25.1238 7.10268L25.1455 7.52121L28.1807 7.90293L28.2378 7.55257Z" fill="#FFEBD9"/>
<path d="M27.2165 13.7719L26.1368 18.8583L23.1438 18.512L23.2988 13.2552L27.2165 13.7719Z" fill="#FFEBD9"/>
<path d="M26.7747 14.1645L25.9234 18.1766L23.5627 17.9026L23.6838 13.7569L26.7747 14.1645Z" fill="#8695A2"/>
<path d="M26.5709 18.5352L22.7551 18.1371L22.8068 18.8405L26.3682 19.2236L26.5709 18.5352Z" fill="#B04125"/>
<path d="M26.5694 16.0226L23.4553 15.5714L23.4771 15.9913L26.5123 16.373L26.5694 16.0226Z" fill="#FFEBD9"/>
<path d="M25.4841 22.3796L24.4044 27.466L21.4114 27.1184L21.5664 21.8629L25.4841 22.3796Z" fill="#FFEBD9"/>
<path d="M25.0423 22.7722L24.191 26.7844L21.8303 26.5103L21.9513 22.3646L25.0423 22.7722Z" fill="#8695A2"/>
<path d="M24.8382 27.1443L21.0225 26.7448L21.0741 27.4483L24.6356 27.83L24.8382 27.1443Z" fill="#B04125"/>
<path d="M24.8369 24.629L21.7229 24.1791L21.7447 24.599L24.7798 24.9807L24.8369 24.629Z" fill="#FFEBD9"/>
<path d="M18.5 4.13756L17.4203 9.22395L14.4272 8.87632L14.5809 3.62087L18.5 4.13756Z" fill="#FFEBD9"/>
<path d="M18.0583 4.53018L17.207 8.54231L14.845 8.26829L14.9674 4.12256L18.0583 4.53018Z" fill="#8695A2"/>
<path d="M17.8527 8.90086L14.0383 8.50278L14.0886 9.20487L17.6514 9.58795L17.8527 8.90086Z" fill="#B04125"/>
<path d="M17.8516 6.38833L14.7375 5.93709L14.7593 6.35561L17.7945 6.73733L17.8516 6.38833Z" fill="#FFEBD9"/>
<path d="M18.1697 12.7085L17.0899 17.7949L14.0969 17.4486L14.2519 12.1932L18.1697 12.7085Z" fill="#FFEBD9"/>
<path d="M17.7276 13.1011L16.8763 17.1133L14.5156 16.8392L14.6367 12.6935L17.7276 13.1011Z" fill="#8695A2"/>
<path d="M17.5237 17.4732L13.708 17.0737L13.7597 17.7772L17.3211 18.1603L17.5237 17.4732Z" fill="#B04125"/>
<path d="M17.5222 14.9593L14.4082 14.5094L14.43 14.9279L17.4651 15.3096L17.5222 14.9593Z" fill="#FFEBD9"/>
<path d="M17.8882 21.7211L16.8084 26.8075L13.8154 26.4599L13.9691 21.2045L17.8882 21.7211Z" fill="#FFEBD9"/>
<path d="M17.4461 22.1138L16.5948 26.1259L14.2341 25.8519L14.3552 21.7061L17.4461 22.1138Z" fill="#8695A2"/>
<path d="M17.2409 26.4844L13.4265 26.085L13.4782 26.7885L17.0396 27.1715L17.2409 26.4844Z" fill="#B04125"/>
<path d="M17.2395 23.9706L14.1255 23.5207L14.1486 23.9406L17.1824 24.3209L17.2395 23.9706Z" fill="#FFEBD9"/>
<path d="M30.5238 12.0746L30.2015 12.9648L11.3922 10.7345L11.2698 9.82516L30.5238 12.0746Z" fill="#FFEBD9"/>
<path d="M28.752 20.2461L28.4678 21.0763L11.2005 19.0178L11.0713 18.1725L28.752 20.2461Z" fill="#FFEBD9"/>
<path d="M16.6833 29.4496L16.3691 34.9286L19.8667 35.3212C19.8667 35.3212 20.4256 30.5402 20.4827 29.8013C19.8435 29.755 16.6833 29.4496 16.6833 29.4496Z" fill="#FFEBD9"/>
<path d="M17.0017 29.864L16.708 34.9681L19.5093 35.2817C19.5093 35.2817 20.0301 30.8278 20.0831 30.1408C19.4889 30.0971 17.0017 29.864 17.0017 29.864Z" fill="#B04125"/>
<path d="M17.2979 30.2444L17.1877 32.1639L19.4315 32.4079L19.6654 30.453L17.2979 30.2444Z" fill="#8695A2"/>
<path d="M19.3609 32.9028C19.35 33.0037 19.2589 33.0745 19.1596 33.0636C19.059 33.0527 18.9869 32.9628 18.9992 32.8619C19.01 32.7624 19.1011 32.6901 19.2004 32.701C19.2997 32.7119 19.3718 32.8032 19.3609 32.9028Z" fill="#E8B95C"/>
<path d="M16.0388 34.8932L20.1306 35.3512L20.238 34.7432L16.0755 34.2769L16.0388 34.8932Z" fill="#FFEBD9"/>
<path d="M12.5359 29.1633L12.4407 33.763L15.6798 34.1256L15.843 29.5014L12.5359 29.1633Z" fill="#FFEBD9"/>
<path d="M12.7764 29.5396L12.6948 33.4372L15.4404 33.7453L15.5777 29.8272L12.7764 29.5396Z" fill="#8695A2"/>
<path d="M25.1131 30.5743L24.1925 35.0813L20.9534 34.7173L21.5599 30.1435L25.1131 30.5743Z" fill="#FFEBD9"/>
<path d="M24.8466 30.8947L24.0402 34.8386L21.2063 34.521L21.7366 30.517L24.8466 30.8947Z" fill="#8695A2"/>
<path fill-rule="evenodd" clip-rule="evenodd" d="M11.3025 29.6159L26.4036 31.0773L24.9513 28.8511L13.1519 27.71L11.3025 29.6159Z" fill="#E65A30"/>
<path fill-rule="evenodd" clip-rule="evenodd" d="M12.6744 29.7481C12.6472 30.0344 12.9314 30.2962 13.3108 30.3343C13.6902 30.3712 14.0193 30.168 14.0465 29.8817L12.673 29.7495L12.6744 29.7481Z" fill="#FBD7AB"/>
<path fill-rule="evenodd" clip-rule="evenodd" d="M15.4212 30.014C15.394 30.3003 15.6782 30.562 16.0576 30.5988C16.437 30.6356 16.7661 30.4325 16.7947 30.1462L15.4226 30.014H15.4212Z" fill="#FBD7AB"/>
<path fill-rule="evenodd" clip-rule="evenodd" d="M18.1668 30.2798C18.1396 30.5661 18.4238 30.8279 18.8032 30.8647C19.1826 30.9015 19.5117 30.6997 19.5389 30.4121L18.1668 30.2798Z" fill="#FBD7AB"/>
<path fill-rule="evenodd" clip-rule="evenodd" d="M20.9124 30.5457C20.8852 30.8319 21.1695 31.0937 21.5489 31.1305C21.9282 31.1673 22.2573 30.9642 22.2859 30.6779L20.9124 30.5457Z" fill="#FBD7AB"/>
<path fill-rule="evenodd" clip-rule="evenodd" d="M23.658 30.8115C23.6309 31.0978 23.9151 31.3595 24.2945 31.3963C24.6725 31.4331 25.0029 31.23 25.0301 30.9437L23.6567 30.8101L23.658 30.8115Z" fill="#FBD7AB"/>
<path fill-rule="evenodd" clip-rule="evenodd" d="M12.6744 29.7481C12.6472 30.0344 12.3181 30.2376 11.9387 30.2007C11.5593 30.1639 11.2751 29.9022 11.3023 29.6159L12.6744 29.7481Z" fill="#BD4125"/>
<path fill-rule="evenodd" clip-rule="evenodd" d="M15.4214 30.014C15.3942 30.3003 15.0637 30.5034 14.6843 30.4666C14.305 30.4298 14.0207 30.168 14.0479 29.8817L15.4214 30.014Z" fill="#BD4125"/>
<path fill-rule="evenodd" clip-rule="evenodd" d="M18.1669 30.2798C18.1397 30.5661 17.8093 30.7692 17.4299 30.7324C17.0505 30.6956 16.7649 30.4339 16.7935 30.1462L18.1669 30.2798Z" fill="#BD4125"/>
<path fill-rule="evenodd" clip-rule="evenodd" d="M20.9124 30.5457C20.8852 30.8319 20.5547 31.0337 20.1753 30.9983C19.7959 30.9615 19.5117 30.6997 19.5389 30.4134L20.9124 30.547V30.5457Z" fill="#BD4125"/>
<path fill-rule="evenodd" clip-rule="evenodd" d="M23.6581 30.8115C23.6309 31.0978 23.3004 31.2995 22.9224 31.2641C22.543 31.2273 22.2588 30.9642 22.286 30.6779L23.6581 30.8101V30.8115Z" fill="#BD4125"/>
<path fill-rule="evenodd" clip-rule="evenodd" d="M26.4034 31.0773C26.3762 31.3636 26.0458 31.5668 25.6677 31.5286C25.2884 31.4918 25.0041 31.23 25.0313 30.9437L26.4048 31.076L26.4034 31.0773Z" fill="#BD4125"/>
<path fill-rule="evenodd" clip-rule="evenodd" d="M14.2248 27.8136L12.6746 29.7481L14.048 29.8817L15.2977 27.9173L14.2248 27.8136Z" fill="#FFE9D0"/>
<path fill-rule="evenodd" clip-rule="evenodd" d="M22.8066 28.6439L23.6579 30.8115L25.0313 30.9451L23.8782 28.7475L22.8066 28.6439Z" fill="#FFE9D0"/>
<path fill-rule="evenodd" clip-rule="evenodd" d="M15.2975 27.9173L14.0479 29.8817L15.4213 30.014L16.3705 28.0209L15.2975 27.9173Z" fill="#E65A30"/>
<path fill-rule="evenodd" clip-rule="evenodd" d="M23.6578 30.8115L22.8066 28.6439L21.7336 28.5403L22.2844 30.6793L23.6578 30.8115Z" fill="#E65A30"/>
<path fill-rule="evenodd" clip-rule="evenodd" d="M16.7935 30.1462L17.4435 28.1258L16.3706 28.0209L15.4214 30.014L16.7935 30.1462Z" fill="#FFE9D0"/>
<path fill-rule="evenodd" clip-rule="evenodd" d="M20.9122 30.5457L22.2843 30.6793L21.7336 28.5403L20.6606 28.4367L20.9122 30.5457Z" fill="#FFE9D0"/>
<path fill-rule="evenodd" clip-rule="evenodd" d="M18.167 30.2798L19.5391 30.4134L19.588 28.3317L18.5151 28.2281L18.167 30.2798Z" fill="#FFE9D0"/>
<path fill-rule="evenodd" clip-rule="evenodd" d="M18.1669 30.2798L18.515 28.2281L17.4435 28.1258L16.7935 30.1462L18.1669 30.2798Z" fill="#E65A30"/>
<path fill-rule="evenodd" clip-rule="evenodd" d="M19.5391 30.4134L20.9125 30.5457L20.6609 28.4367L19.588 28.3317L19.5391 30.4134Z" fill="#E65A30"/>
<path d="M26.8087 28.5198L26.6088 29.1687L11.2507 27.7046L11.1772 26.9302L26.8087 28.5198Z" fill="#FFEBD9"/>
<path d="M33.9194 6.09795L36.6908 3.14236L50.0227 7.00044L51.218 11.1039L33.9194 6.09795Z" fill="#A42E2E"/>
<path d="M32.9878 11.4488L31.8917 11.1312L31.6279 13.3152L32.641 13.6083L32.9878 11.4488Z" fill="#36869E"/>
<path d="M48.7676 16.0145L50.1179 16.4057L49.1796 18.3947L47.9136 18.028L48.7676 16.0145Z" fill="#36869E"/>
<path d="M31.6157 19.1773L30.5197 18.8596L30.2559 21.0436L31.2689 21.3367L31.6157 19.1773Z" fill="#36869E"/>
<path d="M45.9322 23.3203L47.2825 23.7115L46.3442 25.7006L45.0796 25.3338L45.9322 23.3203Z" fill="#36869E"/>
<path d="M30.2519 27.0911L28.903 26.6998L28.6392 28.8852L29.9038 29.2505L30.2519 27.0911Z" fill="#36869E"/>
<path d="M42.7964 30.7215L44.1467 31.1114L43.2084 33.1004L41.9424 32.7351L42.7964 30.7215Z" fill="#36869E"/>
<path d="M51.1988 11.5838L39.7558 40L27.8816 36.5632L33.4855 6.40605L51.1988 11.5838Z" fill="#75CEDF"/>
<path d="M52.0053 11.0916L51.392 12.2763L32.7554 6.74005L32.8778 5.47493L52.0053 11.0916Z" fill="#36869E"/>
<path d="M38.5755 10.8013L37.2224 14.0759L33.8555 13.0929L34.4837 9.60567L38.5755 10.8013Z" fill="#FFEBD9"/>
<path d="M38.3171 10.954L37.1939 13.5905L34.1777 12.7099L34.689 9.89878L38.3171 10.954Z" fill="#8695A2"/>
<path d="M37.6099 13.8796L33.5983 12.7426L33.5439 13.307L37.3569 14.3976L37.6099 13.8796Z" fill="#667C85"/>
<path d="M38.1484 11.5538L34.5094 10.4414L34.4985 10.6636L38.0776 11.7283L38.1484 11.5538Z" fill="#FFEBD9"/>
<path d="M36.8963 18.7001L35.5432 21.9747L32.1763 20.9918L32.8032 17.5059L36.8963 18.7001Z" fill="#FFEBD9"/>
<path d="M36.6378 18.8528L35.5146 21.4894L32.4971 20.6087L33.0084 17.7976L36.6378 18.8528Z" fill="#8695A2"/>
<path d="M35.9292 21.7784L31.9177 20.6414L31.8633 21.2072L35.6763 22.2964L35.9292 21.7784Z" fill="#667C85"/>
<path d="M36.4692 19.4526L32.8289 18.3402L32.8193 18.5624L36.3971 19.6271L36.4692 19.4526Z" fill="#FFEBD9"/>
<path d="M35.698 26.509L34.345 29.7849L30.978 28.8006L31.6063 25.3147L35.698 26.509Z" fill="#FFEBD9"/>
<path d="M35.4397 26.663L34.3164 29.2996L31.3003 28.4189L31.8102 25.6078L35.4397 26.663Z" fill="#8695A2"/>
<path d="M34.7326 29.5873L30.721 28.4517L30.6653 29.0161L34.4796 30.1053L34.7326 29.5873Z" fill="#667C85"/>
<path d="M35.2712 27.2629L31.6322 26.1491L31.6213 26.3726L35.1991 27.436L35.2712 27.2629Z" fill="#FFEBD9"/>
<path d="M48.7852 13.7555L47.4322 17.0315L44.0652 16.0472L44.6934 12.5613L48.7852 13.7555Z" fill="#FFEBD9"/>
<path d="M48.5268 13.9082L47.4049 16.5448L44.3875 15.6641L44.8988 12.853L48.5268 13.9082Z" fill="#8695A2"/>
<path d="M47.8198 16.8338L43.8083 15.6968L43.7539 16.2626L47.5669 17.3518L47.8198 16.8338Z" fill="#667C85"/>
<path d="M48.3597 14.5094L44.7194 13.3956L44.7085 13.6178L48.2876 14.6825L48.3597 14.5094Z" fill="#FFEBD9"/>
<path d="M45.9854 21.1008L44.6324 24.3768L41.2654 23.3925L41.8923 19.9066L45.9854 21.1008Z" fill="#FFEBD9"/>
<path d="M45.727 21.2549L44.6038 23.8915L41.5876 23.0094L42.0976 20.1984L45.727 21.2549Z" fill="#8695A2"/>
<path d="M45.0183 24.1791L41.0068 23.0422L40.9524 23.6079L44.7654 24.6972L45.0183 24.1791Z" fill="#667C85"/>
<path d="M45.5583 21.8547L41.918 20.7409L41.9084 20.9645L45.4862 22.0279L45.5583 21.8547Z" fill="#FFEBD9"/>
<path d="M43.0629 28.5485L41.7099 31.8244L38.3442 30.8415L38.9711 27.3542L43.0629 28.5485Z" fill="#FFEBD9"/>
<path d="M42.8047 28.7025L41.6828 31.3391L38.6653 30.4584L39.1766 27.6473L42.8047 28.7025Z" fill="#8695A2"/>
<path d="M42.0976 31.6281L38.086 30.4911L38.0303 31.0555L41.8446 32.1461L42.0976 31.6281Z" fill="#667C85"/>
<path d="M42.6373 29.3023L38.997 28.1899L38.9861 28.4121L42.5652 29.4768L42.6373 29.3023Z" fill="#FFEBD9"/>
<path d="M48.5595 19.3886L48.1311 20.1411L31.4934 15.2128L31.5233 14.3731L48.5595 19.3886Z" fill="#36869E"/>
<path d="M45.6984 26.4913L45.3149 27.1974L30.0425 22.6618L30.0561 21.8793L45.6984 26.4913Z" fill="#36869E"/>
<path d="M33.3836 32.93L32.2549 37.8283L35.3526 38.724C35.3526 38.724 36.5941 34.4937 36.76 33.8366C36.1903 33.6948 33.3836 32.93 33.3836 32.93Z" fill="#FFEBD9"/>
<path d="M33.6067 33.3526L32.5542 37.9142L35.0346 38.6326C35.0346 38.6326 36.1904 34.6914 36.3454 34.0793C35.8165 33.9484 33.6067 33.3526 33.6067 33.3526Z" fill="#667C85"/>
<path d="M33.8176 33.7425L33.4219 35.4589L35.4086 36.0274L35.9213 34.2988L33.8176 33.7425Z" fill="#8695A2"/>
<path d="M35.2683 36.4623C35.2424 36.5523 35.15 36.6027 35.0616 36.5768C34.9732 36.5509 34.9215 36.4582 34.9473 36.3696C34.9718 36.281 35.0656 36.2292 35.154 36.2564C35.2424 36.2823 35.2941 36.375 35.2683 36.4623Z" fill="#E8B95C"/>
<path d="M31.9626 37.7438L35.5866 38.7921L35.777 38.2605L32.0918 37.193L31.9626 37.7438Z" fill="#FFEBD9"/>
<path d="M29.6834 32.0289L28.8879 36.1665L31.7572 36.9967L32.6166 32.8455L29.6834 32.0289Z" fill="#FFEBD9"/>
<path d="M29.8425 32.4052L29.168 35.9115L31.5994 36.615L32.3269 33.0991L29.8425 32.4052Z" fill="#8695A2"/>
<path d="M40.8219 35.2517L39.2948 39.1779L36.4255 38.3477L37.6793 34.311L40.8219 35.2517Z" fill="#FFEBD9"/>
<path d="M40.5309 35.4998L39.1956 38.9353L36.6853 38.2086L37.7813 34.6777L40.5309 35.4998Z" fill="#8695A2"/>
<path d="M42.6685 33.6607L42.387 34.2142L28.7478 30.5129L28.8022 29.8027L42.6685 33.6607Z" fill="#36869E"/>
<path d="M41.7451 14.3185C41.6173 14.763 41.1549 15.0179 40.7116 14.8897C40.2696 14.7616 40.014 14.2981 40.1418 13.8536C40.2696 13.4092 40.732 13.1543 41.1753 13.2824C41.6173 13.4106 41.8729 13.8741 41.7451 14.3185Z" fill="#FFEBD9"/>
<path d="M41.597 14.2763C41.4936 14.6389 41.1156 14.8475 40.7539 14.7425C40.3922 14.6375 40.1841 14.2599 40.2888 13.8973C40.3935 13.5346 40.7702 13.3261 41.1319 13.431C41.4936 13.536 41.7017 13.9136 41.597 14.2763Z" fill="#8695A2"/>
<path d="M39.4974 22.1219C39.3696 22.5664 38.9072 22.8213 38.4639 22.6932C38.0206 22.565 37.7663 22.1015 37.8941 21.6584C38.0219 21.214 38.4843 20.9591 38.9262 21.0872C39.3682 21.2154 39.6238 21.6789 39.496 22.1219H39.4974Z" fill="#FFEBD9"/>
<path d="M39.3506 22.0797C39.2459 22.4423 38.8693 22.6509 38.5075 22.5459C38.1458 22.4409 37.9378 22.0633 38.0425 21.7007C38.1472 21.3394 38.5239 21.1295 38.8856 21.2344C39.2473 21.3394 39.454 21.717 39.3506 22.0797Z" fill="#8695A2"/>
<path d="M37.2565 29.9049C37.1287 30.348 36.6663 30.6043 36.2244 30.4761C35.7811 30.348 35.5268 29.8845 35.6546 29.4414C35.7824 28.997 36.2448 28.742 36.6881 28.8688C37.1314 28.997 37.3857 29.4605 37.2579 29.9049H37.2565Z" fill="#FFEBD9"/>
<path d="M37.1097 29.8627C37.005 30.2253 36.6269 30.4339 36.2666 30.3289C35.9049 30.2253 35.6968 29.8463 35.8015 29.4837C35.9062 29.121 36.2829 28.9125 36.6446 29.0174C37.0063 29.1224 37.2144 29.5 37.1097 29.8627Z" fill="#8695A2"/>
</g>
<g filter="url(#filter0_dii_347_5450)">
<path d="M58.5739 30.117C58.1045 30.117 57.7419 29.989 57.4859 29.733C57.2299 29.4663 57.1019 29.0983 57.1019 28.629V21.093H54.5899C54.1952 21.093 53.8912 20.9917 53.6779 20.789C53.4752 20.5757 53.3739 20.277 53.3739 19.893C53.3739 19.4983 53.4752 19.1997 53.6779 18.997C53.8912 18.7943 54.1952 18.693 54.5899 18.693H62.5579C62.9525 18.693 63.2512 18.7943 63.4539 18.997C63.6672 19.1997 63.7739 19.4983 63.7739 19.893C63.7739 20.277 63.6672 20.5757 63.4539 20.789C63.2512 20.9917 62.9525 21.093 62.5579 21.093H60.0459V28.629C60.0459 29.0983 59.9232 29.4663 59.6779 29.733C59.4325 29.989 59.0645 30.117 58.5739 30.117ZM66.7869 30.117C66.3389 30.117 65.9922 29.9943 65.7469 29.749C65.5015 29.5037 65.3789 29.1463 65.3789 28.677V19.989C65.3789 19.5197 65.5015 19.1623 65.7469 18.917C65.9922 18.6717 66.3389 18.549 66.7869 18.549C67.2455 18.549 67.5975 18.6717 67.8429 18.917C68.0989 19.1623 68.2269 19.5197 68.2269 19.989V23.477H67.9709C68.2269 22.9757 68.5895 22.5917 69.0589 22.325C69.5389 22.0583 70.0829 21.925 70.6909 21.925C71.3202 21.925 71.8375 22.0477 72.2429 22.293C72.6482 22.5277 72.9522 22.901 73.1549 23.413C73.3575 23.9143 73.4589 24.549 73.4589 25.317V28.677C73.4589 29.1463 73.3362 29.5037 73.0909 29.749C72.8455 29.9943 72.4935 30.117 72.0349 30.117C71.5762 30.117 71.2242 29.9943 70.9789 29.749C70.7335 29.5037 70.6109 29.1463 70.6109 28.677V25.429C70.6109 24.949 70.5255 24.6077 70.3549 24.405C70.1949 24.2023 69.9549 24.101 69.6349 24.101C69.2082 24.101 68.8669 24.2397 68.6109 24.517C68.3549 24.7837 68.2269 25.1463 68.2269 25.605V28.677C68.2269 29.637 67.7469 30.117 66.7869 30.117ZM77.818 30.149C77.21 30.149 76.6713 30.037 76.202 29.813C75.7433 29.589 75.3807 29.285 75.114 28.901C74.858 28.5063 74.73 28.0583 74.73 27.557C74.73 26.981 74.8793 26.5277 75.178 26.197C75.4767 25.8663 75.9567 25.6317 76.618 25.493C77.2793 25.3437 78.1593 25.269 79.258 25.269H80.138V26.613H79.258C78.842 26.613 78.4953 26.645 78.218 26.709C77.9513 26.7623 77.754 26.853 77.626 26.981C77.498 27.0983 77.434 27.253 77.434 27.445C77.434 27.6903 77.5193 27.893 77.69 28.053C77.8713 28.213 78.1273 28.293 78.458 28.293C78.7247 28.293 78.9593 28.2343 79.162 28.117C79.3753 27.9997 79.546 27.8397 79.674 27.637C79.802 27.4237 79.866 27.1783 79.866 26.901V25.045C79.866 24.661 79.7647 24.389 79.562 24.229C79.37 24.069 79.034 23.989 78.554 23.989C78.298 23.989 78.01 24.021 77.69 24.085C77.37 24.1383 77.0127 24.2397 76.618 24.389C76.33 24.4957 76.0847 24.5117 75.882 24.437C75.6793 24.3623 75.5193 24.2343 75.402 24.053C75.2953 23.8717 75.242 23.6743 75.242 23.461C75.2527 23.2477 75.322 23.045 75.45 22.853C75.5887 22.661 75.7967 22.5117 76.074 22.405C76.586 22.213 77.0553 22.085 77.482 22.021C77.9193 21.957 78.3193 21.925 78.682 21.925C79.5567 21.925 80.2767 22.053 80.842 22.309C81.418 22.5543 81.8447 22.9383 82.122 23.461C82.41 23.973 82.554 24.6343 82.554 25.445V28.677C82.554 29.1463 82.442 29.5037 82.218 29.749C81.994 29.9943 81.6687 30.117 81.242 30.117C80.8047 30.117 80.4687 29.9943 80.234 29.749C80.01 29.5037 79.898 29.1463 79.898 28.677V28.261L79.994 28.485C79.9407 28.8263 79.818 29.1197 79.626 29.365C79.434 29.6103 79.1833 29.8023 78.874 29.941C78.5647 30.0797 78.2127 30.149 77.818 30.149ZM77.85 20.949L76.41 19.013C76.2393 18.789 76.17 18.5703 76.202 18.357C76.2447 18.1437 76.346 17.957 76.506 17.797C76.6767 17.637 76.8687 17.525 77.082 17.461C77.306 17.397 77.5247 17.4023 77.738 17.477C77.962 17.5517 78.1327 17.717 78.25 17.973L79.306 20.101C79.4127 20.3357 79.4287 20.549 79.354 20.741C79.2793 20.9223 79.146 21.0663 78.954 21.173C78.7727 21.269 78.5807 21.3063 78.378 21.285C78.1753 21.253 77.9993 21.141 77.85 20.949ZM85.5838 30.117C85.1358 30.117 84.7891 29.9943 84.5438 29.749C84.2984 29.5037 84.1758 29.1463 84.1758 28.677V23.381C84.1758 22.9223 84.2931 22.5703 84.5278 22.325C84.7731 22.0797 85.1198 21.957 85.5678 21.957C86.0158 21.957 86.3571 22.0797 86.5918 22.325C86.8264 22.5703 86.9438 22.9223 86.9438 23.381V24.133L86.7678 23.477C87.0238 22.9757 87.3864 22.5917 87.8558 22.325C88.3358 22.0583 88.8798 21.925 89.4878 21.925C90.1171 21.925 90.6344 22.0477 91.0398 22.293C91.4451 22.5277 91.7491 22.901 91.9518 23.413C92.1544 23.9143 92.2558 24.549 92.2558 25.317V28.677C92.2558 29.1463 92.1331 29.5037 91.8878 29.749C91.6424 29.9943 91.2904 30.117 90.8318 30.117C90.3731 30.117 90.0211 29.9943 89.7758 29.749C89.5304 29.5037 89.4078 29.1463 89.4078 28.677V25.429C89.4078 24.949 89.3224 24.6077 89.1518 24.405C88.9918 24.2023 88.7518 24.101 88.4318 24.101C88.0051 24.101 87.6638 24.2397 87.4078 24.517C87.1518 24.7837 87.0238 25.1463 87.0238 25.605V28.677C87.0238 29.637 86.5438 30.117 85.5838 30.117ZM95.2869 30.117C94.8389 30.117 94.4922 29.9943 94.2469 29.749C94.0015 29.5037 93.8789 29.1463 93.8789 28.677V19.989C93.8789 19.5197 94.0015 19.1623 94.2469 18.917C94.4922 18.6717 94.8389 18.549 95.2869 18.549C95.7455 18.549 96.0975 18.6717 96.3429 18.917C96.5989 19.1623 96.7269 19.5197 96.7269 19.989V23.477H96.4709C96.7269 22.9757 97.0895 22.5917 97.5589 22.325C98.0389 22.0583 98.5829 21.925 99.1909 21.925C99.8202 21.925 100.338 22.0477 100.743 22.293C101.148 22.5277 101.452 22.901 101.655 23.413C101.858 23.9143 101.959 24.549 101.959 25.317V28.677C101.959 29.1463 101.836 29.5037 101.591 29.749C101.346 29.9943 100.994 30.117 100.535 30.117C100.076 30.117 99.7242 29.9943 99.4789 29.749C99.2335 29.5037 99.1109 29.1463 99.1109 28.677V25.429C99.1109 24.949 99.0255 24.6077 98.8549 24.405C98.6949 24.2023 98.4549 24.101 98.1349 24.101C97.7082 24.101 97.3669 24.2397 97.1109 24.517C96.8549 24.7837 96.7269 25.1463 96.7269 25.605V28.677C96.7269 29.637 96.2469 30.117 95.2869 30.117ZM109.568 32.997C109.12 32.997 108.773 32.8743 108.528 32.629C108.283 32.3837 108.16 32.0263 108.16 31.557V23.381C108.16 22.9223 108.277 22.5703 108.512 22.325C108.757 22.0797 109.104 21.957 109.552 21.957C110.011 21.957 110.357 22.0797 110.592 22.325C110.837 22.5703 110.96 22.9223 110.96 23.381V24.309L110.784 23.525C110.933 23.045 111.243 22.661 111.712 22.373C112.192 22.0743 112.736 21.925 113.344 21.925C114.027 21.925 114.624 22.0903 115.136 22.421C115.659 22.7517 116.064 23.221 116.352 23.829C116.64 24.437 116.784 25.173 116.784 26.037C116.784 26.8797 116.64 27.6103 116.352 28.229C116.064 28.8477 115.659 29.3223 115.136 29.653C114.624 29.9837 114.027 30.149 113.344 30.149C112.757 30.149 112.229 30.0103 111.76 29.733C111.291 29.4557 110.976 29.093 110.816 28.645H111.008V31.557C111.008 32.0263 110.88 32.3837 110.624 32.629C110.379 32.8743 110.027 32.997 109.568 32.997ZM112.448 28.053C112.736 28.053 112.987 27.9837 113.2 27.845C113.424 27.6957 113.6 27.477 113.728 27.189C113.856 26.8903 113.92 26.5063 113.92 26.037C113.92 25.3223 113.781 24.8103 113.504 24.501C113.227 24.181 112.875 24.021 112.448 24.021C112.16 24.021 111.904 24.0903 111.68 24.229C111.456 24.3677 111.28 24.5863 111.152 24.885C111.024 25.173 110.96 25.557 110.96 26.037C110.96 26.741 111.099 27.253 111.376 27.573C111.653 27.893 112.011 28.053 112.448 28.053ZM119.49 30.117C119.042 30.117 118.695 29.9943 118.45 29.749C118.205 29.5037 118.082 29.1463 118.082 28.677V19.989C118.082 19.5197 118.205 19.1623 118.45 18.917C118.695 18.6717 119.042 18.549 119.49 18.549C119.949 18.549 120.301 18.6717 120.546 18.917C120.802 19.1623 120.93 19.5197 120.93 19.989V23.477H120.674C120.93 22.9757 121.293 22.5917 121.762 22.325C122.242 22.0583 122.786 21.925 123.394 21.925C124.023 21.925 124.541 22.0477 124.946 22.293C125.351 22.5277 125.655 22.901 125.858 23.413C126.061 23.9143 126.162 24.549 126.162 25.317V28.677C126.162 29.1463 126.039 29.5037 125.794 29.749C125.549 29.9943 125.197 30.117 124.738 30.117C124.279 30.117 123.927 29.9943 123.682 29.749C123.437 29.5037 123.314 29.1463 123.314 28.677V25.429C123.314 24.949 123.229 24.6077 123.058 24.405C122.898 24.2023 122.658 24.101 122.338 24.101C121.911 24.101 121.57 24.2397 121.314 24.517C121.058 24.7837 120.93 25.1463 120.93 25.605V28.677C120.93 29.637 120.45 30.117 119.49 30.117ZM131.769 30.149C130.894 30.149 130.132 29.9837 129.481 29.653C128.83 29.3223 128.324 28.8477 127.961 28.229C127.598 27.6103 127.417 26.8797 127.417 26.037C127.417 25.397 127.518 24.8263 127.721 24.325C127.924 23.813 128.217 23.381 128.601 23.029C128.985 22.6663 129.444 22.3943 129.977 22.213C130.51 22.021 131.108 21.925 131.769 21.925C132.644 21.925 133.406 22.0903 134.057 22.421C134.708 22.7517 135.209 23.2263 135.561 23.845C135.924 24.453 136.105 25.1837 136.105 26.037C136.105 26.6663 136.004 27.237 135.801 27.749C135.598 28.261 135.305 28.6983 134.921 29.061C134.548 29.413 134.089 29.685 133.545 29.877C133.012 30.0583 132.42 30.149 131.769 30.149ZM131.769 28.053C132.057 28.053 132.313 27.9837 132.537 27.845C132.761 27.6957 132.932 27.477 133.049 27.189C133.177 26.8903 133.241 26.5063 133.241 26.037C133.241 25.3223 133.102 24.8103 132.825 24.501C132.548 24.181 132.196 24.021 131.769 24.021C131.481 24.021 131.225 24.0903 131.001 24.229C130.777 24.3677 130.601 24.5863 130.473 24.885C130.345 25.173 130.281 25.557 130.281 26.037C130.281 26.741 130.42 27.253 130.697 27.573C130.974 27.893 131.332 28.053 131.769 28.053ZM130.617 20.981C130.425 21.1623 130.233 21.2637 130.041 21.285C129.849 21.3063 129.678 21.269 129.529 21.173C129.38 21.0663 129.284 20.9277 129.241 20.757C129.209 20.5757 129.262 20.3837 129.401 20.181L130.201 18.997C130.414 18.677 130.644 18.453 130.889 18.325C131.145 18.197 131.438 18.133 131.769 18.133C131.993 18.133 132.196 18.1597 132.377 18.213C132.569 18.2663 132.74 18.357 132.889 18.485C133.049 18.613 133.198 18.7837 133.337 18.997L134.137 20.181C134.276 20.3837 134.324 20.5757 134.281 20.757C134.249 20.9277 134.158 21.0663 134.009 21.173C133.87 21.269 133.7 21.3063 133.497 21.285C133.305 21.2637 133.113 21.1623 132.921 20.981L131.769 19.829L130.617 20.981ZM135.177 19.445C135.038 19.605 134.884 19.701 134.713 19.733C134.553 19.7543 134.404 19.7223 134.265 19.637C134.137 19.5517 134.052 19.429 134.009 19.269C133.966 19.109 133.998 18.9277 134.105 18.725L134.969 17.141C135.086 16.9277 135.23 16.7943 135.401 16.741C135.572 16.677 135.742 16.6717 135.913 16.725C136.094 16.7783 136.244 16.8743 136.361 17.013C136.489 17.141 136.558 17.2957 136.569 17.477C136.58 17.6583 136.505 17.845 136.345 18.037L135.177 19.445Z" fill="white"/>
</g>
</g>
<defs>
<filter id="filter0_dii_347_5450" x="50.9469" y="15.4315" width="88.0653" height="21.2058" filterUnits="userSpaceOnUse" color-interpolation-filters="sRGB">
<feFlood flood-opacity="0" result="BackgroundImageFix"/>
<feColorMatrix in="SourceAlpha" type="matrix" values="0 0 0 0 0 0 0 0 0 0 0 0 0 0 0 0 0 0 127 0" result="hardAlpha"/>
<feOffset dy="1.21346"/>
<feGaussianBlur stdDeviation="1.21346"/>
<feComposite in2="hardAlpha" operator="out"/>
<feColorMatrix type="matrix" values="0 0 0 0 0.245192 0 0 0 0 0 0 0 0 0 0.147115 0 0 0 0.29 0"/>
<feBlend mode="multiply" in2="BackgroundImageFix" result="effect1_dropShadow_347_5450"/>
<feBlend mode="normal" in="SourceGraphic" in2="effect1_dropShadow_347_5450" result="shape"/>
<feColorMatrix in="SourceAlpha" type="matrix" values="0 0 0 0 0 0 0 0 0 0 0 0 0 0 0 0 0 0 127 0" result="hardAlpha"/>
<feOffset dy="-0.60673"/>
<feGaussianBlur stdDeviation="0.303365"/>
<feComposite in2="hardAlpha" operator="arithmetic" k2="-1" k3="1"/>
<feColorMatrix type="matrix" values="0 0 0 0 0.740385 0 0 0 0 0 0 0 0 0 0.201333 0 0 0 0.64 0"/>
<feBlend mode="multiply" in2="shape" result="effect2_innerShadow_347_5450"/>
<feColorMatrix in="SourceAlpha" type="matrix" values="0 0 0 0 0 0 0 0 0 0 0 0 0 0 0 0 0 0 127 0" result="hardAlpha"/>
<feOffset dy="0.60673"/>
<feGaussianBlur stdDeviation="0.303365"/>
<feComposite in2="hardAlpha" operator="arithmetic" k2="-1" k3="1"/>
<feColorMatrix type="matrix" values="0 0 0 0 1 0 0 0 0 0.677885 0 0 0 0 0.771899 0 0 0 0.23 0"/>
<feBlend mode="normal" in2="effect2_innerShadow_347_5450" result="effect3_innerShadow_347_5450"/>
</filter>
<linearGradient id="paint0_linear_347_5450" x1="75.4947" y1="41.6977" x2="75.4947" y2="8.9902" gradientUnits="userSpaceOnUse">
<stop stop-color="#FF5B8B"/>
<stop offset="1" stop-color="#FC98AF"/>
</linearGradient>
<clipPath id="clip0_347_5450">
<rect width="41.2903" height="40" fill="white" transform="translate(10.7148)"/>
</clipPath>
</defs>
</svg>
