<svg width="117" height="40" viewBox="0 0 117 40" fill="none" xmlns="http://www.w3.org/2000/svg">
<g opacity="0.9">
<path d="M116.464 22.8601V23.2297C116.464 25.9402 115.799 28.4865 114.608 30.7371C111.889 35.879 106.492 39.4027 100.307 39.4027H16.1648C10.5383 39.4027 5.56897 36.4868 2.66128 32.1088V32.0924C0.977439 29.5461 0 26.4988 0 23.2297V22.8601C0 20.0181 0.747451 17.3321 2.04524 15.0076C4.82151 10.0629 10.1194 6.69522 16.1648 6.69522H100.307C107.281 6.69522 113.269 11.18 115.511 17.4143C116.127 19.1228 116.464 20.9544 116.464 22.8601Z" fill="url(#paint0_linear_346_192)"/>
<g style="mix-blend-mode:color-dodge" opacity="0.32">
<path d="M115.511 17.4145C110.887 7.96039 16.0335 0.502228 2.05351 15.0161H2.04529C4.82157 10.0631 10.1195 6.69546 16.1649 6.69546H100.307C107.281 6.69546 113.269 11.1802 115.511 17.4145Z" fill="#FF7E8B"/>
</g>
<g style="mix-blend-mode:multiply">
<path d="M114.599 30.7374C111.881 35.8792 106.484 39.403 100.299 39.403H16.1566C10.5301 39.403 5.56077 36.4871 2.65308 32.1091V32.0927C13.0354 42.516 96.7262 39.2305 114.599 30.7374Z" fill="#FF459D"/>
</g>
<g style="mix-blend-mode:color-dodge" opacity="0.32">
<path d="M72.175 7.15535C73.5056 8.05887 94.262 9.58664 104.587 12.0508C114.912 14.5149 113.622 12.174 108.431 8.89668C103.24 5.61936 71.7478 6.85964 72.175 7.14713V7.15535Z" fill="#FF7E8B"/>
</g>
<path d="M95.9047 10.1287C95.3215 10.638 102.599 11.6976 102.837 11.2376C103.067 10.7694 100.102 6.46534 95.9047 10.1287Z" fill="#F8EEF9"/>
<path d="M78.2204 8.00151C78.0233 8.43684 80.6845 8.83932 80.627 8.00151C80.5695 7.16369 78.7954 6.70372 78.2204 8.00151Z" fill="#F8EEF9"/>
<g clip-path="url(#clip0_346_192)">
<path d="M2.90429 10.2166C2.90429 10.2166 -0.0781069 11.4791 0.147157 12.0141C0.374768 12.549 2.90195 13.2386 2.90195 13.2386V10.2166H2.90429Z" fill="#FD251C"/>
<path d="M2.44904 13.5809C2.44904 13.5809 0.825265 16.106 0.900353 16.6029C0.975441 17.0998 4.86359 16.106 4.86359 16.106L2.4467 13.5809H2.44904Z" fill="#FD251C"/>
<path d="M4.45068 16.3746C4.45068 16.3746 3.24223 18.8236 3.50739 19.4727C3.77254 20.1241 7.43308 19.204 7.43308 19.204L4.45068 16.3722V16.3746Z" fill="#FD251C"/>
<path d="M7.05527 19.6248C7.05527 19.6248 5.01616 22.1879 5.35641 22.6848C5.69665 23.1817 8.48898 23.9854 8.48898 23.9854C8.48898 23.9854 7.88593 20.0076 7.05527 19.6248Z" fill="#FD251C"/>
<path d="M8.3388 25.4024C8.3388 25.4024 5.77173 25.1361 5.77173 25.6711C5.77173 26.2061 5.9219 28.082 5.9219 28.082C5.9219 28.082 7.7334 27.7753 8.3388 25.4048V25.4024Z" fill="#FD251C"/>
<path d="M2.14868 27.5066C2.14868 27.5066 3.75369 25.9374 4.18779 26.187C4.62189 26.4367 4.8495 28.5219 4.8495 28.5219C4.8495 28.5219 2.71653 29.1519 2.15103 27.509L2.14868 27.5066Z" fill="#FD251C"/>
<path d="M1.77089 26.8551C1.77089 26.8551 2.48892 25.4214 2.39272 24.8841C2.29886 24.3491 0.78771 24.9031 0.78771 24.9031C0.78771 24.9031 0.675078 26.0515 1.76855 26.8551H1.77089Z" fill="#FD251C"/>
<path d="M9.05679 8.4548C9.05679 8.4548 10.4905 11.7835 11.3963 11.9737C12.302 12.1663 11.774 9.83143 12.4146 9.29647C12.4146 9.29647 10.7158 7.88179 9.05444 8.4548H9.05679Z" fill="white"/>
<path d="M18.2692 24.254C18.2692 24.254 20.7612 24.3967 21.4111 27.2665C22.0635 30.1363 19.9117 32.861 19.9117 32.861L20.7612 34.4968C20.7612 34.4968 23.1405 32.6613 24.0744 34.1235C24.0744 34.1235 20.1957 36.3609 19.3181 37.193C19.3181 37.193 16.0893 34.0094 15.7514 32.1715C15.4111 30.336 18.2715 24.254 18.2715 24.254H18.2692Z" fill="#008100"/>
<path d="M15.1155 18.8426C15.1155 18.8426 18.2105 19.9125 19.4565 17.7703C19.4565 17.7703 19.0036 16.7955 19.3251 16.0869C19.6466 15.3784 19.9868 16.7574 19.9868 16.7574C19.9868 16.7574 20.4585 15.2857 21.3454 15.2857C22.2324 15.2857 21.0991 16.0893 20.9301 16.6433C20.9301 16.6433 21.8734 15.8777 22.4225 16.2795C22.9692 16.6813 21.6294 16.7384 21.4229 17.3114C21.4229 17.3114 22.2535 16.9286 22.6313 17.2924C23.0091 17.6562 21.7819 17.7322 21.4604 18.1531C21.1389 18.5739 20.8386 18.8402 20.2707 18.688C20.2707 18.688 18.5156 21.8051 15.6458 20.3904L15.1178 18.8402L15.1155 18.8426Z" fill="#008100"/>
<path d="M19.3251 16.0869C19.3392 16.0322 19.3533 15.9776 19.3861 15.9253C19.4025 15.8991 19.426 15.8753 19.4565 15.8539C19.4894 15.8373 19.5316 15.8254 19.5691 15.8349C19.6466 15.8539 19.6958 15.9015 19.7381 15.9466C19.7803 15.9918 19.8132 16.0418 19.8437 16.0917C19.9633 16.2938 20.0361 16.5054 20.0948 16.7289L20.0455 16.6599C20.0994 16.698 20.1417 16.7336 20.1816 16.7764C20.2238 16.8169 20.2637 16.8573 20.2942 16.9048C20.3294 16.95 20.3623 16.9976 20.3857 17.0499C20.4139 17.0998 20.442 17.1497 20.4561 17.2068C20.4725 17.2615 20.4913 17.3162 20.503 17.3708L20.5124 17.5397C20.5124 17.5682 20.5171 17.5943 20.5124 17.6229L20.496 17.7061C20.4843 17.7608 20.4725 17.8131 20.4585 17.8654C20.4491 17.8107 20.442 17.7584 20.435 17.7061L20.4256 17.63C20.4256 17.6038 20.4115 17.5801 20.4045 17.5563L20.3623 17.4136C20.3411 17.3685 20.3177 17.3257 20.2966 17.2805C20.2778 17.2353 20.2449 17.1973 20.2191 17.1569C20.1933 17.1164 20.1651 17.0784 20.13 17.0427C20.0994 17.0071 20.0666 16.9714 20.0291 16.9405C19.9962 16.9072 19.954 16.8763 19.9235 16.8549L19.8859 16.8287L19.8742 16.7859C19.8202 16.5815 19.7592 16.3699 19.6841 16.1773C19.6466 16.0846 19.5949 15.9799 19.5363 15.9466C19.5128 15.9276 19.4729 15.9371 19.433 15.968C19.3931 15.999 19.3603 16.0441 19.3228 16.0869H19.3251Z" fill="#003A00"/>
<path d="M0.827684 23.3362C0.827684 23.3362 -1.58921 26.0895 2.22385 31.6745C6.03691 37.2595 14.7964 35.6523 17.2485 32.899C19.7029 30.1457 22.0424 25.3643 13.3228 16.3746C13.3228 16.3746 15.5496 16.1059 17.5512 14.4226C19.5528 12.7392 18.4569 10.4068 17.0608 10.597C15.6646 10.7896 13.8508 13.5428 11.0584 12.9294C8.26374 12.3184 7.92585 8.45475 9.47219 9.25601C11.0209 10.0596 12.417 10.9394 15.7021 9.48664C18.9872 8.03392 18.4569 4.32246 17.401 2.79365C16.3427 1.26485 15.2868 0.0784197 13.7006 0.0023361C12.1143 -0.0737475 9.16949 1.6096 6.33961 4.47701C3.50739 7.34679 1.69589 10.6754 2.2614 13.4668C2.8269 16.2581 6.4147 17.6751 7.77332 22.3804C9.13195 27.0857 3.01697 31.791 0.827684 23.3362Z" fill="#81AD4B"/>
<path d="M8.38806 33.6932C8.38806 33.6932 8.58517 37.3357 10.4835 39C10.4835 39 14.2778 38.8003 15.6364 38.3985C15.6364 38.3985 14.9864 36.6771 12.6352 37.193C12.6352 37.193 12.0697 35.9876 12.0697 35.2434C12.0697 35.2434 15.1554 34.813 15.3548 31.6009C15.5519 28.3887 12.6939 27.6421 12.6939 27.6421" fill="#81AD4B"/>
<path d="M13.5104 0.872581C13.5104 0.872581 13.562 1.01524 13.5902 1.21496C13.6254 1.41468 13.6348 1.67146 13.6277 1.92349C13.6207 2.17551 13.5972 2.41803 13.5785 2.60586C13.5738 2.65341 13.5691 2.69621 13.5691 2.73663C13.5691 2.77467 13.562 2.81271 13.5644 2.84125C13.5644 2.90069 13.5644 2.94111 13.5644 2.94111C13.5644 2.94111 13.5339 2.92446 13.4822 2.88167C13.4541 2.86027 13.4306 2.83174 13.4025 2.79369C13.3743 2.75803 13.3438 2.71523 13.3227 2.6653C13.2171 2.46796 13.1655 2.18502 13.1725 1.9116C13.1795 1.63817 13.2453 1.37188 13.3297 1.18167C13.4095 0.991462 13.5057 0.874959 13.5057 0.874959L13.5104 0.872581Z" fill="black"/>
<path d="M6.72909 29.19C6.86049 29.5585 6.52729 30.0198 5.9829 30.2195C5.43851 30.4216 4.88943 30.2861 4.75803 29.9175C4.62428 29.549 4.95983 29.0877 5.50422 28.888C6.0486 28.6859 6.59769 28.8214 6.72909 29.19Z" fill="#A6DE57"/>
<path d="M8.75878 27.0335C8.91834 27.1951 8.83856 27.5399 8.58044 27.8038C8.31998 28.0677 7.97974 28.1486 7.82018 27.9869C7.65827 27.8252 7.7404 27.4805 7.99851 27.2165C8.25663 26.9526 8.59922 26.8694 8.75878 27.0335Z" fill="#A6DE57"/>
<path d="M8.10418 13.1363C8.10418 13.6356 7.7874 14.0398 7.39553 14.0398C7.00367 14.0398 6.68689 13.6356 6.68689 13.1363C6.68689 12.637 7.00367 12.2328 7.39553 12.2328C7.7874 12.2328 8.10418 12.637 8.10418 13.1363Z" fill="#A6DE57"/>
<path d="M6.0087 12.9366C6.0087 13.2932 5.79282 13.5809 5.52766 13.5809C5.26251 13.5809 5.04663 13.2909 5.04663 12.9366C5.04663 12.5823 5.26251 12.2899 5.52766 12.2899C5.79282 12.2899 6.0087 12.58 6.0087 12.9366Z" fill="#A6DE57"/>
<path d="M6.97077 15.5472C6.97077 15.9823 6.76193 16.3366 6.50382 16.3366C6.2457 16.3366 6.03687 15.9823 6.03687 15.5472C6.03687 15.1121 6.2457 14.7579 6.50382 14.7579C6.76193 14.7579 6.97077 15.1121 6.97077 15.5472Z" fill="#A6DE57"/>
<path d="M11.6919 21.049C11.6168 21.3533 11.5558 21.6601 11.5253 21.9691C11.4994 22.2759 11.4877 22.585 11.537 22.8774C11.5605 23.0224 11.598 23.1627 11.6543 23.2911C11.6801 23.3553 11.7153 23.4147 11.7529 23.4718C11.7904 23.5289 11.8326 23.5788 11.8772 23.6287C11.9265 23.6739 11.9734 23.7191 12.0298 23.7524C12.0837 23.7904 12.1447 23.8189 12.2057 23.8451C12.2668 23.8712 12.3325 23.8903 12.3982 23.9069C12.4639 23.9283 12.5343 23.9307 12.6023 23.9449L12.4334 24.0068C12.5037 23.9283 12.5695 23.8689 12.6398 23.807C12.7102 23.7452 12.7806 23.6858 12.8557 23.6287C13.0036 23.5146 13.1631 23.4147 13.3297 23.3315C13.4118 23.2887 13.4987 23.2507 13.5855 23.215C13.6723 23.177 13.7662 23.1556 13.8553 23.127C13.9492 23.1104 14.0407 23.0819 14.1346 23.0724C14.2284 23.0581 14.3246 23.051 14.4208 23.0557C14.517 23.0533 14.6109 23.0652 14.7071 23.0771C14.8057 23.0866 14.8831 23.108 14.9817 23.1294C15.0286 23.1413 15.0732 23.1532 15.1224 23.1722C15.1717 23.1936 15.2186 23.2031 15.2937 23.2697C15.3078 23.2816 15.336 23.322 15.3477 23.3529C15.3618 23.3981 15.3594 23.448 15.3454 23.4789C15.3172 23.5479 15.2844 23.5669 15.2585 23.5907C15.2069 23.6287 15.1623 23.6501 15.1177 23.6715C14.9441 23.75 14.7775 23.7999 14.6109 23.857C14.5288 23.8855 14.4467 23.914 14.3692 23.9473C14.2918 23.9782 14.2143 24.0163 14.1627 24.0591L14.1041 23.9069C14.2402 23.914 14.3716 23.9283 14.5053 23.9449C14.6367 23.9616 14.7681 23.9854 14.8995 24.0139C14.9652 24.0258 15.0286 24.0472 15.0943 24.0662C15.1576 24.0876 15.2257 24.0995 15.2867 24.128L15.4744 24.2065C15.5354 24.235 15.5917 24.2778 15.6528 24.3135C15.6833 24.3325 15.7114 24.3491 15.7419 24.3705C15.7677 24.3896 15.7935 24.411 15.8217 24.4395C15.8475 24.468 15.8757 24.4942 15.8968 24.5393C15.9062 24.5607 15.9179 24.5917 15.9156 24.6273C15.9156 24.6654 15.8921 24.6987 15.871 24.72C15.7865 24.7914 15.7185 24.7961 15.6504 24.8152C15.5824 24.8294 15.5167 24.8389 15.451 24.8508C15.1928 24.8912 14.9277 24.9221 14.7188 25.022L14.7376 24.8128C14.8479 24.8865 14.9511 24.9602 15.0544 25.041C15.1576 25.1219 15.2562 25.2075 15.3501 25.3002C15.3946 25.3501 15.4463 25.3929 15.4885 25.4476C15.5307 25.5023 15.5753 25.5546 15.6152 25.614C15.6528 25.683 15.6856 25.7329 15.7208 25.8233C15.7302 25.8589 15.7419 25.8661 15.749 25.9469C15.7583 26.004 15.7466 26.1062 15.6786 26.1728C15.6621 26.1894 15.6434 26.2061 15.6246 26.2203C15.6082 26.2298 15.5941 26.237 15.5753 26.2441C15.5425 26.2584 15.5073 26.2679 15.4861 26.2679C15.4345 26.275 15.3899 26.275 15.3547 26.2703C15.2773 26.2655 15.2093 26.2512 15.1436 26.2393C15.0122 26.2108 14.8901 26.1799 14.7681 26.1466C14.5241 26.08 14.2871 26.0087 14.0501 25.9517L14.2284 25.9184C14.1721 25.9564 14.1322 25.9802 14.0829 26.0063C14.036 26.0325 13.9867 26.0539 13.9375 26.0705C13.8882 26.0919 13.8389 26.1086 13.7873 26.1205C13.7357 26.1324 13.684 26.1514 13.6301 26.1561L13.4682 26.1751L13.3039 26.1704C13.1936 26.1704 13.088 26.13 12.9801 26.1086L13.1209 26.1133C12.9449 26.1609 12.7947 26.187 12.6281 26.2037C12.4662 26.2227 12.3019 26.2203 12.1377 26.2132L11.8913 26.187L11.6473 26.1419C11.4854 26.1014 11.3258 26.0539 11.1756 25.9778C11.0982 25.9469 11.0255 25.9065 10.9527 25.8613C10.8823 25.8161 10.8049 25.7805 10.7415 25.7234L10.5444 25.5665C10.4834 25.5094 10.4271 25.4476 10.3684 25.3882C10.3074 25.3311 10.2581 25.2645 10.2112 25.1956L10.0681 24.9935C9.99299 24.8461 9.90852 24.7105 9.84047 24.5536C9.78416 24.4086 9.71845 24.2778 9.67387 24.1161L9.59878 23.8831L9.54481 23.6501C9.50257 23.4956 9.49084 23.3363 9.46738 23.1794C9.45799 23.0201 9.44157 22.8631 9.44861 22.7038C9.44626 22.5445 9.46034 22.3876 9.47207 22.2307C9.49084 22.0738 9.51431 21.9192 9.5495 21.7647C9.6199 21.4603 9.71611 21.1608 9.86159 20.885L9.90148 20.904C9.80762 21.1917 9.74896 21.4936 9.7208 21.7932C9.70672 21.943 9.70203 22.0928 9.69499 22.2426C9.69499 22.3924 9.69733 22.5422 9.71376 22.6896C9.7208 22.8394 9.75365 22.9844 9.77477 23.1318C9.80997 23.2768 9.83578 23.4219 9.88036 23.5622L9.94372 23.7738L10.0212 23.9759C10.0657 24.109 10.1432 24.2493 10.2065 24.3872C10.2652 24.5084 10.352 24.6297 10.4224 24.751C10.5163 24.8556 10.589 24.9792 10.6946 25.0696L10.8424 25.2146L11.0067 25.3382C11.0583 25.3834 11.124 25.4096 11.1803 25.4452C11.239 25.4809 11.3 25.5118 11.3633 25.5356C11.4877 25.5926 11.6191 25.6283 11.7529 25.664L11.957 25.7044L12.1635 25.7258C12.3019 25.7329 12.4427 25.7329 12.5812 25.721C12.7173 25.7139 12.8675 25.6901 12.9848 25.6616L13.0341 25.6497L13.1256 25.6663C13.196 25.6782 13.264 25.7139 13.3368 25.7139L13.4447 25.7234L13.555 25.7139C13.5925 25.7139 13.6277 25.6996 13.6653 25.6925C13.7028 25.6854 13.738 25.6735 13.7756 25.6616C13.8131 25.6497 13.8483 25.6354 13.8811 25.6188C13.914 25.6045 13.9515 25.5807 13.9727 25.5712L14.0712 25.5165L14.151 25.5403C14.395 25.6117 14.6367 25.6877 14.8737 25.7662C14.991 25.8066 15.1084 25.8447 15.221 25.8732C15.2773 25.8875 15.3336 25.9017 15.3782 25.9065C15.4298 25.9231 15.4627 25.8898 15.4087 25.9326C15.3641 25.9944 15.4087 26.0111 15.3782 25.9231L15.3195 25.7924C15.2937 25.7448 15.2585 25.6972 15.2304 25.6497C15.1999 25.6021 15.1576 25.557 15.1224 25.5118C15.0474 25.4214 14.9629 25.3335 14.8737 25.2503C14.7869 25.167 14.6907 25.0862 14.5968 25.0125L14.4232 24.877L14.6156 24.8033C14.8948 24.6986 15.1623 24.6963 15.4228 24.6725C15.4885 24.6677 15.5519 24.6606 15.6129 24.6511C15.6715 24.6416 15.7396 24.6226 15.756 24.6083C15.756 24.6035 15.756 24.6273 15.7537 24.6083C15.749 24.594 15.7302 24.5703 15.7114 24.5489C15.6926 24.5298 15.6692 24.5084 15.6434 24.487L15.5659 24.4371C15.512 24.4038 15.465 24.3658 15.4064 24.3396L15.2327 24.2635C15.1764 24.235 15.1107 24.2231 15.0497 24.2041C14.9887 24.1875 14.9277 24.1684 14.8643 24.1589C14.7376 24.1328 14.6109 24.1114 14.4818 24.0995C14.3528 24.09 14.2237 24.0828 14.097 24.0852H13.8671L14.0384 23.9331C14.1181 23.8594 14.2003 23.8189 14.2824 23.7738C14.3622 23.731 14.4443 23.6929 14.5241 23.6573C14.6836 23.5835 14.8502 23.5146 14.9887 23.4361C15.0215 23.4171 15.0544 23.3957 15.0708 23.3791C15.0779 23.3743 15.0802 23.3624 15.0661 23.3886C15.0638 23.4005 15.0567 23.4266 15.0661 23.4504C15.0661 23.4647 15.0849 23.4837 15.0826 23.4813C15.0919 23.4884 15.052 23.4694 15.0192 23.4623C14.984 23.4528 14.9441 23.4456 14.9066 23.4385C14.8315 23.429 14.7376 23.4124 14.6602 23.4147C14.5804 23.4124 14.5006 23.4076 14.4208 23.4171C14.3411 23.4219 14.2636 23.4338 14.1838 23.448C14.1041 23.4575 14.029 23.4861 13.9515 23.5051C13.799 23.5598 13.6465 23.6145 13.5034 23.6929C13.4306 23.7286 13.3602 23.7738 13.2898 23.8166C13.2194 23.8617 13.1514 23.9045 13.0833 23.9545C13.0153 24.002 12.9496 24.0543 12.8886 24.109C12.8276 24.1613 12.7619 24.2207 12.7126 24.2731L12.6352 24.3539L12.546 24.3349C12.4615 24.3159 12.377 24.3087 12.2926 24.2802C12.2081 24.2588 12.126 24.2255 12.0462 24.1875C11.9664 24.1494 11.8866 24.1066 11.8162 24.0496C11.7411 23.9973 11.6778 23.9331 11.6144 23.8689C11.5558 23.7999 11.5018 23.7262 11.4572 23.6501C11.415 23.5717 11.3774 23.4908 11.3493 23.4076C11.293 23.2435 11.2624 23.0747 11.2484 22.9083C11.2273 22.5754 11.2648 22.2497 11.3375 21.9359C11.4126 21.6244 11.5088 21.3201 11.6426 21.0324L11.6848 21.049H11.6919Z" fill="#003A00"/>
<path d="M6.56234 7.10669C7.33199 8.42151 7.13958 9.97885 6.13293 10.5804C5.12628 11.1843 3.68788 10.6065 2.92057 9.29172C2.15092 7.9769 2.34333 6.42194 3.34998 5.81802C4.35663 5.21411 5.79503 5.79187 6.56234 7.10669Z" fill="white"/>
<path d="M6.61874 9.41535C6.26442 9.62933 5.73881 9.44626 5.25543 8.99927L5.5417 7.70109L4.42242 7.81759C4.02586 6.94025 4.04933 6.08669 4.51393 5.80613C5.04424 5.48991 5.94295 6.04152 6.52488 7.03774C7.10447 8.03396 7.14905 9.09675 6.61874 9.41535Z" fill="black" stroke="black" stroke-width="0.5" stroke-miterlimit="10"/>
<path d="M2.92063 9.28934C2.92063 9.28934 2.90186 9.26556 2.86901 9.21801C2.83616 9.17046 2.78219 9.10864 2.72822 9.01591C2.67425 8.92319 2.60151 8.80906 2.54519 8.67116C2.51234 8.60221 2.48183 8.5285 2.45368 8.44766C2.42317 8.36682 2.39501 8.28123 2.3739 8.1885C2.32227 8.00543 2.29177 7.80095 2.28238 7.57983C2.27534 7.35872 2.28473 7.12095 2.34808 6.88319C2.40675 6.64543 2.49591 6.39578 2.65313 6.17942C2.68598 6.12236 2.73056 6.07243 2.77515 6.02012C2.81738 5.96781 2.86197 5.9155 2.91359 5.87271C2.96521 5.82753 3.0098 5.7776 3.06611 5.73956L3.14824 5.68012L3.19048 5.65159L3.2116 5.63732L3.22098 5.63019L3.22567 5.62544H3.22802L3.24445 5.61355L3.40401 5.53271C3.45328 5.50656 3.53307 5.48278 3.59642 5.459C3.66447 5.43285 3.73017 5.41858 3.79587 5.4067C3.86158 5.39243 3.92728 5.37816 3.99298 5.37579C4.25579 5.3425 4.5139 5.38054 4.74855 5.44474C4.98555 5.5018 5.19673 5.60879 5.38445 5.72054C5.57217 5.83467 5.73408 5.96068 5.86783 6.09383C5.93823 6.15802 5.99924 6.22222 6.05321 6.28879C6.10952 6.35299 6.1588 6.4148 6.20338 6.479C6.29724 6.59788 6.35825 6.71438 6.41457 6.80711C6.46854 6.89984 6.4967 6.98068 6.52251 7.03061C6.54597 7.08291 6.5577 7.11144 6.5577 7.11144C6.5577 7.11144 6.48027 7.01634 6.33948 6.8618C6.26674 6.78571 6.18226 6.69298 6.07433 6.59788C6.0227 6.54795 5.96639 6.49802 5.90068 6.45047C5.83968 6.40054 5.77397 6.34823 5.70123 6.30068C5.63084 6.25075 5.55575 6.20082 5.47362 6.15802C5.39619 6.10809 5.30937 6.06767 5.22255 6.02487C5.04656 5.94641 4.85415 5.87746 4.65469 5.83942C4.45524 5.79662 4.24406 5.78949 4.03991 5.81802C3.98829 5.8204 3.93901 5.83467 3.88739 5.84655C3.83576 5.85844 3.78649 5.86795 3.74425 5.88697C3.69732 5.90599 3.65978 5.91075 3.60346 5.94166L3.4439 6.02487C3.46971 6.01061 3.44859 6.0225 3.45563 6.02012L3.45094 6.02487L3.4439 6.02963L3.42747 6.04152L3.39462 6.06292L3.33127 6.10571C3.28668 6.13187 3.25149 6.17229 3.2116 6.20557C3.17171 6.23648 3.13651 6.2769 3.10366 6.31732C3.06846 6.35536 3.03326 6.3934 3.0051 6.43858C2.88074 6.60739 2.78688 6.7976 2.72822 6.99494C2.66486 7.19228 2.62966 7.39438 2.61558 7.58934C2.61089 7.68683 2.60385 7.78193 2.60855 7.87466C2.60855 7.96739 2.61324 8.05773 2.62262 8.14571C2.62732 8.23368 2.64374 8.31452 2.65782 8.39536C2.66721 8.4762 2.68363 8.5499 2.70241 8.61885C2.73291 8.76151 2.7728 8.88039 2.8033 8.98025C2.87135 9.17997 2.91594 9.29647 2.91594 9.29647L2.92063 9.28934Z" fill="black"/>
<path d="M12.0673 35.241C12.0673 35.241 12.2269 35.2006 12.4897 35.0936C12.7525 34.989 13.1209 34.8178 13.5104 34.5444C13.609 34.4802 13.7028 34.3946 13.8037 34.3185C13.9023 34.2376 13.9938 34.1425 14.0923 34.0522C14.1839 33.9547 14.2707 33.8477 14.3622 33.7407C14.4373 33.6218 14.5241 33.5101 14.6015 33.3865C14.6672 33.2557 14.7423 33.1297 14.801 32.9918C14.8503 32.8491 14.9089 32.7112 14.9559 32.5662C14.9911 32.4164 15.0286 32.2666 15.0638 32.1168C15.0802 31.9623 15.099 31.8053 15.1154 31.6508L15.1225 31.5914C15.1225 31.5914 15.1225 31.5581 15.1225 31.5438V31.4202L15.1272 31.1729C15.1389 31.0017 15.1084 30.8614 15.0943 30.7116C15.0849 30.5618 15.0474 30.4168 15.0169 30.2694C14.9934 30.1196 14.9394 29.9817 14.8902 29.8462C14.7916 29.5728 14.6555 29.3231 14.5077 29.102C14.3575 28.8809 14.1862 28.6883 14.0196 28.5195C13.9304 28.441 13.846 28.3649 13.7638 28.2912C13.677 28.2247 13.5949 28.1628 13.5175 28.1034C13.3555 27.994 13.2124 27.9013 13.088 27.8323C12.9637 27.7658 12.8651 27.7135 12.7947 27.6802C12.7243 27.6493 12.6868 27.6326 12.6868 27.6326C12.6868 27.6326 12.851 27.654 13.1232 27.7468C13.2593 27.7943 13.4236 27.8585 13.6043 27.9512C13.6934 27.9988 13.7873 28.0535 13.8882 28.1105C13.9844 28.1747 14.083 28.2437 14.1862 28.3174C14.2824 28.4006 14.388 28.4814 14.4866 28.5765C14.5804 28.6788 14.6884 28.7739 14.7752 28.8928C14.9582 29.1234 15.1342 29.3897 15.2562 29.6916C15.3196 29.8414 15.3853 29.996 15.4228 30.16C15.4674 30.3217 15.5143 30.4858 15.5284 30.6617C15.5472 30.8329 15.58 31.016 15.5706 31.1753V31.4225V31.5462C15.5706 31.5723 15.5706 31.5723 15.5706 31.6223L15.5636 31.6865C15.5401 31.8577 15.519 32.0288 15.4979 32.2C15.4533 32.3665 15.4111 32.5353 15.3688 32.6993C15.3172 32.861 15.2421 33.0179 15.1788 33.1725C15.1037 33.3223 15.0122 33.4625 14.9324 33.6028C14.8385 33.736 14.7376 33.8596 14.6414 33.9832C14.5311 34.0926 14.4255 34.202 14.3176 34.3018C14.2003 34.3922 14.0947 34.4873 13.9797 34.5634C13.8624 34.6347 13.7544 34.7108 13.6418 34.7678C13.1983 35.0104 12.7924 35.1221 12.5108 35.1792C12.2269 35.2362 12.0626 35.2386 12.0626 35.2386L12.0673 35.241Z" fill="#003A00"/>
<path d="M8.38798 33.6932C8.38798 33.6932 8.48184 34.0474 8.62263 34.58C8.69537 34.8416 8.7728 35.1483 8.86901 35.4716C8.91125 35.6357 8.96991 35.7974 9.01919 35.9662C9.06846 36.135 9.13182 36.3014 9.18579 36.4702C9.2468 36.6367 9.30781 36.8031 9.36881 36.9671C9.44156 37.1241 9.49553 37.2905 9.56592 37.4379C9.64335 37.5829 9.69967 37.7375 9.77241 37.8683C9.8475 37.999 9.91086 38.1322 9.9789 38.2463C10.0516 38.358 10.115 38.4627 10.1713 38.5578C10.2276 38.6529 10.291 38.7242 10.3356 38.7908C10.4294 38.9192 10.4811 39 10.4811 39C10.4811 39 10.4036 38.9501 10.2722 38.8573C10.2089 38.8074 10.1197 38.7575 10.0399 38.6766C9.95779 38.5982 9.86627 38.5102 9.76772 38.408C9.67151 38.3034 9.58235 38.1821 9.48379 38.0537C9.38524 37.9253 9.30077 37.7779 9.20925 37.6257C9.12243 37.4736 9.04265 37.3095 8.96052 37.1431C8.88778 36.9743 8.81973 36.7983 8.75403 36.6248C8.70006 36.4464 8.63436 36.2705 8.59447 36.0922C8.54754 35.9139 8.51 35.7379 8.47714 35.5667C8.4396 35.3955 8.42083 35.2291 8.40206 35.0698C8.37859 34.9129 8.3739 34.7607 8.36217 34.6228C8.32932 34.0665 8.38328 33.6955 8.38328 33.6955L8.38798 33.6932Z" fill="#003A00"/>
</g>
<g filter="url(#filter0_dii_346_192)">
<path d="M23.8979 28.144C23.4285 28.144 23.0659 28.016 22.8099 27.76C22.5539 27.4933 22.4259 27.1253 22.4259 26.656V18.064C22.4259 17.5733 22.5539 17.2053 22.8099 16.96C23.0659 16.704 23.4285 16.576 23.8979 16.576C24.3779 16.576 24.7405 16.704 24.9859 16.96C25.2419 17.2053 25.3699 17.5733 25.3699 18.064V21.552H25.4019L29.2899 17.264C29.4925 17.0507 29.7059 16.8853 29.9299 16.768C30.1645 16.64 30.4259 16.576 30.7139 16.576C31.1619 16.576 31.4819 16.6933 31.6739 16.928C31.8765 17.152 31.9672 17.4187 31.9459 17.728C31.9352 18.0267 31.8125 18.304 31.5779 18.56L27.7059 22.672V21.472L31.7699 26.064C32.0472 26.3733 32.1859 26.6933 32.1859 27.024C32.1859 27.344 32.0739 27.6107 31.8499 27.824C31.6365 28.0373 31.3165 28.144 30.8899 28.144C30.5272 28.144 30.2339 28.0747 30.0099 27.936C29.7965 27.7867 29.5619 27.568 29.3059 27.28L25.4019 22.912H25.3699V26.656C25.3699 27.1253 25.2472 27.4933 25.0019 27.76C24.7565 28.016 24.3885 28.144 23.8979 28.144ZM35.6887 28.144C35.2407 28.144 34.8941 28.0213 34.6487 27.776C34.4034 27.5307 34.2807 27.1733 34.2807 26.704V18.016C34.2807 17.5467 34.4034 17.1893 34.6487 16.944C34.8941 16.6987 35.2407 16.576 35.6887 16.576C36.1474 16.576 36.4994 16.6987 36.7447 16.944C37.0007 17.1893 37.1287 17.5467 37.1287 18.016V21.504H36.8727C37.1287 21.0027 37.4914 20.6187 37.9607 20.352C38.4407 20.0853 38.9847 19.952 39.5927 19.952C40.2221 19.952 40.7394 20.0747 41.1447 20.32C41.5501 20.5547 41.8541 20.928 42.0567 21.44C42.2594 21.9413 42.3607 22.576 42.3607 23.344V26.704C42.3607 27.1733 42.2381 27.5307 41.9927 27.776C41.7474 28.0213 41.3954 28.144 40.9367 28.144C40.4781 28.144 40.1261 28.0213 39.8807 27.776C39.6354 27.5307 39.5127 27.1733 39.5127 26.704V23.456C39.5127 22.976 39.4274 22.6347 39.2567 22.432C39.0967 22.2293 38.8567 22.128 38.5367 22.128C38.1101 22.128 37.7687 22.2667 37.5127 22.544C37.2567 22.8107 37.1287 23.1733 37.1287 23.632V26.704C37.1287 27.664 36.6487 28.144 35.6887 28.144ZM46.9279 28.176C46.2452 28.176 45.6852 28.0533 45.2479 27.808C44.8105 27.552 44.4799 27.1733 44.2559 26.672C44.0425 26.1707 43.9359 25.536 43.9359 24.768V21.408C43.9359 20.9387 44.0585 20.5867 44.3039 20.352C44.5492 20.1067 44.9012 19.984 45.3599 19.984C45.8185 19.984 46.1705 20.1067 46.4159 20.352C46.6612 20.5867 46.7839 20.9387 46.7839 21.408V24.848C46.7839 25.232 46.8639 25.52 47.0239 25.712C47.1839 25.904 47.4345 26 47.7759 26C48.1599 26 48.4745 25.8613 48.7199 25.584C48.9652 25.3067 49.0879 24.9387 49.0879 24.48V21.408C49.0879 20.9387 49.2105 20.5867 49.4559 20.352C49.7012 20.1067 50.0532 19.984 50.5119 19.984C50.9705 19.984 51.3225 20.1067 51.5679 20.352C51.8132 20.5867 51.9359 20.9387 51.9359 21.408V26.704C51.9359 27.664 51.4772 28.144 50.5599 28.144C50.1119 28.144 49.7652 28.0213 49.5199 27.776C49.2745 27.5307 49.1519 27.1733 49.1519 26.704V25.776L49.4079 26.56C49.1732 27.0827 48.8425 27.4827 48.4159 27.76C47.9999 28.0373 47.5039 28.176 46.9279 28.176ZM47.9519 19.248C47.6959 19.248 47.4932 19.2053 47.3439 19.12C47.2052 19.0347 47.1359 18.912 47.1359 18.752C47.1359 18.5493 47.1732 18.384 47.2479 18.256C47.3332 18.1173 47.4239 18 47.5199 17.904C47.6265 17.7973 47.7172 17.696 47.7919 17.6C47.8772 17.504 47.9199 17.3973 47.9199 17.28C47.9199 17.152 47.8719 17.0613 47.7759 17.008C47.6799 16.9547 47.5519 16.928 47.3919 16.928C47.3279 16.928 47.2639 16.9333 47.1999 16.944C47.1359 16.944 47.0559 16.9547 46.9599 16.976C46.7359 17.0293 46.5599 17.04 46.4319 17.008C46.3145 16.976 46.2185 16.8693 46.1439 16.688C46.0799 16.5067 46.0745 16.3467 46.1279 16.208C46.1919 16.0587 46.3359 15.9467 46.5599 15.872C46.7839 15.7973 47.0239 15.744 47.2799 15.712C47.5359 15.68 47.8025 15.664 48.0799 15.664C48.6772 15.664 49.1412 15.7707 49.4719 15.984C49.8025 16.1867 49.9679 16.48 49.9679 16.864C49.9679 17.1413 49.9039 17.3653 49.7759 17.536C49.6585 17.7067 49.5199 17.8507 49.3599 17.968C49.2105 18.0853 49.0719 18.208 48.9439 18.336C48.8265 18.464 48.7679 18.6187 48.7679 18.8C48.7679 18.9387 48.6985 19.0507 48.5599 19.136C48.4212 19.2107 48.2185 19.248 47.9519 19.248ZM55.0012 28.144C54.5532 28.144 54.2066 28.0213 53.9612 27.776C53.7159 27.5307 53.5932 27.1733 53.5932 26.704V21.408C53.5932 20.9493 53.7106 20.5973 53.9452 20.352C54.1906 20.1067 54.5372 19.984 54.9852 19.984C55.4332 19.984 55.7746 20.1067 56.0092 20.352C56.2439 20.5973 56.3612 20.9493 56.3612 21.408V22.16L56.1852 21.504C56.4412 21.0027 56.8039 20.6187 57.2732 20.352C57.7532 20.0853 58.2972 19.952 58.9052 19.952C59.5346 19.952 60.0519 20.0747 60.4572 20.32C60.8626 20.5547 61.1666 20.928 61.3692 21.44C61.5719 21.9413 61.6732 22.576 61.6732 23.344V26.704C61.6732 27.1733 61.5506 27.5307 61.3052 27.776C61.0599 28.0213 60.7079 28.144 60.2492 28.144C59.7906 28.144 59.4386 28.0213 59.1932 27.776C58.9479 27.5307 58.8252 27.1733 58.8252 26.704V23.456C58.8252 22.976 58.7399 22.6347 58.5692 22.432C58.4092 22.2293 58.1692 22.128 57.8492 22.128C57.4226 22.128 57.0812 22.2667 56.8252 22.544C56.5692 22.8107 56.4412 23.1733 56.4412 23.632V26.704C56.4412 27.664 55.9612 28.144 55.0012 28.144ZM67.2004 31.056C66.6137 31.056 66.0644 31.0133 65.5524 30.928C65.0404 30.8533 64.5977 30.7413 64.2244 30.592C63.915 30.4853 63.6964 30.3307 63.5684 30.128C63.4404 29.9253 63.3817 29.712 63.3924 29.488C63.403 29.264 63.4617 29.0613 63.5684 28.88C63.6857 28.6987 63.8404 28.5653 64.0324 28.48C64.2244 28.4053 64.4377 28.4107 64.6724 28.496C65.1417 28.688 65.5684 28.8107 65.9524 28.864C66.3364 28.928 66.6617 28.96 66.9284 28.96C67.579 28.96 68.0644 28.8213 68.3844 28.544C68.715 28.2773 68.8804 27.856 68.8804 27.28V26.272H69.0084C68.8484 26.72 68.523 27.088 68.0324 27.376C67.5417 27.6533 67.0084 27.792 66.4324 27.792C65.7284 27.792 65.115 27.632 64.5924 27.312C64.0697 26.9813 63.659 26.5227 63.3604 25.936C63.0724 25.3493 62.9284 24.6613 62.9284 23.872C62.9284 23.2747 63.0137 22.736 63.1844 22.256C63.355 21.776 63.5897 21.3653 63.8884 21.024C64.1977 20.6827 64.5657 20.4213 64.9924 20.24C65.4297 20.048 65.9097 19.952 66.4324 19.952C67.0297 19.952 67.563 20.0907 68.0324 20.368C68.5124 20.6453 68.8324 21.008 68.9924 21.456L68.8324 22.112V21.408C68.8324 20.9493 68.955 20.5973 69.2004 20.352C69.4564 20.1067 69.8084 19.984 70.2564 19.984C70.7044 19.984 71.0457 20.1067 71.2804 20.352C71.5257 20.5973 71.6484 20.9493 71.6484 21.408V26.944C71.6484 28.3093 71.2644 29.3333 70.4964 30.016C69.7284 30.7093 68.6297 31.056 67.2004 31.056ZM67.3124 25.696C67.6324 25.696 67.9044 25.6267 68.1284 25.488C68.3524 25.3387 68.5284 25.1307 68.6564 24.864C68.7844 24.5867 68.8484 24.256 68.8484 23.872C68.8484 23.296 68.7097 22.848 68.4324 22.528C68.155 22.208 67.7817 22.048 67.3124 22.048C67.0137 22.048 66.747 22.1227 66.5124 22.272C66.2777 22.4107 66.0964 22.6187 65.9684 22.896C65.851 23.1627 65.7924 23.488 65.7924 23.872C65.7924 24.448 65.931 24.896 66.2084 25.216C66.4857 25.536 66.8537 25.696 67.3124 25.696ZM80.8821 28.176C79.8581 28.176 79.1008 27.904 78.6101 27.36C78.1301 26.8053 77.8901 25.9733 77.8901 24.864V18.016C77.8901 17.5467 78.0128 17.1893 78.2581 16.944C78.5034 16.6987 78.8501 16.576 79.2981 16.576C79.7568 16.576 80.1088 16.6987 80.3541 16.944C80.6101 17.1893 80.7381 17.5467 80.7381 18.016V24.768C80.7381 25.1627 80.8128 25.4507 80.9621 25.632C81.1221 25.8133 81.3248 25.904 81.5701 25.904C81.6448 25.904 81.7194 25.8987 81.7941 25.888C81.8794 25.8667 81.9701 25.8507 82.0661 25.84C82.2474 25.84 82.3808 25.9093 82.4661 26.048C82.5621 26.1867 82.6101 26.4693 82.6101 26.896C82.6101 27.2693 82.5354 27.552 82.3861 27.744C82.2368 27.9253 82.0074 28.0427 81.6981 28.096C81.6128 28.1067 81.4901 28.1227 81.3301 28.144C81.1701 28.1653 81.0208 28.176 80.8821 28.176ZM87.3585 28.176C86.4838 28.176 85.7211 28.0107 85.0705 27.68C84.4198 27.3493 83.9131 26.8747 83.5505 26.256C83.1878 25.6373 83.0065 24.9067 83.0065 24.064C83.0065 23.424 83.1078 22.8533 83.3105 22.352C83.5131 21.84 83.8065 21.408 84.1905 21.056C84.5745 20.6933 85.0331 20.4213 85.5665 20.24C86.0998 20.048 86.6971 19.952 87.3585 19.952C88.2331 19.952 88.9958 20.1173 89.6465 20.448C90.2971 20.7787 90.7985 21.2533 91.1505 21.872C91.5131 22.48 91.6945 23.2107 91.6945 24.064C91.6945 24.6933 91.5931 25.264 91.3905 25.776C91.1878 26.288 90.8945 26.7253 90.5105 27.088C90.1371 27.44 89.6785 27.712 89.1345 27.904C88.6011 28.0853 88.0091 28.176 87.3585 28.176ZM87.3585 26.08C87.6465 26.08 87.9025 26.0107 88.1265 25.872C88.3505 25.7227 88.5211 25.504 88.6385 25.216C88.7665 24.9173 88.8305 24.5333 88.8305 24.064C88.8305 23.3493 88.6918 22.8373 88.4145 22.528C88.1371 22.208 87.7851 22.048 87.3585 22.048C87.0705 22.048 86.8145 22.1173 86.5905 22.256C86.3665 22.3947 86.1905 22.6133 86.0625 22.912C85.9345 23.2 85.8705 23.584 85.8705 24.064C85.8705 24.768 86.0091 25.28 86.2865 25.6C86.5638 25.92 86.9211 26.08 87.3585 26.08ZM94.4075 28.144C93.9595 28.144 93.6128 28.0213 93.3675 27.776C93.1221 27.5307 92.9995 27.1733 92.9995 26.704V21.408C92.9995 20.9493 93.1168 20.5973 93.3515 20.352C93.5968 20.1067 93.9435 19.984 94.3915 19.984C94.8395 19.984 95.1808 20.1067 95.4155 20.352C95.6501 20.5973 95.7675 20.9493 95.7675 21.408V22.16L95.5915 21.504C95.8475 21.0027 96.2101 20.6187 96.6795 20.352C97.1595 20.0853 97.7035 19.952 98.3115 19.952C98.9408 19.952 99.4581 20.0747 99.8635 20.32C100.269 20.5547 100.573 20.928 100.775 21.44C100.978 21.9413 101.079 22.576 101.079 23.344V26.704C101.079 27.1733 100.957 27.5307 100.711 27.776C100.466 28.0213 100.114 28.144 99.6555 28.144C99.1968 28.144 98.8448 28.0213 98.5995 27.776C98.3541 27.5307 98.2315 27.1733 98.2315 26.704V23.456C98.2315 22.976 98.1461 22.6347 97.9755 22.432C97.8155 22.2293 97.5755 22.128 97.2555 22.128C96.8288 22.128 96.4875 22.2667 96.2315 22.544C95.9755 22.8107 95.8475 23.1733 95.8475 23.632V26.704C95.8475 27.664 95.3675 28.144 94.4075 28.144ZM106.607 31.056C106.02 31.056 105.471 31.0133 104.959 30.928C104.447 30.8533 104.004 30.7413 103.631 30.592C103.321 30.4853 103.103 30.3307 102.975 30.128C102.847 29.9253 102.788 29.712 102.799 29.488C102.809 29.264 102.868 29.0613 102.975 28.88C103.092 28.6987 103.247 28.5653 103.439 28.48C103.631 28.4053 103.844 28.4107 104.079 28.496C104.548 28.688 104.975 28.8107 105.359 28.864C105.743 28.928 106.068 28.96 106.335 28.96C106.985 28.96 107.471 28.8213 107.791 28.544C108.121 28.2773 108.287 27.856 108.287 27.28V26.272H108.415C108.255 26.72 107.929 27.088 107.439 27.376C106.948 27.6533 106.415 27.792 105.839 27.792C105.135 27.792 104.521 27.632 103.999 27.312C103.476 26.9813 103.065 26.5227 102.767 25.936C102.479 25.3493 102.335 24.6613 102.335 23.872C102.335 23.2747 102.42 22.736 102.591 22.256C102.761 21.776 102.996 21.3653 103.295 21.024C103.604 20.6827 103.972 20.4213 104.399 20.24C104.836 20.048 105.316 19.952 105.839 19.952C106.436 19.952 106.969 20.0907 107.439 20.368C107.919 20.6453 108.239 21.008 108.399 21.456L108.239 22.112V21.408C108.239 20.9493 108.361 20.5973 108.607 20.352C108.863 20.1067 109.215 19.984 109.663 19.984C110.111 19.984 110.452 20.1067 110.687 20.352C110.932 20.5973 111.055 20.9493 111.055 21.408V26.944C111.055 28.3093 110.671 29.3333 109.903 30.016C109.135 30.7093 108.036 31.056 106.607 31.056ZM106.719 25.696C107.039 25.696 107.311 25.6267 107.535 25.488C107.759 25.3387 107.935 25.1307 108.063 24.864C108.191 24.5867 108.255 24.256 108.255 23.872C108.255 23.296 108.116 22.848 107.839 22.528C107.561 22.208 107.188 22.048 106.719 22.048C106.42 22.048 106.153 22.1227 105.919 22.272C105.684 22.4107 105.503 22.6187 105.375 22.896C105.257 23.1627 105.199 23.488 105.199 23.872C105.199 24.448 105.337 24.896 105.615 25.216C105.892 25.536 106.26 25.696 106.719 25.696Z" fill="white"/>
</g>
</g>
<defs>
<filter id="filter0_dii_346_192" x="19.999" y="14.4505" width="93.4825" height="20.2458" filterUnits="userSpaceOnUse" color-interpolation-filters="sRGB">
<feFlood flood-opacity="0" result="BackgroundImageFix"/>
<feColorMatrix in="SourceAlpha" type="matrix" values="0 0 0 0 0 0 0 0 0 0 0 0 0 0 0 0 0 0 127 0" result="hardAlpha"/>
<feOffset dy="1.21346"/>
<feGaussianBlur stdDeviation="1.21346"/>
<feComposite in2="hardAlpha" operator="out"/>
<feColorMatrix type="matrix" values="0 0 0 0 0.245192 0 0 0 0 0 0 0 0 0 0.147115 0 0 0 0.29 0"/>
<feBlend mode="multiply" in2="BackgroundImageFix" result="effect1_dropShadow_346_192"/>
<feBlend mode="normal" in="SourceGraphic" in2="effect1_dropShadow_346_192" result="shape"/>
<feColorMatrix in="SourceAlpha" type="matrix" values="0 0 0 0 0 0 0 0 0 0 0 0 0 0 0 0 0 0 127 0" result="hardAlpha"/>
<feOffset dy="-0.60673"/>
<feGaussianBlur stdDeviation="0.303365"/>
<feComposite in2="hardAlpha" operator="arithmetic" k2="-1" k3="1"/>
<feColorMatrix type="matrix" values="0 0 0 0 0.740385 0 0 0 0 0 0 0 0 0 0.201333 0 0 0 0.64 0"/>
<feBlend mode="multiply" in2="shape" result="effect2_innerShadow_346_192"/>
<feColorMatrix in="SourceAlpha" type="matrix" values="0 0 0 0 0 0 0 0 0 0 0 0 0 0 0 0 0 0 127 0" result="hardAlpha"/>
<feOffset dy="0.60673"/>
<feGaussianBlur stdDeviation="0.303365"/>
<feComposite in2="hardAlpha" operator="arithmetic" k2="-1" k3="1"/>
<feColorMatrix type="matrix" values="0 0 0 0 1 0 0 0 0 0.677885 0 0 0 0 0.771899 0 0 0 0.23 0"/>
<feBlend mode="normal" in2="effect2_innerShadow_346_192" result="effect3_innerShadow_346_192"/>
</filter>
<linearGradient id="paint0_linear_346_192" x1="58.2279" y1="39.4027" x2="58.2279" y2="6.69522" gradientUnits="userSpaceOnUse">
<stop stop-color="#FF5B8B"/>
<stop offset="1" stop-color="#FC98AF"/>
</linearGradient>
<clipPath id="clip0_346_192">
<rect width="24" height="39" fill="white" transform="translate(0.0720215)"/>
</clipPath>
</defs>
</svg>
