<svg width="117" height="39" viewBox="0 0 117 39" fill="none" xmlns="http://www.w3.org/2000/svg">
<g opacity="0.9">
<path d="M116.464 21.855V22.2247C116.464 24.9352 115.799 27.4815 114.608 29.7321C111.889 34.874 106.492 38.3977 100.307 38.3977H16.1648C10.5383 38.3977 5.56897 35.4818 2.66128 31.1038V31.0874C0.977439 28.5411 0 25.4938 0 22.2247V21.855C0 19.0131 0.747451 16.3271 2.04524 14.0026C4.82151 9.05788 10.1194 5.6902 16.1648 5.6902H100.307C107.281 5.6902 113.269 10.175 115.511 16.4093C116.127 18.1177 116.464 19.9494 116.464 21.855Z" fill="url(#paint0_linear_346_343)"/>
<g opacity="0.32">
<path d="M115.511 16.4095C110.887 6.95537 16.0333 -0.502792 2.05339 14.0111H2.04517C4.82144 9.05811 10.1194 5.69044 16.1648 5.69044H100.307C107.281 5.69044 113.269 10.1752 115.511 16.4095Z" fill="#FF7E8B"/>
</g>
<g>
<path d="M114.599 29.7324C111.881 34.8742 106.484 38.398 100.299 38.398H16.1566C10.5301 38.398 5.56077 35.482 2.65308 31.1041V31.0876C13.0354 41.511 96.7262 38.2255 114.599 29.7324Z" fill="#FF459D"/>
</g>
<g opacity="0.32">
<path d="M72.175 6.15033C73.5056 7.05385 94.262 8.58162 104.587 11.0458C114.912 13.5099 113.622 11.169 108.431 7.89166C103.24 4.61434 71.7478 5.85462 72.175 6.14211V6.15033Z" fill="#FF7E8B"/>
</g>
<path d="M95.9048 9.12369C95.3217 9.63295 102.599 10.6925 102.837 10.2326C103.067 9.76438 100.102 5.46032 95.9048 9.12369Z" fill="#F8EEF9"/>
<path d="M78.2204 6.99649C78.0233 7.43182 80.6845 7.8343 80.627 6.99649C80.5695 6.15867 78.7954 5.6987 78.2204 6.99649Z" fill="#F8EEF9"/>
<g clip-path="url(#clip0_346_343)">
<path d="M27.9658 25.4258C27.8347 25.7795 27.66 26.1268 27.4438 26.4587C26.9503 27.2143 26.2842 27.8345 25.5177 28.2516C23.7511 29.2124 21.3926 29.3042 19.0494 28.5027C17.7719 28.066 16.062 27.2077 15.1797 25.6005C14.8106 24.9279 14.649 24.1089 14.7211 23.3424C14.9941 23.3075 15.2518 23.2835 15.4745 23.3337C15.5553 23.3512 15.6339 23.3796 15.7104 23.4123C16.0205 23.5564 16.2978 23.8294 16.6101 24.1351C16.9377 24.4562 17.2783 24.7859 17.7107 25.0218C18.6825 25.5459 19.9163 25.4847 21.4865 24.834C21.6372 24.7706 21.79 24.7051 21.9429 24.6396C22.8251 24.2618 23.6572 23.9058 24.4957 23.9735C25.1967 24.0325 25.8693 24.3906 26.5812 24.7706C26.7559 24.8623 26.9306 24.9562 27.1097 25.0458C27.3892 25.1855 27.6731 25.3188 27.9658 25.4258Z" fill="#F76D4D"/>
<path d="M27.9658 25.4258C27.8347 25.7795 27.66 26.1268 27.4438 26.4587C26.9503 27.2143 26.2842 27.8345 25.5177 28.2516C23.7511 29.2124 21.3926 29.3042 19.0494 28.5027C17.7719 28.066 16.062 27.2077 15.1797 25.6005C14.8106 24.9279 14.649 24.1089 14.7211 23.3424C14.9941 23.3075 15.2518 23.2835 15.4745 23.3337C15.5553 23.3512 15.6339 23.3796 15.7104 23.4123C16.6341 25.0021 18.3877 27.0024 21.3882 27.1335C24.1747 27.2536 26.02 26.0984 27.1097 25.0458C27.3892 25.1855 27.6731 25.3188 27.9658 25.4258Z" fill="#E24134"/>
<path d="M48.7029 28.0266C48.6155 28.411 48.3076 28.756 47.9385 28.8871C47.9385 28.8871 47.9371 28.8878 47.9342 28.8892C47.6961 28.9722 47.5455 29.2059 47.5673 29.457C47.6525 30.4528 47.5214 31.097 47.1371 31.5425C46.8183 31.9116 46.2068 32.1343 45.8028 31.8767C45.6259 31.7653 45.4032 31.7631 45.2263 31.8701C44.0601 32.5624 42.7302 32.6388 41.7541 32.0688C41.5903 31.9727 41.3872 31.9706 41.219 32.0601C39.6161 32.9096 37.9958 33.0559 36.6549 32.4685C36.5239 32.4095 36.3754 32.4051 36.2422 32.4554C35.2115 32.8419 34.196 32.8222 33.3006 32.4051C33.1674 32.3418 33.0168 32.3353 32.8792 32.3855C31.2916 32.9642 29.5489 33.0057 27.9679 32.5012C27.839 32.4597 27.6992 32.4685 27.5748 32.5252C26.5309 32.9969 25.3997 33.0057 24.3908 32.5449C24.2816 32.4947 24.1593 32.4837 24.0436 32.51C22.6088 32.831 21.2549 32.7545 19.9446 32.6803L15.8828 32.4532C15.1359 32.4117 14.5223 31.8483 14.4568 31.1407C14.4262 30.8175 14.4983 30.5118 14.6708 30.2607C14.7778 30.1012 14.7953 29.8982 14.7145 29.7213C14.6621 29.6099 14.6206 29.4941 14.5878 29.374C14.3782 28.6403 14.5136 27.8017 14.9372 27.1619C16.0269 28.4219 17.5206 29.1447 18.6933 29.5444C19.866 29.944 21.0453 30.1427 22.1721 30.1427C23.5828 30.1427 24.9127 29.8326 26.0439 29.2168C26.8323 28.7888 27.5311 28.1817 28.088 27.4479C30.6692 28.6403 33.3269 29.7431 35.9954 30.728C36.0566 30.752 36.1221 30.7629 36.1854 30.7629C36.3405 30.7629 36.4933 30.6952 36.6003 30.5729C37.4127 29.6405 38.2513 28.6949 39.1488 27.6947C39.9241 28.1686 40.8391 28.5049 41.8851 28.6905C42.4398 28.7888 42.9923 28.8368 43.5339 28.8368C45.4403 28.8368 47.2244 28.2407 48.5478 27.1357C48.7072 27.3999 48.7684 27.7297 48.7029 28.0266Z" fill="#A55F30"/>
<path d="M47.9385 28.8871C47.9385 28.8871 47.9364 28.8892 47.9342 28.8892C47.6961 28.9722 47.5455 29.2059 47.5673 29.457C47.6525 30.4528 47.5214 31.097 47.1371 31.5425C46.8183 31.9116 46.2068 32.1343 45.8028 31.8767C45.6259 31.7653 45.4032 31.7631 45.2263 31.8701C44.0601 32.5624 42.7302 32.6388 41.7541 32.0688C41.5903 31.9727 41.3872 31.9706 41.219 32.0601C39.6161 32.9096 37.9958 33.0559 36.6549 32.4685C36.5239 32.4095 36.3754 32.4051 36.2422 32.4554C35.2115 32.8419 34.196 32.8222 33.3006 32.4051C33.1674 32.3418 33.0168 32.3352 32.8792 32.3855C31.2916 32.9642 29.5489 33.0057 27.9679 32.5012C27.839 32.4597 27.6992 32.4685 27.5748 32.5252C26.5309 32.9969 25.3997 33.0057 24.3908 32.5449C24.2816 32.4947 24.1593 32.4837 24.0436 32.51C22.6088 32.831 21.2549 32.7545 19.9446 32.6803L15.8828 32.4532C15.1359 32.4117 14.5223 31.8483 14.4568 31.1407C14.4262 30.8175 14.4983 30.5118 14.6708 30.2607C14.7778 30.1012 14.7953 29.8981 14.7145 29.7213C14.6621 29.6099 14.6206 29.4941 14.5878 29.374C15.4111 30.4179 16.8699 30.966 18.167 30.6232C19.8114 31.8504 22.1 32.1584 24.0108 31.4071C24.203 31.3329 24.3952 31.2477 24.5983 31.2259C24.8647 31.1975 25.1289 31.2827 25.3866 31.3525C27.3957 31.9029 29.6122 31.6561 31.4532 30.6778C32.7613 31.4836 34.4581 31.619 35.8797 31.0315C36.1308 30.9267 36.3841 30.7979 36.6571 30.8022C36.8668 30.8066 37.0655 30.8874 37.2664 30.9529C38.5767 31.394 40.0857 31.2062 41.2496 30.4594C42.0096 30.7149 42.7936 30.9027 43.5863 31.0162C44.0645 31.0861 44.5537 31.1276 45.0254 31.0359C46.2243 30.8066 47.0912 29.7911 47.8556 28.839C47.8818 28.8565 47.9102 28.874 47.9385 28.8871Z" fill="#91512D"/>
<path d="M17.7477 31.0119C17.6843 30.8503 17.5948 30.7236 17.4834 30.5948C17.4528 30.5598 17.4245 30.5227 17.3961 30.4878C17.3786 30.4681 17.3699 30.4572 17.3633 30.4506C17.3131 30.3786 17.2694 30.3021 17.2192 30.2257C17.2148 30.217 17.2083 30.2104 17.2039 30.2039C17.2039 30.2017 17.2039 30.1995 17.2039 30.1973C17.1886 30.1427 17.1711 30.0903 17.1602 30.0357C17.075 29.6601 16.6208 29.4024 16.2539 29.5203C15.8543 29.6492 15.6556 30.0226 15.7386 30.4266C15.8106 30.7651 15.9788 31.097 16.219 31.3438C16.4942 31.6255 16.9353 31.8504 17.3327 31.7391C17.6188 31.6583 17.8656 31.3089 17.7477 31.0075" fill="#C97C47"/>
<path d="M20.6696 31.0053C20.5735 30.8743 20.4796 30.7782 20.3595 30.6734C20.318 30.6363 20.2744 30.6013 20.2329 30.5598C20.1936 30.5205 20.0647 30.3524 20.1914 30.5227C20.0887 30.3829 19.9796 30.2759 19.807 30.2279C19.6542 30.1864 19.4489 30.2039 19.3113 30.2934C19.0405 30.4681 18.8702 30.8808 19.0798 31.1735C19.331 31.5207 19.7088 31.9007 20.1783 31.857C20.3814 31.8373 20.5583 31.7609 20.6674 31.5775C20.7613 31.4159 20.7832 31.1647 20.6674 31.0053" fill="#C97C47"/>
<path d="M28.3239 29.5553C28.206 29.409 27.9701 29.2911 27.778 29.3697C27.3084 29.5618 26.935 29.9003 26.5572 30.2279C26.3105 30.4419 26.3214 30.8918 26.5572 31.108C26.8193 31.3504 27.1752 31.3373 27.4373 31.108C27.7714 30.8175 28.1383 30.5205 28.3632 30.1296C28.468 29.9506 28.4506 29.7147 28.3217 29.5531" fill="#C97C47"/>
<path d="M30.7063 30.1711C30.5426 29.9593 30.2827 29.9309 30.049 30.0401C29.9857 30.0685 29.9245 30.0991 29.8612 30.1274C29.8437 30.1362 29.6909 30.2061 29.7389 30.1842C29.787 30.1624 29.6341 30.2257 29.6144 30.2323C29.5489 30.2563 29.4856 30.2803 29.4201 30.3C29.134 30.3873 28.9244 30.704 29.0205 31.0031C29.1144 31.2914 29.4179 31.4967 29.7236 31.4028C30.0774 31.2936 30.4159 31.1189 30.6648 30.8394C30.8352 30.6494 30.8658 30.3786 30.7042 30.1711" fill="#C97C47"/>
<path d="M41.2934 30.6603C41.1034 30.2978 40.8676 29.9702 40.623 29.6426C40.4112 29.3588 40.0552 29.2386 39.7473 29.4767C39.4437 29.7103 39.4678 30.0859 39.6861 30.3655C39.9395 30.6865 40.195 30.9988 40.4963 31.2761C40.9244 31.667 41.562 31.1778 41.2934 30.6625" fill="#C97C47"/>
<path d="M43.6148 29.6426C43.4597 29.5662 43.3025 29.5051 43.1409 29.4461C43.0251 29.4024 42.857 29.4352 42.7543 29.4963C42.6495 29.5575 42.5512 29.6776 42.5229 29.7977C42.4617 30.0685 42.6037 30.3371 42.8744 30.4157C42.9989 30.4528 43.1212 30.4878 43.2501 30.5118C43.4859 30.5555 43.713 30.4659 43.8113 30.2366C43.8986 30.0314 43.8309 29.7475 43.6169 29.6426" fill="#C97C47"/>
<path d="M49.2116 15.7996C48.7573 17.1754 47.5082 18.1909 46.0298 18.3896C39.1072 19.3134 32.4751 19.4422 26.0591 19.5689C23.8797 19.6103 21.626 19.654 19.4182 19.4924C17.5445 19.3548 16.0312 17.8895 15.8193 16.0115C15.7473 15.3738 15.7254 14.7318 15.7516 14.0941C15.8696 11.395 16.8654 8.76568 18.56 6.80246C20.9993 3.97446 24.8777 2.16411 30.0882 1.41944C31.5775 1.20542 33.0035 1.09842 34.3618 1.09842C36.681 1.09842 38.8015 1.40852 40.6992 2.02653C44.2981 3.19922 47.1959 5.5577 48.6525 8.50144C48.9932 9.1937 49.2509 9.92964 49.4212 10.6852C49.8055 12.3929 49.7422 14.1967 49.2116 15.7996Z" fill="#FFCA8A"/>
<path d="M49.2116 15.7996C48.7573 17.1754 47.5082 18.1909 46.0298 18.3896C39.1072 19.3134 32.4751 19.4422 26.0591 19.5689C23.8797 19.6103 21.626 19.654 19.4182 19.4924C17.5445 19.3548 16.0312 17.8895 15.8193 16.0115C15.7473 15.3738 15.7254 14.7318 15.7516 14.0941C16.1622 14.5724 16.6885 14.9676 17.2541 15.2428C18.5316 15.8608 19.986 15.9787 21.4011 16.0573C29.2627 16.4897 37.1767 16.0027 44.927 14.6095C46.4163 14.3431 48.0716 13.926 48.8534 12.631C49.1723 12.1047 49.3055 11.4867 49.395 10.8774C49.4037 10.8141 49.4125 10.7486 49.4212 10.6852C49.8055 12.3929 49.7422 14.1967 49.2116 15.7996Z" fill="#F4A269"/>
<path d="M25.9609 18.8111C24.9804 18.8111 24.002 18.7914 23.0259 18.7456C20.6543 18.6342 17.8962 18.3569 15.4198 17.147C15.2647 17.0706 15.1992 16.8828 15.2756 16.7256C15.3521 16.5705 15.5399 16.505 15.6949 16.5814C18.0709 17.7388 20.7482 18.0075 23.0564 18.1166C26.8344 18.2957 30.6757 18.073 34.3925 17.8568L42.1886 17.4047C43.4988 17.3283 44.855 17.2497 46.1237 16.885C47.2746 16.5531 48.6919 16.0399 49.4431 14.9938C49.5457 14.8541 49.7401 14.8213 49.882 14.9218C50.024 15.0222 50.0545 15.2188 49.9541 15.3607C49.0893 16.5618 47.5454 17.1296 46.2984 17.4899C44.962 17.8742 43.5709 17.955 42.2257 18.0337L34.4296 18.4857C31.654 18.6473 28.8063 18.8111 25.9631 18.8111" fill="#BA6D38"/>
<path d="M30.276 2.82361C29.9922 2.56156 29.5139 2.52225 29.2344 2.82361C28.8304 3.26037 28.101 4.1186 28.6928 4.69075C28.8872 4.87855 29.171 4.91568 29.4156 4.81304C29.6231 4.72569 29.7541 4.57501 29.883 4.39594C29.9594 4.29111 30.0271 4.17756 30.1013 4.07055C30.1101 4.05745 30.1166 4.04872 30.121 4.04216C30.1275 4.03561 30.1341 4.02688 30.1472 4.01377C30.1909 3.96573 30.2324 3.9155 30.2782 3.86746C30.5381 3.58357 30.5796 3.10314 30.2782 2.8258" fill="#F4A269"/>
<path d="M25.937 3.85873C25.5134 3.63598 25.0701 3.77574 24.8058 4.15572C24.57 4.49421 24.1747 4.92223 24.2228 5.36335C24.249 5.60575 24.3167 5.79574 24.5154 5.94861C24.7054 6.09492 24.9303 6.13859 25.164 6.08182C25.6706 5.95952 25.9545 5.38737 26.234 4.99211C26.4852 4.63834 26.3083 4.05745 25.937 3.86091" fill="#F4A269"/>
<path d="M34.7398 3.25818C34.7201 2.99831 34.6633 2.73844 34.6175 2.48076C34.5454 2.06802 34.0191 1.79942 33.637 1.92389C33.198 2.06584 32.9971 2.46547 33.0801 2.90441C33.1718 3.39139 33.2417 3.93297 33.709 4.2125C33.923 4.34134 34.3008 4.32824 34.469 4.11422C34.6677 3.86091 34.7638 3.58138 34.7398 3.256" fill="#F4A269"/>
<path d="M38.8433 2.47857C38.5856 2.14227 38.1336 1.92826 37.7318 2.18813C37.3911 2.40869 37.1749 2.93061 37.4413 3.29967C37.8497 3.86527 38.2406 4.61868 39.0049 4.69729C39.267 4.7235 39.5793 4.47892 39.6295 4.22123C39.7649 3.52897 39.2342 2.98958 38.8433 2.48075" fill="#F4A269"/>
<path d="M43.7238 4.66235C43.5163 4.33697 43.0577 4.17755 42.7149 4.39811C42.3895 4.60776 42.2301 5.05762 42.4507 5.40702C42.68 5.76953 42.918 6.16916 43.3438 6.31329C43.5338 6.37662 43.7435 6.31766 43.8963 6.19973C44.0645 6.06871 44.1234 5.90929 44.1453 5.70183C44.1846 5.33277 43.9116 4.95935 43.7238 4.66235Z" fill="#F4A269"/>
<path d="M21.8839 7.07762C21.8446 6.93567 21.7332 6.78063 21.6 6.70856C21.3227 6.56225 20.9078 6.62121 20.7571 6.92912C20.6348 7.17807 20.4623 7.47507 20.4907 7.76333C20.5081 7.95987 20.5824 8.1302 20.7614 8.23284C20.9252 8.32893 21.148 8.33548 21.3096 8.23284C21.5607 8.07124 21.6961 7.81137 21.8228 7.5515C21.897 7.40082 21.9298 7.24359 21.8861 7.07544" fill="#F4A269"/>
<path d="M43.9818 9.49725C43.9643 9.36841 43.9446 9.23738 43.9272 9.10854C43.9141 9.01245 43.8136 8.90326 43.7328 8.8574C43.6433 8.80499 43.5101 8.78315 43.4096 8.81591C43.1781 8.89016 43.0711 9.10198 43.1148 9.33347C43.1388 9.46231 43.165 9.58897 43.1891 9.71781C43.2305 9.92964 43.4948 10.0694 43.6935 10.0039C43.794 9.97113 43.8879 9.90998 43.9381 9.81608C43.9927 9.71126 43.9949 9.61517 43.9796 9.49943" fill="#F4A269"/>
<path d="M21.8752 10.4166C21.8228 10.3271 21.7201 10.2419 21.6175 10.2179C21.5061 10.1917 21.3838 10.1982 21.2856 10.2616C21.1917 10.3227 21.1152 10.4101 21.0868 10.5193C21.065 10.6066 21.0453 10.6918 21.0301 10.7791C21.0104 10.8949 21.0126 11.0019 21.0737 11.1067C21.1261 11.1941 21.2266 11.2792 21.3271 11.3011C21.5629 11.3557 21.7725 11.2312 21.849 11.0041C21.8774 10.9211 21.8992 10.8359 21.921 10.7486C21.9494 10.6394 21.9363 10.5149 21.8774 10.4144" fill="#F4A269"/>
<path d="M47.9212 34.2242C47.9234 34.6894 47.7859 35.148 47.5107 35.5498C47.0739 36.1874 46.3795 36.5696 45.6086 36.6002C36.4804 36.9474 26.9373 36.9911 17.2457 36.729C16.4158 36.7072 15.6646 36.2639 15.2366 35.5432C14.9876 35.1218 14.8784 34.661 14.9112 34.2046C14.9287 33.936 14.9985 33.6695 15.1165 33.414C15.3392 33.4905 15.5751 33.5385 15.8218 33.5516L19.8837 33.7787C21.218 33.8552 22.5937 33.9316 24.1071 33.6215C24.6924 33.8595 25.3169 33.9796 25.9437 33.9796C26.5704 33.9796 27.2234 33.8573 27.8326 33.6106C29.5207 34.1019 31.3551 34.0626 33.0453 33.4926C34.0979 33.925 35.2553 33.9469 36.4193 33.5603C37.9545 34.1565 39.7299 34.0168 41.4725 33.1651C42.678 33.7372 44.1782 33.663 45.5213 32.9642C46.1546 33.2109 46.8621 33.069 47.419 32.7261C47.574 32.9554 47.7007 33.2088 47.7946 33.4839C47.8776 33.7263 47.9191 33.9775 47.9212 34.2242Z" fill="#FFCA8A"/>
<path d="M47.9212 34.2242C47.9234 34.6894 47.7859 35.148 47.5107 35.5498C47.0739 36.1874 46.3795 36.5696 45.6086 36.6002C36.4804 36.9474 26.9373 36.9911 17.2457 36.729C16.4158 36.7072 15.6646 36.2639 15.2366 35.5432C14.9876 35.1217 14.8784 34.661 14.9112 34.2046C16.9356 34.6238 20.9231 35.1261 28.158 34.9951C34.3818 34.8815 42.0119 34.5343 47.9212 34.2242Z" fill="#F4A269"/>
<path d="M27.9439 35.1829C25.5701 35.1829 23.2007 35.1567 20.84 35.1065C18.4357 35.0541 16.2759 34.9623 14.1773 34.3727C14.0091 34.3247 13.9131 34.1521 13.9611 33.984C14.007 33.818 14.1817 33.7198 14.3476 33.7678C16.3742 34.3378 18.4924 34.4273 20.8531 34.4797C29.9551 34.6784 39.1794 34.4928 48.2683 33.925C48.4387 33.9119 48.5915 34.0451 48.6024 34.2198C48.6134 34.3924 48.4823 34.543 48.3076 34.554C41.5597 34.9754 34.7376 35.1851 27.9439 35.1851" fill="#BA6D38"/>
<path d="M49.5983 22.5978C49.5809 23.884 49.0043 25.2183 48.0566 26.1027C46.6087 27.4523 44.3725 28.0135 42.0774 27.6052C41.2497 27.4589 40.5203 27.2077 39.9001 26.8605C40.3369 26.3779 40.7715 25.8996 41.1929 25.4367C41.7345 24.8427 42.2586 24.2749 42.7478 23.7442C42.9072 23.8119 43.071 23.8862 43.2391 23.9648C43.9816 24.3077 44.8202 24.6942 45.7461 24.5239C46.4974 24.3841 47.052 23.9299 47.5871 23.4909C47.9692 23.1765 48.3295 22.8795 48.727 22.7353C48.8493 22.6917 48.9738 22.6589 49.1048 22.6393C49.262 22.613 49.4258 22.6021 49.5983 22.5978Z" fill="#F76D4D"/>
<path d="M49.5983 22.5978C49.5809 23.884 49.0043 25.2183 48.0566 26.1027C46.6087 27.4523 44.3725 28.0135 42.0774 27.6052C41.2497 27.4589 40.5203 27.2077 39.9001 26.8605C40.3369 26.3779 40.7715 25.8996 41.1929 25.4367C42.3875 25.8734 44.3725 26.3866 46.065 25.8232C47.86 25.2249 48.7335 23.6023 49.1048 22.6393C49.262 22.613 49.4258 22.6021 49.5983 22.5978Z" fill="#E24134"/>
<path d="M41.5182 23.4538C40.625 24.4278 39.6358 25.5066 38.6465 26.6072C37.7162 27.6401 36.8536 28.6097 36.0216 29.564C33.5452 28.6403 31.0819 27.6139 28.6841 26.5111C28.826 26.2381 28.9483 25.9564 29.0466 25.6703C29.1296 25.6769 29.2126 25.6813 29.2934 25.6813C29.3916 25.6813 29.4899 25.6769 29.586 25.6682C29.7782 25.6507 29.9616 25.6157 30.1407 25.5677C30.608 25.4454 31.0382 25.2401 31.4575 25.0392C32.0253 24.7663 32.5625 24.5129 33.0975 24.5129C33.6325 24.5129 34.1457 24.7597 34.7026 25.0196C35.3599 25.3275 36.0325 25.6441 36.8252 25.6289C37.0938 25.6245 37.3646 25.5808 37.6245 25.5C37.9149 25.4127 38.1901 25.2882 38.45 25.1397C38.8212 24.9322 39.1706 24.6811 39.5113 24.4365C40.1861 23.9495 40.8259 23.4887 41.5182 23.4538Z" fill="#FFF57D"/>
<path d="M41.5182 23.4538C40.625 24.4278 39.6358 25.5066 38.6465 26.6072C37.7162 27.6401 36.8536 28.6097 36.0216 29.564C33.5452 28.6403 31.0819 27.6139 28.6841 26.5111C28.826 26.2381 28.9483 25.9564 29.0466 25.6703C29.1296 25.6769 29.2126 25.6813 29.2934 25.6813C29.3916 25.6813 29.4899 25.6769 29.586 25.6682C29.7782 25.6507 29.9616 25.6157 30.1407 25.5677L35.5827 28.007L38.45 25.1397C38.8212 24.9322 39.1706 24.6811 39.5113 24.4365C40.1861 23.9495 40.8259 23.4887 41.5182 23.4538Z" fill="#F9D438"/>
<path d="M21.7179 27.3584C21.3859 27.3584 21.0562 27.3366 20.7308 27.2951C18.1518 26.9588 15.9221 25.203 15.1818 22.9253C15.1272 22.7594 15.2189 22.5825 15.3827 22.5301C15.5487 22.4755 15.7256 22.5672 15.778 22.731C16.444 24.7815 18.4662 26.3648 20.8094 26.6705C22.9386 26.9479 25.2556 26.2272 27.1686 24.692C27.304 24.5828 27.5027 24.6047 27.6097 24.7401C27.7189 24.8754 27.6971 25.0742 27.5617 25.1812C25.8059 26.5897 23.7248 27.3562 21.7157 27.3562" fill="#BA1327"/>
<path d="M44.0535 26.332C42.9485 26.332 41.7584 26.0874 40.5377 25.6026C40.3761 25.5393 40.2974 25.3559 40.3608 25.1943C40.4241 25.0327 40.6075 24.9541 40.7691 25.0174C41.9942 25.5022 43.8264 25.9826 45.6018 25.5087C47.2615 25.0654 48.5565 23.7814 48.8229 22.3139C48.8535 22.1435 49.0173 22.03 49.1898 22.0605C49.3601 22.0911 49.4737 22.2549 49.4431 22.4274C49.133 24.1286 47.6546 25.6114 45.7656 26.1158C45.2262 26.26 44.6519 26.332 44.0557 26.332" fill="#BA1327"/>
<path d="M35.4606 28.3411C35.4257 28.3411 35.3907 28.3367 35.358 28.3236L32.8772 27.4698C32.7134 27.413 32.6261 27.2339 32.6829 27.0701C32.7396 26.9064 32.9187 26.819 33.0825 26.8758L35.382 27.6663C35.8952 27.1706 36.3931 26.6814 36.8757 26.2054C37.8584 25.238 38.7865 24.3251 39.7605 23.4385C39.8893 23.3228 40.0881 23.3315 40.2038 23.4604C40.3195 23.5892 40.3108 23.7879 40.182 23.9058C39.2167 24.7837 38.293 25.6922 37.3147 26.6552C36.7862 27.175 36.2424 27.71 35.6768 28.2538C35.6179 28.3105 35.5392 28.3411 35.4584 28.3411" fill="#E5AE00"/>
<path d="M52.4764 20.6848C52.3825 21.187 51.675 21.4818 51.0264 21.5124C50.7731 21.5233 50.5154 21.5124 50.2424 21.5059H50.142C49.5349 21.484 48.9387 21.484 48.3491 21.7024C47.7769 21.912 47.3249 22.2811 46.8881 22.6392C46.4427 23.0061 46.019 23.3533 45.5451 23.4407C44.9642 23.5499 44.3506 23.266 43.702 22.9646C43.4072 22.8292 43.1015 22.6895 42.787 22.5781C42.7848 22.5759 42.7805 22.5759 42.7783 22.5759C42.3371 22.4165 41.9419 22.3444 41.5532 22.351C40.4962 22.3706 39.6686 22.9668 38.8671 23.5433C38.3365 23.9255 37.832 24.288 37.3035 24.4474C37.1354 24.4998 36.9716 24.526 36.8034 24.5304C36.2662 24.5391 35.7378 24.288 35.17 24.0238C34.5301 23.7224 33.8663 23.4145 33.0997 23.4123H33.091C32.307 23.4123 31.6322 23.7355 30.9815 24.0478C30.4661 24.2946 29.9791 24.5282 29.4856 24.5719C29.2585 24.5937 29.0248 24.5763 28.7737 24.5195C28.2234 24.3972 27.6774 24.1068 27.0987 23.7988C26.3191 23.3839 25.5133 22.9559 24.5874 22.8773C23.4758 22.7834 22.4756 23.2136 21.5082 23.6285C21.3597 23.6918 21.2134 23.7552 21.0649 23.8163C19.8202 24.3317 18.8942 24.4103 18.2347 24.0543C17.9356 23.8927 17.667 23.6285 17.3787 23.349C16.9354 22.9144 16.4309 22.4209 15.7168 22.2615C15.2495 22.1544 14.7975 22.22 14.3978 22.2767C14.3192 22.2877 14.2428 22.3008 14.1729 22.3095C14.0987 22.3182 14.0244 22.327 13.9502 22.3313C13.5986 22.3597 13.1902 22.2877 13.0723 22.0627C12.9216 21.7767 13.2579 21.2831 13.6248 20.9141C14.162 20.3725 14.7385 19.8637 15.3456 19.3941C15.5531 19.2347 15.7627 19.0797 15.9767 18.929C16.8175 19.8724 18.0076 20.4926 19.3375 20.5887C20.5626 20.6804 21.7965 20.7088 23.0194 20.7088C24.0501 20.7088 25.0765 20.6891 26.0854 20.6695C32.5276 20.5428 39.1903 20.4118 46.1762 19.4793C47.3948 19.3177 48.4932 18.7128 49.2772 17.8306C49.7467 18.0839 50.2097 18.359 50.6595 18.6538C50.9391 18.8351 51.212 19.0251 51.4806 19.2238C51.9895 19.5994 52.5747 20.1585 52.4764 20.6848Z" fill="#90C65D"/>
<path d="M52.1358 18.3416C51.4283 17.8196 50.6814 17.3458 49.9149 16.9243C50.0503 16.6775 50.1661 16.4177 50.2556 16.1447C51.1095 13.5656 50.878 10.5258 49.6376 8.01446C48.0522 4.80648 44.9184 2.24272 41.0379 0.980493C37.8692 -0.0502524 34.1327 -0.270814 29.9333 0.329726C24.452 1.1137 20.3443 3.04854 17.726 6.08399C15.4352 8.74166 14.3127 12.4978 14.7255 16.1338C14.8041 16.8195 15.0159 17.4615 15.3369 18.0315C14.4438 18.6626 13.6074 19.3679 12.843 20.1366C11.9892 20.9949 11.7249 21.8596 12.0962 22.5694C12.3604 23.0782 12.9107 23.3839 13.6096 23.4298C13.5571 24.3579 13.7668 25.31 14.2145 26.1289C14.2319 26.1595 14.2516 26.1879 14.2691 26.2207C13.4174 27.223 13.1575 28.673 13.603 29.9091C13.4021 30.3131 13.3169 30.7782 13.3606 31.2455C13.4196 31.8723 13.7187 32.4357 14.1664 32.8484C13.6467 33.8792 13.6925 35.0955 14.2909 36.1023C14.9111 37.1505 16.0052 37.7947 17.2172 37.8275C21.3816 37.9388 25.5177 37.9956 29.6036 37.9956C35.0543 37.9956 40.4199 37.8952 45.65 37.6964C46.7725 37.6528 47.7814 37.0959 48.4169 36.1678C49.0371 35.2615 49.1899 34.15 48.834 33.1214C48.6833 32.6868 48.4693 32.2916 48.205 31.9356C48.5632 31.37 48.7204 30.6603 48.6877 29.7431C49.2292 29.4243 49.6376 28.8783 49.7774 28.2669C49.9259 27.603 49.7533 26.8758 49.3341 26.3386C50.1901 25.2904 50.6836 23.9495 50.6989 22.613C50.8234 22.613 50.9501 22.613 51.0767 22.6087C52.1599 22.5584 53.3478 22.006 53.5575 20.8857C53.7191 20.0143 53.2408 19.1561 52.1337 18.3394L52.1358 18.3416ZM18.558 6.80464C20.9973 3.97664 24.8757 2.1641 30.0862 1.41943C31.5755 1.20761 33.0015 1.1006 34.3599 1.1006C36.6768 1.1006 38.7995 1.4107 40.695 2.02871C44.2939 3.2014 47.1939 5.55988 48.6483 8.50362C49.7643 10.7617 49.9739 13.4892 49.2096 15.7996C48.7532 17.1754 47.504 18.1931 46.0278 18.3896C39.1052 19.3133 32.4731 19.4444 26.0571 19.5689C23.8777 19.6103 21.624 19.6562 19.4162 19.4924C17.5425 19.3548 16.0292 17.8895 15.8174 16.0093C15.4396 12.6725 16.4638 9.23082 18.558 6.80246V6.80464ZM47.5084 35.5498C47.0717 36.1874 46.3794 36.5718 45.6063 36.6002C36.4781 36.9474 26.9372 36.9911 17.2434 36.7312C16.4135 36.7094 15.6623 36.2639 15.2343 35.5432C14.8368 34.8728 14.7953 34.1019 15.112 33.4162C15.3347 33.4926 15.5728 33.5407 15.8174 33.5538L19.8792 33.7809C21.2135 33.8552 22.5893 33.9338 24.1026 33.6215C24.6879 33.8595 25.3124 33.9796 25.9392 33.9796C26.5659 33.9796 27.2189 33.8573 27.8282 33.6106C29.5162 34.1041 31.3484 34.0626 33.0409 33.4926C34.0934 33.9229 35.2508 33.9469 36.4148 33.5603C37.9478 34.1565 39.7254 34.0168 41.4681 33.1651C42.6735 33.7372 44.1738 33.6652 45.5168 32.9642C46.1479 33.2109 46.8576 33.0712 47.4145 32.7261C47.5696 32.9554 47.6962 33.2088 47.7901 33.4817C48.0303 34.1784 47.9277 34.9318 47.5062 35.5476L47.5084 35.5498ZM48.7029 28.0266C48.6156 28.4132 48.3077 28.7582 47.9342 28.8892C47.6962 28.9722 47.5455 29.2059 47.5674 29.457C47.6547 30.455 47.5215 31.097 47.1394 31.5425C46.8205 31.9116 46.2069 32.1343 45.8029 31.8788C45.6282 31.7675 45.4054 31.7653 45.2264 31.8701C44.0602 32.5624 42.7303 32.6388 41.7541 32.071C41.5904 31.9749 41.3873 31.9706 41.2191 32.0601C39.6184 32.9118 37.998 33.0559 36.6572 32.4685C36.5262 32.4117 36.3777 32.4073 36.2445 32.4575C35.2137 32.8419 34.1983 32.8244 33.3029 32.4051C33.1697 32.3418 33.019 32.3352 32.8814 32.3855C31.2938 32.9642 29.5512 33.0057 27.9701 32.5012C27.8413 32.4597 27.6993 32.4685 27.5748 32.5252C26.531 32.9991 25.402 33.0057 24.3909 32.5471C24.2817 32.4968 24.1594 32.4837 24.0437 32.5099C22.6089 32.831 21.255 32.7545 19.9447 32.6825L15.8829 32.4554C15.136 32.4139 14.5246 31.8504 14.4569 31.1429C14.4263 30.8175 14.5005 30.514 14.6709 30.2628C14.7779 30.1034 14.7953 29.9003 14.7145 29.7234C14.3433 28.9176 14.4459 27.9043 14.9373 27.164C16.027 28.4241 17.5229 29.1447 18.6956 29.5466C19.8661 29.9462 21.0453 30.1449 22.1743 30.1449C23.5851 30.1449 24.9128 29.8348 26.044 29.219C26.8345 28.7888 27.5334 28.1817 28.088 27.4501C30.6693 28.6425 33.3269 29.7453 35.9933 30.7302C36.0567 30.7542 36.12 30.7651 36.1833 30.7651C36.3405 30.7651 36.4912 30.6996 36.5982 30.5751C37.4106 29.6426 38.2492 28.6971 39.1467 27.6969C39.922 28.1708 40.8391 28.5049 41.883 28.6905C42.4377 28.7888 42.9902 28.8368 43.5317 28.8368C45.4382 28.8368 47.2223 28.2407 48.5435 27.1357C48.7029 27.3999 48.7663 27.7296 48.6986 28.0266H48.7029ZM14.7211 23.3446C14.9941 23.3075 15.2518 23.2835 15.4745 23.3359C15.8851 23.4276 16.2214 23.7573 16.6101 24.1373C16.9376 24.4583 17.2761 24.7881 17.7107 25.0239C18.6803 25.548 19.9163 25.4869 21.4865 24.8361C21.6393 24.7728 21.79 24.7073 21.9429 24.6418C22.8251 24.264 23.6571 23.908 24.4957 23.9757C25.1967 24.0347 25.8693 24.3928 26.5812 24.7706C27.0267 25.0087 27.4853 25.2511 27.9657 25.4258C27.8347 25.7795 27.6622 26.1268 27.4438 26.4587C26.9503 27.2143 26.2842 27.8345 25.5177 28.2516C23.751 29.2124 21.3926 29.3042 19.0494 28.5027C17.7718 28.0659 16.0619 27.2077 15.1797 25.6005C14.8106 24.9279 14.649 24.1089 14.7211 23.3424V23.3446ZM28.6842 26.5133C28.8262 26.2381 28.9484 25.9586 29.0467 25.6725C29.1297 25.6791 29.2127 25.6834 29.2935 25.6834C29.3917 25.6834 29.4878 25.6791 29.5861 25.6703C30.2762 25.607 30.8767 25.3187 31.4576 25.0414C32.0254 24.7706 32.5626 24.5151 33.0976 24.5151C33.6217 24.5151 34.148 24.7619 34.7049 25.0239C35.36 25.3297 36.0348 25.6485 36.8275 25.6332C37.0961 25.6267 37.3669 25.583 37.6268 25.5022C38.3278 25.2925 38.9305 24.858 39.5136 24.4387C40.1906 23.9517 40.8282 23.4931 41.5205 23.4582C40.6273 24.4299 39.6381 25.5109 38.6488 26.6115C37.7163 27.6445 36.8559 28.6141 36.0217 29.5684C33.5453 28.6446 31.0842 27.6205 28.6842 26.5176V26.5133ZM48.0544 26.1027C46.6065 27.4523 44.3725 28.0135 42.0752 27.6052C41.2475 27.4589 40.5181 27.2077 39.8979 26.8605C40.8937 25.7577 41.8764 24.6876 42.7456 23.7442C42.9072 23.8119 43.0688 23.8862 43.2391 23.9648C43.9816 24.3077 44.8202 24.6942 45.7439 24.5239C46.4973 24.3841 47.0498 23.9299 47.5848 23.4909C47.967 23.1765 48.3273 22.8816 48.7248 22.7353C48.9912 22.6371 49.2816 22.6043 49.5939 22.5978C49.5765 23.884 48.9999 25.2161 48.0522 26.1027H48.0544ZM52.4765 20.6848C52.3826 21.187 51.6751 21.4818 51.0265 21.5124C50.7754 21.5233 50.5177 21.5168 50.2447 21.508H50.1442C49.5371 21.4862 48.941 21.4862 48.3514 21.7024C47.7792 21.912 47.3272 22.2833 46.8904 22.6392C46.4427 23.0061 46.0213 23.3533 45.5474 23.4407C44.9665 23.5499 44.3528 23.266 43.7043 22.9646C43.4095 22.8292 43.1037 22.6873 42.7893 22.5759C42.7871 22.5759 42.7849 22.5759 42.7805 22.5737C42.3394 22.4165 41.9441 22.3423 41.5554 22.3488C40.4985 22.3685 39.6708 22.9646 38.8694 23.5412C38.3365 23.9255 37.8343 24.2858 37.3058 24.4452C37.1376 24.4976 36.9717 24.5239 36.8057 24.5282C36.2663 24.5391 35.7378 24.288 35.1722 24.0216C34.5324 23.7224 33.8685 23.4123 33.102 23.4101H33.0954C32.3093 23.4101 31.6367 23.7333 30.9859 24.0456C30.4705 24.2924 29.9836 24.526 29.49 24.5719C29.2629 24.5937 29.0314 24.5763 28.7781 24.5195C28.2278 24.3972 27.6818 24.1068 27.101 23.7967C26.3235 23.3817 25.5177 22.9537 24.5918 22.8751C23.4781 22.7812 22.4801 23.2114 21.5127 23.6263C21.3642 23.6896 21.2157 23.753 21.0694 23.8141C19.8246 24.3295 18.8987 24.4081 18.2392 24.05C17.94 23.8884 17.6714 23.6241 17.3853 23.3446C16.9398 22.91 16.4376 22.4187 15.7235 22.2571C15.2561 22.1523 14.8019 22.2178 14.4023 22.2746C14.3258 22.2855 14.2494 22.2964 14.1773 22.3051C14.1031 22.3139 14.0288 22.3226 13.9546 22.327C13.603 22.3554 13.1925 22.2833 13.0767 22.0584C12.926 21.7723 13.2645 21.2788 13.6292 20.9097C14.3499 20.1847 15.1382 19.5186 15.9811 18.9246C16.8241 19.868 18.0121 20.4882 19.342 20.5843C20.5671 20.6738 21.8009 20.7022 23.0238 20.7022C24.0546 20.7022 25.0788 20.6826 26.0899 20.6629C32.532 20.5363 39.1948 20.4074 46.1807 19.4728C47.4014 19.3112 48.4977 18.7063 49.2838 17.824C50.046 18.2346 50.7863 18.6997 51.4873 19.2194C51.9961 19.5951 52.5813 20.1541 52.4831 20.6804L52.4765 20.6848Z" fill="#420606"/>
<path d="M50.64 19.1583C50.5439 19.7436 50.1377 20.2982 49.5656 20.4533C48.8864 20.6389 48.1461 20.2546 47.4713 20.4555C46.7725 20.6629 46.3532 21.436 45.6501 21.6282C45.0015 21.805 44.3485 21.436 43.7109 21.2285C42.7609 20.9206 41.6974 20.9708 40.7824 21.3683C39.5901 21.8858 38.5287 22.9865 37.2425 22.8183C36.2663 22.6938 35.5195 21.8531 34.5608 21.6303C32.7352 21.2067 31.0471 23.1219 29.1822 22.9275C28.2497 22.8314 27.4657 22.2243 26.614 21.8312C25.1858 21.1717 23.4847 21.1281 22.0237 21.7111C21.3839 21.9666 20.7899 22.3357 20.1347 22.5497C19.4818 22.7637 18.7175 22.803 18.1431 22.4209C17.6278 22.078 17.3395 21.4491 16.7936 21.1608C16.5424 21.0276 16.2563 20.9774 16.0052 20.8464C15.492 20.5821 15.2627 19.9576 15.3457 19.3941C15.5532 19.2347 15.7628 19.0797 15.9768 18.929C16.8176 19.8724 18.0077 20.4926 19.3377 20.5887C20.5628 20.6804 21.7966 20.7088 23.0195 20.7088C24.0503 20.7088 25.0766 20.6891 26.0855 20.6695C32.5277 20.5428 39.1904 20.4118 46.1764 19.4793C47.3949 19.3177 48.4933 18.7128 49.2773 17.8306C49.7468 18.0839 50.2098 18.359 50.6597 18.6538C50.6728 18.822 50.6662 18.9901 50.64 19.1583Z" fill="#69A546"/>
<path d="M36.7729 12.0981C36.7729 10.9844 37.8212 10.0825 39.1118 10.0825C40.4024 10.0825 41.4506 10.9844 41.4506 12.0981C41.4506 13.2119 40.4024 14.1138 39.1118 14.1138C37.8212 14.1138 36.7729 13.2119 36.7729 12.0981Z" fill="#F98291"/>
<path d="M24.0698 12.0981C24.0698 10.9844 25.118 10.0825 26.4087 10.0825C27.6993 10.0825 28.7475 10.9844 28.7475 12.0981C28.7475 13.2119 27.6993 14.1138 26.4087 14.1138C25.118 14.1138 24.0698 13.2119 24.0698 12.0981Z" fill="#F98291"/>
<path d="M28.8284 9.68289C28.6428 9.68289 28.4812 9.54749 28.455 9.35969C28.4091 9.04085 28.0969 8.76133 27.7737 8.75041C27.4483 8.73949 27.1207 8.995 27.0508 9.30946C27.005 9.51255 26.8041 9.64139 26.601 9.59772C26.3979 9.55186 26.269 9.35095 26.3127 9.14568C26.4612 8.47525 27.112 7.96643 27.802 7.99482C28.4878 8.01884 29.1036 8.57134 29.204 9.2505C29.2346 9.45796 29.0905 9.65013 28.8852 9.67852C28.8677 9.6807 28.8481 9.68289 28.8306 9.68289" fill="#420606"/>
<path d="M38.7098 9.68289C38.5241 9.68289 38.3625 9.54749 38.3363 9.35969C38.2905 9.04085 37.9782 8.76133 37.655 8.75041C37.3296 8.73949 37.0021 8.995 36.9322 9.30946C36.8863 9.51255 36.6854 9.64139 36.4823 9.59772C36.2792 9.55186 36.1504 9.35095 36.1941 9.14568C36.3425 8.47525 36.9933 7.96643 37.6834 7.99482C38.3691 8.01884 38.9849 8.57134 39.0854 9.2505C39.116 9.45796 38.9718 9.65013 38.7665 9.67852C38.7469 9.6807 38.7294 9.68289 38.712 9.68289" fill="#420606"/>
<path d="M35.3689 9.92747C35.3689 10.48 35.216 10.9953 34.9518 11.4277C34.4888 12.1921 33.6787 12.6965 32.7593 12.6965C31.8399 12.6965 31.0319 12.1921 30.569 11.4277C30.3047 10.9975 30.1519 10.48 30.1519 9.92747C30.1519 9.75495 30.1693 9.58898 30.1977 9.42738H35.3231C35.3514 9.59117 35.3689 9.75713 35.3689 9.92747Z" fill="#612D2D"/>
<path d="M34.9517 11.4277C34.4887 12.1921 33.6786 12.6965 32.7592 12.6965C31.8398 12.6965 31.0318 12.1921 30.5688 11.4277C31.1585 10.8949 31.925 10.5739 32.7592 10.5739C33.5934 10.5739 34.3599 10.8949 34.9517 11.4277Z" fill="#F98291"/>
</g>
<g filter="url(#filter0_dii_346_343)">
<path d="M61.9868 27.3979C61.4854 27.3979 61.1014 27.2699 60.8348 27.0139C60.5788 26.7473 60.4508 26.3686 60.4508 25.8779V17.6379C60.4508 17.1473 60.5788 16.7739 60.8348 16.5179C61.1014 16.2513 61.4854 16.1179 61.9868 16.1179H65.1228C67.0854 16.1179 68.6001 16.6086 69.6668 17.5899C70.7441 18.5713 71.2828 19.9579 71.2828 21.7499C71.2828 22.6459 71.1441 23.4459 70.8668 24.1499C70.5894 24.8433 70.1894 25.4353 69.6668 25.9259C69.1441 26.4059 68.4988 26.7739 67.7308 27.0299C66.9734 27.2753 66.1041 27.3979 65.1228 27.3979H61.9868ZM63.3948 25.0139H64.9308C65.4961 25.0139 65.9814 24.9446 66.3868 24.8059C66.8028 24.6673 67.1441 24.4646 67.4108 24.1979C67.6881 23.9313 67.8908 23.5953 68.0188 23.1899C68.1574 22.7846 68.2268 22.3046 68.2268 21.7499C68.2268 20.6406 67.9548 19.8246 67.4108 19.3019C66.8668 18.7686 66.0401 18.5019 64.9308 18.5019H63.3948V25.0139ZM60.0508 22.7419C59.7094 22.7419 59.4481 22.6513 59.2668 22.4699C59.0748 22.2886 58.9788 22.0326 58.9788 21.7019C58.9788 21.3713 59.0748 21.1153 59.2668 20.9339C59.4481 20.7526 59.7094 20.6619 60.0508 20.6619H65.3788C65.7308 20.6619 65.9974 20.7526 66.1788 20.9339C66.3708 21.1153 66.4668 21.3713 66.4668 21.7019C66.4668 22.0326 66.3708 22.2886 66.1788 22.4699C65.9974 22.6513 65.7308 22.7419 65.3788 22.7419H60.0508ZM76.8209 27.5739C75.9462 27.5739 75.1835 27.4086 74.5329 27.0779C73.8822 26.7473 73.3755 26.2726 73.0129 25.6539C72.6502 25.0353 72.4689 24.3046 72.4689 23.4619C72.4689 22.8219 72.5702 22.2513 72.7729 21.7499C72.9755 21.2379 73.2689 20.8059 73.6529 20.4539C74.0369 20.0913 74.4955 19.8193 75.0289 19.6379C75.5622 19.4459 76.1595 19.3499 76.8209 19.3499C77.6955 19.3499 78.4582 19.5153 79.1089 19.8459C79.7595 20.1766 80.2609 20.6513 80.6129 21.2699C80.9756 21.8779 81.1569 22.6086 81.1569 23.4619C81.1569 24.0913 81.0555 24.6619 80.8529 25.1739C80.6502 25.6859 80.3569 26.1233 79.9729 26.4859C79.5995 26.8379 79.1409 27.1099 78.5969 27.3019C78.0635 27.4833 77.4715 27.5739 76.8209 27.5739ZM76.8209 25.4779C77.1089 25.4779 77.3649 25.4086 77.5889 25.2699C77.8129 25.1206 77.9835 24.9019 78.1009 24.6139C78.2289 24.3153 78.2929 23.9313 78.2929 23.4619C78.2929 22.7473 78.1542 22.2353 77.8769 21.9259C77.5995 21.6059 77.2475 21.4459 76.8209 21.4459C76.5329 21.4459 76.2769 21.5153 76.0529 21.6539C75.8289 21.7926 75.6529 22.0113 75.5249 22.3099C75.3969 22.5979 75.3329 22.9819 75.3329 23.4619C75.3329 24.1659 75.4715 24.6779 75.7489 24.9979C76.0262 25.3179 76.3835 25.4779 76.8209 25.4779ZM75.6689 18.4059C75.4769 18.5873 75.2849 18.6886 75.0929 18.7099C74.9009 18.7313 74.7302 18.6939 74.5809 18.5979C74.4315 18.4913 74.3355 18.3526 74.2929 18.1819C74.2609 18.0006 74.3142 17.8086 74.4529 17.6059L75.2529 16.4219C75.4662 16.1019 75.6955 15.8779 75.9409 15.7499C76.1969 15.6219 76.4902 15.5579 76.8209 15.5579C77.0449 15.5579 77.2475 15.5846 77.4289 15.6379C77.6209 15.6913 77.7915 15.7819 77.9409 15.9099C78.1009 16.0379 78.2502 16.2086 78.3889 16.4219L79.1889 17.6059C79.3275 17.8086 79.3755 18.0006 79.3329 18.1819C79.3009 18.3526 79.2102 18.4913 79.0609 18.5979C78.9222 18.6939 78.7515 18.7313 78.5489 18.7099C78.3569 18.6886 78.1649 18.5873 77.9729 18.4059L76.8209 17.2539L75.6689 18.4059ZM79.5729 16.8699L78.4049 15.4619C78.2449 15.2699 78.1702 15.0833 78.1809 14.9019C78.1915 14.7206 78.2555 14.5659 78.3729 14.4379C78.5009 14.2993 78.6502 14.2033 78.8209 14.1499C79.0022 14.0966 79.1782 14.1019 79.3489 14.1659C79.5302 14.2193 79.6742 14.3526 79.7809 14.5659L80.6449 16.1499C80.7515 16.3526 80.7835 16.5339 80.7409 16.6939C80.6982 16.8539 80.6076 16.9766 80.4689 17.0619C80.3409 17.1473 80.1915 17.1793 80.0209 17.1579C79.8609 17.1259 79.7115 17.0299 79.5729 16.8699ZM89.776 27.5739C89.168 27.5739 88.6293 27.4619 88.16 27.2379C87.7013 27.0139 87.3387 26.7099 87.072 26.3259C86.816 25.9313 86.688 25.4833 86.688 24.9819C86.688 24.4059 86.8373 23.9526 87.136 23.6219C87.4347 23.2913 87.9147 23.0566 88.576 22.9179C89.2373 22.7686 90.1173 22.6939 91.216 22.6939H92.096V24.0379H91.216C90.8 24.0379 90.4533 24.0699 90.176 24.1339C89.9093 24.1873 89.712 24.2779 89.584 24.4059C89.456 24.5233 89.392 24.6779 89.392 24.8699C89.392 25.1153 89.4773 25.3179 89.648 25.4779C89.8293 25.6379 90.0853 25.7179 90.416 25.7179C90.6827 25.7179 90.9173 25.6593 91.12 25.5419C91.3333 25.4246 91.504 25.2646 91.632 25.0619C91.76 24.8486 91.824 24.6033 91.824 24.3259V22.4699C91.824 22.0859 91.7227 21.8139 91.52 21.6539C91.328 21.4939 90.992 21.4139 90.512 21.4139C90.256 21.4139 89.968 21.4459 89.648 21.5099C89.328 21.5633 88.9707 21.6646 88.576 21.8139C88.288 21.9206 88.0427 21.9366 87.84 21.8619C87.6373 21.7873 87.4773 21.6593 87.36 21.4779C87.2533 21.2966 87.2 21.0993 87.2 20.8859C87.2107 20.6726 87.28 20.4699 87.408 20.2779C87.5467 20.0859 87.7547 19.9366 88.032 19.8299C88.544 19.6379 89.0133 19.5099 89.44 19.4459C89.8773 19.3819 90.2773 19.3499 90.64 19.3499C91.5147 19.3499 92.2347 19.4779 92.8 19.7339C93.376 19.9793 93.8027 20.3633 94.08 20.8859C94.368 21.3979 94.512 22.0593 94.512 22.8699V26.1019C94.512 26.5713 94.4 26.9286 94.176 27.1739C93.952 27.4193 93.6267 27.5419 93.2 27.5419C92.7627 27.5419 92.4267 27.4193 92.192 27.1739C91.968 26.9286 91.856 26.5713 91.856 26.1019V25.6859L91.952 25.9099C91.8987 26.2513 91.776 26.5446 91.584 26.7899C91.392 27.0353 91.1413 27.2273 90.832 27.3659C90.5227 27.5046 90.1707 27.5739 89.776 27.5739ZM90.816 18.5499C90.2613 18.5499 89.7867 18.4379 89.392 18.2139C88.9973 17.9899 88.6827 17.7019 88.448 17.3499C88.224 16.9873 88.08 16.6086 88.016 16.2139C87.952 15.9259 87.9893 15.6966 88.128 15.5259C88.2667 15.3446 88.4587 15.2433 88.704 15.2219C88.9493 15.2113 89.136 15.2753 89.264 15.4139C89.392 15.5419 89.5093 15.7339 89.616 15.9899C89.7227 16.3099 89.8773 16.5499 90.08 16.7099C90.2933 16.8593 90.5387 16.9339 90.816 16.9339C91.0933 16.9339 91.3387 16.8593 91.552 16.7099C91.7653 16.5499 91.92 16.3099 92.016 15.9899C92.1227 15.7339 92.24 15.5419 92.368 15.4139C92.496 15.2753 92.6827 15.2113 92.928 15.2219C93.1733 15.2433 93.3653 15.3446 93.504 15.5259C93.6427 15.6966 93.68 15.9259 93.616 16.2139C93.552 16.6086 93.4027 16.9873 93.168 17.3499C92.944 17.7019 92.6347 17.9899 92.24 18.2139C91.8453 18.4379 91.3707 18.5499 90.816 18.5499ZM97.5418 27.5419C97.0938 27.5419 96.7471 27.4193 96.5018 27.1739C96.2564 26.9286 96.1338 26.5713 96.1338 26.1019V20.8059C96.1338 20.3473 96.2511 19.9953 96.4858 19.7499C96.7311 19.5046 97.0778 19.3819 97.5258 19.3819C97.9738 19.3819 98.3151 19.5046 98.5498 19.7499C98.7844 19.9953 98.9018 20.3473 98.9018 20.8059V21.5579L98.7258 20.9019C98.9818 20.4006 99.3444 20.0166 99.8138 19.7499C100.294 19.4833 100.838 19.3499 101.446 19.3499C102.075 19.3499 102.592 19.4726 102.998 19.7179C103.403 19.9526 103.707 20.3259 103.91 20.8379C104.112 21.3393 104.214 21.9739 104.214 22.7419V26.1019C104.214 26.5713 104.091 26.9286 103.846 27.1739C103.6 27.4193 103.248 27.5419 102.79 27.5419C102.331 27.5419 101.979 27.4193 101.734 27.1739C101.488 26.9286 101.366 26.5713 101.366 26.1019V22.8539C101.366 22.3739 101.28 22.0326 101.11 21.8299C100.95 21.6273 100.71 21.5259 100.39 21.5259C99.9631 21.5259 99.6218 21.6646 99.3658 21.9419C99.1098 22.2086 98.9818 22.5713 98.9818 23.0299V26.1019C98.9818 27.0619 98.5018 27.5419 97.5418 27.5419Z" fill="white"/>
</g>
</g>
<defs>
<filter id="filter0_dii_346_343" x="56.5518" y="12.8565" width="50.089" height="18.3578" filterUnits="userSpaceOnUse" color-interpolation-filters="sRGB">
<feFlood flood-opacity="0" result="BackgroundImageFix"/>
<feColorMatrix in="SourceAlpha" type="matrix" values="0 0 0 0 0 0 0 0 0 0 0 0 0 0 0 0 0 0 127 0" result="hardAlpha"/>
<feOffset dy="1.21346"/>
<feGaussianBlur stdDeviation="1.21346"/>
<feComposite in2="hardAlpha" operator="out"/>
<feColorMatrix type="matrix" values="0 0 0 0 0.245192 0 0 0 0 0 0 0 0 0 0.147115 0 0 0 0.29 0"/>
<feBlend mode="multiply" in2="BackgroundImageFix" result="effect1_dropShadow_346_343"/>
<feBlend mode="normal" in="SourceGraphic" in2="effect1_dropShadow_346_343" result="shape"/>
<feColorMatrix in="SourceAlpha" type="matrix" values="0 0 0 0 0 0 0 0 0 0 0 0 0 0 0 0 0 0 127 0" result="hardAlpha"/>
<feOffset dy="-0.60673"/>
<feGaussianBlur stdDeviation="0.303365"/>
<feComposite in2="hardAlpha" operator="arithmetic" k2="-1" k3="1"/>
<feColorMatrix type="matrix" values="0 0 0 0 0.740385 0 0 0 0 0 0 0 0 0 0.201333 0 0 0 0.64 0"/>
<feBlend mode="multiply" in2="shape" result="effect2_innerShadow_346_343"/>
<feColorMatrix in="SourceAlpha" type="matrix" values="0 0 0 0 0 0 0 0 0 0 0 0 0 0 0 0 0 0 127 0" result="hardAlpha"/>
<feOffset dy="0.60673"/>
<feGaussianBlur stdDeviation="0.303365"/>
<feComposite in2="hardAlpha" operator="arithmetic" k2="-1" k3="1"/>
<feColorMatrix type="matrix" values="0 0 0 0 1 0 0 0 0 0.677885 0 0 0 0 0.771899 0 0 0 0.23 0"/>
<feBlend mode="normal" in2="effect2_innerShadow_346_343" result="effect3_innerShadow_346_343"/>
</filter>
<linearGradient id="paint0_linear_346_343" x1="58.2279" y1="38.3977" x2="58.2279" y2="5.6902" gradientUnits="userSpaceOnUse">
<stop stop-color="#FF5B8B"/>
<stop offset="1" stop-color="#FC98AF"/>
</linearGradient>
<clipPath id="clip0_346_343">
<rect width="41.6557" height="38" fill="white" transform="translate(11.9324)"/>
</clipPath>
</defs>
</svg>
