<svg width="122" height="42" viewBox="0 0 122 42" fill="none" xmlns="http://www.w3.org/2000/svg">
<g opacity="0.9">
<path d="M122 25.3479V25.7176C122 28.4281 121.335 30.9744 120.144 33.225C117.425 38.3669 112.028 41.8906 105.843 41.8906H21.7008C16.0744 41.8906 11.105 38.9747 8.19729 34.5967V34.5803C6.51345 32.034 5.53601 28.9867 5.53601 25.7176V25.3479C5.53601 22.5059 6.28346 19.82 7.58125 17.4955C10.3575 12.5508 15.6555 9.1831 21.7008 9.1831H105.843C112.817 9.1831 118.805 13.6679 121.047 19.9022C121.663 21.6106 122 23.4423 122 25.3479Z" fill="url(#paint0_linear_346_173)"/>
<g style="mix-blend-mode:color-dodge" opacity="0.32">
<path d="M121.047 19.9022C116.423 10.448 21.5695 2.98987 7.58952 17.5037H7.5813C10.3576 12.5508 15.6555 9.1831 21.7009 9.1831H105.843C112.817 9.1831 118.805 13.6679 121.047 19.9022Z" fill="#FF7E8B"/>
</g>
<g style="mix-blend-mode:multiply">
<path d="M120.136 33.225C117.417 38.3669 112.02 41.8906 105.835 41.8906H21.6926C16.0662 41.8906 11.0968 38.9747 8.18909 34.5967V34.5803C18.5714 45.0037 102.262 41.7181 120.136 33.225Z" fill="#FF459D"/>
</g>
<g style="mix-blend-mode:color-dodge" opacity="0.32">
<path d="M77.711 9.64299C79.0416 10.5465 99.798 12.0743 110.123 14.5384C120.448 17.0026 119.158 14.6616 113.967 11.3843C108.776 8.107 77.2838 9.34728 77.711 9.63477V9.64299Z" fill="#FF7E8B"/>
</g>
<path d="M101.441 12.6164C100.858 13.1256 108.135 14.1852 108.373 13.7252C108.603 13.257 105.638 8.95298 101.441 12.6164Z" fill="#F8EEF9"/>
<path d="M83.7564 10.4891C83.5593 10.9245 86.2206 11.327 86.1631 10.4891C86.1056 9.65134 84.3314 9.19136 83.7564 10.4891Z" fill="#F8EEF9"/>
<path d="M25.5572 11.3833C25.0633 10.9661 24.6498 10.629 24.3779 10.2698C24.2336 10.0902 24.0921 9.91338 23.9894 9.71444C23.8756 9.52102 23.8146 9.30274 23.7258 9.07065C23.5482 8.61198 23.5343 8.17542 23.5399 7.72504C23.551 7.49571 23.5898 7.25256 23.6453 6.99007C23.7091 6.72205 23.7563 6.45127 23.8368 6.13352C23.884 5.94287 23.9589 5.74669 23.9811 5.52841C23.9894 5.42065 23.9922 5.30184 23.9589 5.18303C23.9228 5.06698 23.8618 4.94265 23.7646 4.81278C23.5704 4.55306 23.3595 4.43701 23.1514 4.38451C22.9432 4.33201 22.724 4.35135 22.527 4.33754C21.8721 4.29609 21.3754 4.23254 20.912 4.13031C20.6872 4.07505 20.4791 3.99768 20.2848 3.89269C20.0767 3.80151 19.8797 3.68822 19.6799 3.54178C19.58 3.46718 19.4884 3.39257 19.4052 3.31244C19.3192 3.23784 19.2304 3.166 19.1527 3.08587C18.9973 2.92838 18.8613 2.75155 18.742 2.54984C18.6254 2.33985 18.5006 2.14644 18.3896 1.90053C18.2758 1.66014 18.1648 1.38936 18.0455 1.0799C17.8956 0.720702 17.8179 0.281377 17.2019 0.0575693C16.5775 -0.135844 16.2473 0.204011 15.9143 0.400188C15.6396 0.557682 15.3898 0.720702 15.154 0.856091C14.9181 0.988718 14.7017 1.09648 14.4852 1.17661C14.2715 1.24568 14.0579 1.3341 13.8359 1.37278C13.6167 1.41699 13.3891 1.43081 13.1421 1.41975C12.8952 1.43081 12.6676 1.41699 12.4456 1.37278C12.2264 1.3341 12.0127 1.24568 11.7963 1.17661C11.5826 1.09924 11.3634 0.991481 11.1275 0.856091C10.8917 0.720702 10.6419 0.557682 10.3672 0.400188C10.037 0.204011 9.70676 -0.135844 9.07962 0.0575693C8.46358 0.281377 8.38588 0.720702 8.23604 1.0799C8.11671 1.38936 8.00572 1.66014 7.89472 1.90053C7.78372 2.14644 7.65885 2.33985 7.5423 2.54984C7.42298 2.75155 7.287 2.92838 7.13161 3.08587C7.05391 3.166 6.96789 3.23784 6.87909 3.31244C6.79307 3.39257 6.70427 3.46718 6.60437 3.54178C6.40735 3.69098 6.20755 3.80427 5.99943 3.89269C5.80241 3.99768 5.59706 4.07228 5.37229 4.13031C4.90888 4.23254 4.41216 4.29609 3.75728 4.33754C3.56025 4.35135 3.34103 4.33201 3.13291 4.38451C2.92479 4.43701 2.71667 4.55306 2.51965 4.81278C2.42253 4.94265 2.36148 5.06698 2.3254 5.18303C2.2921 5.30184 2.2921 5.41789 2.30043 5.52841C2.32263 5.74669 2.39755 5.94287 2.44473 6.13352C2.5252 6.45127 2.57237 6.71929 2.6362 6.99007C2.69447 7.25532 2.73055 7.49571 2.74165 7.72504C2.7472 8.17542 2.73332 8.61198 2.55572 9.07341C2.4697 9.30274 2.40588 9.52102 2.2921 9.7172C2.18943 9.91338 2.04791 10.093 1.90361 10.2698C1.63167 10.629 1.2182 10.9661 0.724261 11.3833C0.432891 11.6375 0.0277494 11.8448 0 12.4941C0.0277494 13.1434 0.432891 13.3506 0.724261 13.6048C1.2182 14.022 1.63167 14.3591 1.90361 14.7183C2.04791 14.8979 2.18943 15.0748 2.2921 15.2709C2.40588 15.4643 2.46693 15.6826 2.55572 15.9147C2.73332 16.3734 2.7472 16.81 2.74165 17.2631C2.73055 17.4924 2.6917 17.7356 2.6362 17.9981C2.57237 18.2661 2.5252 18.5369 2.44473 18.8546C2.39755 19.0453 2.32263 19.2414 2.30043 19.4597C2.2921 19.5675 2.28933 19.6863 2.3254 19.8051C2.36148 19.9212 2.42253 20.0455 2.51965 20.1754C2.7139 20.4351 2.92479 20.5511 3.13291 20.6036C3.34103 20.6561 3.56025 20.6368 3.75728 20.6506C4.41216 20.692 4.90888 20.7556 5.37229 20.8578C5.59706 20.9131 5.80518 20.9905 5.99943 21.0954C6.20755 21.1866 6.40457 21.2999 6.60437 21.4464C6.70427 21.521 6.79584 21.5956 6.87909 21.6757C6.96511 21.7503 7.05391 21.8221 7.13161 21.9023C7.287 22.0598 7.42298 22.2366 7.5423 22.4383C7.65885 22.6483 7.78372 22.8417 7.89472 23.0876C8.00849 23.328 8.11949 23.5988 8.23881 23.9082C8.38866 24.2674 8.46636 24.7068 9.08239 24.9306C9.70676 25.124 10.037 24.7841 10.37 24.5879C10.6447 24.4305 10.8944 24.2674 11.1303 24.132C11.3662 23.9994 11.5826 23.8917 11.7991 23.8115C12.0127 23.7425 12.2264 23.654 12.4484 23.6154C12.6676 23.5711 12.8952 23.5573 13.1421 23.5684C13.3891 23.5573 13.6167 23.5711 13.8386 23.6154C14.0579 23.654 14.2715 23.7425 14.488 23.8115C14.7017 23.8889 14.9209 23.9967 15.1567 24.132C15.3926 24.2674 15.6424 24.4305 15.9171 24.5879C16.2473 24.7841 16.5775 25.124 17.2047 24.9306C17.8207 24.7068 17.8984 24.2674 18.0482 23.9082C18.1676 23.5988 18.2786 23.328 18.3923 23.0876C18.5033 22.8417 18.6282 22.6483 18.7448 22.4383C18.8641 22.2366 19 22.0598 19.1554 21.9023C19.2331 21.8221 19.3192 21.7503 19.408 21.6757C19.494 21.5956 19.5828 21.521 19.6827 21.4464C19.8797 21.2999 20.0795 21.1839 20.2876 21.0954C20.4819 20.9905 20.69 20.9158 20.9148 20.8578C21.3782 20.7556 21.8749 20.692 22.5298 20.6506C22.7268 20.6368 22.946 20.6561 23.1541 20.6036C23.3623 20.5511 23.5704 20.4351 23.7674 20.1754C23.8645 20.0455 23.9256 19.9212 23.9617 19.8051C23.9949 19.6863 23.9949 19.5702 23.9838 19.4597C23.9616 19.2414 23.8867 19.0453 23.8396 18.8546C23.7591 18.5369 23.7119 18.2661 23.6481 17.9981C23.5898 17.7328 23.5537 17.4924 23.5426 17.2631C23.5371 16.8127 23.551 16.3762 23.7286 15.9147C23.8146 15.6854 23.8784 15.4671 23.9922 15.2709C24.0948 15.0748 24.2364 14.8952 24.3807 14.7156C24.6526 14.3564 25.0661 14.0193 25.56 13.6021C25.8514 13.3478 26.2565 13.1406 26.2843 12.4913C26.2565 11.842 25.8514 11.6348 25.56 11.3806L25.5572 11.3833Z" fill="url(#paint1_linear_346_173)"/>
<path d="M22.2441 12.494C22.2441 17.4952 18.1732 21.5513 13.1478 21.5513C8.12239 21.5513 4.05432 17.4952 4.05432 12.494C4.05432 7.49292 8.12517 3.43676 13.1478 3.43676C18.1705 3.43676 22.2441 7.49016 22.2441 12.494Z" fill="url(#paint2_radial_346_173)"/>
<g style="mix-blend-mode:overlay" opacity="0.2">
<path d="M11.1692 4.41765C13.3448 3.66886 15.5869 4.4508 16.1835 6.16113C16.7774 7.87146 15.4981 9.86639 13.3253 10.6152C11.1498 11.364 8.90486 10.5848 8.31102 8.87169C7.71718 7.15859 8.99643 5.16643 11.1692 4.41765Z" fill="white"/>
</g>
<g style="mix-blend-mode:overlay" opacity="0.2">
<path d="M5.27522 11.9637C5.64706 10.7065 6.75704 9.92731 7.75325 10.2174C8.75223 10.5103 9.25727 11.7647 8.8882 13.0219C8.51636 14.2791 7.40638 15.0611 6.41017 14.7682C5.41397 14.4753 4.90615 13.2209 5.278 11.9637H5.27522Z" fill="white"/>
</g>
<g filter="url(#filter0_dii_346_173)">
<path d="M27.2259 31.5717C26.7565 31.5717 26.3939 31.4437 26.1379 31.1877C25.8819 30.921 25.7539 30.553 25.7539 30.0837V22.5477H23.2419C22.8472 22.5477 22.5432 22.4464 22.3299 22.2437C22.1272 22.0304 22.0259 21.7317 22.0259 21.3477C22.0259 20.953 22.1272 20.6544 22.3299 20.4517C22.5432 20.249 22.8472 20.1477 23.2419 20.1477H31.2099C31.6045 20.1477 31.9032 20.249 32.1059 20.4517C32.3192 20.6544 32.4259 20.953 32.4259 21.3477C32.4259 21.7317 32.3192 22.0304 32.1059 22.2437C31.9032 22.4464 31.6045 22.5477 31.2099 22.5477H28.6979V30.0837C28.6979 30.553 28.5752 30.921 28.3299 31.1877C28.0845 31.4437 27.7165 31.5717 27.2259 31.5717ZM35.4389 31.5717C34.9909 31.5717 34.6442 31.449 34.3989 31.2037C34.1535 30.9584 34.0309 30.601 34.0309 30.1317V21.4437C34.0309 20.9744 34.1535 20.617 34.3989 20.3717C34.6442 20.1264 34.9909 20.0037 35.4389 20.0037C35.8975 20.0037 36.2495 20.1264 36.4949 20.3717C36.7509 20.617 36.8789 20.9744 36.8789 21.4437V24.9317H36.6229C36.8789 24.4304 37.2415 24.0464 37.7109 23.7797C38.1909 23.513 38.7349 23.3797 39.3429 23.3797C39.9722 23.3797 40.4895 23.5024 40.8949 23.7477C41.3002 23.9824 41.6042 24.3557 41.8069 24.8677C42.0095 25.369 42.1109 26.0037 42.1109 26.7717V30.1317C42.1109 30.601 41.9882 30.9584 41.7429 31.2037C41.4975 31.449 41.1455 31.5717 40.6869 31.5717C40.2282 31.5717 39.8762 31.449 39.6309 31.2037C39.3855 30.9584 39.2629 30.601 39.2629 30.1317V26.8837C39.2629 26.4037 39.1775 26.0624 39.0069 25.8597C38.8469 25.657 38.6069 25.5557 38.2869 25.5557C37.8602 25.5557 37.5189 25.6944 37.2629 25.9717C37.0069 26.2384 36.8789 26.601 36.8789 27.0597V30.1317C36.8789 31.0917 36.3989 31.5717 35.4389 31.5717ZM45.142 31.5717C44.694 31.5717 44.3473 31.4384 44.102 31.1717C43.8566 30.905 43.734 30.521 43.734 30.0197V24.9637C43.734 24.4624 43.8566 24.0784 44.102 23.8117C44.3473 23.545 44.694 23.4117 45.142 23.4117C45.6006 23.4117 45.9526 23.545 46.198 23.8117C46.454 24.0784 46.582 24.4624 46.582 24.9637V30.0197C46.582 30.521 46.4593 30.905 46.214 31.1717C45.9686 31.4384 45.6113 31.5717 45.142 31.5717ZM45.142 22.2757C44.6406 22.2757 44.2513 22.1584 43.974 21.9237C43.7073 21.689 43.574 21.3477 43.574 20.8997C43.574 20.4624 43.7073 20.1264 43.974 19.8917C44.2513 19.657 44.6406 19.5397 45.142 19.5397C45.6646 19.5397 46.0593 19.657 46.326 19.8917C46.5926 20.1264 46.726 20.4624 46.726 20.8997C46.726 21.3477 46.5926 21.689 46.326 21.9237C46.0593 22.1584 45.6646 22.2757 45.142 22.2757ZM52.522 31.6037C51.562 31.6037 50.73 31.4384 50.026 31.1077C49.3326 30.7664 48.7993 30.2864 48.426 29.6677C48.0526 29.049 47.866 28.3184 47.866 27.4757C47.866 26.665 48.042 25.9557 48.394 25.3477C48.7566 24.729 49.2473 24.249 49.866 23.9077C50.4953 23.5557 51.21 23.3797 52.01 23.3797C52.5966 23.3797 53.13 23.4757 53.61 23.6677C54.09 23.849 54.5006 24.121 54.842 24.4837C55.1833 24.8357 55.4393 25.2624 55.61 25.7637C55.7913 26.265 55.882 26.825 55.882 27.4437C55.882 27.657 55.8233 27.817 55.706 27.9237C55.5886 28.0197 55.402 28.0677 55.146 28.0677H50.25V26.7237H53.802L53.546 26.9317C53.546 26.537 53.4926 26.217 53.386 25.9717C53.2793 25.7264 53.1193 25.5397 52.906 25.4117C52.7033 25.2837 52.4473 25.2197 52.138 25.2197C51.8073 25.2197 51.5193 25.2997 51.274 25.4597C51.0393 25.609 50.858 25.833 50.73 26.1317C50.602 26.4304 50.538 26.8037 50.538 27.2517V27.3957C50.538 28.153 50.7033 28.697 51.034 29.0277C51.3753 29.3477 51.898 29.5077 52.602 29.5077C52.8366 29.5077 53.1033 29.481 53.402 29.4277C53.7113 29.3637 54.0046 29.2784 54.282 29.1717C54.5593 29.065 54.7993 29.049 55.002 29.1237C55.2046 29.1877 55.3593 29.305 55.466 29.4757C55.5833 29.6357 55.6473 29.8224 55.658 30.0357C55.6686 30.2384 55.6206 30.441 55.514 30.6437C55.4073 30.8357 55.2313 30.985 54.986 31.0917C54.6126 31.2624 54.2126 31.3904 53.786 31.4757C53.37 31.561 52.9486 31.6037 52.522 31.6037ZM54.506 21.5877C54.634 21.8117 54.6606 22.0197 54.586 22.2117C54.522 22.393 54.4046 22.5317 54.234 22.6277C54.0633 22.7237 53.8766 22.7557 53.674 22.7237C53.482 22.6917 53.3166 22.5797 53.178 22.3877L52.042 20.7077L50.906 22.3877C50.7673 22.5797 50.5966 22.6917 50.394 22.7237C50.202 22.7557 50.0206 22.7237 49.85 22.6277C49.6793 22.5317 49.5566 22.393 49.482 22.2117C49.418 22.0197 49.45 21.8117 49.578 21.5877L50.506 19.8917C50.6766 19.5717 50.89 19.3264 51.146 19.1557C51.402 18.9744 51.7006 18.8837 52.042 18.8837C52.394 18.8837 52.698 18.9744 52.954 19.1557C53.21 19.3264 53.4233 19.5717 53.594 19.8917L54.506 21.5877ZM58.517 31.5717C58.069 31.5717 57.7223 31.449 57.477 31.2037C57.2316 30.9584 57.109 30.601 57.109 30.1317V24.8357C57.109 24.377 57.2263 24.025 57.461 23.7797C57.7063 23.5344 58.053 23.4117 58.501 23.4117C58.949 23.4117 59.2903 23.5344 59.525 23.7797C59.7596 24.025 59.877 24.377 59.877 24.8357V25.5877L59.701 24.9317C59.957 24.4304 60.3196 24.0464 60.789 23.7797C61.269 23.513 61.813 23.3797 62.421 23.3797C63.0503 23.3797 63.5676 23.5024 63.973 23.7477C64.3783 23.9824 64.6823 24.3557 64.885 24.8677C65.0876 25.369 65.189 26.0037 65.189 26.7717V30.1317C65.189 30.601 65.0663 30.9584 64.821 31.2037C64.5756 31.449 64.2236 31.5717 63.765 31.5717C63.3063 31.5717 62.9543 31.449 62.709 31.2037C62.4636 30.9584 62.341 30.601 62.341 30.1317V26.8837C62.341 26.4037 62.2556 26.0624 62.085 25.8597C61.925 25.657 61.685 25.5557 61.365 25.5557C60.9383 25.5557 60.597 25.6944 60.341 25.9717C60.085 26.2384 59.957 26.601 59.957 27.0597V30.1317C59.957 31.0917 59.477 31.5717 58.517 31.5717ZM72.7982 31.5717C72.3502 31.5717 72.0036 31.449 71.7582 31.2037C71.5129 30.9584 71.3902 30.601 71.3902 30.1317V24.8357C71.3902 24.377 71.5076 24.025 71.7422 23.7797C71.9876 23.5344 72.3342 23.4117 72.7822 23.4117C73.2302 23.4117 73.5716 23.5344 73.8062 23.7797C74.0409 24.025 74.1582 24.377 74.1582 24.8357V25.5877L73.9822 24.9317C74.2382 24.4304 74.6009 24.0464 75.0702 23.7797C75.5502 23.513 76.0942 23.3797 76.7022 23.3797C77.3316 23.3797 77.8489 23.5024 78.2542 23.7477C78.6596 23.9824 78.9636 24.3557 79.1662 24.8677C79.3689 25.369 79.4702 26.0037 79.4702 26.7717V30.1317C79.4702 30.601 79.3476 30.9584 79.1022 31.2037C78.8569 31.449 78.5049 31.5717 78.0462 31.5717C77.5876 31.5717 77.2356 31.449 76.9902 31.2037C76.7449 30.9584 76.6222 30.601 76.6222 30.1317V26.8837C76.6222 26.4037 76.5369 26.0624 76.3662 25.8597C76.2062 25.657 75.9662 25.5557 75.6462 25.5557C75.2196 25.5557 74.8782 25.6944 74.6222 25.9717C74.3662 26.2384 74.2382 26.601 74.2382 27.0597V30.1317C74.2382 31.0917 73.7582 31.5717 72.7982 31.5717ZM82.5014 31.5717C82.0534 31.5717 81.7067 31.449 81.4614 31.2037C81.216 30.9584 81.0934 30.601 81.0934 30.1317V21.4437C81.0934 20.9744 81.216 20.617 81.4614 20.3717C81.7067 20.1264 82.0534 20.0037 82.5014 20.0037C82.96 20.0037 83.312 20.1264 83.5574 20.3717C83.8134 20.617 83.9414 20.9744 83.9414 21.4437V24.9317H83.6854C83.9414 24.4304 84.304 24.0464 84.7734 23.7797C85.2534 23.513 85.7974 23.3797 86.4054 23.3797C87.0347 23.3797 87.552 23.5024 87.9574 23.7477C88.3627 23.9824 88.6667 24.3557 88.8694 24.8677C89.072 25.369 89.1734 26.0037 89.1734 26.7717V30.1317C89.1734 30.601 89.0507 30.9584 88.8054 31.2037C88.56 31.449 88.208 31.5717 87.7494 31.5717C87.2907 31.5717 86.9387 31.449 86.6934 31.2037C86.448 30.9584 86.3254 30.601 86.3254 30.1317V26.8837C86.3254 26.4037 86.24 26.0624 86.0694 25.8597C85.9094 25.657 85.6694 25.5557 85.3494 25.5557C84.9227 25.5557 84.5814 25.6944 84.3254 25.9717C84.0694 26.2384 83.9414 26.601 83.9414 27.0597V30.1317C83.9414 31.0917 83.4614 31.5717 82.5014 31.5717ZM92.2045 31.5717C91.7565 31.5717 91.4098 31.4384 91.1645 31.1717C90.9191 30.905 90.7965 30.521 90.7965 30.0197V24.9637C90.7965 24.4624 90.9191 24.0784 91.1645 23.8117C91.4098 23.545 91.7565 23.4117 92.2045 23.4117C92.6631 23.4117 93.0151 23.545 93.2605 23.8117C93.5165 24.0784 93.6445 24.4624 93.6445 24.9637V30.0197C93.6445 30.521 93.5218 30.905 93.2765 31.1717C93.0311 31.4384 92.6738 31.5717 92.2045 31.5717ZM92.2045 22.2757C91.7031 22.2757 91.3138 22.1584 91.0365 21.9237C90.7698 21.689 90.6365 21.3477 90.6365 20.8997C90.6365 20.4624 90.7698 20.1264 91.0365 19.8917C91.3138 19.657 91.7031 19.5397 92.2045 19.5397C92.7271 19.5397 93.1218 19.657 93.3885 19.8917C93.6551 20.1264 93.7885 20.4624 93.7885 20.8997C93.7885 21.3477 93.6551 21.689 93.3885 21.9237C93.1218 22.1584 92.7271 22.2757 92.2045 22.2757ZM99.5845 31.6037C98.6245 31.6037 97.7925 31.4384 97.0885 31.1077C96.3951 30.7664 95.8618 30.2864 95.4885 29.6677C95.1151 29.049 94.9285 28.3184 94.9285 27.4757C94.9285 26.665 95.1045 25.9557 95.4565 25.3477C95.8191 24.729 96.3098 24.249 96.9285 23.9077C97.5578 23.5557 98.2725 23.3797 99.0725 23.3797C99.6591 23.3797 100.192 23.4757 100.672 23.6677C101.152 23.849 101.563 24.121 101.904 24.4837C102.246 24.8357 102.502 25.2624 102.672 25.7637C102.854 26.265 102.944 26.825 102.944 27.4437C102.944 27.657 102.886 27.817 102.768 27.9237C102.651 28.0197 102.464 28.0677 102.208 28.0677H97.3125V26.7237H100.864L100.608 26.9317C100.608 26.537 100.555 26.217 100.448 25.9717C100.342 25.7264 100.182 25.5397 99.9685 25.4117C99.7658 25.2837 99.5098 25.2197 99.2005 25.2197C98.8698 25.2197 98.5818 25.2997 98.3365 25.4597C98.1018 25.609 97.9205 25.833 97.7925 26.1317C97.6645 26.4304 97.6005 26.8037 97.6005 27.2517V27.3957C97.6005 28.153 97.7658 28.697 98.0965 29.0277C98.4378 29.3477 98.9605 29.5077 99.6645 29.5077C99.8991 29.5077 100.166 29.481 100.464 29.4277C100.774 29.3637 101.067 29.2784 101.344 29.1717C101.622 29.065 101.862 29.049 102.064 29.1237C102.267 29.1877 102.422 29.305 102.528 29.4757C102.646 29.6357 102.71 29.8224 102.72 30.0357C102.731 30.2384 102.683 30.441 102.576 30.6437C102.47 30.8357 102.294 30.985 102.048 31.0917C101.675 31.2624 101.275 31.3904 100.848 31.4757C100.432 31.561 100.011 31.6037 99.5845 31.6037ZM101.568 21.5877C101.696 21.8117 101.723 22.0197 101.648 22.2117C101.584 22.393 101.467 22.5317 101.296 22.6277C101.126 22.7237 100.939 22.7557 100.736 22.7237C100.544 22.6917 100.379 22.5797 100.24 22.3877L99.1045 20.7077L97.9685 22.3877C97.8298 22.5797 97.6591 22.6917 97.4565 22.7237C97.2645 22.7557 97.0831 22.7237 96.9125 22.6277C96.7418 22.5317 96.6191 22.393 96.5445 22.2117C96.4805 22.0197 96.5125 21.8117 96.6405 21.5877L97.5685 19.8917C97.7391 19.5717 97.9525 19.3264 98.2085 19.1557C98.4645 18.9744 98.7631 18.8837 99.1045 18.8837C99.4565 18.8837 99.7605 18.9744 100.016 19.1557C100.272 19.3264 100.486 19.5717 100.656 19.8917L101.568 21.5877ZM105.579 31.5717C105.131 31.5717 104.785 31.449 104.539 31.2037C104.294 30.9584 104.171 30.601 104.171 30.1317V24.8357C104.171 24.377 104.289 24.025 104.523 23.7797C104.769 23.5344 105.115 23.4117 105.563 23.4117C106.011 23.4117 106.353 23.5344 106.587 23.7797C106.822 24.025 106.939 24.377 106.939 24.8357V25.5877L106.763 24.9317C107.019 24.4304 107.382 24.0464 107.851 23.7797C108.331 23.513 108.875 23.3797 109.483 23.3797C110.113 23.3797 110.63 23.5024 111.035 23.7477C111.441 23.9824 111.745 24.3557 111.947 24.8677C112.15 25.369 112.251 26.0037 112.251 26.7717V30.1317C112.251 30.601 112.129 30.9584 111.883 31.2037C111.638 31.449 111.286 31.5717 110.827 31.5717C110.369 31.5717 110.017 31.449 109.771 31.2037C109.526 30.9584 109.403 30.601 109.403 30.1317V26.8837C109.403 26.4037 109.318 26.0624 109.147 25.8597C108.987 25.657 108.747 25.5557 108.427 25.5557C108.001 25.5557 107.659 25.6944 107.403 25.9717C107.147 26.2384 107.019 26.601 107.019 27.0597V30.1317C107.019 31.0917 106.539 31.5717 105.579 31.5717Z" fill="white"/>
</g>
</g>
<defs>
<filter id="filter0_dii_346_173" x="19.599" y="17.6702" width="95.0794" height="17.5738" filterUnits="userSpaceOnUse" color-interpolation-filters="sRGB">
<feFlood flood-opacity="0" result="BackgroundImageFix"/>
<feColorMatrix in="SourceAlpha" type="matrix" values="0 0 0 0 0 0 0 0 0 0 0 0 0 0 0 0 0 0 127 0" result="hardAlpha"/>
<feOffset dy="1.21346"/>
<feGaussianBlur stdDeviation="1.21346"/>
<feComposite in2="hardAlpha" operator="out"/>
<feColorMatrix type="matrix" values="0 0 0 0 0.245192 0 0 0 0 0 0 0 0 0 0.147115 0 0 0 0.29 0"/>
<feBlend mode="multiply" in2="BackgroundImageFix" result="effect1_dropShadow_346_173"/>
<feBlend mode="normal" in="SourceGraphic" in2="effect1_dropShadow_346_173" result="shape"/>
<feColorMatrix in="SourceAlpha" type="matrix" values="0 0 0 0 0 0 0 0 0 0 0 0 0 0 0 0 0 0 127 0" result="hardAlpha"/>
<feOffset dy="-0.60673"/>
<feGaussianBlur stdDeviation="0.303365"/>
<feComposite in2="hardAlpha" operator="arithmetic" k2="-1" k3="1"/>
<feColorMatrix type="matrix" values="0 0 0 0 0.740385 0 0 0 0 0 0 0 0 0 0.201333 0 0 0 0.64 0"/>
<feBlend mode="multiply" in2="shape" result="effect2_innerShadow_346_173"/>
<feColorMatrix in="SourceAlpha" type="matrix" values="0 0 0 0 0 0 0 0 0 0 0 0 0 0 0 0 0 0 127 0" result="hardAlpha"/>
<feOffset dy="0.60673"/>
<feGaussianBlur stdDeviation="0.303365"/>
<feComposite in2="hardAlpha" operator="arithmetic" k2="-1" k3="1"/>
<feColorMatrix type="matrix" values="0 0 0 0 1 0 0 0 0 0.677885 0 0 0 0 0.771899 0 0 0 0.23 0"/>
<feBlend mode="normal" in2="effect2_innerShadow_346_173" result="effect3_innerShadow_346_173"/>
</filter>
<linearGradient id="paint0_linear_346_173" x1="63.7639" y1="41.8906" x2="63.7639" y2="9.1831" gradientUnits="userSpaceOnUse">
<stop stop-color="#FF5B8B"/>
<stop offset="1" stop-color="#FC98AF"/>
</linearGradient>
<linearGradient id="paint1_linear_346_173" x1="18.2702" y1="1.50265" x2="8.21859" y2="23.2587" gradientUnits="userSpaceOnUse">
<stop stop-color="#F8C316"/>
<stop offset="1" stop-color="#FF8E0F"/>
</linearGradient>
<radialGradient id="paint2_radial_346_173" cx="0" cy="0" r="1" gradientUnits="userSpaceOnUse" gradientTransform="translate(9.67913 10.0957) scale(12.1515 12.0994)">
<stop offset="0.09" stop-color="#F8FF17"/>
<stop offset="0.18" stop-color="#F8E916"/>
<stop offset="0.29" stop-color="#F8D416"/>
<stop offset="0.39" stop-color="#F8C716"/>
<stop offset="0.49" stop-color="#F8C316"/>
<stop offset="0.65" stop-color="#F1AC10"/>
<stop offset="0.96" stop-color="#E07301"/>
<stop offset="1" stop-color="#DE6D00"/>
</radialGradient>
</defs>
</svg>
